<svg width="1375" height="755" viewBox="0 0 1375 755" fill="none" xmlns="http://www.w3.org/2000/svg">
<g clip-path="url(#clip0_401_1728)">
<path d="M1447.68 -557.325L1343.39 -453.032L1340.54 -455.879C1338.88 -457.541 1336.74 -458.728 1335.68 -458.373C1334.73 -458.136 1331.41 -460.273 1328.56 -463.121C1325.71 -465.969 1322.51 -468.224 1321.44 -467.869C1320.49 -467.632 1317.41 -469.531 1314.91 -472.023C1312.42 -474.515 1309.58 -476.414 1308.63 -476.178C1307.68 -475.941 1304.59 -477.603 1301.87 -479.621C1294.98 -484.843 1288.7 -488.761 1284.66 -490.423C1282.88 -491.255 1278.38 -493.629 1274.58 -495.766C1270.9 -498.021 1266.39 -500.159 1264.73 -500.634C1262.96 -501.228 1260.46 -502.771 1259.28 -503.958C1257.97 -505.263 1256.19 -506.095 1255.36 -505.977C1254.53 -505.858 1250.38 -507.64 1246.23 -509.896C1242.08 -512.389 1238.16 -513.933 1237.57 -513.34C1237.1 -512.866 1235.55 -513.46 1234.37 -514.646C1233.06 -515.952 1231.16 -516.902 1230.1 -516.547C1229.15 -516.31 1226.89 -517.379 1225.23 -519.04C1223.69 -520.583 1221.91 -521.414 1221.2 -520.703C1220.61 -520.11 1219.3 -520.229 1218.47 -521.06C1216.22 -523.315 1205.54 -527.116 1169.72 -538.523C1163.44 -540.543 1157.86 -542.088 1157.15 -542.088C1156.44 -542.089 1153.83 -542.802 1151.1 -543.634C1148.25 -544.584 1145.64 -544.823 1145.05 -544.23C1144.58 -543.756 1143.27 -544.113 1142.2 -545.181C1141.14 -546.249 1138.41 -547.081 1136.16 -546.963C1134.02 -546.965 1130.11 -547.56 1127.38 -548.392C1124.53 -549.342 1121.92 -549.581 1121.33 -548.989C1120.86 -548.515 1119.67 -548.752 1118.84 -549.583C1118.01 -550.414 1115.28 -551.246 1112.79 -551.366C1110.42 -551.367 1105.2 -552.082 1101.41 -552.796C1097.49 -553.391 1092.16 -553.987 1089.43 -554.108C1086.82 -554.109 1081.48 -554.706 1077.69 -555.182C1065.71 -556.969 1014.83 -556.407 1012.94 -554.511C1012.58 -554.155 1009.26 -553.92 1005.82 -554.041C1002.27 -554.043 996.099 -553.573 992.305 -552.864C988.51 -552.154 984.716 -551.682 984.004 -551.683C981.869 -551.921 964.083 -548.375 963.254 -547.545C962.898 -547.19 960.408 -546.835 957.681 -546.718C954.953 -546.602 951.989 -545.773 951.159 -544.944C950.33 -544.114 949.144 -543.878 948.432 -544.59C947.839 -545.183 946.179 -544.71 944.994 -543.524C943.69 -542.221 942.03 -541.51 941.319 -541.748C939.539 -542.579 910.728 -532.991 908.595 -530.858C907.647 -529.91 906.461 -529.673 905.749 -530.385C905.156 -530.979 903.496 -530.505 902.192 -529.202C900.889 -527.898 899.347 -527.306 898.635 -528.018C898.042 -528.611 896.382 -528.138 895.078 -526.834C892.708 -524.464 891.167 -523.872 882.63 -521.031C880.259 -520.321 877.414 -518.663 876.11 -517.359C874.806 -516.055 873.265 -515.463 872.553 -516.175C871.96 -516.769 869.826 -515.821 867.811 -513.807C865.915 -511.91 863.781 -510.726 863.069 -511.438C862.476 -512.031 860.105 -510.847 857.853 -508.595C855.601 -506.343 852.875 -504.566 851.807 -504.922C850.858 -505.16 848.369 -503.857 846.473 -501.961C844.576 -500.065 842.205 -498.643 841.138 -499C840.189 -499.237 837.226 -497.46 834.737 -494.972C832.248 -492.483 829.403 -490.587 828.217 -490.588C826.913 -490.47 823.001 -488.219 819.326 -485.257C815.77 -482.413 806.999 -475.54 800.124 -470.09C777.722 -452.908 715.622 -388.435 716.692 -383.809C716.93 -382.86 714.323 -379.304 710.767 -375.749C707.212 -372.193 704.605 -368.4 704.843 -367.451C705.199 -366.384 702.711 -362.946 699.511 -359.746C696.311 -356.546 693.942 -352.99 694.18 -352.041C694.536 -350.974 692.877 -348.366 690.626 -346.114C688.374 -343.862 686.834 -341.136 687.072 -340.187C687.428 -339.119 686.007 -336.749 684.11 -334.852C682.214 -332.956 680.911 -330.467 681.149 -329.518C681.505 -328.45 680.084 -326.079 678.188 -324.183C676.291 -322.287 674.988 -319.797 675.226 -318.848C675.583 -317.781 674.398 -315.647 672.857 -314.106C671.317 -312.566 670.251 -310.313 670.489 -309.364C670.845 -308.297 669.66 -306.163 668.12 -304.622C666.579 -303.082 665.513 -300.829 665.751 -299.88C666.107 -298.813 664.923 -296.679 663.264 -295.02C661.723 -293.479 660.894 -291.701 661.368 -291.226C661.962 -290.633 660.423 -286.72 658.053 -282.69C655.566 -278.541 654.145 -274.747 654.738 -274.153C655.213 -273.679 654.621 -272.137 653.317 -270.834C652.013 -269.53 651.54 -267.87 652.133 -267.277C652.845 -266.565 652.609 -265.379 651.898 -264.668C650.002 -262.772 640.058 -233.368 640.771 -231.707C641.127 -230.877 640.298 -229.336 638.994 -228.032C637.809 -226.847 637.217 -225.306 637.811 -224.713C638.404 -224.119 638.168 -222.459 637.339 -220.918C635.799 -217.717 633.315 -208.113 633.199 -203.962C633.081 -202.421 632.371 -199.575 631.424 -197.916C630.476 -196.256 630.359 -194.24 630.952 -193.647C631.545 -193.053 631.309 -191.868 630.479 -191.038C629.649 -190.208 628.821 -187.244 628.704 -184.517C628.587 -181.789 628.115 -179.181 627.522 -178.588C626.93 -177.995 626.339 -174.32 626.341 -170.288C626.109 -161.987 625.636 -161.038 623.144 -163.53C621.126 -165.547 620.607 -237.886 622.378 -250.337C622.969 -254.487 623.558 -260.535 623.556 -263.855C623.554 -266.939 624.026 -270.022 624.619 -270.614C625.211 -271.207 625.683 -275.001 625.8 -278.915C625.916 -283.065 626.388 -286.623 626.862 -287.097C627.454 -287.689 628.045 -291.602 628.398 -295.753C628.751 -299.903 629.46 -303.935 629.934 -304.409C630.408 -304.883 630.881 -307.491 630.998 -310.219C631.115 -312.946 631.943 -315.911 632.773 -316.74C633.602 -317.57 633.839 -318.755 633.127 -319.467C632.534 -320.061 633.007 -321.721 634.311 -323.024C635.614 -324.328 636.206 -325.869 635.613 -326.463C635.02 -327.056 635.611 -329.783 636.676 -332.51C637.861 -335.355 638.333 -337.964 637.74 -338.557C637.147 -339.151 637.739 -340.692 639.042 -341.996C640.346 -343.299 640.938 -344.84 640.226 -345.552C639.633 -346.146 640.106 -347.806 641.41 -349.109C642.713 -350.413 643.305 -351.954 642.593 -352.666C642 -353.26 642.473 -354.92 643.777 -356.223C645.081 -357.527 645.673 -359.068 644.961 -359.78C644.367 -360.373 644.841 -362.033 646.144 -363.337C647.448 -364.641 648.04 -366.182 647.328 -366.894C646.735 -367.487 647.208 -369.147 648.512 -370.451C649.815 -371.755 650.407 -373.296 649.695 -374.008C649.102 -374.601 649.575 -376.261 650.879 -377.565C652.183 -378.868 652.775 -380.41 652.063 -381.122C651.469 -381.715 651.943 -383.375 653.128 -384.56C654.432 -385.864 655.379 -387.76 655.023 -388.828C654.785 -389.777 655.851 -392.029 657.51 -393.689C659.051 -395.229 659.88 -397.008 659.168 -397.72C658.574 -398.313 659.285 -400.21 660.826 -401.751C662.485 -403.41 663.669 -405.544 663.313 -406.611C663.075 -407.56 663.904 -409.575 665.208 -410.879C666.393 -412.064 666.985 -413.606 666.273 -414.317C665.679 -414.911 666.627 -417.045 668.523 -418.941C670.538 -420.956 671.959 -423.327 671.603 -424.394C671.365 -425.343 672.431 -427.596 673.972 -429.136C675.513 -430.677 676.697 -432.811 676.341 -433.878C676.103 -434.827 677.406 -437.317 679.302 -439.213C681.198 -441.109 682.62 -443.48 682.263 -444.548C682.026 -445.496 683.566 -448.223 685.817 -450.475C688.069 -452.727 689.728 -455.334 689.371 -456.402C689.134 -457.351 691.029 -460.433 693.518 -462.922C696.007 -465.411 698.021 -468.374 697.664 -469.442C697.427 -470.39 699.441 -473.591 702.285 -476.435C705.129 -479.28 707.262 -482.362 707.261 -483.548C707.378 -486.038 710.933 -490.305 739.019 -522.899C766.867 -555.019 785.593 -572.559 816.175 -595.072C821.509 -598.982 828.384 -604.195 831.703 -606.802C835.021 -609.409 838.696 -611.423 840.001 -611.541C841.187 -611.54 843.913 -613.317 845.928 -615.332C848.061 -617.465 850.788 -619.005 851.737 -618.767C852.685 -618.529 855.412 -620.069 857.664 -622.321C859.916 -624.573 862.642 -626.113 863.591 -625.875C864.659 -625.519 867.385 -627.296 869.637 -629.548C871.889 -631.799 874.26 -632.984 874.853 -632.391C875.565 -631.679 877.699 -632.863 879.595 -634.759C881.61 -636.774 883.744 -637.721 884.337 -637.128C885.049 -636.416 887.183 -637.601 889.079 -639.497C891.094 -641.512 893.228 -642.459 893.821 -641.866C894.533 -641.154 896.074 -641.746 897.378 -643.049C898.682 -644.353 901.408 -645.893 903.305 -646.603C905.321 -647.195 908.522 -648.26 910.419 -648.971C912.435 -649.563 915.043 -651.221 916.346 -652.525C917.65 -653.828 919.31 -654.302 919.903 -653.708C920.615 -652.996 922.156 -653.588 923.46 -654.892C924.764 -656.196 926.424 -656.669 927.017 -656.076C927.729 -655.364 929.033 -655.719 929.981 -656.667C930.929 -657.615 933.182 -658.918 934.96 -659.51C936.62 -659.983 944.445 -662.587 952.152 -665.31C969.225 -670.992 982.267 -675.016 983.928 -675.015C986.299 -675.013 996.496 -677.853 999.341 -679.274C1000.76 -679.985 1002.42 -680.221 1003.02 -679.628C1003.61 -679.034 1004.8 -679.271 1005.63 -680.1C1006.46 -680.93 1009.42 -681.758 1012.15 -681.875C1014.87 -681.992 1017.48 -682.465 1017.96 -682.939C1018.43 -683.413 1022.46 -684.122 1026.61 -684.475C1030.76 -684.828 1034.68 -685.419 1035.27 -686.012C1035.74 -686.486 1039.3 -686.958 1043.45 -687.074C1047.48 -687.071 1051.16 -687.662 1051.75 -688.254C1052.46 -688.966 1055.9 -689.319 1059.34 -689.198C1062.9 -689.196 1069.06 -689.667 1072.86 -690.376C1081.99 -691.912 1144.13 -691.873 1153.5 -690.326C1157.41 -689.731 1164.65 -689.133 1169.63 -688.893C1174.61 -688.89 1179.35 -688.175 1180.06 -687.463C1180.78 -686.751 1183.27 -686.394 1185.52 -686.748C1187.77 -687.103 1190.26 -686.745 1190.98 -686.033C1191.69 -685.322 1195.6 -684.726 1199.52 -684.605C1203.67 -684.484 1207.34 -683.889 1207.82 -683.414C1208.41 -682.821 1210.78 -682.345 1213.27 -682.225C1218.85 -681.866 1228.22 -679.607 1231.78 -677.707C1233.2 -676.995 1234.86 -676.756 1235.45 -677.349C1236.04 -677.942 1237.59 -677.348 1238.89 -676.042C1240.2 -674.737 1241.62 -674.025 1242.21 -674.617C1242.69 -675.091 1244.82 -674.853 1247.08 -674.021C1249.21 -673.308 1260.83 -669.506 1272.81 -665.586C1284.56 -661.665 1295.23 -657.626 1296.3 -656.558C1297.37 -655.49 1298.67 -655.134 1299.15 -655.608C1299.74 -656.2 1303.65 -654.656 1307.69 -652.282C1311.84 -649.789 1315.64 -648.364 1316.23 -648.956C1316.7 -649.43 1318.84 -648.243 1320.74 -646.344C1322.75 -644.327 1324.89 -643.377 1325.48 -643.97C1326.19 -644.681 1328.33 -643.494 1330.23 -641.595C1332.24 -639.578 1334.38 -638.628 1334.97 -639.22C1335.68 -639.931 1337.7 -638.863 1339.6 -636.964C1341.61 -634.947 1344.11 -633.641 1345.05 -633.878C1346.12 -634.233 1348.49 -632.808 1350.39 -630.91C1352.29 -629.011 1354.55 -627.705 1355.49 -627.942C1356.44 -628.178 1359.17 -626.872 1361.66 -625.092C1364.27 -623.43 1369.85 -619.513 1374.12 -616.664C1388.47 -607.05 1398.44 -599.691 1409.71 -590.078C1415.88 -584.857 1421.7 -580.703 1422.64 -580.702C1423.59 -580.701 1429.64 -575.361 1436.05 -568.953L1447.68 -557.325Z" fill="white" fill-opacity="0.06"/>
<path d="M743.44 104.436C740.119 103.248 736.441 101.467 735.255 100.28C734.068 99.0933 732.289 98.2621 731.222 98.6172C730.273 98.8538 728.019 97.7851 726.477 96.2425C724.934 94.6999 722.799 93.5126 721.732 93.8677C720.783 94.1043 718.292 92.7983 716.393 90.8997C714.495 89.0011 712.004 87.6951 711.055 87.9317C709.988 88.2868 707.378 86.625 705.123 84.3704C702.869 82.1158 700.378 80.5726 699.429 80.8092C698.48 81.0458 695.396 79.3836 692.667 77.3659C689.82 75.2296 683.888 71.1939 679.617 68.3451C634.416 38.0771 587.427 -7.01561 556.212 -50.3197C552.651 -55.3026 547.547 -62.0653 544.818 -65.506C541.969 -69.0655 540.307 -72.387 540.9 -72.9795C541.492 -73.5721 539.83 -76.1821 537.22 -78.7927C534.609 -81.4032 533.066 -84.1317 533.659 -84.7243C534.37 -85.4354 533.064 -87.6894 530.809 -89.9439C528.555 -92.1985 526.774 -94.9272 527.129 -95.9942C527.366 -96.9428 526.06 -99.434 524.042 -101.451C522.144 -103.35 521.194 -105.485 521.786 -106.078C522.498 -106.789 521.429 -108.805 519.412 -110.823C517.513 -112.721 516.444 -114.975 517.037 -115.568C517.748 -116.279 516.68 -118.295 514.781 -120.194C512.764 -122.211 511.458 -124.702 511.694 -125.651C512.049 -126.718 510.862 -128.853 509.201 -130.515C507.658 -132.057 506.827 -133.836 507.301 -134.311C507.894 -134.903 506.468 -138.699 503.975 -142.851C501.601 -146.884 500.057 -150.799 500.65 -151.391C501.124 -151.865 500.53 -153.407 499.224 -154.713C497.919 -156.018 497.444 -157.679 498.036 -158.271C498.747 -158.982 498.51 -160.168 497.798 -160.88C496.255 -162.423 483.662 -198.481 483.779 -200.972C483.778 -203.106 480.925 -213.544 479.619 -216.272C478.788 -217.814 478.55 -219.475 479.142 -220.067C479.735 -220.66 479.141 -222.202 477.836 -223.507C476.531 -224.812 475.937 -226.354 476.411 -226.829C477.003 -227.421 476.765 -230.03 475.933 -232.758C474.982 -235.605 474.387 -239.519 474.386 -241.653C474.503 -243.906 474.027 -246.279 473.434 -246.872C472.84 -247.465 472.246 -249.956 472.126 -252.446C472.124 -254.818 471.291 -259.918 470.696 -263.832C469.982 -267.627 469.505 -271.422 469.505 -272.134C469.504 -272.845 469.265 -275.691 468.789 -278.301C465.458 -295.617 465.404 -381.949 468.604 -385.149C469.197 -385.741 469.67 -388.113 469.55 -390.366C469.43 -392.619 469.901 -397.6 470.61 -401.394C471.319 -405.189 471.909 -409.813 471.908 -411.473C471.907 -413.134 472.617 -416.928 473.326 -420.011C474.273 -423.094 474.39 -426.058 473.915 -426.533C473.44 -427.007 473.677 -428.193 474.507 -429.023C475.336 -429.852 476.165 -432.579 476.4 -434.951C476.517 -437.441 477.108 -441.117 477.7 -443.133C478.173 -445.03 479.238 -448.705 479.948 -451.314C480.658 -453.922 481.249 -456.412 481.249 -457.124C481.247 -459.496 484.087 -469.693 485.508 -472.538C486.219 -473.96 486.455 -475.621 485.862 -476.214C485.268 -476.807 485.86 -478.348 487.164 -479.652C488.468 -480.956 489.06 -482.497 488.348 -483.209C487.754 -483.802 488.228 -485.462 489.531 -486.766C490.835 -488.07 491.427 -489.611 490.715 -490.323C490.122 -490.916 490.595 -492.576 491.899 -493.88C493.202 -495.183 493.794 -496.725 493.082 -497.437C492.489 -498.03 492.962 -499.69 494.266 -500.994C495.57 -502.297 496.162 -503.839 495.45 -504.551C494.856 -505.144 495.33 -506.804 496.633 -508.107C497.937 -509.411 498.529 -510.952 497.817 -511.664C497.224 -512.258 497.934 -514.155 499.475 -515.695C501.134 -517.355 502.319 -519.488 501.962 -520.556C501.724 -521.505 502.553 -523.52 503.857 -524.824C505.042 -526.009 505.634 -527.55 504.922 -528.262C504.329 -528.856 504.802 -530.516 505.987 -531.701C507.291 -533.004 508.238 -534.901 507.882 -535.969C507.644 -536.918 508.71 -539.17 510.369 -540.829C511.91 -542.37 512.739 -544.148 512.027 -544.86C511.434 -545.454 512.5 -547.706 514.396 -549.602C516.411 -551.617 517.477 -553.632 516.765 -554.344C516.171 -554.938 516.882 -556.835 518.423 -558.375C520.082 -560.035 521.266 -562.168 520.91 -563.236C520.672 -564.185 521.975 -566.674 523.99 -568.689C525.886 -570.585 526.952 -572.601 526.359 -573.194C525.765 -573.787 526.831 -576.277 528.608 -578.766C533.94 -586.234 537.257 -591.687 538.678 -595.244C539.389 -597.141 541.639 -600.816 543.417 -603.542C545.312 -606.15 549.104 -611.602 551.592 -615.514C573.747 -649.061 612.499 -691.847 642.724 -716.376C650.784 -722.775 660.74 -730.833 665.007 -734.388C669.274 -737.943 673.779 -740.786 675.083 -740.904C676.269 -740.903 679.825 -743.51 682.906 -746.591C685.988 -749.673 689.188 -751.687 689.782 -751.094C690.494 -750.382 693.101 -752.04 695.709 -754.648C698.316 -757.255 701.043 -758.795 701.636 -758.202C702.348 -757.49 704.6 -758.793 706.852 -761.044C709.104 -763.296 711.949 -764.955 712.898 -764.717C713.965 -764.36 716.336 -765.782 718.233 -767.678C720.129 -769.575 722.618 -770.877 723.567 -770.64C724.635 -770.283 726.769 -771.468 728.309 -773.008C729.85 -774.549 732.102 -775.615 733.051 -775.377C734.119 -775.021 736.253 -776.205 737.912 -777.865C739.453 -779.405 741.35 -780.116 741.943 -779.522C742.655 -778.81 744.433 -779.639 745.974 -781.18C747.633 -782.839 749.886 -783.905 750.834 -783.667C751.902 -783.311 753.799 -784.259 755.102 -785.562C756.288 -786.747 757.947 -787.221 758.541 -786.627C759.253 -785.915 760.557 -786.27 761.505 -787.218C762.572 -788.285 766.721 -790.299 770.634 -791.601C774.665 -793.021 778.696 -794.916 779.525 -795.746C780.355 -796.575 781.659 -796.693 782.253 -796.1C782.965 -795.388 784.506 -795.98 785.809 -797.283C787.113 -798.587 788.773 -799.06 789.366 -798.467C790.078 -797.755 791.62 -798.347 792.923 -799.651C794.227 -800.954 795.887 -801.428 796.48 -800.834C797.192 -800.122 798.733 -800.714 800.037 -802.018C801.341 -803.322 802.763 -804.032 803.357 -803.439C803.831 -802.964 806.559 -803.556 809.285 -804.621C815.332 -806.871 814.858 -807.108 816.996 -801.177C817.946 -798.805 818.185 -796.433 817.592 -795.841C817.118 -795.367 817.712 -793.825 819.017 -792.519C820.322 -791.214 820.916 -789.672 820.324 -789.079C819.731 -788.487 819.969 -786.826 820.8 -785.284C822.107 -782.556 824.959 -772.356 824.961 -769.984C824.961 -768.798 828.764 -755.988 831.259 -748.515C832.091 -746.262 832.329 -744.127 831.855 -743.653C831.262 -743.06 831.738 -741.874 832.687 -740.925C833.755 -739.857 834.587 -736.892 834.707 -734.164C834.827 -731.437 835.659 -728.471 836.49 -727.641C837.32 -726.81 837.558 -725.624 836.847 -724.913C836.255 -724.32 836.73 -722.66 838.035 -721.355C839.341 -720.049 839.935 -718.507 839.342 -717.915C838.749 -717.322 838.988 -715.662 839.819 -714.12C841.125 -711.391 843.977 -701.191 843.979 -698.819C843.98 -696.447 846.833 -686.247 848.258 -683.4C848.97 -681.976 849.208 -680.316 848.616 -679.723C848.023 -679.131 848.617 -677.589 849.922 -676.284C851.227 -674.978 851.821 -673.436 851.11 -672.725C850.518 -672.133 850.993 -670.472 852.298 -669.167C854.197 -667.268 853.842 -665.964 850.761 -662.883C848.627 -660.749 845.901 -658.972 844.834 -658.854C843.529 -658.737 837.364 -655.894 831.081 -652.459C824.68 -649.143 818.041 -645.826 816.381 -645.353C814.602 -644.761 812.113 -643.221 810.809 -641.917C809.506 -640.614 807.016 -639.074 805.238 -638.482C799.902 -636.706 791.13 -631.731 788.167 -628.768C786.508 -627.109 784.256 -625.806 783.07 -625.806C781.765 -625.689 778.446 -623.793 775.483 -621.542C772.401 -619.409 766.474 -615.144 762.207 -612.3C718.94 -583.51 669.518 -536.224 640.607 -495.685C637.408 -491.062 632.906 -484.898 630.654 -481.935C628.522 -478.853 626.034 -474.941 625.323 -473.044C624.613 -471.147 622.362 -467.472 620.585 -464.746C618.689 -462.138 615.609 -457.871 614.069 -455.381C612.291 -452.892 611.226 -450.402 611.819 -449.809C612.412 -449.216 611.702 -447.556 610.279 -446.134C607.317 -443.171 601.868 -432.501 601.87 -429.892C601.87 -428.944 600.567 -426.929 599.026 -425.388C597.604 -423.966 596.894 -422.069 597.487 -421.475C598.199 -420.763 597.607 -419.222 596.422 -418.037C595.118 -416.733 594.29 -414.718 594.527 -413.769C594.884 -412.701 593.699 -410.568 592.04 -408.908C590.499 -407.368 589.789 -405.471 590.382 -404.877C591.094 -404.165 590.502 -402.624 589.199 -401.321C587.895 -400.017 587.422 -398.357 588.015 -397.764C588.727 -397.052 588.135 -395.51 586.831 -394.207C585.528 -392.903 585.054 -391.243 585.648 -390.65C586.36 -389.938 585.768 -388.397 584.464 -387.093C583.16 -385.789 582.687 -384.129 583.28 -383.536C583.992 -382.824 583.4 -381.283 582.097 -379.979C580.793 -378.675 580.32 -377.015 580.913 -376.422C581.625 -375.71 581.033 -374.169 579.729 -372.865C578.425 -371.562 577.952 -369.902 578.545 -369.308C579.257 -368.596 578.903 -367.292 577.954 -366.344C576.888 -365.277 576.059 -362.313 575.943 -359.586C575.826 -356.858 574.997 -353.894 574.168 -353.064C573.338 -352.235 573.22 -350.93 573.814 -350.337C574.526 -349.625 574.289 -348.439 573.46 -347.61C572.63 -346.78 571.802 -343.816 571.685 -341.089C571.568 -338.361 571.095 -335.752 570.621 -335.278C570.147 -334.804 569.438 -330.773 569.085 -326.622C568.732 -322.472 568.023 -318.44 567.549 -317.966C566.956 -317.374 566.484 -314.054 566.723 -310.496C566.725 -306.938 566.255 -300.535 565.665 -296.147C564.13 -285.357 564.043 -234.72 565.59 -225.825C566.304 -222.029 566.781 -217.048 566.664 -214.795C566.547 -212.542 566.904 -210.289 567.616 -209.577C568.209 -208.983 568.924 -204.002 569.164 -198.547C569.405 -193.092 570.12 -188.111 570.713 -187.517C571.188 -187.043 571.663 -184.433 571.784 -181.706C571.904 -178.978 572.736 -176.013 573.567 -175.182C574.397 -174.352 574.635 -173.166 574.161 -172.692C573.687 -172.218 574.52 -167.829 576.183 -162.848C577.846 -158.103 578.916 -153.715 578.442 -153.241C577.85 -152.648 578.562 -151.224 579.867 -149.919C581.173 -148.614 581.767 -147.072 581.293 -146.598C580.7 -146.005 583.671 -135.449 588.067 -122.995C592.344 -110.659 596.146 -99.0347 596.621 -97.3742C597.215 -95.595 598.521 -93.341 599.47 -92.3917C600.42 -91.4424 600.776 -90.1377 600.065 -89.4266C599.472 -88.8341 599.948 -87.1735 601.253 -85.8682C602.558 -84.563 604.22 -81.7158 604.933 -79.3436C607.785 -70.8035 608.379 -69.2615 610.633 -67.0069C611.939 -65.7016 612.77 -63.6851 612.533 -62.7365C612.297 -61.788 613.128 -59.7714 614.433 -58.4662C615.62 -57.2795 617.163 -54.7882 617.757 -53.009C618.233 -51.3485 620.489 -46.9594 622.625 -43.1632C624.762 -39.3671 627.018 -34.9779 627.494 -33.3174C628.088 -31.5382 630.462 -28.2162 632.716 -25.9616C634.971 -23.7071 636.395 -21.3344 635.803 -20.7418C635.21 -20.1492 636.754 -17.1836 639.127 -13.8616C641.501 -10.7769 646.13 -4.48884 649.335 0.138091C662.154 18.6458 672.953 31.3414 702.619 61.9556C724.216 84.5008 735.133 94.9434 739.048 96.9618C742.132 98.3868 745.691 101.235 747.115 103.133C749.489 106.218 749.371 106.337 743.44 104.436Z" fill="white" fill-opacity="0.06"/>
<path d="M1037.68 136.518C1034.71 138.532 1030.09 141.969 1027.25 144.101C1024.4 145.997 1021.32 147.655 1020.37 147.418C1019.42 147.18 1016.58 149.076 1014.09 151.564C1011.6 154.053 1008.64 156.067 1007.57 155.711C1006.62 155.473 1004.13 156.776 1002.23 158.672C1000.34 160.568 997.966 161.99 996.899 161.634C995.95 161.396 993.46 162.699 991.564 164.595C989.668 166.491 987.297 167.913 986.229 167.556C985.28 167.319 983.028 168.385 981.487 169.925C979.947 171.466 977.813 172.651 976.745 172.294C975.796 172.056 973.544 173.122 972.003 174.663C970.462 176.204 968.329 177.388 967.261 177.032C966.312 176.794 964.06 177.86 962.4 179.519C960.86 181.06 959.081 181.889 958.369 181.177C957.776 180.584 956.116 181.057 954.931 182.242C953.627 183.546 951.731 184.493 950.663 184.137C949.714 183.899 947.462 184.965 945.803 186.624C944.262 188.165 942.484 188.994 941.772 188.282C941.178 187.689 939.874 187.806 939.163 188.517C937.148 190.532 893.635 205.091 891.974 204.379C891.263 204.141 889.603 204.852 888.299 206.155C887.114 207.341 885.573 207.933 884.861 207.221C884.268 206.627 882.963 206.745 882.134 207.575C881.304 208.404 878.34 209.233 875.612 209.349C872.885 209.466 870.158 210.058 869.447 210.769C868.736 211.48 866.008 212.071 863.281 212.188C860.553 212.305 857.589 213.133 856.76 213.963C855.93 214.792 854.744 215.029 854.27 214.554C853.795 214.079 851.068 214.196 848.222 214.906C845.258 215.734 840.04 216.443 836.364 216.796C832.807 217.031 829.25 217.741 828.657 218.333C828.064 218.926 825.811 219.28 823.558 219.16C821.305 219.04 816.443 219.393 812.767 220.221C806.246 221.284 760.116 222.797 749.442 222.079C746.478 221.958 737.346 221.597 728.926 221.236C720.506 221.112 713.153 220.396 712.679 219.921C712.085 219.328 708.527 218.851 704.377 218.73C700.463 218.609 696.668 218.133 695.956 217.421C695.363 216.827 692.991 216.351 690.738 216.469C688.603 216.467 684.689 215.872 681.961 215.04C679.114 214.09 676.505 213.851 675.913 214.443C675.439 214.918 674.253 214.68 673.422 213.849C672.592 213.018 669.863 212.187 667.492 211.948C665.12 211.946 660.969 211.114 658.241 210.282C655.394 209.331 652.785 209.093 652.192 209.685C651.718 210.159 650.176 209.565 648.871 208.26C647.566 206.955 646.024 206.361 645.431 206.954C644.838 207.546 643.178 207.308 641.755 206.595C637.959 204.696 627.877 202.199 626.336 202.791C625.506 203.146 623.964 202.315 622.658 201.01C621.472 199.823 619.93 199.229 619.219 199.941C618.626 200.533 616.966 200.058 615.66 198.752C614.355 197.447 612.813 196.853 612.102 197.564C611.509 198.157 609.849 197.682 608.544 196.376C607.238 195.071 605.696 194.477 604.985 195.188C604.393 195.781 603.088 195.661 602.257 194.831C601.427 194 597.394 192.1 593.361 190.675C589.446 189.368 585.295 187.349 584.227 186.281C583.277 185.332 581.973 184.975 581.262 185.686C580.669 186.279 579.246 186.041 578.297 185.092C577.347 184.142 575.093 182.836 573.314 182.242C571.653 181.767 568.095 180.342 565.248 179.154C562.52 178.085 558.843 176.541 557.182 176.066C555.403 175.472 553.149 174.166 552.2 173.217C551.25 172.267 548.996 170.961 547.217 170.367C545.557 169.892 541.168 167.636 537.371 165.499C533.575 163.362 529.186 161.106 527.526 160.631C525.746 160.037 522.78 158.019 520.882 156.12C518.865 154.103 516.611 152.797 515.662 153.034C514.713 153.271 511.629 151.608 508.782 149.709C505.934 147.573 501.189 144.012 498.223 141.757C495.138 139.621 491.223 137.128 489.325 136.415C479.599 132.614 449.105 106.387 417.185 74.4673C387.401 44.446 375.296 30.6823 362.358 11.8187C359.154 7.19181 354.287 0.429285 351.202 -3.13028C348.353 -6.68969 345.979 -10.7232 345.86 -12.0277C345.859 -13.2136 344.079 -15.9423 341.943 -18.0782C339.807 -20.2141 338.619 -22.5866 339.212 -23.1792C339.923 -23.8903 338.261 -26.5002 335.651 -29.1108C333.04 -31.7213 331.497 -34.4498 332.089 -35.0424C332.8 -35.7535 331.732 -37.7702 329.833 -39.6687C327.816 -41.686 326.51 -44.1772 326.747 -45.1257C327.102 -46.1928 325.914 -48.3281 324.372 -49.8707C322.829 -51.4133 321.761 -53.6672 321.997 -54.6157C322.352 -55.6828 321.165 -57.8181 319.622 -59.3607C318.08 -60.9033 317.011 -63.1572 317.248 -64.1057C317.603 -65.1728 316.416 -67.3082 314.754 -68.9694C313.212 -70.512 312.499 -72.4099 313.092 -73.0024C313.803 -73.7135 312.971 -75.4929 311.429 -77.0355C309.768 -78.6967 308.699 -80.9506 308.935 -81.8991C309.291 -82.9662 308.459 -84.7456 307.391 -85.8135C306.323 -86.8815 303.829 -92.6938 301.81 -98.5059C299.909 -104.437 297.652 -109.774 296.822 -110.605C295.991 -111.436 295.872 -112.74 296.464 -113.333C297.175 -114.044 296.581 -115.586 295.395 -116.772C294.089 -118.078 293.258 -119.62 293.614 -120.45C293.969 -121.517 289.096 -138.715 285.413 -149.035C284.582 -151.288 284.343 -153.423 284.936 -154.016C285.41 -154.49 285.054 -155.557 284.223 -156.388C283.392 -157.219 282.56 -159.947 282.44 -162.437C282.082 -166.588 281.488 -168.841 278.754 -179.16C277.922 -181.414 277.446 -183.786 277.446 -184.498C277.445 -185.209 276.969 -189.004 276.255 -192.799C275.541 -196.595 275.064 -200.39 275.064 -201.101C275.063 -201.813 274.587 -205.608 273.873 -209.403C273.159 -213.199 272.563 -218.061 272.68 -220.077C272.679 -221.974 272.202 -227.193 271.606 -231.581C270.058 -242.136 269.908 -293.01 271.444 -301.904C272.034 -305.817 272.623 -313.05 272.857 -318.031C272.854 -323.012 273.562 -327.755 274.273 -328.466C274.984 -329.177 275.339 -331.667 274.981 -333.92C274.624 -336.174 274.86 -338.545 275.571 -339.256C276.164 -339.849 276.991 -343.999 277.344 -348.149C277.698 -352.3 278.644 -356.568 279.473 -357.398C280.184 -358.109 280.421 -359.295 279.709 -360.007C279.115 -360.6 279.233 -361.904 280.063 -362.734C280.892 -363.564 281.721 -366.528 281.838 -369.255C281.955 -371.983 282.783 -374.947 283.849 -376.014C284.798 -376.962 285.153 -378.266 284.441 -378.978C283.847 -379.571 284.321 -381.231 285.624 -382.535C287.165 -384.076 288.825 -384.075 290.368 -382.532C291.673 -381.227 293.215 -380.633 293.808 -381.225C294.4 -381.818 296.061 -381.58 297.603 -380.749C301.28 -378.968 311.362 -376.471 313.021 -377.181C313.733 -377.418 315.275 -376.587 316.58 -375.282C317.767 -374.095 319.309 -373.501 319.902 -374.094C320.494 -374.686 322.154 -374.448 323.697 -373.617C327.374 -371.836 337.455 -369.339 339.115 -370.05C339.827 -370.287 341.369 -369.456 342.674 -368.15C343.861 -366.964 345.403 -366.37 345.877 -366.844C346.351 -367.318 350.739 -366.485 355.721 -364.822C360.465 -363.159 364.854 -362.089 365.446 -362.681C365.921 -363.155 367.344 -362.443 368.649 -361.137C369.955 -359.832 371.497 -359.238 372.089 -359.831C372.682 -360.423 374.342 -360.185 375.884 -359.354C379.562 -357.573 389.643 -355.076 391.303 -355.787C392.014 -356.024 393.319 -355.43 394.269 -354.481C395.218 -353.531 398.183 -352.699 400.911 -352.579C403.638 -352.459 406.603 -351.627 407.434 -350.796C408.265 -349.966 409.569 -349.846 410.162 -350.439C410.873 -351.15 412.415 -350.556 413.72 -349.251C415.026 -347.945 416.449 -347.233 417.042 -347.826C417.516 -348.3 419.888 -347.824 422.379 -346.992C426.53 -345.448 426.886 -344.618 426.656 -333.945C426.541 -327.897 425.954 -317.58 425.484 -311.177C424.19 -294.219 424.327 -264.928 425.518 -255.914C426.233 -251.645 426.83 -244.648 426.714 -240.497C426.835 -236.346 427.432 -229.824 428.027 -225.91C428.741 -222.115 429.338 -216.541 429.221 -213.576C429.223 -210.73 429.937 -205.749 430.888 -202.665C431.601 -199.581 431.84 -196.498 431.366 -196.024C430.892 -195.55 431.13 -194.364 431.961 -193.533C432.673 -192.821 433.624 -188.551 433.983 -184.4C434.341 -180.25 435.292 -175.98 436.123 -175.149C436.835 -174.437 437.073 -173.251 436.48 -172.659C435.888 -172.066 436.007 -170.05 436.957 -168.389C437.907 -166.728 438.62 -163.882 438.74 -162.34C438.861 -158.189 441.357 -148.582 443.019 -145.261C443.732 -143.837 443.97 -142.177 443.378 -141.584C442.785 -140.992 443.379 -139.45 444.565 -138.263C445.871 -136.958 446.702 -135.416 446.465 -134.704C445.636 -132.926 450.507 -118.099 452.525 -116.082C453.474 -115.133 453.712 -113.947 453.001 -113.236C452.408 -112.643 452.884 -110.983 454.189 -109.677C455.494 -108.372 456.088 -106.83 455.377 -106.119C454.784 -105.526 454.904 -104.222 455.734 -103.391C456.684 -102.442 458.227 -99.4761 459.178 -96.6294C462.504 -87.1403 465.711 -79.6673 468.916 -73.3801C470.697 -69.94 472.123 -66.1442 472.242 -65.0769C472.48 -63.8908 473.667 -61.7555 475.091 -60.3316C476.634 -58.789 477.702 -56.7723 477.347 -55.7052C477.11 -54.7567 477.942 -52.7402 479.247 -51.4349C480.434 -50.2483 481.977 -47.7569 482.571 -45.9777C484.472 -40.2843 489.339 -31.8615 492.899 -28.3017C494.916 -26.2844 496.46 -23.7931 496.579 -22.4886C496.58 -21.3027 498.598 -17.6252 501.209 -14.3031C503.82 -10.981 509.042 -3.86252 512.84 1.35772C521.268 13.5775 577.513 69.8233 591.039 79.7931C602.428 88.1014 612.394 94.7485 621.529 100.328C625.206 102.583 630.308 105.788 632.799 107.569C635.29 109.349 638.019 110.655 638.967 110.419C639.916 110.182 641.933 111.251 643.475 112.793C645.018 114.336 647.272 115.404 648.22 115.168C649.287 114.813 651.66 116.237 653.559 118.136C655.457 120.035 657.948 121.341 658.897 121.104C659.964 120.749 661.862 121.699 663.167 123.004C664.354 124.191 666.014 124.666 666.607 124.073C667.318 123.362 669.453 124.55 671.352 126.448C673.369 128.465 675.504 129.415 676.097 128.823C676.808 128.112 678.35 128.706 679.655 130.011C680.961 131.316 684.875 133.097 688.552 134.167C692.229 135.237 695.906 136.781 696.855 137.73C697.805 138.679 699.228 138.917 699.82 138.325C700.532 137.614 702.074 138.207 703.379 139.513C704.684 140.818 706.345 141.293 706.937 140.701C707.648 139.99 709.19 140.584 710.496 141.889C711.801 143.194 713.461 143.67 714.054 143.077C714.765 142.366 716.307 142.96 717.612 144.265C718.918 145.57 720.578 146.046 721.171 145.453C721.882 144.742 723.424 145.336 724.729 146.641C726.034 147.947 727.576 148.54 728.051 148.066C728.643 147.474 733.032 148.544 737.776 150.207C742.639 151.989 746.909 152.94 747.502 152.348C747.976 151.874 749.518 152.467 750.823 153.773C752.128 155.078 753.67 155.672 754.144 155.198C754.737 154.605 757.346 154.844 760.193 155.795C762.921 156.626 767.072 157.459 769.444 157.461C771.816 157.699 774.425 158.412 775.137 159.124C775.849 159.836 778.221 160.075 780.474 159.721C782.727 159.366 785.099 159.605 785.811 160.317C786.523 161.029 789.132 161.742 791.622 161.862C793.994 161.864 799.212 162.578 803.008 163.292C806.803 164.006 814.037 164.603 818.899 164.488C823.761 164.372 828.268 164.849 828.861 165.443C830.404 166.985 876.298 167.132 890.765 165.718C897.287 165.129 905.469 164.542 909.026 164.544C912.584 164.783 915.904 164.311 916.616 163.6C917.208 163.007 921.003 162.535 924.916 162.419C929.066 162.303 932.624 161.831 933.098 161.357C933.69 160.764 937.604 160.174 941.754 159.821C945.904 159.467 949.936 158.758 950.41 158.284C950.884 157.81 953.493 157.338 956.22 157.221C958.948 157.104 961.912 156.275 962.741 155.446C963.571 154.616 964.875 154.498 965.469 155.092C966.181 155.804 967.366 155.567 968.196 154.738C969.026 153.908 971.99 153.08 974.717 152.963C977.445 152.846 980.409 152.018 981.357 151.07C982.305 150.122 983.609 149.529 984.44 149.886C985.626 150.361 994.518 147.876 1012.54 141.721C1018.35 139.708 1024.51 137.577 1026.29 137.223C1028.07 136.631 1030.32 135.328 1031.27 134.38C1032.22 133.432 1033.64 133.195 1034.24 133.789C1034.95 134.501 1036.49 133.909 1037.79 132.605C1039.1 131.301 1040.76 130.828 1041.47 131.54C1042.3 132.37 1041 134.149 1037.68 136.518Z" fill="white" fill-opacity="0.06"/>
<path d="M1033.99 312.501C1014.79 327.431 997.957 339.28 984.562 347.217C980.887 349.468 975.79 352.666 973.419 354.325C970.93 356.102 968.44 357.168 967.847 356.575C967.253 355.982 965.594 356.692 964.171 358.114C961.446 360.84 952.673 365.815 947.456 367.472C945.678 368.064 943.188 369.604 942.003 370.789C940.7 372.093 938.921 372.922 938.091 372.803C937.261 372.684 933.111 374.46 928.962 376.711C924.813 379.198 920.901 380.738 920.307 380.144C919.833 379.67 918.529 380.025 917.58 380.973C916.632 381.921 914.261 383.342 912.246 383.934C910.349 384.645 907.148 385.71 905.132 386.302C903.235 387.012 900.745 388.315 899.797 389.263C898.849 390.211 897.545 390.566 896.833 389.854C896.24 389.261 894.58 389.734 893.276 391.038C891.972 392.341 890.431 392.933 889.719 392.221C889.126 391.628 887.466 392.101 886.162 393.405C884.859 394.709 883.317 395.301 882.605 394.589C882.012 393.995 880.708 394.113 879.878 394.943C877.745 397.076 869.09 400.035 868.14 399.086C867.547 398.493 866.124 399.203 864.821 400.507C863.517 401.811 862.094 402.521 861.501 401.928C861.026 401.453 857.706 402.163 854.031 403.702C850.474 405.123 845.969 406.306 844.19 406.424C842.53 406.423 839.091 407.013 836.957 407.724C834.704 408.315 830.91 409.262 828.776 409.972C826.523 410.563 822.61 411.154 820.238 411.39C817.748 411.507 815.139 412.217 814.428 412.928C813.717 413.639 811.346 413.874 809.092 413.517C806.839 413.16 804.467 413.396 803.756 414.107C803.045 414.818 800.437 415.528 797.946 415.645C795.575 415.643 790.476 416.47 786.563 417.061C782.768 417.77 777.907 418.36 775.891 418.24C773.874 418.12 769.013 418.71 765.218 419.419C756.918 420.837 676.871 421.143 675.447 419.72C674.972 419.245 670.11 418.649 664.655 418.408C659.318 418.286 654.456 417.691 653.862 417.097C653.388 416.623 649.948 416.027 646.154 416.025C642.477 415.904 637.259 414.952 634.531 414.121C631.803 413.289 629.194 413.05 628.601 413.642C628.127 414.117 626.941 413.879 626.11 413.048C625.28 412.217 622.552 411.386 620.18 411.147C615.91 410.907 613.657 410.313 603.338 407.579C601.084 406.747 598.712 406.271 598.001 406.271C595.629 406.27 585.429 403.417 582.7 402.111C581.158 401.28 579.498 401.042 578.905 401.634C578.313 402.227 576.77 401.633 575.465 400.328C574.16 399.022 572.618 398.428 571.907 399.14C571.314 399.732 569.654 399.257 568.348 397.951C567.043 396.646 565.501 396.052 564.79 396.763C564.197 397.356 562.537 396.881 561.232 395.575C559.926 394.27 558.384 393.676 557.673 394.387C557.081 394.98 555.776 394.86 554.827 393.911C553.403 392.487 547.947 390.349 534.781 385.953C533.001 385.359 530.747 384.053 529.798 383.104C528.849 382.155 527.544 381.798 526.833 382.509C526.24 383.102 524.105 382.152 522.088 380.135C520.189 378.236 518.054 377.049 517.58 377.523C517.106 377.997 513.547 376.572 509.633 374.316C505.481 372.06 500.854 369.804 499.194 369.329C497.415 368.735 494.686 366.954 493.143 365.412C491.482 363.75 489.347 362.563 488.28 362.918C487.331 363.155 484.603 361.611 482.348 359.357C480.093 357.102 477.602 355.559 476.654 355.796C475.705 356.032 472.858 354.845 470.367 353.064C467.757 351.402 462.537 347.842 458.503 345.23C436.555 330.63 426.708 322.916 399.536 299.3L387.789 288.975L492.082 184.682L495.641 186.582C499.081 188.126 502.284 190.144 517.707 200.589C521.623 203.319 527.791 207.118 531.469 209.373C535.147 211.629 540.248 214.834 542.739 216.614C545.112 218.276 547.603 219.345 548.196 218.752C548.788 218.16 550.449 218.872 551.754 220.177C554.009 222.432 568.956 230.742 578.327 234.899C580.225 235.611 584.14 237.63 587.224 239.055C590.308 240.48 594.46 242.498 596.595 243.448C598.612 244.28 601.933 245.705 604.068 246.655C610.118 249.386 617.591 252.356 620.793 253.425C622.573 254.019 624.827 255.325 625.776 256.274C626.725 257.223 628.148 257.461 628.741 256.869C629.452 256.158 630.994 256.752 632.299 258.057C633.605 259.362 635.265 259.838 635.858 259.245C636.569 258.534 638.111 259.128 639.416 260.433C640.721 261.738 642.382 262.214 642.974 261.621C643.686 260.91 645.228 261.504 646.414 262.691C647.719 263.996 649.262 264.827 650.092 264.472C651.159 264.117 660.885 266.732 671.56 270.296C673.813 271.127 675.948 271.366 676.541 270.773C677.015 270.299 678.438 271.012 679.743 272.317C681.049 273.622 682.591 274.216 683.065 273.742C683.657 273.15 686.266 273.388 689.113 274.339C691.841 275.171 695.992 276.003 698.364 276.005C700.736 276.243 703.464 277.075 704.295 277.906C705.125 278.737 706.43 278.856 707.022 278.263C707.734 277.552 708.92 277.79 709.75 278.621C710.581 279.451 713.309 280.283 715.799 280.403C718.171 280.405 723.389 281.12 727.185 281.833C730.98 282.547 735.605 283.143 737.266 283.144C739.044 283.264 743.907 283.623 748.058 284.218C758.139 285.766 827.868 285.572 829.409 284.031C830.002 283.439 833.796 282.967 837.473 283.088C841.268 283.327 844.825 282.855 845.417 282.263C845.892 281.789 849.923 281.079 854.073 280.726C858.224 280.373 862.492 279.427 863.322 278.597C864.033 277.886 865.219 277.65 865.693 278.125C866.287 278.718 868.896 278.482 871.741 277.535C874.468 276.707 877.077 275.997 877.788 275.997C880.16 275.999 890.357 273.159 893.202 271.738C894.625 271.027 896.285 270.791 896.878 271.384C897.471 271.978 899.013 271.386 900.316 270.082C901.62 268.778 903.28 268.305 903.873 268.898C904.585 269.61 906.126 269.018 907.43 267.715C908.734 266.411 910.394 265.938 910.987 266.531C911.699 267.243 913.24 266.651 914.544 265.347C915.848 264.044 917.508 263.57 918.101 264.164C918.813 264.876 920.354 264.284 921.658 262.98C922.961 261.676 924.621 261.203 925.215 261.796C925.927 262.508 927.231 262.153 928.179 261.205C929.127 260.257 931.38 258.954 933.158 258.362C934.818 257.889 938.493 256.349 941.22 255.284C944.065 254.1 947.622 252.679 949.282 252.206C951.061 251.614 953.55 250.074 954.854 248.77C956.157 247.466 957.817 246.993 958.411 247.586C959.123 248.298 961.256 247.114 963.153 245.217C965.167 243.203 967.301 242.255 967.895 242.849C968.607 243.561 970.622 242.495 972.518 240.598C974.533 238.584 977.023 237.281 977.971 237.518C979.039 237.875 981.765 236.098 984.017 233.846C986.269 231.594 988.521 230.291 989.115 230.884C989.708 231.478 992.672 229.938 995.872 227.45C998.954 225.08 1005.12 220.814 1009.39 217.971C1013.65 215.127 1021.83 209.322 1027.4 205.175C1040.92 195.221 1105.03 130.868 1115.7 116.881C1120.08 110.836 1126.24 103.013 1128.97 99.3382C1131.93 95.6638 1134.18 91.7518 1134.3 90.4474C1134.3 89.2615 1136.31 86.298 1138.68 83.9277C1141.17 81.4389 1143.07 78.594 1142.71 77.5265C1142.47 76.5776 1144.01 73.851 1146.26 71.5992C1148.52 69.3475 1150.17 66.7395 1149.82 65.672C1149.58 64.7232 1150.88 62.2336 1152.78 60.3374C1154.68 58.4412 1156.1 56.0703 1155.74 55.0028C1155.5 54.0539 1156.81 51.5644 1158.58 49.7866C1160.36 48.0089 1161.78 45.6381 1161.9 44.5708C1162.02 43.2664 1164.86 37.1016 1168.18 30.6999C1171.38 24.1795 1174.1 18.3704 1173.98 17.5402C1173.98 16.8287 1175.64 13.0349 1177.89 8.8857C1180.14 4.97369 1181.44 1.2982 1180.97 0.823553C1180.49 0.348906 1181.08 -1.19236 1182.39 -2.49602C1183.69 -3.79969 1184.28 -5.34097 1183.57 -6.05294C1182.98 -6.64625 1183.1 -7.95064 1184.04 -8.89876C1186.06 -10.9135 1190.91 -25.734 1190.2 -27.3947C1189.84 -28.2251 1190.67 -29.7662 1191.98 -31.0699C1193.16 -32.255 1193.75 -33.7963 1193.04 -34.5082C1192.45 -35.1016 1192.92 -36.7615 1194.22 -38.0652C1195.53 -39.3688 1196.12 -40.9101 1195.53 -41.5034C1194.93 -42.0968 1195.17 -43.7568 1196 -45.2979C1197.77 -48.9731 1200.26 -59.0515 1199.67 -60.5936C1199.31 -61.4239 1200.14 -62.965 1201.44 -64.2687C1202.63 -65.4539 1203.22 -66.9951 1202.74 -67.4698C1202.15 -68.0631 1202.39 -70.6718 1203.33 -73.5174C1204.16 -76.2444 1204.75 -80.1575 1204.75 -82.2921C1204.63 -84.5453 1204.99 -86.7983 1205.58 -87.3909C1206.17 -87.9834 1206.88 -92.015 1207.23 -96.1654C1207.82 -103.162 1209.72 -107.904 1211.38 -106.243C1211.73 -105.887 1212.09 -101.973 1212.21 -97.8225C1212.33 -93.4346 1212.46 -85.7263 1212.58 -80.8641C1212.7 -75.7647 1213.18 -71.2581 1213.65 -70.7834C1214.6 -69.8342 1214.37 -57.0268 1213.2 -42.7969C1212.72 -37.8165 1212.25 -29.2785 1212.14 -23.9421C1212.14 -18.7242 1211.44 -11.1349 1210.85 -7.2219C1210.14 -3.42752 1209.66 0.367017 1209.66 1.07855C1209.67 1.79008 1209.19 5.58461 1208.48 9.37899C1207.77 13.1734 1207.18 17.798 1207.19 19.4582C1207.19 21.1184 1206.71 23.0155 1206.24 23.4896C1205.77 23.9637 1205.06 27.2837 1204.82 30.8412C1204.59 34.3987 1203.64 37.9558 1202.93 38.6669C1202.1 39.4965 1201.98 40.8009 1202.57 41.3942C1203.29 42.1061 1203.05 43.2919 1202.22 44.1215C1201.39 44.9511 1200.56 47.9153 1200.45 50.6427C1200.33 53.3702 1199.5 56.3344 1198.43 57.401C1197.49 58.3491 1197.13 59.6534 1197.61 60.128C1198.08 60.6027 1197.25 64.9899 1195.6 69.9696C1193.94 74.7121 1192.87 79.0992 1193.47 79.6925C1193.94 80.1672 1193.23 81.5898 1191.93 82.8935C1190.62 84.1971 1190.15 85.8571 1190.74 86.4504C1191.46 87.1623 1190.86 88.7036 1189.56 90.0073C1188.26 91.3109 1187.78 92.9709 1188.38 93.5642C1189.09 94.2762 1188.5 95.8174 1187.19 97.1211C1185.89 98.4248 1185.42 100.085 1186.01 100.678C1186.72 101.39 1186.48 102.576 1185.65 103.405C1184.83 104.235 1182.93 108.266 1181.51 112.297C1180.21 116.209 1178.19 120.359 1177.13 121.425C1176.18 122.374 1175.82 123.678 1176.3 124.152C1176.89 124.746 1175.47 128.54 1172.98 132.689C1170.61 136.719 1169.08 140.632 1169.67 141.225C1170.14 141.7 1169.08 143.715 1167.06 145.73C1165.17 147.626 1164.1 149.879 1164.69 150.472C1165.41 151.184 1164.58 152.962 1162.92 154.621C1161.26 156.281 1159.48 159.007 1158.89 160.785C1157.11 165.884 1152.26 174.775 1149.53 177.501C1148.23 178.804 1147.28 180.938 1147.52 181.887C1147.87 182.955 1146.22 185.563 1143.96 187.814C1141.71 190.066 1140.17 192.793 1140.41 193.742C1140.77 194.809 1138.52 198.01 1135.67 200.854C1132.83 203.698 1130.69 207.017 1130.93 207.966C1131.29 209.034 1128.33 212.945 1124.53 216.738C1120.74 220.53 1117.78 224.442 1117.66 225.746C1117.55 231.557 1055.68 295.794 1033.99 312.501Z" fill="white" fill-opacity="0.06"/>
<path d="M1161.81 468.761C1157.3 472.079 1151.02 476.7 1147.94 479.07C1144.62 481.439 1141.66 482.979 1141.06 482.386C1140.47 481.793 1138.34 482.977 1136.2 485.11C1132.53 488.784 1124.23 493.76 1118.3 495.654C1116.52 496.246 1113.8 498.023 1112.14 499.682C1110.48 501.341 1108.7 502.17 1107.99 501.458C1107.4 500.865 1105.26 501.812 1103.25 503.827C1101.35 505.723 1099.22 506.908 1098.51 506.196C1097.91 505.602 1095.78 506.55 1093.76 508.565C1091.87 510.461 1089.73 511.645 1089.02 510.933C1088.43 510.34 1087 510.576 1086.06 511.524C1085.11 512.473 1082.74 513.894 1080.72 514.486C1078.83 515.196 1075.62 516.262 1073.61 516.853C1071.71 517.564 1069.22 518.867 1068.27 519.815C1067.33 520.763 1066.02 521.118 1065.31 520.406C1064.72 519.812 1063.41 519.93 1062.46 520.878C1060.33 523.012 1025 534.611 1020.61 534.727C1018.71 534.726 1017.41 533.895 1017.64 532.947C1017.76 531.879 1017.4 529.152 1016.81 526.898C1015.98 524.644 1015.03 520.849 1014.43 518.595C1013.6 516.342 1013.13 513.97 1013.13 513.258C1013.12 510.886 1010.27 500.686 1008.97 497.958C1008.13 496.415 1007.9 494.755 1008.49 494.163C1009.08 493.57 1008.49 492.028 1007.18 490.723C1005.88 489.417 1005.28 487.875 1005.88 487.283C1006.47 486.69 1006.23 485.03 1005.52 483.606C1003.62 479.81 1001.12 469.729 1001.83 468.069C1002.07 467.358 1001.24 465.815 999.932 464.51C998.746 463.324 998.152 461.781 998.745 461.189C999.337 460.596 999.099 458.936 998.386 457.512C996.487 453.716 993.99 443.635 994.701 441.975C994.937 441.264 994.106 439.722 992.801 438.416C991.614 437.23 991.02 435.688 991.613 435.095C992.206 434.502 991.967 432.842 991.255 431.419C989.83 428.572 986.978 418.371 986.976 415.999C986.976 415.288 986.5 412.916 985.906 410.662C980.795 393.227 980.796 393.464 987.79 390.029C990.991 388.49 994.311 387.068 995.141 387.188C996.09 387.188 997.868 386.122 999.053 384.937C1000.24 383.752 1002.61 382.33 1004.39 381.738C1009.6 380.081 1018.38 375.106 1021.1 372.38C1022.52 370.958 1024.18 370.247 1024.78 370.841C1025.37 371.434 1027.86 370.368 1030.35 368.591C1032.72 366.932 1037.82 363.734 1041.49 361.483C1045.17 359.232 1050.5 355.796 1053.35 353.663C1056.07 351.649 1059.16 349.991 1060.1 350.228C1061.05 350.466 1064.02 348.452 1066.86 345.608C1069.71 342.763 1072.79 340.631 1073.97 340.631C1075.28 340.514 1079.78 337.67 1084.05 334.115C1088.32 330.56 1097.32 323.45 1103.84 318.355C1118.9 306.861 1172.23 253.53 1183.25 238.95C1187.75 233.024 1194.15 224.964 1197.23 220.934C1200.43 217.022 1203.04 212.755 1203.15 211.45C1203.15 210.264 1205.17 207.301 1207.54 204.931C1210.03 202.442 1211.92 199.597 1211.57 198.529C1211.33 197.58 1212.87 194.854 1215.12 192.602C1217.37 190.35 1219.03 187.742 1218.67 186.675C1218.44 185.726 1219.38 183.592 1220.81 182.17C1223.65 179.325 1229.22 168.537 1229.1 166.047C1229.1 165.098 1230.4 163.083 1231.94 161.542C1233.36 160.12 1234.19 158.342 1233.48 157.63C1232.89 157.037 1233.95 154.784 1235.85 152.888C1237.86 150.873 1238.93 148.858 1238.22 148.146C1237.62 147.552 1237.86 146.13 1238.81 145.181C1239.76 144.233 1241.18 141.862 1241.77 139.847C1242.48 137.95 1243.55 134.749 1244.14 132.733C1244.85 130.836 1246.15 128.346 1247.1 127.398C1248.05 126.45 1248.4 125.146 1247.69 124.434C1247.1 123.841 1247.57 122.181 1248.87 120.877C1250.18 119.573 1250.77 118.032 1250.06 117.32C1249.46 116.727 1249.94 115.067 1251.12 113.882C1252.43 112.578 1253.25 111.037 1253.02 110.325C1252.66 109.495 1253.61 105.226 1255.26 100.484C1256.8 95.8599 1257.51 91.5911 1256.92 90.9978C1256.44 90.5232 1257.04 88.9819 1258.34 87.6783C1259.64 86.3746 1260.24 84.8333 1259.52 84.1213C1258.93 83.528 1259.05 82.2237 1259.88 81.3941C1260.71 80.5644 1261.54 77.6003 1261.65 74.8728C1261.77 72.1453 1262.24 69.5367 1262.72 69.0626C1263.19 68.5885 1263.9 64.557 1264.25 60.4066C1264.61 56.2563 1265.31 52.2247 1265.91 51.6321C1266.5 51.0396 1266.85 48.7866 1266.73 46.5334C1266.61 44.2801 1267.09 39.5368 1267.68 35.861C1268.86 28.9836 1270.14 -8.60812 1269.54 -18.2141C1269.3 -21.0604 1269.06 -27.9387 1269.06 -33.1566C1268.93 -38.4931 1268.34 -45.9645 1267.74 -49.8783C1267.03 -53.6736 1266.55 -57.4687 1266.55 -58.1802C1266.55 -58.8918 1266.07 -62.6869 1265.36 -66.4821C1264.65 -70.2774 1264.05 -74.9027 1264.05 -76.563C1264.05 -78.2232 1263.33 -82.0185 1262.62 -85.1022C1261.67 -88.1861 1261.55 -91.1509 1262.02 -91.6249C1262.5 -92.099 1261.9 -93.641 1260.6 -94.9463C1259.29 -96.2516 1258.7 -97.7936 1259.17 -98.2676C1259.77 -98.8602 1259.53 -101.469 1258.7 -104.197C1257.74 -107.044 1257.03 -109.653 1257.03 -110.365C1257.03 -112.737 1254.18 -122.937 1252.87 -125.665C1252.04 -127.208 1251.8 -128.868 1252.39 -129.461C1252.99 -130.053 1252.39 -131.595 1251.09 -132.9C1249.78 -134.206 1249.31 -135.866 1249.9 -136.459C1250.61 -137.17 1250.02 -138.712 1248.71 -140.017C1247.41 -141.322 1246.93 -142.983 1247.52 -143.576C1248.23 -144.287 1247.64 -145.829 1246.34 -147.134C1245.03 -148.439 1244.55 -150.1 1245.15 -150.692C1245.86 -151.403 1245.26 -152.945 1243.96 -154.251C1242.65 -155.556 1242.18 -157.217 1242.77 -157.809C1243.48 -158.52 1242.89 -160.062 1241.58 -161.368C1240.28 -162.673 1239.68 -164.215 1240.16 -164.689C1240.75 -165.281 1239.32 -169.077 1236.83 -173.229C1234.46 -177.263 1232.91 -181.177 1233.51 -181.77C1233.98 -182.244 1233.39 -183.786 1232.2 -184.972C1230.89 -186.278 1230.06 -188.294 1230.3 -189.243C1230.65 -190.31 1229.47 -192.445 1227.81 -194.106C1226.26 -195.649 1225.55 -197.547 1226.14 -198.139C1226.85 -198.851 1226.02 -200.63 1224.48 -202.172C1222.82 -203.834 1221.75 -206.088 1221.99 -207.036C1222.34 -208.103 1221.16 -210.239 1219.61 -211.781C1218.07 -213.324 1217 -215.578 1217.24 -216.526C1217.59 -217.593 1216.17 -219.966 1214.15 -221.983C1212.25 -223.882 1211.3 -226.017 1211.9 -226.609C1212.61 -227.321 1211.54 -229.337 1209.52 -231.354C1207.62 -233.253 1206.55 -235.507 1207.15 -236.099C1207.86 -236.811 1206.2 -239.421 1203.7 -241.912C1201.21 -244.404 1199.19 -247.37 1199.43 -248.319C1199.67 -249.267 1198 -252.352 1196.11 -255.199C1193.97 -258.046 1189.34 -264.335 1185.78 -269.317C1170.71 -290.317 1161.09 -301.589 1130.83 -332.796C1109.24 -355.341 1098.2 -365.903 1096.54 -365.904C1093.22 -365.906 1085.74 -373.381 1087.29 -374.922C1088 -375.633 1089.3 -375.277 1090.25 -374.327C1091.2 -373.378 1092.62 -373.14 1093.22 -373.733C1093.93 -374.444 1096.06 -373.256 1097.96 -371.358C1099.98 -369.341 1102.11 -368.391 1102.71 -368.983C1103.42 -369.694 1105.43 -368.626 1107.33 -366.727C1109.35 -364.71 1111.84 -363.404 1112.79 -363.64C1113.86 -363.996 1115.99 -362.808 1117.53 -361.266C1119.08 -359.723 1121.33 -358.654 1122.28 -358.891C1123.35 -359.246 1126.07 -357.466 1128.33 -355.211C1130.58 -352.956 1132.96 -351.769 1133.55 -352.362C1134.26 -353.073 1136.87 -351.411 1139.36 -348.919C1141.85 -346.427 1144.82 -344.409 1145.77 -344.646C1146.6 -344.764 1150.28 -342.746 1153.84 -340.134C1157.39 -337.286 1163.8 -332.776 1167.95 -329.809C1172.22 -326.96 1181.72 -319.601 1189.07 -313.43C1196.31 -307.141 1202.95 -302.156 1203.9 -302.155C1206.04 -302.154 1252.91 -252.673 1264.78 -237.961C1270 -231.317 1277.12 -222.063 1280.68 -217.08C1284.24 -212.097 1288.99 -205.69 1291.25 -202.724C1293.5 -199.758 1295.28 -196.318 1295.4 -195.013C1295.4 -193.827 1297.18 -191.099 1299.2 -189.081C1301.34 -186.946 1303 -184.336 1302.64 -183.268C1302.41 -182.32 1303.71 -179.829 1305.61 -177.93C1307.51 -176.032 1308.93 -173.659 1308.58 -172.592C1308.34 -171.643 1309.65 -169.152 1311.66 -167.135C1313.56 -165.236 1314.63 -163.22 1313.92 -162.509C1313.33 -161.916 1314.4 -159.662 1316.3 -157.764C1318.31 -155.746 1319.38 -153.73 1318.67 -153.019C1318.08 -152.426 1318.55 -150.765 1319.86 -149.46C1321.16 -148.155 1322.83 -145.545 1323.42 -143.529C1324.13 -141.631 1325.2 -138.428 1325.8 -136.412C1326.51 -134.514 1328.05 -131.785 1329.36 -130.48C1330.66 -129.175 1331.26 -127.633 1330.55 -126.922C1329.95 -126.329 1330.19 -124.906 1331.14 -123.957C1332.21 -122.889 1334.23 -118.737 1335.53 -114.823C1336.96 -110.79 1338.86 -106.757 1339.69 -105.926C1340.52 -105.095 1340.76 -103.909 1340.05 -103.198C1339.45 -102.606 1339.93 -100.945 1341.24 -99.6398C1342.54 -98.3345 1343.13 -96.7925 1342.42 -96.0814C1341.83 -95.4888 1342.31 -93.8283 1343.61 -92.523C1344.92 -91.2177 1345.51 -89.6757 1344.8 -88.9646C1344.21 -88.3721 1344.68 -86.7115 1345.99 -85.4063C1347.29 -84.101 1347.89 -82.559 1347.29 -81.9664C1346.7 -81.3738 1346.94 -79.7134 1347.77 -78.1713C1349.55 -74.4939 1352.05 -64.4124 1351.46 -62.8711C1351.1 -62.0412 1351.7 -60.7364 1352.64 -59.7871C1353.59 -58.8378 1354.43 -55.8725 1354.55 -53.1449C1354.67 -50.4173 1355.5 -47.4521 1356.33 -46.6215C1357.16 -45.7908 1357.4 -44.6048 1356.69 -43.8937C1356.09 -43.3012 1356.21 -41.9966 1357.04 -41.166C1357.76 -40.454 1358.71 -36.1842 1359.07 -32.0334C1359.42 -27.8826 1360.38 -23.6129 1361.21 -22.7822C1361.92 -22.0703 1362.16 -20.8842 1361.68 -20.4102C1361.21 -19.9361 1361.33 -16.9713 1362.28 -13.8874C1362.99 -10.8037 1363.71 -7.00842 1363.71 -5.34818C1363.71 -3.68794 1364.3 0.937368 1365.02 4.73264C1365.73 8.5279 1366.21 14.4576 1366.21 17.7781C1366.21 21.0986 1366.81 27.3841 1367.41 31.7723C1368.95 42.3276 1368.98 85.7309 1367.45 96.2843C1366.86 100.672 1366.27 106.719 1366.27 109.565C1366.27 112.412 1365.56 118.341 1365.09 122.609C1364.38 126.878 1363.79 132.451 1363.79 134.823C1363.56 137.195 1362.85 139.803 1362.14 140.514C1361.43 141.226 1361.19 143.597 1361.55 145.851C1361.9 148.104 1361.67 150.476 1360.96 151.187C1360.25 151.898 1359.54 154.506 1359.42 156.997C1359.3 159.25 1358.48 163.4 1357.65 166.127C1356.7 168.972 1356.46 171.581 1357.06 172.174C1357.53 172.649 1356.94 174.19 1355.64 175.494C1354.33 176.798 1353.74 178.339 1354.22 178.814C1354.81 179.407 1354.57 182.016 1353.74 184.743C1352.8 187.588 1352.09 190.197 1352.09 190.908C1352.09 192.094 1348.3 204.899 1345.82 212.369C1344.99 214.622 1344.75 216.756 1345.35 217.349C1345.82 217.824 1345.46 218.891 1344.52 219.839C1343.21 221.143 1338.95 232.287 1334.22 246.989C1333.62 248.768 1332.32 251.02 1331.37 251.968C1330.43 252.916 1330.19 254.339 1330.78 254.933C1331.49 255.645 1330.9 257.186 1329.72 258.371C1328.41 259.675 1327.58 261.69 1327.82 262.639C1328.18 263.707 1326.99 265.84 1325.34 267.5C1323.79 269.04 1323.08 270.937 1323.68 271.531C1324.39 272.243 1323.32 274.258 1321.31 276.273C1319.41 278.169 1318.35 280.421 1318.94 281.015C1319.65 281.727 1318.82 283.505 1317.28 285.046C1315.62 286.705 1314.56 288.957 1314.79 289.906C1315.15 290.974 1313.97 293.108 1312.43 294.648C1310.89 296.189 1309.82 298.442 1310.06 299.39C1310.41 300.458 1308.99 302.829 1307.1 304.725C1305.2 306.621 1303.9 309.111 1304.13 310.06C1304.49 311.127 1302.71 313.854 1300.46 316.105C1298.21 318.357 1297.03 320.728 1297.62 321.322C1298.33 322.033 1296.79 324.523 1294.3 327.012C1291.81 329.501 1289.8 332.464 1289.8 333.65C1289.68 335.903 1286.01 341 1275.82 354.038C1273.21 357.357 1270.49 361.506 1269.78 363.403C1267.41 369.331 1253.31 385.332 1222.73 415.909C1195.12 443.76 1184.8 452.647 1161.81 468.761Z" fill="white" fill-opacity="0.06"/>
<path d="M1549.01 110.272C1546.29 112.998 1544.39 113.234 1540.36 111.808C1537.63 110.739 1534.9 110.144 1534.43 110.618C1533.83 111.211 1532.41 110.499 1531.11 109.193C1529.8 107.888 1528.26 107.294 1527.67 107.887C1527.07 108.479 1525.41 108.241 1523.99 107.529C1520.19 105.629 1510.11 103.132 1508.57 103.724C1507.74 104.08 1506.2 103.249 1504.89 101.943C1503.71 100.757 1502.16 100.163 1501.57 100.755C1500.98 101.348 1499.32 101.11 1497.9 100.397C1494.1 98.4974 1484.02 96.0009 1482.48 96.5928C1481.65 96.9481 1480.1 96.117 1478.8 94.8117C1477.61 93.6251 1476.07 93.0312 1475.48 93.6238C1474.89 94.2163 1473.23 93.9781 1471.8 93.2657C1468.95 91.8409 1458.75 88.9885 1456.38 88.987C1455.2 88.9862 1442.39 85.1835 1434.91 82.6885C1432.66 81.8569 1430.53 81.6185 1430.05 82.0925C1429.46 82.6851 1428.04 81.9727 1426.73 80.6674C1425.43 79.3621 1423.88 78.7682 1423.29 79.3608C1422.7 79.9534 1420.09 79.4774 1417.24 78.2898C1414.51 77.2208 1411.79 76.6261 1411.19 77.2187C1409.65 78.7594 1406.33 74.9625 1406.45 71.5235C1406.45 70.1005 1407.04 65.4759 1407.74 61.6815C1409.4 52.4326 1409.24 -19.3134 1407.69 -28.4456C1406.97 -32.2409 1406.5 -38.1706 1406.49 -41.4911C1406.49 -44.8115 1406.01 -50.7413 1405.3 -54.5365C1404.71 -58.4503 1403.87 -63.5501 1403.87 -65.9219C1403.75 -68.4123 1403.16 -70.903 1402.56 -71.4963C1401.97 -72.0896 1401.49 -74.4617 1401.61 -76.7148C1401.61 -78.8494 1401.01 -82.7632 1400.18 -85.4912C1399.23 -88.3379 1398.99 -90.947 1399.59 -91.5396C1400.06 -92.0137 1399.82 -93.1997 1398.99 -94.0303C1398.16 -94.8609 1397.33 -97.589 1397.21 -100.079C1397.09 -102.333 1396.26 -106.484 1395.42 -109.212C1394.47 -112.059 1394.23 -114.668 1394.83 -115.26C1395.3 -115.734 1394.71 -117.276 1393.52 -118.463C1392.22 -119.768 1391.38 -121.31 1391.74 -122.14C1392.45 -124.037 1389.95 -132.459 1383.3 -151.2C1380.09 -160.333 1377.01 -169.348 1376.53 -171.008C1376.05 -172.906 1374.75 -175.16 1373.8 -176.109C1372.85 -177.058 1372.49 -178.363 1372.97 -178.837C1373.56 -179.43 1372.13 -183.225 1369.64 -187.378C1367.27 -191.411 1365.72 -195.325 1366.32 -195.918C1366.79 -196.392 1365.96 -198.171 1364.42 -199.714C1362.76 -201.375 1361.69 -203.629 1361.92 -204.578C1362.28 -205.645 1361.09 -207.78 1359.55 -209.323C1358.01 -210.865 1356.94 -213.119 1357.17 -214.068C1357.53 -215.135 1356.1 -217.507 1354.09 -219.525C1352.19 -221.423 1351.12 -223.44 1351.71 -224.032C1352.3 -224.625 1351.24 -227.116 1349.57 -229.489C1347.79 -231.98 1344.59 -237.082 1342.33 -240.759C1340.08 -244.437 1336.52 -249.894 1334.14 -252.742C1331.89 -255.708 1329.4 -259.623 1328.68 -261.521C1326.07 -268.163 1314.32 -281.334 1282.88 -313.016C1262.7 -333.189 1247.52 -347.429 1241.82 -351.464C1225.45 -362.622 1218.57 -367.132 1212.52 -370.812C1209.2 -372.712 1204.69 -375.561 1202.31 -377.223C1199.94 -378.647 1196.5 -380.665 1194.6 -381.378C1192.82 -382.209 1188.32 -384.584 1184.52 -386.721C1180.84 -388.976 1176.34 -391.113 1174.67 -391.589C1172.9 -392.183 1170.64 -393.489 1169.69 -394.438C1168.74 -395.387 1167.44 -395.744 1166.73 -395.033C1166.13 -394.44 1164.47 -394.916 1163.29 -396.102C1161.98 -397.408 1160.08 -398.357 1159.02 -398.002C1158.07 -397.766 1155.81 -398.834 1154.15 -400.496C1152.61 -402.038 1150.83 -402.87 1150.12 -402.158C1149.53 -401.566 1148.22 -401.685 1147.39 -402.516C1145.73 -404.177 1135.53 -408.216 1123.19 -412.018C1119.16 -413.206 1112.76 -415.345 1108.84 -416.652C1104.93 -417.959 1101.25 -418.791 1100.42 -418.436C1099.59 -418.081 1097.93 -418.793 1096.63 -420.098C1095.44 -421.285 1093.9 -421.879 1093.3 -421.286C1092.71 -420.694 1091.05 -420.932 1089.63 -421.644C1086.78 -423.069 1076.58 -425.922 1074.21 -425.923C1073.5 -425.924 1070.89 -426.637 1068.16 -427.469C1065.31 -428.419 1062.7 -428.658 1062.11 -428.065C1061.64 -427.591 1060.45 -427.829 1059.5 -428.778C1058.67 -429.609 1054.76 -430.442 1050.73 -430.444C1046.69 -430.684 1042.9 -431.16 1042.42 -431.635C1041.83 -432.228 1038.39 -432.824 1034.6 -433.063C1030.8 -433.065 1023.57 -433.663 1018.47 -434.259C1004.95 -435.928 989.649 -436.53 967.118 -436.07C956.326 -435.958 944.23 -435.728 940.317 -435.612C936.285 -435.614 929.882 -434.907 925.969 -434.316C922.174 -433.607 917.194 -433.136 914.941 -433.256C912.687 -433.376 910.434 -433.022 909.842 -432.429C909.249 -431.836 905.811 -431.246 901.897 -431.129C898.221 -431.013 893.004 -430.068 890.277 -429.239C887.431 -428.292 884.822 -428.057 884.229 -428.65C883.754 -429.125 882.569 -428.888 881.739 -428.059C880.909 -427.229 878.182 -426.401 875.811 -426.165C873.439 -426.166 869.289 -425.339 866.562 -424.51C863.716 -423.563 861.108 -423.328 860.514 -423.921C860.04 -424.396 858.498 -423.804 857.195 -422.5C855.891 -421.197 854.468 -420.486 853.994 -420.961C853.401 -421.554 851.266 -421.318 849.013 -420.489C838.343 -416.938 828.62 -414.335 827.553 -414.692C826.722 -415.048 825.181 -414.219 823.877 -412.915C822.692 -411.73 821.151 -411.138 820.439 -411.85C819.846 -412.443 818.186 -411.97 816.882 -410.666C815.578 -409.363 814.037 -408.771 813.325 -409.483C812.732 -410.076 811.309 -409.84 810.361 -408.892C809.413 -407.943 807.16 -406.64 805.382 -406.049C803.722 -405.575 800.758 -404.51 798.98 -403.681C796.49 -402.615 796.963 -403.801 800.993 -408.542C803.955 -411.979 807.274 -414.586 808.223 -414.348C809.172 -414.11 812.491 -415.768 815.454 -418.02C818.418 -420.271 823.871 -423.825 827.545 -426.076C831.22 -428.327 836.318 -431.526 838.807 -433.303C841.178 -434.962 843.667 -436.028 844.261 -435.434C844.854 -434.841 846.988 -436.026 848.884 -437.922C850.899 -439.937 853.033 -440.884 853.626 -440.291C854.338 -439.579 856.472 -440.763 858.368 -442.659C860.383 -444.674 862.517 -445.622 863.11 -445.028C863.822 -444.316 865.363 -444.908 866.667 -446.212C867.971 -447.516 870.579 -449.174 872.594 -449.766C874.61 -450.358 877.811 -451.423 879.708 -452.133C881.724 -452.725 884.332 -454.384 885.635 -455.687C886.939 -456.991 888.599 -457.464 889.192 -456.871C889.904 -456.159 891.446 -456.751 892.749 -458.055C894.053 -459.358 895.713 -459.832 896.306 -459.238C897.018 -458.526 898.204 -458.763 899.033 -459.592C899.981 -460.54 903.301 -462.199 906.621 -463.382C926.065 -470.249 938.396 -474.036 939.226 -473.205C939.701 -472.73 941.242 -473.322 942.546 -474.626C943.85 -475.93 945.51 -476.403 946.103 -475.81C946.815 -475.098 948.119 -475.453 949.067 -476.401C950.134 -477.467 953.098 -478.296 955.825 -478.413C958.553 -478.53 961.517 -479.358 962.347 -480.187C963.176 -481.017 964.481 -481.135 965.074 -480.542C965.786 -479.83 966.972 -480.066 967.801 -480.896C968.631 -481.725 971.595 -482.553 974.323 -482.67C977.05 -482.787 979.659 -483.26 980.133 -483.734C980.607 -484.208 984.638 -484.917 988.789 -485.27C992.939 -485.624 997.089 -486.451 997.682 -487.044C998.393 -487.755 1000.76 -487.99 1003.02 -487.633C1005.27 -487.276 1007.64 -487.512 1008.35 -488.223C1008.95 -488.815 1014.76 -489.642 1020.92 -489.875C1027.33 -490.109 1035.63 -490.815 1039.66 -491.287C1049.38 -492.704 1090.77 -492.56 1100.61 -491.012C1105 -490.416 1111.17 -489.938 1114.49 -489.936C1117.81 -489.934 1123.74 -489.456 1127.53 -488.742C1131.45 -488.147 1136.55 -487.313 1138.92 -487.312C1141.41 -487.192 1144.02 -486.479 1144.73 -485.767C1145.44 -485.055 1147.82 -484.816 1150.07 -485.17C1152.32 -485.525 1154.69 -485.286 1155.41 -484.574C1156.12 -483.862 1158.73 -483.149 1161.22 -483.029C1163.47 -482.909 1167.62 -482.076 1170.47 -481.126C1173.2 -480.294 1175.81 -480.055 1176.4 -480.648C1176.87 -481.122 1178.18 -480.765 1179.13 -479.816C1180.19 -478.748 1183.16 -477.916 1185.89 -477.796C1188.61 -477.675 1191.58 -476.843 1192.41 -476.013C1193.24 -475.182 1194.31 -474.826 1194.9 -475.418C1195.38 -475.892 1199.76 -474.822 1204.51 -473.159C1209.49 -471.496 1213.88 -470.663 1214.35 -471.137C1214.83 -471.611 1216.37 -471.017 1217.67 -469.712C1218.98 -468.407 1220.64 -467.931 1221.23 -468.524C1221.94 -469.235 1223.13 -468.997 1223.96 -468.166C1224.79 -467.336 1230.13 -465.079 1236.06 -463.178C1241.87 -461.158 1247.68 -458.665 1248.87 -457.478C1249.94 -456.41 1251.48 -456.053 1252.07 -456.646C1252.78 -457.357 1254.33 -456.763 1255.51 -455.576C1256.82 -454.271 1258.83 -453.44 1259.78 -453.676C1260.85 -454.031 1262.99 -452.844 1264.65 -451.183C1266.19 -449.64 1267.97 -448.809 1268.44 -449.283C1268.92 -449.757 1272.47 -448.332 1276.51 -445.958C1280.54 -443.821 1285.17 -441.565 1286.83 -441.089C1288.61 -440.495 1291.1 -438.952 1292.29 -437.765C1293.59 -436.46 1295.61 -435.629 1296.56 -435.865C1297.62 -436.22 1300 -434.796 1302.01 -432.779C1303.91 -430.88 1305.93 -429.811 1306.52 -430.404C1307.11 -430.997 1309.6 -429.928 1312.1 -428.147C1314.47 -426.486 1319.57 -423.281 1323.25 -421.025C1326.93 -418.77 1332.15 -415.446 1334.64 -413.428C1337.25 -411.529 1340.92 -409.274 1342.82 -408.561C1346.38 -407.136 1354.09 -401.32 1369.64 -387.91C1374.62 -383.638 1379.6 -380.314 1380.91 -380.195C1383.87 -380.075 1449.26 -313.032 1459.94 -299.032C1464.09 -293.455 1470.03 -285.862 1472.75 -282.184C1475.72 -278.506 1478.57 -273.998 1479.28 -272.1C1480 -270.202 1482.49 -266.287 1484.63 -263.203C1486.88 -260.237 1490.44 -255.491 1492.58 -252.643C1494.48 -249.796 1496.14 -246.712 1495.9 -245.763C1495.67 -244.815 1496.97 -242.561 1498.87 -240.662C1500.77 -238.763 1502.19 -236.391 1501.84 -235.324C1501.6 -234.375 1503.26 -231.528 1505.52 -229.273C1507.77 -227.019 1509.08 -224.765 1508.37 -224.054C1507.77 -223.461 1508.72 -221.326 1510.62 -219.427C1512.64 -217.41 1514.07 -215.038 1513.71 -213.97C1513.47 -213.022 1514.54 -210.768 1516.2 -209.107C1517.75 -207.564 1518.58 -205.785 1517.87 -205.074C1517.27 -204.481 1517.75 -202.821 1519.05 -201.515C1520.36 -200.21 1522.02 -197.363 1522.73 -194.991C1525.59 -186.451 1526.18 -184.909 1528.55 -182.535C1529.86 -181.23 1530.45 -179.688 1529.74 -178.977C1529.15 -178.384 1529.62 -176.724 1530.93 -175.419C1532.23 -174.113 1532.83 -172.571 1532.12 -171.86C1531.52 -171.268 1531.64 -169.963 1532.47 -169.133C1534.25 -167.353 1544.23 -137.936 1543.52 -136.277C1543.17 -135.447 1544 -133.905 1545.31 -132.599C1546.49 -131.413 1547.09 -129.871 1546.37 -129.16C1545.78 -128.567 1546.26 -126.907 1547.56 -125.601C1548.87 -124.296 1549.46 -122.754 1548.75 -122.043C1548.16 -121.45 1548.28 -120.146 1549.11 -119.315C1549.94 -118.484 1550.77 -115.519 1550.89 -112.792C1551.01 -110.064 1551.84 -107.099 1552.91 -106.031C1553.86 -105.082 1554.22 -103.777 1553.74 -103.303C1553.15 -102.71 1553.39 -100.101 1554.34 -97.2544C1555.17 -94.5264 1555.77 -90.6126 1555.77 -88.478C1555.65 -86.2249 1556.01 -83.9715 1556.6 -83.3782C1557.19 -82.7849 1557.91 -79.4639 1558.15 -75.9062C1558.39 -72.3484 1558.98 -69.1461 1559.46 -68.6715C1559.93 -68.1968 1560.53 -63.8087 1560.77 -59.065C1561.01 -54.3214 1561.6 -49.9332 1562.08 -49.4585C1562.67 -48.8652 1563.03 -42.817 1563.27 -35.9387C1563.28 -29.0606 1563.4 -19.4549 1563.64 -14.4741C1564.24 0.587021 1562.96 38.4159 1561.78 45.5304C1561.19 49.2063 1560.72 52.7637 1560.72 53.4753C1560.72 54.1868 1560.25 57.9813 1559.54 61.7757C1558.95 65.6888 1558.12 70.7875 1558.12 73.1593C1558 75.6496 1557.18 78.3766 1556.35 79.2062C1555.52 80.0358 1555.28 81.2215 1555.76 81.6962C1556.35 82.2895 1556.11 84.8983 1555.28 87.6253C1554.34 90.4708 1553.51 94.6209 1553.51 96.9927C1553.28 99.3643 1552.45 102.091 1551.62 102.921C1550.79 103.751 1550.67 105.055 1551.26 105.648C1551.98 106.36 1550.91 108.376 1549.01 110.272Z" fill="white" fill-opacity="0.06"/>
</g>
<defs>
<clipPath id="clip0_401_1728">
<rect width="1241.82" height="1347.88" fill="white" transform="translate(954.047 -1050.96) rotate(45)"/>
</clipPath>
</defs>
</svg>
