<svg width="92" height="90" viewBox="0 0 92 90" fill="none" xmlns="http://www.w3.org/2000/svg">
<g filter="url(#filter0_d_897_8896)">
<path d="M64 50C62.2338 49.9995 60.518 50.589 59.125 51.675L53.35 47.175C53.7831 46.1727 54.0044 45.0918 54 44C54.0042 43.8163 53.9958 43.6326 53.975 43.45L57.3 42.35C58.3487 43.954 59.9399 45.1267 61.7824 45.6536C63.625 46.1805 65.5956 46.0263 67.3337 45.2192C69.0719 44.4121 70.4612 43.0061 71.2476 41.2585C72.034 39.5109 72.1648 37.5385 71.6161 35.7024C71.0673 33.8662 69.8758 32.2891 68.2594 31.2596C66.6431 30.23 64.7101 29.8169 62.8141 30.0959C60.9182 30.3748 59.186 31.3272 57.9347 32.7786C56.6834 34.2301 55.9966 36.0836 56 38C55.9959 38.1837 56.0042 38.3674 56.025 38.55L52.7 39.65C51.9772 38.5302 50.9852 37.6094 49.8148 36.9718C48.6444 36.3342 47.3328 36.0001 46 36C45.5568 36.0075 45.1144 36.0409 44.675 36.1L42.975 32.25C43.9205 31.5062 44.6843 30.5568 45.2084 29.4739C45.7326 28.3911 46.0033 27.2031 46 26C46 24.4178 45.5308 22.871 44.6518 21.5554C43.7727 20.2398 42.5233 19.2145 41.0615 18.609C39.5997 18.0035 37.9911 17.845 36.4393 18.1537C34.8874 18.4624 33.462 19.2243 32.3432 20.3431C31.2243 21.462 30.4624 22.8874 30.1537 24.4393C29.845 25.9911 30.0035 27.5997 30.609 29.0615C31.2145 30.5233 32.2399 31.7727 33.5555 32.6518C34.871 33.5308 36.4178 34 38 34C38.4432 33.9925 38.8857 33.9591 39.325 33.9L41.025 37.75C40.0795 38.4938 39.3157 39.4432 38.7916 40.5261C38.2675 41.609 37.9968 42.797 38 44C38.0019 45.2684 38.3016 46.5186 38.875 47.65L32.45 53.35C30.9677 52.3578 29.1964 51.8895 27.4174 52.0194C25.6385 52.1493 23.954 52.8699 22.6315 54.0669C21.3091 55.2639 20.4246 56.8685 20.1186 58.6257C19.8126 60.383 20.1027 62.1921 20.9427 63.7656C21.7827 65.3391 23.1244 66.5868 24.7548 67.3103C26.3851 68.0339 28.2105 68.1919 29.9409 67.7591C31.6713 67.3264 33.2075 66.3277 34.3053 64.9219C35.4031 63.5161 35.9996 61.7837 36 60C35.9981 58.7316 35.6984 57.4814 35.125 56.35L41.55 50.65C42.9416 51.5818 44.5913 52.0519 46.265 51.9936C47.9388 51.9352 49.5517 51.3515 50.875 50.325L56.65 54.825C56.217 55.8273 55.9957 56.9082 56 58C56 59.5823 56.4692 61.129 57.3483 62.4446C58.2273 63.7602 59.4767 64.7855 60.9385 65.391C62.4004 65.9965 64.0089 66.155 65.5607 65.8463C67.1126 65.5376 68.538 64.7757 69.6569 63.6569C70.7757 62.538 71.5376 61.1126 71.8463 59.5607C72.155 58.0089 71.9965 56.4003 71.391 54.9385C70.7855 53.4767 69.7602 52.2273 68.4446 51.3482C67.129 50.4692 65.5823 50 64 50ZM64 34C64.7911 34 65.5645 34.2346 66.2223 34.6741C66.8801 35.1137 67.3928 35.7384 67.6955 36.4693C67.9983 37.2002 68.0775 38.0044 67.9232 38.7804C67.7688 39.5563 67.3878 40.269 66.8284 40.8284C66.269 41.3878 65.5563 41.7688 64.7804 41.9231C64.0044 42.0775 63.2002 41.9983 62.4693 41.6955C61.7384 41.3928 61.1137 40.8801 60.6741 40.2223C60.2346 39.5645 60 38.7911 60 38C60 36.9391 60.4214 35.9217 61.1716 35.1716C61.9217 34.4214 62.9391 34 64 34ZM34 26C34 25.2089 34.2346 24.4355 34.6741 23.7777C35.1137 23.1199 35.7384 22.6072 36.4693 22.3045C37.2002 22.0017 38.0044 21.9225 38.7804 22.0769C39.5563 22.2312 40.269 22.6122 40.8284 23.1716C41.3878 23.731 41.7688 24.4437 41.9232 25.2196C42.0775 25.9956 41.9983 26.7998 41.6955 27.5307C41.3928 28.2616 40.8801 28.8864 40.2223 29.3259C39.5645 29.7654 38.7911 30 38 30C36.9391 30 35.9217 29.5786 35.1716 28.8284C34.4214 28.0783 34 27.0609 34 26ZM28 64C27.2089 64 26.4355 63.7654 25.7777 63.3259C25.1199 62.8864 24.6072 62.2616 24.3045 61.5307C24.0017 60.7998 23.9225 59.9956 24.0769 59.2196C24.2312 58.4437 24.6122 57.731 25.1716 57.1716C25.731 56.6122 26.4437 56.2312 27.2197 56.0769C27.9956 55.9225 28.7998 56.0017 29.5307 56.3045C30.2617 56.6072 30.8864 57.1199 31.3259 57.7777C31.7654 58.4355 32 59.2089 32 60C32 61.0609 31.5786 62.0783 30.8284 62.8284C30.0783 63.5786 29.0609 64 28 64ZM64 62C63.2089 62 62.4355 61.7654 61.7777 61.3259C61.1199 60.8864 60.6072 60.2616 60.3045 59.5307C60.0017 58.7998 59.9225 57.9956 60.0769 57.2196C60.2312 56.4437 60.6122 55.731 61.1716 55.1716C61.731 54.6122 62.4437 54.2312 63.2197 54.0769C63.9956 53.9225 64.7998 54.0017 65.5307 54.3045C66.2617 54.6072 66.8864 55.1199 67.3259 55.7777C67.7654 56.4355 68 57.2089 68 58C68 59.0609 67.5786 60.0783 66.8284 60.8284C66.0783 61.5786 65.0609 62 64 62Z" fill="white"/>
</g>
<defs>
<filter id="filter0_d_897_8896" x="0" y="0" width="92" height="89.9982" filterUnits="userSpaceOnUse" color-interpolation-filters="sRGB">
<feFlood flood-opacity="0" result="BackgroundImageFix"/>
<feColorMatrix in="SourceAlpha" type="matrix" values="0 0 0 0 0 0 0 0 0 0 0 0 0 0 0 0 0 0 127 0" result="hardAlpha"/>
<feOffset dy="2"/>
<feGaussianBlur stdDeviation="10"/>
<feComposite in2="hardAlpha" operator="out"/>
<feColorMatrix type="matrix" values="0 0 0 0 1 0 0 0 0 1 0 0 0 0 1 0 0 0 1 0"/>
<feBlend mode="normal" in2="BackgroundImageFix" result="effect1_dropShadow_897_8896"/>
<feBlend mode="normal" in="SourceGraphic" in2="effect1_dropShadow_897_8896" result="shape"/>
</filter>
</defs>
</svg>
