<svg width="100" height="88" viewBox="0 0 100 88" fill="none" xmlns="http://www.w3.org/2000/svg">
<g filter="url(#filter0_d_897_8899)">
<path d="M80 61.9998C80 62.5302 79.7893 63.0389 79.4142 63.414C79.0391 63.7891 78.5304 63.9998 78 63.9998H22C21.4696 63.9998 20.9609 63.7891 20.5858 63.414C20.2107 63.0389 20 62.5302 20 61.9998C20 61.4694 20.2107 60.9607 20.5858 60.5856C20.9609 60.2105 21.4696 59.9998 22 59.9998H78C78.5304 59.9998 79.0391 60.2105 79.4142 60.5856C79.7893 60.9607 80 61.4694 80 61.9998ZM22.075 34.5498C21.9558 34.1306 21.9768 33.684 22.1347 33.2779C22.2927 32.8717 22.5789 32.5283 22.95 32.2998L48.95 16.2998C49.2646 16.1023 49.6285 15.9976 50 15.9976C50.3715 15.9976 50.7354 16.1023 51.05 16.2998L77.05 32.2998C77.4194 32.5287 77.7042 32.8718 77.8613 33.2771C78.0183 33.6823 78.0391 34.1277 77.9205 34.5458C77.8018 34.9639 77.5502 35.332 77.2037 35.5943C76.8572 35.8567 76.4346 35.999 76 35.9998H70V51.9998H74C74.5304 51.9998 75.0391 52.2105 75.4142 52.5856C75.7893 52.9607 76 53.4694 76 53.9998C76 54.5302 75.7893 55.0389 75.4142 55.414C75.0391 55.7891 74.5304 55.9998 74 55.9998H26C25.4696 55.9998 24.9609 55.7891 24.5858 55.414C24.2107 55.0389 24 54.5302 24 53.9998C24 53.4694 24.2107 52.9607 24.5858 52.5856C24.9609 52.2105 25.4696 51.9998 26 51.9998H30V35.9998H24C23.5651 36.0003 23.1419 35.859 22.7946 35.5973C22.4472 35.3357 22.1946 34.9679 22.075 34.5498ZM54 49.9998C54 50.5302 54.2107 51.0389 54.5858 51.414C54.9609 51.7891 55.4696 51.9998 56 51.9998C56.5304 51.9998 57.0391 51.7891 57.4142 51.414C57.7893 51.0389 58 50.5302 58 49.9998V37.9998C58 37.4694 57.7893 36.9607 57.4142 36.5856C57.0391 36.2105 56.5304 35.9998 56 35.9998C55.4696 35.9998 54.9609 36.2105 54.5858 36.5856C54.2107 36.9607 54 37.4694 54 37.9998V49.9998ZM42 49.9998C42 50.5302 42.2107 51.0389 42.5858 51.414C42.9609 51.7891 43.4696 51.9998 44 51.9998C44.5304 51.9998 45.0391 51.7891 45.4142 51.414C45.7893 51.0389 46 50.5302 46 49.9998V37.9998C46 37.4694 45.7893 36.9607 45.4142 36.5856C45.0391 36.2105 44.5304 35.9998 44 35.9998C43.4696 35.9998 42.9609 36.2105 42.5858 36.5856C42.2107 36.9607 42 37.4694 42 37.9998V49.9998Z" fill="white"/>
</g>
<defs>
<filter id="filter0_d_897_8899" x="0" y="-0.00244141" width="100" height="88.0022" filterUnits="userSpaceOnUse" color-interpolation-filters="sRGB">
<feFlood flood-opacity="0" result="BackgroundImageFix"/>
<feColorMatrix in="SourceAlpha" type="matrix" values="0 0 0 0 0 0 0 0 0 0 0 0 0 0 0 0 0 0 127 0" result="hardAlpha"/>
<feOffset dy="4"/>
<feGaussianBlur stdDeviation="10"/>
<feComposite in2="hardAlpha" operator="out"/>
<feColorMatrix type="matrix" values="0 0 0 0 1 0 0 0 0 1 0 0 0 0 1 0 0 0 0.7 0"/>
<feBlend mode="normal" in2="BackgroundImageFix" result="effect1_dropShadow_897_8899"/>
<feBlend mode="normal" in="SourceGraphic" in2="effect1_dropShadow_897_8899" result="shape"/>
</filter>
</defs>
</svg>
