<svg width="148" height="148" viewBox="0 0 148 148" fill="none" xmlns="http://www.w3.org/2000/svg">
<g filter="url(#filter0_d_986_563)">
<path d="M102.437 79.625C102.446 80.7785 102.095 81.906 101.433 82.8509C100.772 83.7959 99.8324 84.5115 98.7457 84.8984L80.3941 91.6484L73.6441 110C73.2446 111.076 72.5251 112.005 71.5824 112.661C70.6397 113.316 69.519 113.668 68.3707 113.668C67.2224 113.668 66.1017 113.316 65.159 112.661C64.2163 112.005 63.4968 111.076 63.0973 110L56.3473 91.6484L37.9957 84.8984C36.9192 84.4989 35.9908 83.7794 35.3352 82.8367C34.6795 81.894 34.3281 80.7733 34.3281 79.625C34.3281 78.4767 34.6795 77.356 35.3352 76.4133C35.9908 75.4706 36.9192 74.7511 37.9957 74.3516L56.3473 67.6016L63.0973 49.25C63.4968 48.1735 64.2163 47.2451 65.159 46.5895C66.1017 45.9338 67.2224 45.5824 68.3707 45.5824C69.519 45.5824 70.6397 45.9338 71.5824 46.5895C72.5251 47.2451 73.2446 48.1735 73.6441 49.25L80.3941 67.6016L98.7457 74.3516C99.8324 74.7385 100.772 75.4541 101.433 76.3991C102.095 77.344 102.446 78.4715 102.437 79.625V79.625ZM82.4332 45.875H88.0582V51.5C88.0582 52.2459 88.3545 52.9613 88.882 53.4887C89.4094 54.0162 90.1248 54.3125 90.8707 54.3125C91.6166 54.3125 92.332 54.0162 92.8594 53.4887C93.3869 52.9613 93.6832 52.2459 93.6832 51.5V45.875H99.3082C100.054 45.875 100.769 45.5787 101.297 45.0512C101.824 44.5238 102.121 43.8084 102.121 43.0625C102.121 42.3166 101.824 41.6012 101.297 41.0738C100.769 40.5463 100.054 40.25 99.3082 40.25H93.6832V34.625C93.6832 33.8791 93.3869 33.1637 92.8594 32.6363C92.332 32.1088 91.6166 31.8125 90.8707 31.8125C90.1248 31.8125 89.4094 32.1088 88.882 32.6363C88.3545 33.1637 88.0582 33.8791 88.0582 34.625V40.25H82.4332C81.6873 40.25 80.9719 40.5463 80.4445 41.0738C79.917 41.6012 79.6207 42.3166 79.6207 43.0625C79.6207 43.8084 79.917 44.5238 80.4445 45.0512C80.9719 45.5787 81.6873 45.875 82.4332 45.875ZM113.371 57.125H110.558V54.3125C110.558 53.5666 110.262 52.8512 109.734 52.3238C109.207 51.7963 108.492 51.5 107.746 51.5C107 51.5 106.284 51.7963 105.757 52.3238C105.23 52.8512 104.933 53.5666 104.933 54.3125V57.125H102.121C101.375 57.125 100.659 57.4213 100.132 57.9488C99.6045 58.4762 99.3082 59.1916 99.3082 59.9375C99.3082 60.6834 99.6045 61.3988 100.132 61.9262C100.659 62.4537 101.375 62.75 102.121 62.75H104.933V65.5625C104.933 66.3084 105.23 67.0238 105.757 67.5512C106.284 68.0787 107 68.375 107.746 68.375C108.492 68.375 109.207 68.0787 109.734 67.5512C110.262 67.0238 110.558 66.3084 110.558 65.5625V62.75H113.371C114.117 62.75 114.832 62.4537 115.359 61.9262C115.887 61.3988 116.183 60.6834 116.183 59.9375C116.183 59.1916 115.887 58.4762 115.359 57.9488C114.832 57.4213 114.117 57.125 113.371 57.125Z" fill="white"/>
</g>
<defs>
<filter id="filter0_d_986_563" x="14.3281" y="15.8125" width="121.855" height="121.855" filterUnits="userSpaceOnUse" color-interpolation-filters="sRGB">
<feFlood flood-opacity="0" result="BackgroundImageFix"/>
<feColorMatrix in="SourceAlpha" type="matrix" values="0 0 0 0 0 0 0 0 0 0 0 0 0 0 0 0 0 0 127 0" result="hardAlpha"/>
<feOffset dy="4"/>
<feGaussianBlur stdDeviation="10"/>
<feComposite in2="hardAlpha" operator="out"/>
<feColorMatrix type="matrix" values="0 0 0 0 1 0 0 0 0 1 0 0 0 0 1 0 0 0 0.25 0"/>
<feBlend mode="normal" in2="BackgroundImageFix" result="effect1_dropShadow_986_563"/>
<feBlend mode="normal" in="SourceGraphic" in2="effect1_dropShadow_986_563" result="shape"/>
</filter>
</defs>
</svg>
