<svg width="153" height="142" viewBox="0 0 153 142" fill="none" xmlns="http://www.w3.org/2000/svg">
<path d="M155.496 51.752L133.971 110.161C133.334 111.877 132.186 113.358 130.683 114.403C129.18 115.448 127.393 116.009 125.562 116.009C123.732 116.009 121.945 115.448 120.442 114.403C118.938 113.358 117.791 111.877 117.154 110.161L95.6292 51.752C95.1749 50.5191 94.4586 49.3995 93.5295 48.4704C92.6004 47.5414 91.4808 46.825 90.248 46.3707L31.839 24.8457C30.1226 24.2086 28.6422 23.0615 27.5969 21.5584C26.5515 20.0554 25.9912 18.2684 25.9912 16.4375C25.9912 14.6067 26.5515 12.8197 27.5969 11.3166C28.6422 9.81357 30.1226 8.66643 31.839 8.02932L90.248 -13.4957C91.4808 -13.9499 92.6004 -14.6663 93.5295 -15.5954C94.4586 -16.5245 95.1749 -17.6441 95.6292 -18.8769L117.154 -77.2859C117.791 -79.0023 118.938 -80.4826 120.442 -81.528C121.945 -82.5734 123.732 -83.1337 125.562 -83.1337C127.393 -83.1337 129.18 -82.5734 130.683 -81.528C132.186 -80.4826 133.334 -79.0023 133.971 -77.2859L155.496 -18.8769C155.95 -17.6441 156.666 -16.5245 157.595 -15.5954C158.524 -14.6663 159.644 -13.9499 160.877 -13.4957L219.286 8.02932C221.002 8.66643 222.483 9.81357 223.528 11.3166C224.573 12.8197 225.134 14.6067 225.134 16.4375C225.134 18.2684 224.573 20.0554 223.528 21.5584C222.483 23.0615 221.002 24.2086 219.286 24.8457L160.877 46.3707C159.644 46.825 158.524 47.5414 157.595 48.4704C156.666 49.3995 155.95 50.5191 155.496 51.752V51.752Z" stroke="white" stroke-opacity="0.1" stroke-linecap="round" stroke-linejoin="round"/>
</svg>
