<svg width="88" height="92" viewBox="0 0 88 92" fill="none" xmlns="http://www.w3.org/2000/svg">
<g filter="url(#filter0_d_897_8893)">
<path d="M44 16C30.55 16 20 22.15 20 30V54C20 61.85 30.55 68 44 68C57.45 68 68 61.85 68 54V30C68 22.15 57.45 16 44 16ZM64 42C64 44.4 62.025 46.85 58.6 48.725C54.725 50.85 49.55 52 44 52C38.45 52 33.275 50.85 29.4 48.725C25.975 46.85 24 44.4 24 42V37.85C28.275 41.575 35.55 44 44 44C52.45 44 59.725 41.575 64 37.85V42ZM58.6 60.725C54.725 62.85 49.55 64 44 64C38.45 64 33.275 62.85 29.4 60.725C25.975 58.85 24 56.4 24 54V49.85C28.275 53.575 35.55 56 44 56C52.45 56 59.725 53.575 64 49.85V54C64 56.4 62.025 58.85 58.6 60.725Z" fill="white"/>
</g>
<defs>
<filter id="filter0_d_897_8893" x="0" y="0" width="88" height="92" filterUnits="userSpaceOnUse" color-interpolation-filters="sRGB">
<feFlood flood-opacity="0" result="BackgroundImageFix"/>
<feColorMatrix in="SourceAlpha" type="matrix" values="0 0 0 0 0 0 0 0 0 0 0 0 0 0 0 0 0 0 127 0" result="hardAlpha"/>
<feOffset dy="4"/>
<feGaussianBlur stdDeviation="10"/>
<feComposite in2="hardAlpha" operator="out"/>
<feColorMatrix type="matrix" values="0 0 0 0 1 0 0 0 0 1 0 0 0 0 1 0 0 0 0.55 0"/>
<feBlend mode="normal" in2="BackgroundImageFix" result="effect1_dropShadow_897_8893"/>
<feBlend mode="normal" in="SourceGraphic" in2="effect1_dropShadow_897_8893" result="shape"/>
</filter>
</defs>
</svg>
