<svg width="191" height="174" viewBox="0 0 191 174" fill="none" xmlns="http://www.w3.org/2000/svg">
<path d="M149.5 52.5312C164.981 52.5312 177.531 39.9812 177.531 24.5C177.531 9.01877 164.981 -3.53125 149.5 -3.53125C134.019 -3.53125 121.469 9.01877 121.469 24.5C121.469 39.9812 134.019 52.5312 149.5 52.5312Z" stroke="white" stroke-opacity="0.2" stroke-linecap="round" stroke-linejoin="round"/>
<path d="M65.4062 127.281C80.8875 127.281 93.4375 114.731 93.4375 99.25C93.4375 83.7688 80.8875 71.2188 65.4062 71.2188C49.925 71.2188 37.375 83.7688 37.375 99.25C37.375 114.731 49.925 127.281 65.4062 127.281Z" stroke="white" stroke-opacity="0.2" stroke-linecap="round" stroke-linejoin="round"/>
<path d="M206.964 5.34534L176.13 15.6235" stroke="white" stroke-opacity="0.2" stroke-linecap="round" stroke-linejoin="round"/>
<path d="M211.517 72.7362L171.573 41.6682" stroke="white" stroke-opacity="0.2" stroke-linecap="round" stroke-linejoin="round"/>
<path d="M128.592 43.0712L86.311 80.6798" stroke="white" stroke-opacity="0.2" stroke-linecap="round" stroke-linejoin="round"/>
</svg>
