<svg width="115" height="115" viewBox="0 0 115 115" fill="none" xmlns="http://www.w3.org/2000/svg">
<g filter="url(#filter0_d_935_24721)">
<g filter="url(#filter1_d_935_24721)">
<path d="M77.2221 58C77.2281 58.8202 76.9786 59.622 76.5082 60.294C76.0378 60.966 75.3699 61.4749 74.5971 61.75L61.5471 66.55L56.7471 79.6C56.463 80.3655 55.9514 81.0257 55.281 81.4919C54.6106 81.9582 53.8137 82.2081 52.9971 82.2081C52.1806 82.2081 51.3836 81.9582 50.7132 81.4919C50.0429 81.0257 49.5313 80.3655 49.2471 79.6L44.4471 66.55L31.3971 61.75C30.6316 61.4659 29.9714 60.9542 29.5052 60.2839C29.039 59.6135 28.7891 58.8165 28.7891 58C28.7891 57.1835 29.039 56.3865 29.5052 55.7161C29.9714 55.0458 30.6316 54.5341 31.3971 54.25L44.4471 49.45L49.2471 36.4C49.5313 35.6345 50.0429 34.9743 50.7132 34.5081C51.3836 34.0418 52.1806 33.7919 52.9971 33.7919C53.8137 33.7919 54.6106 34.0418 55.281 34.5081C55.9514 34.9743 56.463 35.6345 56.7471 36.4L61.5471 49.45L74.5971 54.25C75.3699 54.5251 76.0378 55.034 76.5082 55.706C76.9786 56.378 77.2281 57.1798 77.2221 58V58ZM62.9971 34H66.9971V38C66.9971 38.5304 67.2078 39.0391 67.5829 39.4142C67.958 39.7893 68.4667 40 68.9971 40C69.5276 40 70.0363 39.7893 70.4113 39.4142C70.7864 39.0391 70.9971 38.5304 70.9971 38V34H74.9971C75.5276 34 76.0363 33.7893 76.4113 33.4142C76.7864 33.0391 76.9971 32.5304 76.9971 32C76.9971 31.4696 76.7864 30.9609 76.4113 30.5858C76.0363 30.2107 75.5276 30 74.9971 30H70.9971V26C70.9971 25.4696 70.7864 24.9609 70.4113 24.5858C70.0363 24.2107 69.5276 24 68.9971 24C68.4667 24 67.958 24.2107 67.5829 24.5858C67.2078 24.9609 66.9971 25.4696 66.9971 26V30H62.9971C62.4667 30 61.958 30.2107 61.5829 30.5858C61.2078 30.9609 60.9971 31.4696 60.9971 32C60.9971 32.5304 61.2078 33.0391 61.5829 33.4142C61.958 33.7893 62.4667 34 62.9971 34ZM84.9971 42H82.9971V40C82.9971 39.4696 82.7864 38.9609 82.4113 38.5858C82.0363 38.2107 81.5276 38 80.9971 38C80.4667 38 79.958 38.2107 79.5829 38.5858C79.2078 38.9609 78.9971 39.4696 78.9971 40V42H76.9971C76.4667 42 75.958 42.2107 75.5829 42.5858C75.2078 42.9609 74.9971 43.4696 74.9971 44C74.9971 44.5304 75.2078 45.0391 75.5829 45.4142C75.958 45.7893 76.4667 46 76.9971 46H78.9971V48C78.9971 48.5304 79.2078 49.0391 79.5829 49.4142C79.958 49.7893 80.4667 50 80.9971 50C81.5276 50 82.0363 49.7893 82.4113 49.4142C82.7864 49.0391 82.9971 48.5304 82.9971 48V46H84.9971C85.5276 46 86.0363 45.7893 86.4113 45.4142C86.7864 45.0391 86.9971 44.5304 86.9971 44C86.9971 43.4696 86.7864 42.9609 86.4113 42.5858C86.0363 42.2107 85.5276 42 84.9971 42Z" fill="white"/>
</g>
</g>
<defs>
<filter id="filter0_d_935_24721" x="18.6529" y="17.7686" width="76.6942" height="76.6942" filterUnits="userSpaceOnUse" color-interpolation-filters="sRGB">
<feFlood flood-opacity="0" result="BackgroundImageFix"/>
<feColorMatrix in="SourceAlpha" type="matrix" values="0 0 0 0 0 0 0 0 0 0 0 0 0 0 0 0 0 0 127 0" result="hardAlpha"/>
<feOffset dy="2.1157"/>
<feGaussianBlur stdDeviation="3.17355"/>
<feComposite in2="hardAlpha" operator="out"/>
<feColorMatrix type="matrix" values="0 0 0 0 1 0 0 0 0 1 0 0 0 0 1 0 0 0 1 0"/>
<feBlend mode="normal" in2="BackgroundImageFix" result="effect1_dropShadow_935_24721"/>
<feBlend mode="normal" in="SourceGraphic" in2="effect1_dropShadow_935_24721" result="shape"/>
</filter>
<filter id="filter1_d_935_24721" x="0.789062" y="0" width="114.208" height="114.208" filterUnits="userSpaceOnUse" color-interpolation-filters="sRGB">
<feFlood flood-opacity="0" result="BackgroundImageFix"/>
<feColorMatrix in="SourceAlpha" type="matrix" values="0 0 0 0 0 0 0 0 0 0 0 0 0 0 0 0 0 0 127 0" result="hardAlpha"/>
<feOffset dy="4"/>
<feGaussianBlur stdDeviation="14"/>
<feComposite in2="hardAlpha" operator="out"/>
<feColorMatrix type="matrix" values="0 0 0 0 1 0 0 0 0 1 0 0 0 0 1 0 0 0 0.45 0"/>
<feBlend mode="normal" in2="BackgroundImageFix" result="effect1_dropShadow_935_24721"/>
<feBlend mode="normal" in="SourceGraphic" in2="effect1_dropShadow_935_24721" result="shape"/>
</filter>
</defs>
</svg>
