<svg width="1118" height="662" viewBox="0 0 1118 662" fill="none" xmlns="http://www.w3.org/2000/svg">
<rect x="289.5" y="91.2559" width="539" height="539" rx="269.5" stroke="url(#paint0_linear_6_1778)"/>
<rect x="309" y="110.756" width="500" height="500" rx="250" fill="url(#paint1_linear_6_1778)" fill-opacity="0.06"/>
<g filter="url(#filter0_d_6_1778)">
<path d="M342.625 466.408V179.883H360.98V466.408H342.625ZM391.312 274.459C390.416 265.43 386.573 258.416 379.783 253.417C372.993 248.418 363.778 245.918 352.138 245.918C344.229 245.918 337.551 247.037 332.104 249.276C326.657 251.44 322.478 254.462 319.568 258.342C316.733 262.222 315.315 266.624 315.315 271.549C315.166 275.653 316.024 279.234 317.889 282.293C319.829 285.353 322.478 288.002 325.836 290.24C329.194 292.404 333.074 294.307 337.476 295.948C341.878 297.515 346.579 298.858 351.578 299.977L372.173 304.902C382.171 307.141 391.349 310.125 399.706 313.856C408.063 317.587 415.301 322.176 421.419 327.623C427.538 333.07 432.276 339.487 435.633 346.874C439.066 354.261 440.819 362.729 440.894 372.28C440.819 386.308 437.238 398.471 430.149 408.768C423.135 418.99 412.987 426.937 399.706 432.607C386.499 438.204 370.568 441.002 351.914 441.002C333.409 441.002 317.292 438.166 303.563 432.495C289.908 426.825 279.238 418.43 271.553 407.313C263.942 396.12 259.95 382.279 259.577 365.789H306.473C306.995 373.474 309.197 379.891 313.077 385.04C317.031 390.114 322.292 393.956 328.858 396.568C335.499 399.105 342.998 400.373 351.355 400.373C359.562 400.373 366.688 399.179 372.732 396.792C378.851 394.404 383.589 391.084 386.946 386.83C390.304 382.577 391.983 377.69 391.983 372.168C391.983 367.02 390.453 362.692 387.394 359.185C384.41 355.678 380.007 352.694 374.187 350.231C368.442 347.769 361.39 345.53 353.033 343.516L328.074 337.248C308.749 332.547 293.49 325.198 282.298 315.199C271.105 305.201 265.546 291.732 265.621 274.794C265.546 260.916 269.24 248.791 276.701 238.419C284.238 228.048 294.572 219.952 307.704 214.132C320.837 208.312 335.76 205.402 352.474 205.402C369.486 205.402 384.335 208.312 397.02 214.132C409.779 219.952 419.703 228.048 426.791 238.419C433.88 248.791 437.536 260.804 437.76 274.459H391.312ZM559.266 208.535V437.756H510.803V254.536H509.46L456.967 287.442V244.463L513.713 208.535H559.266ZM602.481 208.535H662.248L725.373 362.543H728.06L791.185 208.535H850.952V437.756H803.944V288.561H802.041L742.722 436.637H710.711L651.392 288.002H649.489V437.756H602.481V208.535Z" fill="white"/>
</g>
<defs>
<filter id="filter0_d_6_1778" x="72.0662" y="0.351139" width="966.397" height="661.547" filterUnits="userSpaceOnUse" color-interpolation-filters="sRGB">
<feFlood flood-opacity="0" result="BackgroundImageFix"/>
<feColorMatrix in="SourceAlpha" type="matrix" values="0 0 0 0 0 0 0 0 0 0 0 0 0 0 0 0 0 0 127 0" result="hardAlpha"/>
<feOffset dy="7.97919"/>
<feGaussianBlur stdDeviation="93.7555"/>
<feComposite in2="hardAlpha" operator="out"/>
<feColorMatrix type="matrix" values="0 0 0 0 1 0 0 0 0 1 0 0 0 0 1 0 0 0 1 0"/>
<feBlend mode="normal" in2="BackgroundImageFix" result="effect1_dropShadow_6_1778"/>
<feBlend mode="normal" in="SourceGraphic" in2="effect1_dropShadow_6_1778" result="shape"/>
</filter>
<linearGradient id="paint0_linear_6_1778" x1="559" y1="90.7559" x2="559" y2="284.756" gradientUnits="userSpaceOnUse">
<stop stop-color="white"/>
<stop offset="0.0735994" stop-color="white" stop-opacity="0.294921"/>
<stop offset="1" stop-color="white" stop-opacity="0"/>
</linearGradient>
<linearGradient id="paint1_linear_6_1778" x1="559" y1="110.756" x2="559" y2="430.2" gradientUnits="userSpaceOnUse">
<stop stop-color="white"/>
<stop offset="1" stop-color="white" stop-opacity="0"/>
</linearGradient>
</defs>
</svg>
