<svg width="322" height="23" viewBox="0 0 322 23" fill="none" xmlns="http://www.w3.org/2000/svg">
<path d="M312.002 15.6406H304.645L303.769 17.6681C303.483 18.3439 303.339 18.9019 303.339 19.3422C303.339 19.9259 303.575 20.356 304.046 20.6324C304.322 20.7963 305.003 20.9191 306.089 21.0011V21.5694H299.162V21.0011C299.909 20.8884 300.523 20.5812 301.005 20.0795C301.486 19.5675 302.08 18.518 302.786 16.9308L310.236 0.312012H310.528L318.038 17.3916C318.755 19.0095 319.344 20.0283 319.805 20.4481C320.153 20.7655 320.644 20.9499 321.279 21.0011V21.5694H311.203V21.0011H311.618C312.427 21.0011 312.995 20.8884 313.323 20.6632C313.548 20.4993 313.661 20.2638 313.661 19.9566C313.661 19.7723 313.63 19.5829 313.569 19.3883C313.548 19.2962 313.395 18.9122 313.108 18.2364L312.002 15.6406ZM311.48 14.5041L308.377 7.33123L305.182 14.5041H311.48Z" fill="white"/>
<path d="M298.492 21.0009V21.5692H287.603V21.0009H288.294C288.898 21.0009 289.384 20.8934 289.753 20.6784C290.019 20.535 290.224 20.2893 290.367 19.9411C290.48 19.6954 290.536 19.0503 290.536 18.0059V4.30531C290.536 3.2404 290.48 2.57483 290.367 2.3086C290.255 2.04237 290.024 1.81198 289.676 1.61743C289.338 1.41264 288.877 1.31024 288.294 1.31024H287.603V0.741943H298.492V1.31024H297.801C297.197 1.31024 296.711 1.41775 296.342 1.63279C296.076 1.77614 295.866 2.02189 295.712 2.37003C295.6 2.61578 295.543 3.26088 295.543 4.30531V18.0059C295.543 19.0708 295.6 19.7363 295.712 20.0026C295.835 20.2688 296.066 20.5043 296.403 20.7091C296.752 20.9037 297.217 21.0009 297.801 21.0009H298.492Z" fill="white"/>
<path d="M264.972 21.5692V21.0009H265.663C266.267 21.0009 266.728 20.9088 267.045 20.7245C267.373 20.5299 267.613 20.2688 267.767 19.9411C267.859 19.7261 267.905 19.081 267.905 18.0059V4.30531C267.905 3.2404 267.849 2.57483 267.736 2.3086C267.624 2.04237 267.393 1.81198 267.045 1.61743C266.707 1.41264 266.247 1.31024 265.663 1.31024H264.972V0.741943H274.295C276.783 0.741943 278.785 1.07985 280.3 1.75566C282.154 2.58507 283.557 3.83941 284.509 5.5187C285.471 7.19799 285.953 9.09743 285.953 11.217C285.953 12.6813 285.717 14.0329 285.246 15.2719C284.775 16.5006 284.166 17.5195 283.418 18.3284C282.671 19.1271 281.806 19.7722 280.823 20.2637C279.85 20.7449 278.657 21.1187 277.244 21.3849C276.619 21.5078 275.636 21.5692 274.295 21.5692H264.972ZM272.912 1.92461V18.1748C272.912 19.0349 272.953 19.5623 273.035 19.7568C273.117 19.9514 273.255 20.0998 273.45 20.2022C273.727 20.3558 274.126 20.4326 274.648 20.4326C276.358 20.4326 277.664 19.849 278.565 18.6817C279.793 17.1048 280.408 14.6575 280.408 11.3399C280.408 8.66737 279.988 6.53242 279.148 4.93505C278.483 3.68582 277.628 2.83593 276.583 2.38539C275.846 2.06797 274.622 1.91437 272.912 1.92461Z" fill="white"/>
<path d="M249.972 0.741943L260.247 13.6592V4.70466C260.247 3.45543 260.068 2.61066 259.71 2.17036C259.218 1.57647 258.394 1.28976 257.237 1.31024V0.741943H264.118V1.31024C263.237 1.42287 262.643 1.57135 262.336 1.75566C262.039 1.92973 261.804 2.22156 261.63 2.63114C261.466 3.03049 261.384 3.72166 261.384 4.70466V22.0454H260.862L246.777 4.70466V17.9444C246.777 19.1424 247.048 19.9514 247.591 20.3712C248.144 20.791 248.774 21.0009 249.48 21.0009H249.972V21.5692H242.584V21.0009C243.731 20.9907 244.53 20.7552 244.98 20.2944C245.431 19.8336 245.656 19.0503 245.656 17.9444V3.24552L245.21 2.69258C244.77 2.13964 244.381 1.77614 244.043 1.60207C243.705 1.42799 243.219 1.33072 242.584 1.31024V0.741943H249.972Z" fill="white"/>
<path d="M241.717 21.0009V21.5692H230.828V21.0009H231.519C232.123 21.0009 232.609 20.8934 232.978 20.6784C233.244 20.535 233.449 20.2893 233.592 19.9411C233.705 19.6954 233.761 19.0503 233.761 18.0059V4.30531C233.761 3.2404 233.705 2.57483 233.592 2.3086C233.48 2.04237 233.249 1.81198 232.901 1.61743C232.563 1.41264 232.102 1.31024 231.519 1.31024H230.828V0.741943H241.717V1.31024H241.026C240.422 1.31024 239.936 1.41775 239.567 1.63279C239.301 1.77614 239.091 2.02189 238.937 2.37003C238.825 2.61578 238.768 3.26088 238.768 4.30531V18.0059C238.768 19.0708 238.825 19.7363 238.937 20.0026C239.06 20.2688 239.291 20.5043 239.629 20.7091C239.977 20.9037 240.443 21.0009 241.026 21.0009H241.717Z" fill="white"/>
<path d="M212.379 1.93997V10.4951H212.978C213.9 10.4951 214.652 10.3569 215.236 10.0804C215.82 9.80396 216.311 9.33806 216.711 8.68273C217.12 8.0274 217.386 7.14167 217.509 6.02556H218.047V16.4853H217.509C217.315 14.509 216.782 13.2086 215.912 12.584C215.052 11.9492 214.074 11.6317 212.978 11.6317H212.379V18.0059C212.379 19.0708 212.436 19.7363 212.548 20.0026C212.671 20.2688 212.901 20.5043 213.239 20.7091C213.588 20.9037 214.053 21.0009 214.637 21.0009H215.328V21.5692H204.438V21.0009H205.13C205.734 21.0009 206.22 20.8934 206.589 20.6784C206.855 20.535 207.06 20.2893 207.203 19.9411C207.316 19.6954 207.372 19.0503 207.372 18.0059V4.30531C207.372 3.2404 207.316 2.57483 207.203 2.3086C207.091 2.04237 206.86 1.81198 206.512 1.61743C206.174 1.41264 205.713 1.31024 205.13 1.31024H204.438V0.741943H222.01V6.71673H221.38C221.236 5.31391 220.868 4.27459 220.274 3.59878C219.69 2.92297 218.84 2.44683 217.724 2.17036C217.11 2.01677 215.973 1.93997 214.315 1.93997H212.379Z" fill="white"/>
<path d="M191.712 0.450325C195.03 0.32745 197.723 1.29509 199.791 3.35324C201.87 5.4114 202.909 7.98665 202.909 11.079C202.909 13.7208 202.136 16.0452 200.59 18.0521C198.542 20.7144 195.649 22.0456 191.912 22.0456C188.164 22.0456 185.266 20.7759 183.218 18.2365C181.6 16.2295 180.792 13.8488 180.792 11.0944C180.792 8.00201 181.841 5.42675 183.94 3.3686C186.05 1.30021 188.64 0.32745 191.712 0.450325ZM191.896 1.43332C189.992 1.43332 188.543 2.40608 187.55 4.3516C186.741 5.94897 186.336 8.24264 186.336 11.2326C186.336 14.7857 186.961 17.4122 188.21 19.1119C189.08 20.2997 190.299 20.8936 191.866 20.8936C192.92 20.8936 193.801 20.6376 194.507 20.1257C195.408 19.4703 196.11 18.4259 196.612 16.9923C197.113 15.5486 197.364 13.6696 197.364 11.3555C197.364 8.60102 197.108 6.54287 196.596 5.18101C196.084 3.8089 195.429 2.84126 194.63 2.27809C193.842 1.71491 192.931 1.43332 191.896 1.43332Z" fill="white"/>
<path d="M169.521 0.312012L169.69 7.25444H169.06C168.763 5.51371 168.031 4.11601 166.863 3.06134C165.706 1.99642 164.452 1.46396 163.1 1.46396C162.056 1.46396 161.227 1.74555 160.612 2.30873C160.008 2.86166 159.706 3.50164 159.706 4.22865C159.706 4.68943 159.814 5.09901 160.029 5.45739C160.326 5.93865 160.802 6.41479 161.457 6.88581C161.938 7.22372 163.049 7.82273 164.79 8.68286C167.227 9.88089 168.87 11.0124 169.72 12.0773C170.56 13.1422 170.98 14.3607 170.98 15.7328C170.98 17.4735 170.299 18.9736 168.937 20.2331C167.585 21.4823 165.865 22.1069 163.776 22.1069C163.121 22.1069 162.501 22.0404 161.918 21.9073C161.334 21.7741 160.602 21.5233 159.721 21.1546C159.23 20.9499 158.825 20.8475 158.508 20.8475C158.242 20.8475 157.96 20.9499 157.663 21.1546C157.366 21.3594 157.126 21.6717 156.941 22.0916H156.373V14.2276H156.941C157.392 16.4393 158.257 18.1289 159.537 19.2962C160.827 20.4532 162.215 21.0318 163.699 21.0318C164.846 21.0318 165.758 20.7195 166.433 20.0949C167.119 19.4702 167.463 18.7432 167.463 17.9138C167.463 17.4223 167.329 16.9462 167.063 16.4854C166.807 16.0246 166.413 15.5894 165.88 15.1799C165.348 14.76 164.406 14.2173 163.054 13.5518C161.16 12.62 159.798 11.8264 158.969 11.1711C158.139 10.5157 157.499 9.78361 157.049 8.97468C156.609 8.16576 156.388 7.27492 156.388 6.30216C156.388 4.64335 156.998 3.23029 158.216 2.06298C159.435 0.895667 160.971 0.312012 162.824 0.312012C163.5 0.312012 164.155 0.393928 164.79 0.557761C165.271 0.680636 165.855 0.911026 166.541 1.24893C167.237 1.5766 167.724 1.74043 168 1.74043C168.266 1.74043 168.476 1.65851 168.63 1.49468C168.783 1.33085 168.927 0.936625 169.06 0.312012H169.521Z" fill="white"/>
<path d="M142.649 1.98612V10.4645H143.064C144.385 10.4645 145.342 10.0498 145.936 9.22037C146.53 8.39096 146.909 7.16734 147.073 5.54948H147.656V16.4546H147.073C146.95 15.2668 146.689 14.2941 146.289 13.5363C145.9 12.7786 145.445 12.2718 144.922 12.0158C144.4 11.7495 143.643 11.6164 142.649 11.6164V17.4837C142.649 18.6305 142.695 19.3319 142.788 19.5879C142.89 19.8439 143.074 20.0538 143.34 20.2177C143.607 20.3815 144.037 20.4634 144.631 20.4634H145.875C147.82 20.4634 149.377 20.0129 150.544 19.1118C151.722 18.2107 152.566 16.8386 153.078 14.9955H153.647L152.71 21.6154H134.708V21.0471H135.4C136.004 21.0471 136.49 20.9396 136.859 20.7245C137.125 20.5812 137.33 20.3354 137.473 19.9873C137.586 19.7415 137.642 19.0964 137.642 18.052V4.35146C137.642 3.40942 137.617 2.83088 137.565 2.61585C137.463 2.25746 137.274 1.981 136.997 1.78644C136.608 1.49974 136.075 1.35638 135.4 1.35638H134.708V0.788086H152.141V6.94719H151.558C151.261 5.44197 150.841 4.3617 150.298 3.70636C149.766 3.05103 149.008 2.56977 148.025 2.26258C147.452 2.07827 146.376 1.98612 144.8 1.98612H142.649Z" fill="white"/>
<path d="M119.68 14.5193L125.332 0.788086H133.81V1.35638H133.135C132.52 1.35638 132.029 1.4639 131.66 1.67893C131.404 1.82228 131.199 2.06291 131.046 2.40082C130.933 2.64657 130.877 3.28654 130.877 4.32074V18.052C130.877 19.1169 130.933 19.7825 131.046 20.0487C131.158 20.3149 131.389 20.5505 131.737 20.7552C132.085 20.9498 132.551 21.0471 133.135 21.0471H133.81V21.6154H122.936V21.0471H123.612C124.226 21.0471 124.718 20.9396 125.086 20.7245C125.342 20.5812 125.547 20.3354 125.701 19.9873C125.813 19.7415 125.87 19.0964 125.87 18.052V2.61585L117.883 21.6154H117.514L109.404 2.75408V17.4223C109.404 18.4462 109.43 19.076 109.481 19.3115C109.614 19.8234 109.901 20.2433 110.341 20.5709C110.792 20.8884 111.493 21.0471 112.446 21.0471V21.6154H105.319V21.0471H105.534C105.995 21.0573 106.425 20.9856 106.824 20.832C107.223 20.6682 107.525 20.4532 107.73 20.1869C107.935 19.9207 108.094 19.547 108.206 19.0657C108.227 18.9531 108.237 18.4309 108.237 17.4991V4.32074C108.237 3.26606 108.181 2.61073 108.068 2.35474C107.956 2.08851 107.725 1.85812 107.377 1.66357C107.029 1.45878 106.563 1.35638 105.979 1.35638H105.319V0.788086H113.828L119.68 14.5193Z" fill="white"/>
<path d="M104.265 21.0471V21.6154H93.375V21.0471H94.0662C94.6703 21.0471 95.1567 20.9396 95.5253 20.7245C95.7915 20.5812 95.9963 20.3354 96.1397 19.9873C96.2523 19.7415 96.3086 19.0964 96.3086 18.052V4.35146C96.3086 3.28654 96.2523 2.62097 96.1397 2.35474C96.027 2.08851 95.7967 1.85812 95.4485 1.66357C95.1106 1.45878 94.6498 1.35638 94.0662 1.35638H93.375V0.788086H104.265V1.35638H103.574C102.969 1.35638 102.483 1.4639 102.114 1.67893C101.848 1.82228 101.638 2.06803 101.485 2.41618C101.372 2.66193 101.316 3.30702 101.316 4.35146V18.052C101.316 19.1169 101.372 19.7825 101.485 20.0487C101.608 20.3149 101.838 20.5505 102.176 20.7552C102.524 20.9498 102.99 21.0471 103.574 21.0471H104.265Z" fill="white"/>
<path d="M91.9255 0.788086V6.42497H91.3725C91.0449 5.12454 90.6814 4.19274 90.282 3.62957C89.8827 3.05615 89.3349 2.60049 88.6386 2.26258C88.2495 2.07827 87.5685 1.98612 86.5958 1.98612H85.0445V18.052C85.0445 19.1169 85.1008 19.7825 85.2134 20.0487C85.3363 20.3149 85.5667 20.5505 85.9046 20.7552C86.2527 20.9498 86.7238 21.0471 87.3177 21.0471H88.0088V21.6154H77.1037V21.0471H77.7949C78.399 21.0471 78.8854 20.9396 79.254 20.7245C79.5202 20.5812 79.7301 20.3354 79.8837 19.9873C79.9964 19.7415 80.0527 19.0964 80.0527 18.052V1.98612H78.5475C77.1446 1.98612 76.1258 2.28306 75.491 2.87696C74.6001 3.70636 74.0369 4.88903 73.8014 6.42497H73.2178V0.788086H91.9255Z" fill="white"/>
<path d="M52.434 1.98612V10.4645H52.8487C54.1696 10.4645 55.127 10.0498 55.7209 9.22037C56.3147 8.39096 56.6936 7.16734 56.8574 5.54948H57.4411V16.4546H56.8574C56.7346 15.2668 56.4735 14.2941 56.0741 13.5363C55.685 12.7786 55.2294 12.2718 54.7071 12.0158C54.1849 11.7495 53.4272 11.6164 52.434 11.6164V17.4837C52.434 18.6305 52.48 19.3319 52.5722 19.5879C52.6746 19.8439 52.8589 20.0538 53.1251 20.2177C53.3914 20.3815 53.8214 20.4634 54.4153 20.4634H55.6594C57.6049 20.4634 59.1614 20.0129 60.3287 19.1118C61.5062 18.2107 62.351 16.8386 62.863 14.9955H63.4313L62.4943 21.6154H44.4932V21.0471H45.1843C45.7885 21.0471 46.2748 20.9396 46.6435 20.7245C46.9097 20.5812 47.1145 20.3354 47.2578 19.9873C47.3705 19.7415 47.4268 19.0964 47.4268 18.052V4.35146C47.4268 3.40942 47.4012 2.83088 47.35 2.61585C47.2476 2.25746 47.0582 1.981 46.7817 1.78644C46.3926 1.49974 45.8601 1.35638 45.1843 1.35638H44.4932V0.788086H61.926V6.94719H61.3424C61.0454 5.44197 60.6256 4.3617 60.0829 3.70636C59.5505 3.05103 58.7927 2.56977 57.8097 2.26258C57.2363 2.07827 56.1612 1.98612 54.5843 1.98612H52.434Z" fill="white"/>
<path d="M28.2963 11.6011V18.052C28.2963 19.1169 28.3526 19.7825 28.4652 20.0487C28.5881 20.3149 28.8185 20.5505 29.1564 20.7552C29.5045 20.9498 29.9704 21.0471 30.5541 21.0471H31.2453V21.6154H20.3555V21.0471H21.0466C21.6508 21.0471 22.1372 20.9396 22.5058 20.7245C22.772 20.5812 22.9768 20.3354 23.1202 19.9873C23.2328 19.7415 23.2891 19.0964 23.2891 18.052V4.35146C23.2891 3.28654 23.2328 2.62097 23.1202 2.35474C23.0075 2.08851 22.7771 1.85812 22.429 1.66357C22.0911 1.45878 21.6303 1.35638 21.0466 1.35638H20.3555V0.788086H31.2453V1.35638H30.5541C29.9499 1.35638 29.4636 1.4639 29.0949 1.67893C28.8287 1.82228 28.6188 2.06803 28.4652 2.41618C28.3526 2.66193 28.2963 3.30702 28.2963 4.35146V10.2494H35.6534V4.35146C35.6534 3.28654 35.5971 2.62097 35.4844 2.35474C35.3718 2.08851 35.1414 1.85812 34.7933 1.66357C34.4451 1.45878 33.9792 1.35638 33.3956 1.35638H32.7198V0.788086H43.5942V1.35638H42.9184C42.304 1.35638 41.8176 1.4639 41.4592 1.67893C41.193 1.82228 40.9831 2.06803 40.8295 2.41618C40.7169 2.66193 40.6605 3.30702 40.6605 4.35146V18.052C40.6605 19.1169 40.7169 19.7825 40.8295 20.0487C40.9421 20.3149 41.1725 20.5505 41.5207 20.7552C41.8688 20.9498 42.3347 21.0471 42.9184 21.0471H43.5942V21.6154H32.7198V21.0471H33.3956C34.0099 21.0471 34.4963 20.9396 34.8547 20.7245C35.1209 20.5812 35.3308 20.3354 35.4844 19.9873C35.5971 19.7415 35.6534 19.0964 35.6534 18.052V11.6011H28.2963Z" fill="white"/>
<path d="M18.8732 0.788086V6.42497H18.3203C17.9926 5.12454 17.6291 4.19274 17.2298 3.62957C16.8304 3.05615 16.2826 2.60049 15.5863 2.26258C15.1972 2.07827 14.5163 1.98612 13.5435 1.98612H11.9922V18.052C11.9922 19.1169 12.0486 19.7825 12.1612 20.0487C12.2841 20.3149 12.5145 20.5505 12.8524 20.7552C13.2005 20.9498 13.6715 21.0471 14.2654 21.0471H14.9566V21.6154H4.05145V21.0471H4.74262C5.34675 21.0471 5.83313 20.9396 6.20176 20.7245C6.46798 20.5812 6.6779 20.3354 6.83149 19.9873C6.94412 19.7415 7.00044 19.0964 7.00044 18.052V1.98612H5.49522C4.0924 1.98612 3.07357 2.28306 2.43871 2.87696C1.54787 3.70636 0.984693 4.88903 0.749183 6.42497H0.165527V0.788086H18.8732Z" fill="white"/>
</svg>
