<svg width="151" height="29" viewBox="0 0 151 29" fill="none" xmlns="http://www.w3.org/2000/svg">
<path d="M140.603 4.83154C141.663 4.83154 142.584 5.04552 143.366 5.47348C144.166 5.90144 144.78 6.47826 145.208 7.20393V5.02691H150.678V20.5172C150.678 21.9871 150.399 23.3082 149.841 24.4805C149.283 25.6713 148.408 26.6203 147.217 27.3273C146.045 28.0344 144.557 28.3879 142.752 28.3879C140.333 28.3879 138.398 27.8204 136.946 26.6854C135.495 25.5504 134.667 24.006 134.462 22.0523H139.849C139.961 22.5547 140.24 22.9454 140.686 23.2245C141.133 23.5036 141.71 23.6432 142.417 23.6432C144.278 23.6432 145.208 22.6012 145.208 20.5172V18.5076C144.78 19.2333 144.166 19.8101 143.366 20.2381C142.584 20.6661 141.663 20.88 140.603 20.88C139.356 20.88 138.221 20.5544 137.198 19.9032C136.193 19.2519 135.393 18.3216 134.797 17.1121C134.221 15.8841 133.932 14.4606 133.932 12.8418C133.932 11.223 134.221 9.8089 134.797 8.59945C135.393 7.39 136.193 6.45965 137.198 5.80841C138.221 5.15716 139.356 4.83154 140.603 4.83154ZM145.208 12.8418C145.208 11.8371 144.929 11.0463 144.371 10.4694C143.831 9.89263 143.161 9.60423 142.361 9.60423C141.542 9.60423 140.863 9.89263 140.324 10.4694C139.784 11.0277 139.514 11.8185 139.514 12.8418C139.514 13.8466 139.784 14.6467 140.324 15.2421C140.863 15.8189 141.542 16.1074 142.361 16.1074C143.161 16.1074 143.831 15.8189 144.371 15.2421C144.929 14.6653 145.208 13.8652 145.208 12.8418Z" fill="white"/>
<path d="M128.65 7.79038C129.264 6.89725 130.008 6.19018 130.883 5.66919C131.757 5.14819 132.697 4.8877 133.702 4.8877V10.721H132.167C130.976 10.721 130.092 10.9536 129.515 11.4187C128.939 11.8839 128.65 12.6933 128.65 13.8469V20.685H123.18V5.02725H128.65V7.79038Z" fill="white"/>
<path d="M121.778 12.6744C121.778 13.1023 121.75 13.5303 121.694 13.9583H111.339C111.395 14.8142 111.628 15.4561 112.037 15.8841C112.465 16.2934 113.005 16.4981 113.656 16.4981C114.568 16.4981 115.219 16.0887 115.61 15.27H121.443C121.201 16.3492 120.727 17.3168 120.02 18.1727C119.331 19.01 118.457 19.6706 117.396 20.1544C116.335 20.6381 115.163 20.88 113.879 20.88C112.335 20.88 110.958 20.5544 109.749 19.9032C108.558 19.2519 107.618 18.3216 106.93 17.1121C106.26 15.9027 105.925 14.4792 105.925 12.8418C105.925 11.2044 106.26 9.79029 106.93 8.59945C107.599 7.39 108.53 6.45965 109.721 5.80841C110.93 5.15716 112.316 4.83154 113.879 4.83154C115.424 4.83154 116.791 5.14786 117.982 5.7805C119.173 6.41313 120.103 7.32487 120.773 8.51572C121.443 9.68796 121.778 11.0742 121.778 12.6744ZM116.196 11.3068C116.196 10.6369 115.973 10.1159 115.526 9.74378C115.079 9.35303 114.521 9.15766 113.851 9.15766C113.182 9.15766 112.633 9.34373 112.205 9.71587C111.777 10.0694 111.498 10.5997 111.367 11.3068H116.196Z" fill="white"/>
<path d="M94.155 7.20398C94.583 6.45971 95.1877 5.88289 95.9692 5.47354C96.7507 5.04558 97.6717 4.8316 98.7323 4.8316C99.979 4.8316 101.105 5.15722 102.109 5.80846C103.133 6.4597 103.933 7.39005 104.51 8.5995C105.105 9.80895 105.403 11.2231 105.403 12.8419C105.403 14.4607 105.105 15.8841 104.51 17.1122C103.933 18.3216 103.133 19.252 102.109 19.9032C101.105 20.5545 99.979 20.8801 98.7323 20.8801C97.6717 20.8801 96.7507 20.6754 95.9692 20.2661C95.1877 19.8381 94.583 19.252 94.155 18.5077V20.6847H88.6846V0.0310059H94.155V7.20398ZM99.8487 12.8419C99.8487 11.8185 99.5696 11.0277 99.0114 10.4695C98.4718 9.89269 97.802 9.60428 97.0019 9.60428C96.2018 9.60428 95.5226 9.89269 94.9644 10.4695C94.4248 11.0463 94.155 11.8371 94.155 12.8419C94.155 13.8653 94.4248 14.6654 94.9644 15.2422C95.5226 15.819 96.2018 16.1074 97.0019 16.1074C97.802 16.1074 98.4718 15.819 99.0114 15.2422C99.5696 14.6468 99.8487 13.8467 99.8487 12.8419Z" fill="white"/>
<path d="M80.1893 4.8877C82.1616 4.8877 83.706 5.48312 84.8224 6.67396C85.9575 7.86481 86.525 9.49291 86.525 11.5583V20.685H81.0545V12.284C81.0545 11.4466 80.8219 10.7954 80.3568 10.3302C79.8916 9.86505 79.259 9.63247 78.4589 9.63247C77.6588 9.63247 77.0261 9.86505 76.5609 10.3302C76.0958 10.7954 75.8632 11.4466 75.8632 12.284V20.685H70.3927V12.284C70.3927 11.4466 70.1602 10.7954 69.695 10.3302C69.2484 9.86505 68.6251 9.63247 67.825 9.63247C67.0063 9.63247 66.3643 9.86505 65.8992 10.3302C65.434 10.7954 65.2014 11.4466 65.2014 12.284V20.685H59.731V5.02725H65.2014V7.09262C65.6852 6.42277 66.3085 5.89247 67.0714 5.50173C67.8529 5.09237 68.746 4.8877 69.7508 4.8877C70.9044 4.8877 71.9278 5.13889 72.8209 5.64128C73.7327 6.14366 74.4491 6.85073 74.97 7.76247C75.5283 6.90655 76.2632 6.21809 77.175 5.6971C78.0867 5.1575 79.0915 4.8877 80.1893 4.8877Z" fill="white"/>
<path d="M50.1089 20.88C48.5459 20.88 47.1411 20.5544 45.8944 19.9032C44.6664 19.2519 43.6988 18.3216 42.9917 17.1121C42.2847 15.9027 41.9312 14.4792 41.9312 12.8418C41.9312 11.223 42.2847 9.8089 42.9917 8.59945C43.7174 7.39 44.6943 6.45965 45.9223 5.80841C47.169 5.15716 48.5738 4.83154 50.1368 4.83154C51.6998 4.83154 53.0953 5.15716 54.3234 5.80841C55.57 6.45965 56.5469 7.39 57.254 8.59945C57.9796 9.8089 58.3425 11.223 58.3425 12.8418C58.3425 14.4606 57.9796 15.8841 57.254 17.1121C56.5469 18.3216 55.57 19.2519 54.3234 19.9032C53.0767 20.5544 51.6719 20.88 50.1089 20.88ZM50.1089 16.1353C50.8718 16.1353 51.5044 15.8562 52.0068 15.298C52.5278 14.7211 52.7883 13.9024 52.7883 12.8418C52.7883 11.7812 52.5278 10.9718 52.0068 10.4136C51.5044 9.85542 50.8811 9.57631 50.1368 9.57631C49.3925 9.57631 48.7692 9.85542 48.2668 10.4136C47.7644 10.9718 47.5132 11.7812 47.5132 12.8418C47.5132 13.921 47.7551 14.7397 48.2389 15.298C48.7227 15.8562 49.346 16.1353 50.1089 16.1353Z" fill="white"/>
<path d="M33.2027 20.88C31.6397 20.88 30.2348 20.5544 28.9882 19.9032C27.7601 19.2519 26.7926 18.3216 26.0855 17.1121C25.3784 15.9027 25.0249 14.4792 25.0249 12.8418C25.0249 11.223 25.3784 9.8089 26.0855 8.59945C26.8112 7.39 27.788 6.45965 29.0161 5.80841C30.2628 5.15716 31.6676 4.83154 33.2306 4.83154C34.7935 4.83154 36.1891 5.15716 37.4171 5.80841C38.6638 6.45965 39.6407 7.39 40.3477 8.59945C41.0734 9.8089 41.4362 11.223 41.4362 12.8418C41.4362 14.4606 41.0734 15.8841 40.3477 17.1121C39.6407 18.3216 38.6638 19.2519 37.4171 19.9032C36.1705 20.5544 34.7656 20.88 33.2027 20.88ZM33.2027 16.1353C33.9655 16.1353 34.5982 15.8562 35.1006 15.298C35.6216 14.7211 35.8821 13.9024 35.8821 12.8418C35.8821 11.7812 35.6216 10.9718 35.1006 10.4136C34.5982 9.85542 33.9748 9.57631 33.2306 9.57631C32.4863 9.57631 31.863 9.85542 31.3606 10.4136C30.8582 10.9718 30.607 11.7812 30.607 12.8418C30.607 13.921 30.8489 14.7397 31.3327 15.298C31.8164 15.8562 32.4398 16.1353 33.2027 16.1353Z" fill="white"/>
<path d="M23.6394 0.0310059V20.6847H18.1689V0.0310059H23.6394Z" fill="white"/>
<path d="M12.8419 10.5811C13.9955 10.8416 14.9073 11.4184 15.5771 12.3115C16.2656 13.1861 16.6098 14.1908 16.6098 15.3259C16.6098 17.0005 16.033 18.3123 14.8794 19.2612C13.7257 20.2102 12.1069 20.6847 10.023 20.6847H0.282227V1.00781H9.71595C11.7255 1.00781 13.2978 1.45438 14.4328 2.34751C15.5864 3.24065 16.1633 4.49661 16.1633 6.11542C16.1633 7.26905 15.8562 8.23661 15.2422 9.0181C14.6468 9.78099 13.8467 10.302 12.8419 10.5811ZM5.75267 8.82273H8.5158C9.89271 8.82273 10.5812 8.25522 10.5812 7.12019C10.5812 5.94796 9.89271 5.36184 8.5158 5.36184H5.75267V8.82273ZM8.93446 16.2748C10.3114 16.2748 10.9998 15.698 10.9998 14.5444C10.9998 13.9489 10.8138 13.4931 10.4416 13.1768C10.0881 12.8604 9.5764 12.7023 8.90655 12.7023H5.75267V16.2748H8.93446Z" fill="white"/>
</svg>
