<svg width="26" height="28" viewBox="0 0 26 28" fill="none" xmlns="http://www.w3.org/2000/svg">
<g clip-path="url(#clip0_805_282)">
<path d="M14.4838 0V3.06391H14.4003C14.3515 3.06391 14.3028 3.07784 14.2923 3.09873C14.2819 3.11614 14.2018 3.13355 14.1182 3.13355C14.0347 3.13355 13.9546 3.14748 13.9442 3.16837C13.9337 3.18577 13.8606 3.20318 13.7875 3.20318C13.7144 3.20318 13.6447 3.21711 13.6343 3.23452C13.6238 3.25193 13.5542 3.27282 13.4846 3.28326C13.307 3.30763 13.1573 3.34245 13.0737 3.37727C13.0354 3.3912 12.9345 3.42253 12.8474 3.4469C12.7604 3.46779 12.6629 3.50261 12.6316 3.52002C12.5967 3.53743 12.5375 3.55136 12.5027 3.55136C12.4644 3.55136 12.4261 3.56528 12.4157 3.57921C12.4052 3.59314 12.3182 3.62795 12.2242 3.65581C12.1267 3.68018 12.0466 3.715 12.0466 3.7324C12.0466 3.74633 12.0153 3.76026 11.9805 3.76026C11.9422 3.76026 11.9004 3.77419 11.8899 3.79508C11.8795 3.81248 11.8308 3.82989 11.782 3.82989C11.7368 3.82989 11.6985 3.84382 11.6985 3.86471C11.6985 3.88212 11.6776 3.89953 11.6532 3.89953C11.587 3.89953 11.3747 4.0005 10.6818 4.35911C10.5599 4.42179 10.4555 4.48097 10.445 4.49142C10.4346 4.50186 10.3858 4.52972 10.3336 4.55757C10.2779 4.58543 10.2361 4.62024 10.2361 4.63765C10.2361 4.65158 10.2118 4.66551 10.1804 4.66551C10.1491 4.66551 10.0969 4.69336 10.0655 4.72818C10.0342 4.75951 9.96804 4.80826 9.91581 4.83611C9.8601 4.86396 9.81832 4.89878 9.81832 4.91619C9.81832 4.93012 9.79743 4.94404 9.77306 4.94404C9.74869 4.94404 9.69646 4.9719 9.65816 5.00671C9.62335 5.04153 9.5363 5.10768 9.47015 5.15295C9.404 5.20169 9.31696 5.27133 9.27518 5.30962C9.23688 5.34792 9.14983 5.41756 9.08716 5.4663C8.88522 5.61602 8.1471 6.37155 8.1471 6.42726C8.1471 6.4377 8.10184 6.48993 8.04961 6.53867C7.99738 6.5909 7.91382 6.68839 7.86856 6.75454C7.8233 6.82069 7.77455 6.88336 7.76411 6.89381C7.72929 6.92166 7.52039 7.23502 7.52039 7.25939C7.52039 7.26983 7.48905 7.31161 7.45075 7.35339C7.41246 7.39517 7.38112 7.45088 7.38112 7.47525C7.38112 7.49963 7.36719 7.52052 7.3463 7.52052C7.32889 7.52052 7.31149 7.55185 7.31149 7.58667C7.31149 7.62497 7.29756 7.65979 7.28363 7.66675C7.24533 7.68068 6.96331 8.24471 6.96331 8.30739C6.96331 8.33524 6.94939 8.35613 6.9285 8.35613C6.91109 8.35613 6.89368 8.38747 6.89368 8.42576C6.89368 8.46406 6.87975 8.4954 6.85886 8.4954C6.84145 8.4954 6.82404 8.52673 6.82404 8.56503C6.82404 8.63467 6.81012 8.666 6.72656 8.83313C6.70218 8.87839 6.68478 8.94454 6.68478 8.98284C6.68478 9.02114 6.67085 9.05247 6.64996 9.05247C6.63255 9.05247 6.61514 9.09774 6.61514 9.15693C6.61514 9.21263 6.60121 9.26138 6.58032 9.26138C6.56292 9.26138 6.54551 9.3136 6.54551 9.37976C6.54551 9.44591 6.53158 9.51206 6.51069 9.52251C6.49328 9.53295 6.47587 9.58866 6.47587 9.64437C6.47587 9.70007 6.46195 9.75578 6.44106 9.76623C6.42365 9.77667 6.40624 9.84631 6.40624 9.91942C6.40624 9.99254 6.39231 10.0622 6.3749 10.0796C6.35749 10.1005 6.33312 10.191 6.32268 10.2885C6.31223 10.3825 6.28438 10.6123 6.26349 10.7933C6.18689 11.3748 6.22171 13.234 6.30527 13.2862C6.32268 13.2967 6.3366 13.3872 6.3366 13.4917C6.3366 13.5961 6.35401 13.6901 6.37142 13.7006C6.39231 13.711 6.40624 13.7981 6.40624 13.8921C6.40624 13.9861 6.42365 14.0731 6.44106 14.0836C6.46195 14.094 6.47587 14.1567 6.47587 14.2228C6.47587 14.289 6.49328 14.3517 6.51069 14.3621C6.53158 14.3725 6.54551 14.4283 6.54551 14.484C6.54551 14.5397 6.56292 14.5954 6.58032 14.6058C6.60121 14.6163 6.61514 14.672 6.61514 14.7277C6.61514 14.7834 6.63255 14.8391 6.64996 14.8495C6.67085 14.86 6.68478 14.9087 6.68478 14.954C6.68478 14.9993 6.70218 15.048 6.71959 15.0584C6.74048 15.0689 6.75441 15.1176 6.75441 15.1629C6.75441 15.2082 6.77182 15.2569 6.78923 15.2673C6.81012 15.2778 6.82404 15.3265 6.82404 15.3753C6.82404 15.4205 6.83797 15.4588 6.8519 15.4588C6.86931 15.4588 6.90412 15.5389 6.9285 15.6329C6.95287 15.7304 6.98769 15.807 7.00509 15.807C7.01902 15.807 7.03295 15.8383 7.03295 15.8766C7.03295 15.9149 7.05036 15.9463 7.06776 15.9463C7.08866 15.9463 7.10258 15.9672 7.10258 15.9881C7.10258 16.0438 7.38808 16.6217 7.4229 16.6357C7.44031 16.6426 7.45075 16.6774 7.45075 16.7157C7.45075 16.7506 7.46468 16.7819 7.48209 16.7819C7.4995 16.7819 7.52039 16.8097 7.53083 16.8446C7.55521 16.9142 7.65966 17.0918 7.71885 17.1544C7.73974 17.1788 7.77107 17.231 7.78152 17.2693C7.79196 17.3076 7.81982 17.339 7.83723 17.339C7.85463 17.339 7.86856 17.3599 7.86856 17.3842C7.86856 17.4086 7.8999 17.4643 7.93819 17.5061C7.97649 17.5479 8.00783 17.5931 8.00783 17.6105C8.00783 17.628 8.05309 17.6906 8.11228 17.7498C8.23066 17.8752 8.23762 17.896 8.16451 17.896C8.10532 17.896 7.03643 16.8411 6.87975 16.6322C6.82753 16.5625 6.74745 16.4651 6.6987 16.4163C6.65344 16.3711 6.61514 16.3188 6.61514 16.3014C6.61514 16.284 6.5664 16.2213 6.51069 16.1621C6.4515 16.0995 6.40624 16.0403 6.40624 16.0264C6.40624 16.009 6.35749 15.9428 6.30179 15.8766C6.24608 15.8105 6.19733 15.7409 6.19733 15.7269C6.19733 15.713 6.166 15.6677 6.1277 15.626C6.0894 15.5842 6.05807 15.5285 6.05807 15.5041C6.05807 15.4797 6.04414 15.4588 6.02325 15.4588C6.00584 15.4588 5.98843 15.4275 5.98843 15.3892C5.98843 15.3509 5.9745 15.3196 5.9571 15.3196C5.93969 15.3196 5.90835 15.2708 5.88398 15.2151C5.85961 15.1559 5.82827 15.1107 5.81086 15.1107C5.79345 15.1107 5.77953 15.0793 5.77953 15.041C5.77953 15.0027 5.7656 14.9714 5.74471 14.9714C5.7273 14.9714 5.70989 14.9401 5.70989 14.9018C5.70989 14.8635 5.69597 14.8321 5.67508 14.8321C5.65767 14.8321 5.64026 14.8008 5.64026 14.7625C5.64026 14.7242 5.62633 14.6929 5.60544 14.6929C5.58803 14.6929 5.57062 14.6615 5.57062 14.6232C5.57062 14.5849 5.5567 14.5536 5.53581 14.5536C5.5184 14.5536 5.50099 14.5223 5.50099 14.484C5.50099 14.4457 5.48706 14.4143 5.46617 14.4143C5.44876 14.4143 5.43136 14.383 5.43136 14.3447C5.43136 14.3064 5.41743 14.2751 5.39654 14.2751C5.37913 14.2751 5.36172 14.2437 5.36172 14.2089C5.36172 14.1706 5.34779 14.1288 5.3269 14.1184C5.3095 14.1079 5.29209 14.0592 5.29209 14.0104C5.29209 13.9652 5.27816 13.9269 5.25727 13.9269C5.23986 13.9269 5.22245 13.8886 5.22245 13.8433C5.22245 13.7946 5.20853 13.7458 5.18764 13.7354C5.17023 13.7249 5.15282 13.6832 5.15282 13.6449C5.15282 13.61 5.13889 13.5787 5.118 13.5787C5.10059 13.5787 5.08318 13.5334 5.08318 13.4777C5.08318 13.4186 5.06926 13.3628 5.04837 13.3524C5.03096 13.342 5.01355 13.2932 5.01355 13.2479C5.01355 13.2027 4.99962 13.1539 4.97873 13.1435C4.96132 13.1331 4.94392 13.0773 4.94392 13.0216C4.94392 12.9659 4.92999 12.9102 4.9091 12.8998C4.89169 12.8893 4.87428 12.8267 4.87428 12.7605C4.87428 12.6944 4.86035 12.6317 4.83946 12.6212C4.82205 12.6108 4.80465 12.5377 4.80465 12.4646C4.80465 12.3914 4.79072 12.3183 4.76983 12.3079C4.75242 12.2974 4.73501 12.2208 4.73501 12.1373C4.73501 12.0537 4.72109 11.9771 4.70368 11.9597C4.66886 11.9214 4.65841 11.8065 4.59226 10.9152C4.52959 10.0343 4.547 9.50162 4.66538 8.72171C4.68627 8.58592 4.71064 8.40836 4.72109 8.32131C4.73153 8.23427 4.7559 8.15071 4.77331 8.12982C4.79072 8.11241 4.80465 8.04626 4.80465 7.98707C4.80465 7.9244 4.82205 7.86173 4.83946 7.85128C4.85687 7.84084 4.87428 7.77816 4.87428 7.71201C4.87428 7.64586 4.89169 7.58319 4.9091 7.57274C4.92999 7.5623 4.94392 7.49614 4.94392 7.42999C4.94392 7.36384 4.96132 7.31161 4.97873 7.31161C4.99962 7.31161 5.01355 7.26287 5.01355 7.20716C5.01355 7.14797 5.03096 7.10271 5.04837 7.10271C5.06926 7.10271 5.08318 7.05397 5.08318 6.99826C5.08318 6.93907 5.10059 6.89381 5.118 6.89381C5.13889 6.89381 5.15282 6.86247 5.15282 6.82417C5.15282 6.78587 5.17023 6.7232 5.18764 6.6849C5.20853 6.6466 5.23986 6.58393 5.25727 6.54564C5.27816 6.50734 5.29209 6.44467 5.29209 6.40637C5.29209 6.36807 5.3095 6.33673 5.3269 6.33673C5.34779 6.33673 5.36172 6.3054 5.36172 6.2671C5.36172 6.2288 5.37913 6.19746 5.39654 6.19746C5.41743 6.19746 5.43136 6.17309 5.43136 6.14524C5.43136 6.11738 5.44528 6.06516 5.46269 6.03034C5.4801 5.999 5.5567 5.84581 5.62981 5.69261C5.79694 5.35837 5.92924 5.10768 5.95361 5.08331C5.98843 5.0485 6.09636 4.857 6.11725 4.79433C6.1277 4.76299 6.14859 4.73514 6.166 4.73514C6.18341 4.73514 6.19733 4.71425 6.19733 4.68988C6.19733 4.66551 6.22867 4.6098 6.26697 4.56802C6.30527 4.52624 6.3366 4.48097 6.3366 4.46705C6.3366 4.45312 6.38535 4.38349 6.44106 4.31733C6.49676 4.25118 6.54551 4.18503 6.54551 4.16762C6.54551 4.15369 6.59077 4.0945 6.64996 4.03183C6.70915 3.97264 6.75441 3.90997 6.75441 3.89256C6.75441 3.87167 6.79967 3.81597 6.8519 3.76722C6.90412 3.715 6.98769 3.61751 7.03295 3.55136C7.14436 3.39468 8.05657 2.48247 8.21673 2.36757C8.28289 2.31883 8.39778 2.22134 8.47438 2.1517C8.5475 2.07859 8.62758 2.0194 8.64847 2.0194C8.66936 2.0194 8.71114 1.98806 8.73899 1.94976C8.76684 1.91146 8.80863 1.88013 8.82952 1.88013C8.85041 1.88013 8.91656 1.83139 8.97575 1.77568C9.03842 1.71649 9.10109 1.67123 9.11502 1.67123C9.13242 1.67123 9.17421 1.64337 9.2125 1.60856C9.29955 1.53196 9.47015 1.42751 9.55023 1.40313C9.58157 1.39269 9.60942 1.3718 9.60942 1.35439C9.60942 1.33698 9.64076 1.32305 9.67906 1.32305C9.71735 1.32305 9.74869 1.31261 9.74869 1.2952C9.74869 1.28127 9.78351 1.25342 9.82877 1.23253C9.87055 1.21164 10.0969 1.09674 10.3301 0.978364C10.5599 0.863467 10.7758 0.765979 10.8071 0.765979C10.8385 0.765979 10.8628 0.752052 10.8628 0.738125C10.8628 0.720716 10.9429 0.685899 11.0369 0.661527C11.1344 0.637155 11.211 0.602338 11.211 0.584929C11.211 0.571002 11.2598 0.557075 11.3155 0.557075C11.3747 0.557075 11.4199 0.539667 11.4199 0.522258C11.4199 0.501368 11.4687 0.487441 11.5244 0.487441C11.5836 0.487441 11.6288 0.470032 11.6288 0.452624C11.6288 0.431733 11.6741 0.417806 11.7298 0.417806C11.789 0.417806 11.8447 0.400398 11.8551 0.382989C11.8656 0.362099 11.9213 0.348172 11.977 0.348172C12.0327 0.348172 12.0849 0.334245 12.0954 0.316837C12.1058 0.299428 12.165 0.278538 12.2277 0.268092C12.2903 0.254166 12.4296 0.229794 12.5341 0.208903C12.8857 0.139269 13.1399 0.10097 13.4463 0.0765979C13.6134 0.062671 13.7596 0.0382989 13.7736 0.024372C13.7875 0.0104452 13.9546 0 14.1426 0L14.4838 0Z" fill="black"/>
<path d="M13.8608 20.0652C13.7947 20.0965 13.7146 20.1243 13.6798 20.1243C13.645 20.1243 13.6067 20.1383 13.5962 20.1592C13.5858 20.1766 13.537 20.194 13.4918 20.194C13.4465 20.194 13.3978 20.2079 13.3873 20.2288C13.3769 20.2462 13.3212 20.2636 13.2655 20.2636C13.2098 20.2636 13.1541 20.281 13.1436 20.2984C13.1332 20.3193 13.0705 20.3332 13.0043 20.3332C12.9382 20.3332 12.879 20.3472 12.8686 20.3646C12.8581 20.382 12.7885 20.4029 12.7188 20.4133C12.6457 20.4238 12.4995 20.4516 12.395 20.4725C11.2878 20.6919 9.93694 20.7197 8.84368 20.5422C8.71834 20.5213 8.54425 20.4969 8.45373 20.4864C8.35972 20.476 8.28661 20.4516 8.28661 20.4342C8.28661 20.4168 8.22394 20.4029 8.14734 20.4029C8.07074 20.4029 8.00807 20.3855 8.00807 20.3681C8.00807 20.3472 7.95584 20.3332 7.88969 20.3332C7.82354 20.3332 7.75739 20.3193 7.74694 20.2984C7.73649 20.281 7.68079 20.2636 7.6216 20.2636C7.56589 20.2636 7.52063 20.2462 7.52063 20.2288C7.52063 20.2079 7.47537 20.194 7.41618 20.194C7.36047 20.194 7.31172 20.1766 7.31172 20.1592C7.31172 20.1383 7.26646 20.1243 7.21076 20.1243C7.15157 20.1243 7.09586 20.1069 7.08541 20.0895C7.07497 20.0686 7.02622 20.0547 6.97748 20.0547C6.93222 20.0547 6.89392 20.0408 6.89392 20.0269C6.89392 20.0094 6.81732 19.9746 6.71983 19.9503C6.62583 19.9259 6.54575 19.8911 6.54575 19.8737C6.54575 19.8597 6.51441 19.8458 6.47611 19.8458C6.43781 19.8458 6.40648 19.8284 6.40648 19.811C6.40648 19.7901 6.38559 19.7762 6.3647 19.7762C6.31943 19.7762 5.60568 19.4315 5.57086 19.3932C5.53953 19.3618 5.34455 19.2504 5.28536 19.2295C5.25055 19.2191 5.22269 19.1982 5.22269 19.1808C5.22269 19.1634 5.19136 19.1495 5.15306 19.1495C5.11476 19.1495 5.08342 19.1355 5.08342 19.1216C5.08342 19.1042 5.04164 19.0694 4.98942 19.0415C4.93371 19.0137 4.86756 18.9649 4.83622 18.9336C4.80489 18.8988 4.76311 18.8709 4.7457 18.8709C4.72829 18.8709 4.68303 18.8431 4.64473 18.8083C4.60991 18.7734 4.52287 18.7108 4.45671 18.662C4.39056 18.6168 4.32789 18.568 4.31744 18.5576C4.307 18.5471 4.26174 18.5088 4.21647 18.4775C3.91357 18.2721 2.64622 17.0047 2.64622 16.9107C2.64622 16.8933 2.61836 16.8515 2.58355 16.8202C2.54873 16.7889 2.48258 16.7088 2.43732 16.6426C2.39205 16.5765 2.33286 16.4999 2.30849 16.4755C2.28412 16.4511 2.23886 16.385 2.20404 16.3293C2.1727 16.2701 2.13092 16.2248 2.117 16.2248C2.10307 16.2248 2.08914 16.2039 2.08914 16.1796C2.08914 16.1552 2.06129 16.103 2.02995 16.0647C1.99514 16.0264 1.94987 15.9637 1.92898 15.9254C1.90809 15.8906 1.8698 15.8209 1.84194 15.7722C1.81409 15.7234 1.78623 15.6782 1.77579 15.6677C1.74097 15.6329 1.63304 15.4414 1.61215 15.3788C1.6017 15.3474 1.58081 15.3196 1.5634 15.3196C1.546 15.3196 1.53207 15.2882 1.53207 15.2499C1.53207 15.2116 1.51814 15.1803 1.49725 15.1803C1.47984 15.1803 1.46243 15.149 1.46243 15.1107C1.46243 15.0724 1.44851 15.041 1.42762 15.041C1.41021 15.041 1.3928 15.0097 1.3928 14.9714C1.3928 14.9331 1.37887 14.9018 1.35798 14.9018C1.34057 14.9018 1.32316 14.8704 1.32316 14.8321C1.32316 14.7938 1.30924 14.7625 1.28835 14.7625C1.27094 14.7625 1.25353 14.7312 1.25353 14.6929C1.25353 14.6546 1.2396 14.6232 1.21871 14.6232C1.2013 14.6232 1.1839 14.5849 1.1839 14.5397C1.1839 14.4909 1.16997 14.4422 1.14908 14.4317C1.13167 14.4213 1.11426 14.3795 1.11426 14.3412C1.11426 14.3064 1.10033 14.2751 1.07944 14.2751C1.06204 14.2751 1.04463 14.2437 1.04463 14.2089C1.04463 14.1706 1.0307 14.1288 1.00981 14.1184C0.992402 14.1079 0.974993 14.0592 0.974993 14.0104C0.974993 13.9652 0.961066 13.9269 0.940176 13.9269C0.922767 13.9269 0.905358 13.8781 0.905358 13.8224C0.905358 13.7632 0.891432 13.718 0.870541 13.718C0.853133 13.718 0.835724 13.6797 0.835724 13.6344C0.835724 13.5857 0.821797 13.5369 0.800907 13.5265C0.783498 13.516 0.76609 13.4603 0.76609 13.4011C0.76609 13.3454 0.752163 13.3002 0.734754 13.3002C0.717346 13.3002 0.696455 13.2479 0.68601 13.1853C0.654675 12.9973 0.623339 12.8684 0.592004 12.7953C0.574595 12.757 0.553705 12.67 0.539778 12.6038C0.529333 12.5377 0.504961 12.4019 0.48407 12.3079C0.316948 11.4897 0.257758 10.292 0.34132 9.48769C0.365692 9.2753 0.393546 9.01069 0.403991 8.89579C0.414436 8.7809 0.438808 8.67296 0.456217 8.65207C0.473625 8.63467 0.487552 8.54414 0.487552 8.45362C0.487552 8.36309 0.504961 8.28649 0.522369 8.28649C0.54326 8.28649 0.557186 8.22382 0.557186 8.14722C0.557186 8.07063 0.574595 8.00796 0.592004 8.00796C0.612894 8.00796 0.626821 7.95573 0.626821 7.88958C0.626821 7.82342 0.644229 7.75727 0.661638 7.74683C0.682528 7.73638 0.696455 7.68067 0.696455 7.62497C0.696455 7.56926 0.713864 7.51355 0.731272 7.50311C0.752163 7.49266 0.76609 7.44392 0.76609 7.39865C0.76609 7.35339 0.783498 7.30465 0.800907 7.2942C0.821797 7.28376 0.835724 7.23501 0.835724 7.18627C0.835724 7.14101 0.853133 7.10271 0.870541 7.10271C0.891432 7.10271 0.905358 7.06441 0.905358 7.01915C0.905358 6.9704 0.922767 6.92166 0.940176 6.91121C0.961066 6.90077 0.974993 6.85899 0.974993 6.82069C0.974993 6.78587 0.992402 6.75454 1.00981 6.75454C1.0307 6.75454 1.04463 6.73016 1.04463 6.70231C1.04463 6.67098 1.07596 6.58045 1.11426 6.50385C1.15256 6.42377 1.1839 6.33673 1.1839 6.31236C1.1839 6.28799 1.2013 6.2671 1.21871 6.2671C1.2396 6.2671 1.25353 6.23576 1.25353 6.19746C1.25353 6.15916 1.27094 6.12783 1.28835 6.12783C1.30924 6.12783 1.32316 6.09649 1.32316 6.05819C1.32316 6.01989 1.34057 5.98856 1.35798 5.98856C1.37887 5.98856 1.3928 5.95722 1.3928 5.91892C1.3928 5.88062 1.40324 5.84929 1.42065 5.84929C1.43458 5.84929 1.46592 5.80054 1.49029 5.74484C1.546 5.62298 1.53555 5.62646 1.65393 5.68217C1.70267 5.70306 1.74097 5.73439 1.74097 5.7518C1.74097 5.76573 1.77231 5.77965 1.81061 5.77965C1.8489 5.77965 1.88024 5.79358 1.88024 5.81099C1.88024 5.8284 1.90809 5.84929 1.94291 5.85973C2.0021 5.88062 2.1936 5.98856 2.22841 6.02337C2.24582 6.04078 2.48954 6.17309 2.63577 6.2462C2.68104 6.2671 2.71585 6.29495 2.71585 6.30888C2.71585 6.32628 2.74023 6.33673 2.76808 6.33673C2.79941 6.33673 2.85512 6.36807 2.8969 6.40636C2.93868 6.44466 2.99439 6.476 3.01876 6.476C3.04313 6.476 3.06403 6.48993 3.06403 6.51082C3.06403 6.52822 3.09536 6.54563 3.13366 6.54563C3.17196 6.54563 3.20329 6.55956 3.20329 6.57697C3.20329 6.59438 3.23115 6.61527 3.26597 6.62571C3.32515 6.6466 3.51665 6.75454 3.55147 6.78935C3.58628 6.82417 3.77778 6.9321 3.84045 6.95299C3.87178 6.96344 3.89964 6.98433 3.89964 7.00174C3.89964 7.01915 3.93097 7.03307 3.96927 7.03307C4.00757 7.03307 4.03891 7.047 4.03891 7.06789C4.03891 7.0853 4.07024 7.10271 4.10854 7.10271C4.16425 7.10271 4.17818 7.12708 4.17818 7.21761C4.17818 7.28028 4.16425 7.34643 4.15032 7.36384C4.13291 7.38473 4.08417 7.51703 4.04239 7.65978C3.99713 7.80253 3.94838 7.94877 3.93097 7.9801C3.91357 8.01492 3.89964 8.07411 3.89964 8.11241C3.89964 8.15071 3.88571 8.2099 3.8683 8.24471C3.81608 8.34916 3.76037 8.5511 3.76037 8.63815C3.76037 8.68689 3.74644 8.73912 3.72903 8.75653C3.71163 8.77742 3.69073 8.85401 3.68029 8.93061C3.66636 9.00721 3.64199 9.15692 3.6211 9.26138C3.40872 10.3198 3.37738 11.7404 3.54798 12.7605C3.56887 12.8754 3.59325 13.0321 3.60369 13.1087C3.61762 13.1853 3.63851 13.2793 3.65592 13.3176C3.67333 13.3559 3.69422 13.4429 3.70814 13.5091C3.71859 13.5752 3.736 13.6832 3.74992 13.7424C3.76037 13.805 3.78126 13.8572 3.79867 13.8572C3.81608 13.8572 3.83 13.8921 3.83 13.9338C3.83 14.0209 3.9066 14.2576 3.9449 14.2959C3.95883 14.3099 3.96927 14.3586 3.96927 14.4039C3.96927 14.4457 3.98668 14.484 4.00409 14.484C4.02498 14.484 4.03891 14.5153 4.03891 14.5501C4.03891 14.5884 4.05632 14.6302 4.07372 14.6406C4.09461 14.6511 4.10854 14.6998 4.10854 14.7486C4.10854 14.7938 4.12595 14.8321 4.14336 14.8321C4.16425 14.8321 4.17818 14.8635 4.17818 14.9018C4.17818 14.9401 4.19558 14.9714 4.21299 14.9714C4.23388 14.9714 4.24781 15.0027 4.24781 15.041C4.24781 15.0793 4.26522 15.1107 4.28263 15.1107C4.30352 15.1107 4.31744 15.142 4.31744 15.1803C4.31744 15.2186 4.33485 15.2499 4.35226 15.2499C4.37315 15.2499 4.38708 15.2813 4.38708 15.3196C4.38708 15.3579 4.40449 15.3892 4.4219 15.3892C4.44279 15.3892 4.45671 15.4205 4.45671 15.4588C4.45671 15.4971 4.47412 15.5285 4.49153 15.5285C4.51242 15.5285 4.52635 15.5528 4.52635 15.5807C4.52635 15.612 4.55768 15.6677 4.59598 15.7095C4.63428 15.7513 4.66562 15.807 4.66562 15.8314C4.66562 15.8558 4.68303 15.8766 4.70043 15.8766C4.72132 15.8766 4.73525 15.8975 4.73525 15.9219C4.73525 15.9463 4.76659 16.002 4.80489 16.0438C4.84318 16.0855 4.87452 16.1308 4.87452 16.1447C4.87452 16.1587 4.92326 16.2283 4.97897 16.2945C5.03468 16.3606 5.08342 16.4302 5.08342 16.4442C5.08342 16.4616 5.1252 16.5173 5.18091 16.566C5.23314 16.6183 5.32018 16.7192 5.37589 16.7923C5.51167 16.9734 6.25328 17.7185 6.40648 17.8264C6.47263 17.8717 6.55271 17.9378 6.58405 17.9726C6.61538 18.0075 6.65368 18.0353 6.67457 18.0353C6.69198 18.0353 6.77554 18.098 6.8591 18.1746C6.94266 18.2512 7.02622 18.3138 7.04363 18.3138C7.05756 18.3138 7.10282 18.3452 7.1446 18.3835C7.18638 18.4218 7.24209 18.4531 7.26646 18.4531C7.29083 18.4531 7.31172 18.467 7.31172 18.481C7.31172 18.4949 7.38832 18.5471 7.48581 18.5959C7.57982 18.6411 7.6599 18.6899 7.6599 18.7038C7.6599 18.7212 7.69123 18.7317 7.72953 18.7317C7.76783 18.7317 7.79917 18.7456 7.79917 18.7595C7.79917 18.7769 7.99762 18.8883 8.24483 19.0067C8.48855 19.1251 8.71486 19.24 8.74619 19.2574C8.78101 19.2748 8.83324 19.2887 8.86109 19.2887C8.88894 19.2887 8.91332 19.3027 8.91332 19.3235C8.91332 19.341 8.94465 19.3584 8.98295 19.3584C9.02125 19.3584 9.0874 19.3758 9.13266 19.4001C9.29979 19.4837 9.33112 19.4976 9.39728 19.4976C9.43557 19.4976 9.47736 19.515 9.4878 19.5325C9.49825 19.5499 9.54003 19.5673 9.57833 19.5673C9.61314 19.5673 9.67233 19.5812 9.70715 19.5986C9.73848 19.616 9.83597 19.6473 9.92302 19.6717C10.0101 19.6961 10.1075 19.7274 10.1389 19.7448C10.1737 19.7622 10.2573 19.7762 10.3234 19.7762C10.3896 19.7762 10.4453 19.7901 10.4453 19.8075C10.4453 19.8249 10.5114 19.8458 10.595 19.8597C10.6751 19.8702 10.8352 19.8946 10.9501 19.9154C11.4097 19.999 11.7544 20.0269 12.6388 20.0408C13.2864 20.0547 13.5997 20.0477 13.6868 20.0199C13.7529 19.9955 13.8469 19.9851 13.8957 19.992C13.9757 20.0025 13.9757 20.006 13.8608 20.0652Z" fill="black"/>
<path d="M18.6481 16.2143C18.6342 16.2874 18.6168 16.4058 18.6063 16.4789C18.5924 16.5485 18.5715 16.6182 18.5541 16.6286C18.5367 16.639 18.5228 16.7087 18.5228 16.7818C18.5228 16.8549 18.5088 16.928 18.4879 16.9385C18.4705 16.9489 18.4531 17.0046 18.4531 17.0603C18.4531 17.116 18.4392 17.1717 18.4183 17.1822C18.4009 17.1926 18.3835 17.2483 18.3835 17.3041C18.3835 17.3598 18.3696 17.4155 18.3487 17.4259C18.3313 17.4364 18.3139 17.4851 18.3139 17.5304C18.3139 17.5756 18.2999 17.6244 18.279 17.6348C18.2616 17.6453 18.2442 17.694 18.2442 17.7393C18.2442 17.7845 18.2303 17.8333 18.2094 17.8437C18.192 17.8542 18.1746 17.9029 18.1746 17.9517C18.1746 17.9969 18.1607 18.0352 18.1398 18.0352C18.1224 18.0352 18.1049 18.0665 18.1049 18.1014C18.1049 18.1397 18.091 18.1814 18.0701 18.1919C18.0527 18.2023 18.0353 18.2511 18.0353 18.2998C18.0353 18.3451 18.0214 18.3834 18.0005 18.3834C17.9831 18.3834 17.9657 18.4043 17.9657 18.4252C17.9657 18.4844 17.5409 19.3374 17.5061 19.3513C17.4922 19.3583 17.4782 19.3931 17.4782 19.4314C17.4782 19.4662 17.4643 19.4975 17.4434 19.4975C17.426 19.4975 17.4086 19.5184 17.4086 19.5428C17.4086 19.5672 17.3773 19.6229 17.339 19.6647C17.3007 19.7064 17.2693 19.7552 17.2693 19.7761C17.2693 19.797 17.238 19.8457 17.1997 19.8875C17.1614 19.9293 17.1301 19.985 17.1301 20.0093C17.1301 20.0337 17.1161 20.0546 17.1022 20.0546C17.0883 20.0546 17.05 20.0964 17.0187 20.1486C16.9873 20.2043 16.9212 20.2914 16.8724 20.3506C16.8237 20.4063 16.7819 20.4689 16.7819 20.4863C16.7819 20.5038 16.754 20.5421 16.7192 20.5734C16.6844 20.6047 16.6183 20.6813 16.5765 20.7475C16.4964 20.8589 15.8418 21.5587 15.6747 21.7049C15.6294 21.7467 15.4902 21.8756 15.3614 21.9939C15.236 22.1158 15.1176 22.2133 15.1037 22.2133C15.0863 22.2133 15.0271 22.2585 14.9644 22.3177C14.9052 22.3734 14.8426 22.4222 14.8217 22.4222C14.8043 22.4222 14.7625 22.45 14.7312 22.4849C14.6998 22.5162 14.6337 22.5649 14.5814 22.5928C14.5257 22.6206 14.484 22.6555 14.484 22.6729C14.484 22.6868 14.4631 22.7007 14.4387 22.7007C14.4143 22.7007 14.3621 22.7286 14.3238 22.7599C14.289 22.7947 14.2159 22.8435 14.1636 22.8713C14.1079 22.8992 14.0662 22.934 14.0662 22.9514C14.0662 22.9653 14.0348 22.9793 13.9965 22.9793C13.9582 22.9793 13.9269 22.9932 13.9269 23.0106C13.9269 23.028 13.899 23.0489 13.8677 23.0593C13.7841 23.0872 13.5996 23.1986 13.5857 23.2299C13.5787 23.2473 13.5439 23.2578 13.5056 23.2578C13.4708 23.2578 13.4394 23.2717 13.4394 23.2926C13.4394 23.31 13.4081 23.3274 13.3698 23.3274C13.3315 23.3274 13.3002 23.3414 13.3002 23.3622C13.3002 23.3797 13.2688 23.3971 13.2305 23.3971C13.1922 23.3971 13.1609 23.411 13.1609 23.4319C13.1609 23.4493 13.14 23.4667 13.1156 23.4667C13.0913 23.4667 13.0042 23.498 12.9241 23.5363C12.8476 23.5746 12.757 23.606 12.7257 23.606C12.6978 23.606 12.6735 23.6199 12.6735 23.6408C12.6735 23.6582 12.6491 23.6756 12.6212 23.6756C12.5934 23.6756 12.5412 23.6895 12.5063 23.7069C12.475 23.7243 12.4019 23.7557 12.3427 23.7801C12.287 23.8044 12.2104 23.8358 12.1791 23.8532C12.1442 23.8706 12.092 23.8845 12.0642 23.8845C12.0363 23.8845 11.9841 23.8984 11.9493 23.9158C11.9179 23.9332 11.8204 23.9646 11.7334 23.989C11.6464 24.0133 11.5489 24.0447 11.5175 24.0621C11.4827 24.0795 11.4096 24.0934 11.3539 24.0934C11.2947 24.0934 11.2425 24.1073 11.232 24.1247C11.2216 24.1422 11.152 24.163 11.0823 24.177C11.0092 24.1874 10.8873 24.2048 10.8107 24.2153C10.7341 24.2292 10.6401 24.2501 10.6018 24.2675C10.4034 24.3545 9.57125 24.4172 8.63467 24.4172C7.75727 24.4137 7.37777 24.3894 6.91122 24.3023C6.79632 24.2814 6.62571 24.2536 6.52823 24.2466C6.43422 24.2362 6.34021 24.2118 6.31932 24.1944C6.30191 24.177 6.23576 24.163 6.17309 24.163C6.11042 24.163 6.05819 24.1456 6.05819 24.1282C6.05819 24.1073 5.99552 24.0934 5.91893 24.0934C5.84233 24.0934 5.77966 24.076 5.77966 24.0586C5.77966 24.0377 5.73439 24.0238 5.67869 24.0238C5.6195 24.0238 5.56379 24.0064 5.55334 23.989C5.5429 23.9681 5.49416 23.9541 5.44889 23.9541C5.40363 23.9541 5.35489 23.9367 5.34444 23.9193C5.334 23.8984 5.28525 23.8845 5.23999 23.8845C5.19473 23.8845 5.14598 23.8671 5.13554 23.8497C5.12509 23.8288 5.07635 23.8149 5.0276 23.8149C4.98234 23.8149 4.94404 23.7975 4.94404 23.7801C4.94404 23.7592 4.90574 23.7452 4.86048 23.7452C4.81174 23.7452 4.76299 23.7278 4.75255 23.7104C4.7421 23.6895 4.7038 23.6756 4.67247 23.6756C4.64113 23.6756 4.51927 23.6269 4.40438 23.5711C4.28948 23.512 4.17807 23.4667 4.15369 23.4667C4.12932 23.4667 4.10843 23.4493 4.10843 23.4319C4.10843 23.411 4.07709 23.3971 4.04228 23.3971C4.00398 23.3971 3.96916 23.3866 3.9622 23.3692C3.95175 23.3483 3.62795 23.1673 3.42253 23.0698C3.37727 23.0489 3.34245 23.021 3.34245 23.0036C3.34245 22.9897 3.32156 22.9793 3.29719 22.9793C3.27282 22.9793 3.22059 22.9514 3.18229 22.9166C3.11614 22.8609 3.07436 22.8365 2.88286 22.7251C2.8376 22.7042 2.79582 22.6763 2.78538 22.6659C2.77493 22.6555 2.71226 22.6067 2.64611 22.5614C2.57996 22.5162 2.51728 22.4674 2.50684 22.457C2.49639 22.4466 2.43372 22.3978 2.36757 22.3525C2.30142 22.3073 2.22134 22.2446 2.19348 22.2133C2.16563 22.1854 2.08207 22.1158 2.00895 22.0601C1.83139 21.9278 1.08282 21.1827 0.974882 21.0295C0.926138 20.9633 0.82865 20.8484 0.759015 20.7718C0.685899 20.6987 0.62671 20.6186 0.62671 20.5978C0.62671 20.5769 0.595374 20.5351 0.557075 20.5072C0.518776 20.4794 0.487441 20.4411 0.487441 20.4202C0.487441 20.4028 0.438697 20.3297 0.382989 20.2635C0.327282 20.1974 0.278538 20.1208 0.278538 20.0964C0.278538 20.0755 0.264611 20.0546 0.24372 20.0546C0.226312 20.0546 0.208903 20.0337 0.208903 20.0093C0.208903 19.985 0.177568 19.9293 0.139269 19.8875C0.10097 19.8457 0.0696344 19.79 0.0696344 19.7587C0.0696344 19.7308 0.0557075 19.7064 0.0348172 19.7064C0.0174086 19.7064 0 19.6751 0 19.6368C0 19.5915 0.024372 19.5672 0.0696344 19.5672C0.107933 19.5672 0.139269 19.5532 0.139269 19.5358C0.139269 19.5184 0.167123 19.4975 0.20194 19.4871C0.282019 19.4592 0.466551 19.3478 0.480477 19.313C0.487441 19.2991 0.522258 19.2886 0.560557 19.2886C0.595374 19.2886 0.62671 19.2747 0.62671 19.2573C0.62671 19.2399 0.654563 19.219 0.689381 19.2086C0.76946 19.1807 0.953991 19.0693 0.967918 19.0345C0.974882 19.0205 1.0097 19.0101 1.048 19.0101C1.08282 19.0101 1.11415 18.9962 1.11415 18.9822C1.11415 18.9683 1.19075 18.9161 1.28824 18.8673C1.38224 18.8221 1.46232 18.7733 1.46232 18.7559C1.46232 18.742 1.49366 18.7316 1.53196 18.7316C1.57026 18.7316 1.60159 18.7176 1.60159 18.7002C1.60159 18.6828 1.62945 18.6619 1.66426 18.6515C1.74434 18.6236 1.92887 18.5122 1.9428 18.4774C1.94976 18.4635 1.97762 18.453 2.00547 18.453C2.03332 18.453 2.08903 18.4217 2.13081 18.3834C2.17259 18.3451 2.2283 18.3138 2.25267 18.3138C2.27705 18.3138 2.29794 18.2963 2.29794 18.2789C2.29794 18.258 2.32927 18.2441 2.36757 18.2441C2.40587 18.2441 2.4372 18.2337 2.4372 18.2163C2.4372 18.2023 2.47899 18.1745 2.52773 18.1501C2.61129 18.1118 2.6287 18.1188 2.78189 18.2789C2.86894 18.3695 3.01169 18.5296 3.09873 18.6306C3.32853 18.8987 3.76026 19.3269 3.90997 19.4418C3.98309 19.4941 4.0945 19.5881 4.15369 19.6507C4.21636 19.7099 4.32082 19.797 4.38697 19.8457C4.45312 19.891 4.54365 19.9641 4.58543 20.0093C4.62721 20.0511 4.71077 20.1138 4.76996 20.1451C4.82566 20.18 4.87441 20.2217 4.87441 20.2357C4.87441 20.2496 4.8953 20.2635 4.91967 20.2635C4.94056 20.2635 5.01716 20.3123 5.08331 20.368C5.14947 20.4237 5.22606 20.4724 5.25044 20.4724C5.27133 20.4724 5.29222 20.4863 5.29222 20.5038C5.29222 20.5212 5.32355 20.549 5.36185 20.5595C5.40015 20.5699 5.45237 20.6012 5.47675 20.6221C5.53942 20.6813 5.71699 20.7858 5.7901 20.8101C5.82144 20.8206 5.84929 20.8415 5.84929 20.8589C5.84929 20.8763 5.88063 20.8902 5.91544 20.8902C5.95374 20.8902 5.98856 20.9007 5.99552 20.9146C6.00945 20.9529 6.29843 21.0991 6.35762 21.0991C6.38548 21.0991 6.40637 21.1131 6.40637 21.1339C6.40637 21.1514 6.4377 21.1688 6.476 21.1688C6.5143 21.1688 6.54564 21.1827 6.54564 21.2036C6.54564 21.221 6.56653 21.2384 6.5909 21.2384C6.61875 21.2384 6.6849 21.2593 6.74061 21.2871C6.92862 21.3777 7.0853 21.4403 7.22457 21.4856C7.30117 21.51 7.37777 21.5448 7.39517 21.5587C7.41607 21.5726 7.46481 21.5866 7.50659 21.5866C7.55185 21.5866 7.59711 21.6005 7.60756 21.6214C7.61801 21.6388 7.65979 21.6562 7.69808 21.6562C7.7329 21.6562 7.79209 21.6701 7.82691 21.6875C7.93832 21.7432 8.1333 21.7955 8.23775 21.7955C8.29694 21.7955 8.35613 21.8094 8.37702 21.8268C8.39443 21.8442 8.47799 21.8686 8.56503 21.879C8.65208 21.8895 8.83313 21.9173 8.96543 21.9382C9.26834 21.9939 10.9187 21.9939 11.2634 21.9417C11.5523 21.8964 11.7961 21.8477 12.0119 21.7955C12.099 21.7746 12.2208 21.7467 12.2835 21.7363C12.3462 21.7258 12.4054 21.7049 12.4158 21.6875C12.4263 21.6701 12.4715 21.6562 12.5168 21.6562C12.562 21.6562 12.6108 21.6388 12.6212 21.6214C12.6317 21.6005 12.6874 21.5866 12.7431 21.5866C12.7988 21.5866 12.8545 21.5692 12.865 21.5518C12.8754 21.5309 12.9172 21.5169 12.9555 21.5169C12.9903 21.5169 13.0216 21.4995 13.0216 21.4821C13.0216 21.4612 13.0704 21.4473 13.1261 21.4473C13.1853 21.4473 13.2305 21.4299 13.2305 21.4125C13.2305 21.3916 13.2619 21.3777 13.3002 21.3777C13.3385 21.3777 13.422 21.3463 13.4917 21.308C13.5613 21.2697 13.6379 21.2384 13.6658 21.2384C13.6936 21.2384 13.718 21.221 13.718 21.2036C13.718 21.1827 13.7493 21.1688 13.7876 21.1688C13.8259 21.1688 13.8572 21.1514 13.8572 21.1339C13.8572 21.1131 13.8886 21.0991 13.9269 21.0991C13.9652 21.0991 13.9965 21.0817 13.9965 21.0643C13.9965 21.0434 14.0279 21.0295 14.0662 21.0295C14.1045 21.0295 14.1358 21.0121 14.1358 20.9947C14.1358 20.9738 14.1671 20.9599 14.2054 20.9599C14.2437 20.9599 14.2751 20.9459 14.2751 20.932C14.2751 20.9146 14.3551 20.8659 14.4491 20.8206C14.5466 20.7753 14.6232 20.7266 14.6232 20.7092C14.6232 20.6952 14.6546 20.6813 14.6929 20.6813C14.7312 20.6813 14.7625 20.6674 14.7625 20.6535C14.7625 20.6361 14.8043 20.6012 14.86 20.5734C14.9122 20.5455 14.9853 20.4968 15.0201 20.462C15.0584 20.4306 15.1072 20.4028 15.1281 20.4028C15.149 20.4028 15.1873 20.3714 15.2151 20.3331C15.243 20.2948 15.2813 20.2635 15.3022 20.2635C15.3231 20.2635 15.3718 20.2357 15.4101 20.2008C15.4449 20.166 15.532 20.0999 15.5981 20.0546C15.6643 20.0093 15.7792 19.9119 15.8488 19.8387C15.9184 19.7656 15.9915 19.7064 16.009 19.7064C16.0542 19.7064 16.7297 19.0345 16.9212 18.8012C17.0082 18.6967 17.1196 18.5679 17.1718 18.5157C17.2276 18.4669 17.2693 18.4112 17.2693 18.3903C17.2693 18.3729 17.3181 18.3103 17.3738 18.2511C17.433 18.1884 17.4782 18.1292 17.4782 18.1153C17.4782 18.0979 17.527 18.0317 17.5827 17.9656C17.6384 17.8994 17.6871 17.8298 17.6871 17.8159C17.6871 17.8019 17.7185 17.7567 17.7568 17.7149C17.7951 17.6731 17.8264 17.6174 17.8264 17.593C17.8264 17.5687 17.8438 17.5478 17.8612 17.5478C17.8821 17.5478 17.896 17.5269 17.896 17.5025C17.896 17.4781 17.9274 17.4224 17.9657 17.3806C18.004 17.3389 18.0353 17.2832 18.0353 17.2553C18.0353 17.2275 18.0458 17.1996 18.0632 17.1926C18.0875 17.1822 18.1815 17.0151 18.3556 16.6599C18.4113 16.545 18.4705 16.4232 18.4914 16.3918C18.5088 16.357 18.5228 16.3048 18.5228 16.2769C18.5228 16.2491 18.5402 16.2247 18.5576 16.2247C18.5785 16.2247 18.5924 16.1934 18.5924 16.1551C18.5924 16.1168 18.6098 16.0854 18.6307 16.0854C18.6551 16.0854 18.662 16.1307 18.6481 16.2143Z" fill="black"/>
<path d="M21.176 18.8535C21.1133 19.3548 21.0402 19.7761 20.9601 20.0895C20.9392 20.1765 20.9114 20.2984 20.9009 20.3576C20.8905 20.4202 20.8696 20.4725 20.8522 20.4725C20.8348 20.4725 20.8209 20.5073 20.8209 20.549C20.8209 20.6291 20.7652 20.8311 20.7129 20.932C20.6955 20.9669 20.6816 21.026 20.6816 21.0609C20.6816 21.0992 20.6677 21.1375 20.6537 21.1479C20.6398 21.1584 20.605 21.2454 20.5771 21.3394C20.5528 21.4369 20.518 21.517 20.5005 21.517C20.4866 21.517 20.4727 21.5413 20.4727 21.5692C20.4727 21.597 20.4588 21.6528 20.4379 21.6911C20.4205 21.7294 20.3891 21.792 20.3682 21.8303C20.3508 21.8686 20.3334 21.9243 20.3334 21.9522C20.3334 21.98 20.3195 22.0044 20.2986 22.0044C20.2812 22.0044 20.2638 22.0357 20.2638 22.074C20.2638 22.1123 20.2499 22.1437 20.229 22.1437C20.2116 22.1437 20.1942 22.175 20.1942 22.2133C20.1942 22.2516 20.1802 22.2829 20.1593 22.2829C20.1419 22.2829 20.1245 22.3038 20.1245 22.3282C20.1245 22.3909 20.041 22.5615 20.0131 22.5615C19.9957 22.5615 19.9853 22.5928 19.9853 22.6311C19.9853 22.6694 19.9748 22.7008 19.9574 22.7008C19.9435 22.7008 19.9052 22.7599 19.8738 22.8365C19.8425 22.9097 19.7938 22.9932 19.7694 23.0211C19.745 23.0454 19.7032 23.1046 19.6823 23.1464C19.658 23.1882 19.6162 23.2578 19.5953 23.2996C19.5709 23.3414 19.5222 23.4075 19.4908 23.4458C19.456 23.4841 19.4282 23.5329 19.4282 23.5538C19.4282 23.5747 19.3968 23.613 19.3585 23.6408C19.3202 23.6687 19.2889 23.707 19.2889 23.7279C19.2889 23.7488 19.2611 23.7975 19.2262 23.8358C19.1914 23.8706 19.1288 23.9577 19.08 24.0238C19.0347 24.09 18.9721 24.17 18.9407 24.1979C18.9094 24.2257 18.8467 24.3058 18.8015 24.372C18.7005 24.5147 17.5306 25.695 17.4889 25.695C17.4749 25.695 17.3949 25.7577 17.3113 25.8343C17.2312 25.9109 17.1511 25.9736 17.1337 25.9736C17.1198 25.9736 17.0606 26.0154 17.0049 26.0711C16.9492 26.1233 16.8587 26.186 16.8064 26.2138C16.7542 26.2417 16.7124 26.2765 16.7124 26.2939C16.7124 26.3078 16.6915 26.3217 16.6672 26.3217C16.6428 26.3217 16.5906 26.3496 16.5523 26.3809C16.4861 26.4401 16.4443 26.4645 16.2528 26.5759C16.2076 26.5968 16.1658 26.6247 16.1554 26.6351C16.1205 26.6699 15.929 26.7778 15.8699 26.7987C15.835 26.8092 15.8072 26.8301 15.8072 26.8475C15.8072 26.8649 15.7759 26.8788 15.7376 26.8788C15.6993 26.8788 15.6679 26.8927 15.6679 26.9136C15.6679 26.931 15.6366 26.9485 15.5983 26.9485C15.56 26.9485 15.5287 26.9624 15.5287 26.9833C15.5287 27.0007 15.4973 27.0181 15.459 27.0181C15.4207 27.0181 15.3894 27.032 15.3894 27.0529C15.3894 27.0703 15.3685 27.0877 15.3406 27.0877C15.2989 27.0877 15.1874 27.1365 14.9298 27.2653C14.895 27.2827 14.8428 27.2966 14.8149 27.2966C14.787 27.2966 14.7627 27.3106 14.7627 27.3314C14.7627 27.3489 14.7174 27.3663 14.6582 27.3663C14.6025 27.3663 14.5538 27.3802 14.5538 27.3941C14.5538 27.408 14.4807 27.4394 14.3901 27.4637C14.2961 27.4916 14.1952 27.5264 14.1638 27.5438C14.129 27.5612 14.0628 27.5752 14.0176 27.5752C13.9688 27.5752 13.9201 27.5891 13.9097 27.61C13.8992 27.6274 13.8365 27.6448 13.7704 27.6448C13.7042 27.6448 13.645 27.6587 13.6346 27.6761C13.6241 27.6935 13.565 27.7179 13.5023 27.7284C13.4396 27.7423 13.3108 27.7667 13.2133 27.7875C12.6771 27.8955 12.4195 27.9268 11.6744 27.979L11.3506 27.9999V24.936L11.4307 24.9116C11.5038 24.8838 11.5804 24.8664 11.9599 24.7933C12.0574 24.7759 12.2036 24.741 12.2907 24.7202C12.3777 24.6993 12.4996 24.6714 12.5622 24.661C12.6214 24.6505 12.6736 24.6296 12.6736 24.6122C12.6736 24.5948 12.7085 24.5809 12.7468 24.5809C12.8129 24.5809 13.1541 24.4834 13.3526 24.4068C13.3909 24.3894 13.4779 24.3615 13.5441 24.3372C13.6102 24.3128 13.7007 24.2815 13.746 24.264C13.7878 24.2466 13.8574 24.2188 13.9027 24.2014C14.0315 24.1526 14.1847 24.0865 14.2474 24.0551C14.2822 24.0377 14.3344 24.0238 14.3623 24.0238C14.3901 24.0238 14.4145 24.0064 14.4145 23.989C14.4145 23.9681 14.4458 23.9542 14.4841 23.9542C14.5224 23.9542 14.5538 23.9368 14.5538 23.9194C14.5538 23.8985 14.5851 23.8845 14.6234 23.8845C14.6617 23.8845 14.693 23.8671 14.693 23.8497C14.693 23.8288 14.7244 23.8149 14.7592 23.8149C14.7975 23.8149 14.8323 23.8045 14.8393 23.7871C14.8497 23.7662 15.0308 23.6617 15.2397 23.5573C15.2849 23.5364 15.3197 23.5085 15.3197 23.4911C15.3197 23.4772 15.3511 23.4667 15.3894 23.4667C15.4277 23.4667 15.459 23.4528 15.459 23.4389C15.459 23.4215 15.5008 23.3867 15.5565 23.3588C15.6087 23.3309 15.6818 23.2822 15.7167 23.2474C15.755 23.216 15.8072 23.1882 15.8316 23.1882C15.8559 23.1882 15.8768 23.1708 15.8768 23.1534C15.8768 23.1325 15.8977 23.1186 15.9221 23.1186C15.9465 23.1186 15.9987 23.0907 16.037 23.0559C16.0718 23.0211 16.1588 22.9549 16.225 22.9097C16.2911 22.8644 16.3677 22.8052 16.3921 22.7808C16.42 22.7565 16.4966 22.6903 16.5662 22.6381C16.7368 22.5127 17.757 21.4856 17.757 21.4404C17.757 21.423 17.8057 21.3603 17.8614 21.3081C17.9206 21.2558 17.9659 21.1966 17.9659 21.1792C17.9659 21.1653 18.0146 21.0957 18.0703 21.0295C18.126 20.9634 18.1748 20.8868 18.1748 20.8624C18.1748 20.8415 18.1887 20.8206 18.2026 20.8206C18.22 20.8206 18.2548 20.7788 18.2827 20.7231C18.3105 20.6709 18.3384 20.6222 18.3488 20.6117C18.3837 20.5769 18.4916 20.3854 18.5125 20.3227C18.5229 20.2914 18.5438 20.2635 18.5612 20.2635C18.5786 20.2635 18.5926 20.2322 18.5926 20.1939C18.5926 20.1556 18.61 20.1243 18.6274 20.1243C18.6483 20.1243 18.6622 20.0929 18.6622 20.0546C18.6622 20.0163 18.6796 19.985 18.697 19.985C18.7179 19.985 18.7318 19.9537 18.7318 19.9154C18.7318 19.8771 18.7492 19.8457 18.7667 19.8457C18.7875 19.8457 18.8015 19.8144 18.8015 19.7761C18.8015 19.7378 18.8189 19.7065 18.8363 19.7065C18.8572 19.7065 18.8711 19.6821 18.8711 19.6542C18.8711 19.6264 18.885 19.5742 18.9024 19.5394C18.9198 19.508 18.9512 19.4314 18.9756 19.3757C18.9999 19.3165 19.0313 19.2434 19.0487 19.2121C19.0661 19.1773 19.08 19.1181 19.08 19.0798C19.08 19.0415 19.0974 19.0101 19.1148 19.0101C19.1357 19.0101 19.1496 18.9614 19.1496 18.9057C19.1496 18.8465 19.167 18.8012 19.1845 18.8012C19.2053 18.8012 19.2193 18.756 19.2193 18.7003C19.2193 18.6411 19.2367 18.5854 19.2541 18.5749C19.275 18.5645 19.2889 18.4983 19.2889 18.4322C19.2889 18.366 19.3028 18.3138 19.3202 18.3138C19.3377 18.3138 19.3585 18.2476 19.369 18.1641C19.3794 18.084 19.4073 17.9308 19.4282 17.8263C19.4491 17.7219 19.4839 17.5165 19.5048 17.3737C19.557 17.029 19.5535 15.1419 19.5048 14.7798C19.4804 14.6266 19.456 14.4212 19.4421 14.3272C19.4317 14.2297 19.4073 14.1392 19.3899 14.1183C19.3725 14.1009 19.3585 14.0278 19.3585 13.9582C19.3585 13.885 19.3446 13.8154 19.3237 13.805C19.3063 13.7945 19.2889 13.7318 19.2889 13.6657C19.2889 13.5995 19.275 13.5369 19.2541 13.5264C19.2367 13.516 19.2193 13.4603 19.2193 13.4046C19.2193 13.3489 19.2053 13.2931 19.1845 13.2827C19.167 13.2723 19.1496 13.2165 19.1496 13.1643C19.1496 13.1121 19.1357 13.0564 19.1218 13.039C19.1044 13.0181 19.0556 12.8858 19.0104 12.743C18.9616 12.6003 18.9164 12.4749 18.9024 12.4645C18.892 12.454 18.8607 12.374 18.8328 12.28C18.8084 12.1894 18.7736 12.1163 18.7597 12.1163C18.7458 12.1163 18.7318 12.085 18.7318 12.0467C18.7318 12.0084 18.7179 11.9771 18.697 11.9771C18.6796 11.9771 18.6622 11.9562 18.6622 11.9283C18.6622 11.8691 18.516 11.5801 18.4811 11.5662C18.4637 11.5592 18.4533 11.5244 18.4533 11.4861C18.4533 11.4513 18.4394 11.42 18.4185 11.42C18.4011 11.42 18.3837 11.3886 18.3837 11.3503C18.3837 11.312 18.3697 11.2807 18.3523 11.2807C18.3349 11.2807 18.314 11.2529 18.3036 11.218C18.2757 11.138 18.1643 10.9534 18.133 10.9395C18.1156 10.9325 18.1051 10.8977 18.1051 10.8594C18.1051 10.8246 18.0912 10.7933 18.0773 10.7933C18.0599 10.7933 18.025 10.7515 17.9972 10.6958C17.9693 10.6436 17.9206 10.5774 17.8893 10.5461C17.8544 10.5147 17.8266 10.4764 17.8266 10.459C17.8266 10.4416 17.7778 10.372 17.7221 10.3058C17.6281 10.1944 17.5863 10.0969 17.6351 10.0969C17.6455 10.0969 17.7082 10.1492 17.7709 10.2083C17.837 10.271 17.9519 10.3824 18.025 10.4521C18.1016 10.5252 18.1748 10.5844 18.1887 10.5844C18.2165 10.5844 18.4011 10.7759 18.5926 11.0022C18.6587 11.0823 18.7771 11.2146 18.8537 11.2946C18.9303 11.3712 19.0313 11.4931 19.08 11.5592C19.1253 11.6254 19.174 11.6881 19.1845 11.6985C19.1949 11.709 19.2436 11.7716 19.2889 11.8378C19.3342 11.9039 19.3934 11.9805 19.4177 12.0049C19.4421 12.0293 19.463 12.0641 19.463 12.078C19.463 12.0919 19.5013 12.1511 19.55 12.2068C19.5988 12.2626 19.6371 12.3287 19.6371 12.3496C19.6371 12.374 19.6545 12.3949 19.6719 12.3949C19.6928 12.3949 19.7067 12.4157 19.7067 12.4401C19.7067 12.4645 19.7381 12.5202 19.7764 12.562C19.8146 12.6038 19.846 12.6595 19.846 12.6908C19.846 12.7187 19.8599 12.743 19.8738 12.743C19.8878 12.743 19.94 12.8196 19.9887 12.9171C20.034 13.0111 20.0827 13.0912 20.1001 13.0912C20.1141 13.0912 20.1245 13.1225 20.1245 13.1608C20.1245 13.1991 20.1419 13.2305 20.1593 13.2305C20.1802 13.2305 20.1942 13.2618 20.1942 13.3001C20.1942 13.3384 20.2116 13.3697 20.229 13.3697C20.2499 13.3697 20.2638 13.4011 20.2638 13.4394C20.2638 13.4777 20.2812 13.509 20.2986 13.509C20.3195 13.509 20.3334 13.5299 20.3334 13.5543C20.3334 13.5786 20.3648 13.6657 20.4031 13.7458C20.4414 13.8224 20.4727 13.9129 20.4727 13.9442C20.4727 13.9721 20.4866 13.9965 20.5005 13.9965C20.518 13.9965 20.5528 14.073 20.5771 14.1705C20.6015 14.2645 20.6363 14.3446 20.6537 14.3446C20.6677 14.3446 20.6816 14.3899 20.6816 14.4491C20.6816 14.5048 20.699 14.5535 20.7164 14.5535C20.7373 14.5535 20.7512 14.5918 20.7512 14.6406C20.7512 14.6893 20.7652 14.7555 20.7826 14.7903C20.8313 14.8913 20.8905 15.0932 20.8905 15.1733C20.8905 15.2116 20.9079 15.2568 20.9253 15.2673C20.9462 15.2777 20.9601 15.3404 20.9601 15.4065C20.9601 15.4727 20.9775 15.5354 20.995 15.5458C21.0158 15.5563 21.0298 15.6363 21.0298 15.7199C21.0298 15.8035 21.0472 15.8835 21.0646 15.894C21.0855 15.9044 21.0994 16.0054 21.0994 16.1168C21.0994 16.2282 21.1133 16.3292 21.1307 16.3501C21.2143 16.4371 21.2491 18.2894 21.176 18.8535Z" fill="black"/>
<path d="M25.3433 19.2714C25.3259 19.3863 25.3016 19.5465 25.2911 19.6266C25.2772 19.7101 25.2563 19.7763 25.2389 19.7763C25.2215 19.7763 25.2075 19.825 25.2075 19.8877C25.2075 19.9956 25.1588 20.1906 25.0996 20.3055C25.0822 20.3403 25.0683 20.4065 25.0683 20.4552C25.0683 20.5039 25.0544 20.5422 25.0335 20.5422C25.0161 20.5422 24.9986 20.5875 24.9986 20.6467C24.9986 20.7024 24.9847 20.7511 24.9638 20.7511C24.9464 20.7511 24.929 20.7964 24.929 20.8556C24.929 20.9113 24.9151 20.96 24.8942 20.96C24.8768 20.96 24.8594 20.9844 24.8594 21.0123C24.8594 21.0401 24.8455 21.0958 24.8246 21.1341C24.8072 21.1724 24.7758 21.2351 24.7549 21.2734C24.7375 21.3117 24.7201 21.3674 24.7201 21.3953C24.7201 21.4231 24.7062 21.4475 24.6853 21.4475C24.6679 21.4475 24.6505 21.4684 24.6505 21.4962C24.6505 21.5589 24.3023 22.2483 24.2396 22.3144C24.2118 22.3423 24.1804 22.3493 24.17 22.3318C24.1561 22.3144 24.1108 22.2796 24.069 22.2552C24.0238 22.2344 23.9541 22.1926 23.9123 22.1682C23.8671 22.1473 23.8253 22.1195 23.8149 22.109C23.78 22.0742 23.5885 21.9663 23.5294 21.9454C23.4945 21.9349 23.4667 21.914 23.4667 21.8966C23.4667 21.8792 23.4354 21.8653 23.3971 21.8653C23.3588 21.8653 23.3274 21.8514 23.3274 21.834C23.3274 21.8166 23.2996 21.7957 23.2682 21.7852C23.1847 21.7574 23.0001 21.6459 22.9862 21.6111C22.9792 21.5972 22.9444 21.5868 22.9061 21.5868C22.8713 21.5868 22.84 21.5728 22.84 21.5554C22.84 21.538 22.8121 21.5171 22.7808 21.5067C22.6972 21.4788 22.5127 21.3674 22.4988 21.3326C22.4918 21.3187 22.457 21.3082 22.4187 21.3082C22.3839 21.3082 22.3525 21.2943 22.3525 21.2769C22.3525 21.2595 22.3247 21.2386 22.2933 21.2281C22.2307 21.2073 22.0392 21.0993 22.0044 21.0645C21.9939 21.0541 21.9521 21.0262 21.9104 21.0018C21.5796 20.8208 21.5831 20.8243 21.6353 20.6711C21.6597 20.6014 21.6875 20.5318 21.7015 20.5214C21.7154 20.5074 21.7258 20.4656 21.7258 20.4308C21.7258 20.396 21.7398 20.3403 21.7572 20.3055C21.8094 20.2045 21.8651 20.0026 21.8651 19.9225C21.8651 19.8807 21.879 19.8459 21.8964 19.8459C21.9138 19.8459 21.9347 19.7937 21.9452 19.731C21.9556 19.6718 21.9835 19.55 22.0044 19.4629C22.0253 19.3759 22.0531 19.247 22.0636 19.1739C22.074 19.1043 22.0949 19.0347 22.1123 19.0242C22.1297 19.0138 22.1436 18.9406 22.1436 18.8571C22.1436 18.7735 22.1576 18.6969 22.175 18.6795C22.1924 18.6586 22.2168 18.5507 22.2272 18.4358C22.2376 18.3209 22.2655 18.0841 22.2864 17.9135C22.3386 17.5236 22.3386 15.9568 22.2864 15.5808C22.2655 15.4276 22.2411 15.2152 22.2272 15.1108C22.2168 15.0063 22.1924 14.9053 22.175 14.8844C22.1576 14.867 22.1436 14.7939 22.1436 14.7243C22.1436 14.6512 22.1297 14.5815 22.1088 14.5711C22.0914 14.5606 22.074 14.498 22.074 14.4318C22.074 14.3657 22.0601 14.303 22.0392 14.2926C22.0218 14.2821 22.0044 14.2368 22.0044 14.1951C22.0044 14.1115 21.9278 13.8713 21.8895 13.8364C21.8755 13.8225 21.8651 13.7738 21.8651 13.7285C21.8651 13.6867 21.8512 13.6484 21.8303 13.6484C21.8129 13.6484 21.7955 13.5997 21.7955 13.544C21.7955 13.4848 21.7815 13.4395 21.7606 13.4395C21.7432 13.4395 21.7258 13.4152 21.7258 13.3873C21.7258 13.3595 21.7119 13.3037 21.691 13.2654C21.6736 13.2271 21.6423 13.1645 21.6214 13.1262C21.604 13.0879 21.5866 13.0322 21.5866 13.0043C21.5866 12.9765 21.5726 12.9521 21.5517 12.9521C21.5343 12.9521 21.5169 12.9208 21.5169 12.8825C21.5169 12.8442 21.503 12.8128 21.4821 12.8128C21.4647 12.8128 21.4473 12.7815 21.4473 12.7467C21.4473 12.7084 21.4368 12.6736 21.4229 12.6666C21.4055 12.6596 21.3568 12.583 21.3115 12.489C21.2662 12.3985 21.214 12.3254 21.1966 12.3254C21.1827 12.3254 21.1688 12.294 21.1688 12.2557C21.1688 12.2174 21.1548 12.1861 21.1339 12.1861C21.1165 12.1861 21.0991 12.1652 21.0991 12.1409C21.0991 12.1165 21.0678 12.0608 21.0295 12.019C20.9912 11.9772 20.9598 11.9319 20.9598 11.918C20.9598 11.9041 20.9111 11.8345 20.8554 11.7683C20.7997 11.7022 20.7509 11.6325 20.7509 11.6151C20.7509 11.5977 20.7231 11.5594 20.6883 11.5281C20.6535 11.4967 20.5908 11.4201 20.5455 11.3575C20.462 11.2391 19.9293 10.6681 19.7795 10.5358C19.7343 10.4975 19.6298 10.4 19.5532 10.3234C19.4732 10.2468 19.3548 10.1458 19.2886 10.0971C19.2225 10.0518 19.1598 10.0031 19.1494 9.99263C19.1389 9.98218 19.0762 9.93344 19.0101 9.88818C18.9439 9.84291 18.8673 9.78372 18.843 9.75935C18.8186 9.73498 18.7524 9.68972 18.6967 9.6549C18.6375 9.62357 18.5923 9.58178 18.5923 9.56786C18.5923 9.55393 18.5609 9.54 18.5226 9.54C18.4843 9.54 18.453 9.52608 18.453 9.51215C18.453 9.49474 18.4112 9.45992 18.359 9.43207C18.3033 9.40422 18.2546 9.37636 18.2441 9.36592C18.2093 9.3311 18.0178 9.22317 17.9586 9.20228C17.9238 9.19183 17.8959 9.17094 17.8959 9.15353C17.8959 9.13612 17.8646 9.1222 17.8263 9.1222C17.788 9.1222 17.7567 9.10479 17.7567 9.08738C17.7567 9.06649 17.7253 9.05256 17.687 9.05256C17.6487 9.05256 17.6174 9.03515 17.6174 9.01775C17.6174 8.99686 17.5861 8.98293 17.5478 8.98293C17.5095 8.98293 17.4781 8.96552 17.4781 8.94811C17.4781 8.92722 17.4468 8.91329 17.4085 8.91329C17.3702 8.91329 17.3389 8.89589 17.3389 8.87848C17.3389 8.85759 17.3075 8.84366 17.2692 8.84366C17.2309 8.84366 17.1996 8.82973 17.1996 8.81581C17.1996 8.7984 17.123 8.76358 17.0255 8.73921C16.9315 8.71484 16.8514 8.68002 16.8514 8.66261C16.8514 8.64868 16.8201 8.63476 16.7853 8.63476C16.747 8.63476 16.7052 8.61735 16.6947 8.59994C16.6843 8.57905 16.6356 8.56512 16.5868 8.56512C16.5415 8.56512 16.5032 8.54771 16.5032 8.53031C16.5032 8.50942 16.4649 8.49549 16.4197 8.49549C16.3709 8.49549 16.3222 8.47808 16.3118 8.46067C16.3013 8.43978 16.2526 8.42585 16.2073 8.42585C16.162 8.42585 16.1133 8.40845 16.1028 8.39104C16.0924 8.37015 16.0367 8.35622 15.9775 8.35622C15.9218 8.35622 15.8765 8.33881 15.8765 8.3214C15.8765 8.30051 15.8313 8.28659 15.7721 8.28659C15.7164 8.28659 15.6676 8.26918 15.6676 8.25177C15.6676 8.23088 15.605 8.21695 15.5318 8.21695C15.4587 8.21695 15.3856 8.20302 15.3752 8.18562C15.3647 8.16821 15.2951 8.14732 15.2255 8.13339C15.1523 8.12294 14.9922 8.09857 14.8668 8.07768C14.3376 7.99064 14.0312 7.96627 13.1295 7.95234C12.4819 7.93841 12.165 7.94538 12.1407 7.96975C12.0919 8.01849 11.8726 8.01849 11.8726 7.97323C11.8726 7.95234 11.8969 7.93841 11.9248 7.93841C11.9526 7.93841 11.977 7.921 11.977 7.9036C11.977 7.88271 12.0258 7.86878 12.0815 7.86878C12.1407 7.86878 12.1859 7.85137 12.1859 7.83396C12.1859 7.81307 12.2312 7.79914 12.2869 7.79914C12.3461 7.79914 12.4018 7.78174 12.4122 7.76433C12.4227 7.74344 12.4714 7.72951 12.5167 7.72951C12.5619 7.72951 12.6107 7.7121 12.6211 7.69469C12.6316 7.6738 12.6977 7.65988 12.7639 7.65988C12.83 7.65988 12.8823 7.64247 12.8823 7.62506C12.8823 7.60417 12.9449 7.59024 13.018 7.59024C13.0912 7.59024 13.1643 7.57631 13.1747 7.55891C13.1852 7.54498 13.2687 7.52061 13.3593 7.50668C13.4533 7.49623 13.6134 7.46838 13.7179 7.45097C13.8223 7.43008 14.0695 7.39875 14.268 7.38134C14.4664 7.36741 14.637 7.34304 14.651 7.32911C14.6823 7.29778 16.0959 7.33608 16.4858 7.37786C16.6599 7.39875 16.9002 7.43008 17.0255 7.45097C17.1508 7.47186 17.3145 7.49623 17.3911 7.50668C17.4677 7.51712 17.5443 7.5415 17.5652 7.55891C17.5826 7.57631 17.6487 7.59024 17.7079 7.59024C17.7706 7.59024 17.8333 7.60417 17.8437 7.62506C17.8542 7.64247 17.9099 7.65988 17.9656 7.65988C18.0213 7.65988 18.077 7.6738 18.0874 7.69469C18.0979 7.7121 18.1536 7.72951 18.2128 7.72951C18.2685 7.72951 18.3137 7.74344 18.3137 7.76433C18.3137 7.78174 18.3625 7.79914 18.4182 7.79914C18.4774 7.79914 18.5226 7.81307 18.5226 7.83396C18.5226 7.85137 18.554 7.86878 18.5923 7.86878C18.6306 7.86878 18.6932 7.88271 18.7315 7.9036C18.7698 7.921 18.8325 7.95234 18.8708 7.97323C18.9091 7.99064 18.9718 8.00805 19.0101 8.00805C19.0484 8.00805 19.0797 8.02197 19.0797 8.04286C19.0797 8.06027 19.1041 8.07768 19.1319 8.07768C19.1633 8.07768 19.2538 8.10902 19.3304 8.14732C19.4105 8.18562 19.4975 8.21695 19.5219 8.21695C19.5463 8.21695 19.5672 8.23088 19.5672 8.25177C19.5672 8.26918 19.5985 8.28659 19.6368 8.28659C19.6751 8.28659 19.7064 8.30051 19.7064 8.3214C19.7064 8.33881 19.7378 8.35622 19.7761 8.35622C19.8144 8.35622 19.8457 8.37015 19.8457 8.39104C19.8457 8.40845 19.877 8.42585 19.9153 8.42585C19.9536 8.42585 19.985 8.43978 19.985 8.45719C19.985 8.4746 20.0128 8.49549 20.0476 8.50593C20.1277 8.53379 20.3122 8.6452 20.3262 8.67654C20.3331 8.69395 20.361 8.70439 20.3888 8.70439C20.4167 8.70439 20.4724 8.73573 20.5142 8.77403C20.556 8.81232 20.6117 8.84366 20.6361 8.84366C20.6604 8.84366 20.6813 8.85759 20.6813 8.87848C20.6813 8.89589 20.7022 8.91329 20.7266 8.91329C20.7475 8.91329 20.8241 8.96204 20.8902 9.01775C20.9564 9.07345 21.033 9.1222 21.0573 9.1222C21.0782 9.1222 21.0991 9.13612 21.0991 9.15005C21.0991 9.16398 21.1444 9.20576 21.2036 9.23709C21.2593 9.27191 21.3254 9.31717 21.3498 9.34155C21.3742 9.36592 21.4508 9.42511 21.5169 9.47037C21.5831 9.51563 21.6771 9.59571 21.7258 9.64446C21.7746 9.6932 21.8755 9.77676 21.9487 9.83247C22.1262 9.96477 22.7634 10.6019 22.8957 10.7795C22.9514 10.8526 23.0315 10.9501 23.0733 10.9919C23.115 11.0337 23.1916 11.1312 23.2473 11.2008C23.2996 11.2739 23.3727 11.3644 23.4075 11.3992C23.4388 11.4375 23.4667 11.4863 23.4667 11.5072C23.4667 11.5281 23.498 11.5664 23.5363 11.5942C23.5746 11.6221 23.606 11.6604 23.606 11.6813C23.606 11.7022 23.6338 11.7509 23.6686 11.7892C23.7 11.824 23.7487 11.8971 23.7766 11.9494C23.8044 12.0051 23.8392 12.0468 23.8566 12.0468C23.8706 12.0468 23.8845 12.0782 23.8845 12.1165C23.8845 12.1548 23.8984 12.1861 23.9123 12.1861C23.9298 12.1861 23.9646 12.2279 23.9924 12.2801C24.0203 12.3358 24.0481 12.3846 24.0586 12.395C24.076 12.4124 24.2083 12.6561 24.2814 12.8024C24.3023 12.8476 24.3302 12.8825 24.3476 12.8825C24.3615 12.8825 24.3719 12.9033 24.3719 12.9312C24.3719 12.9695 24.4729 13.1958 24.6191 13.4813C24.6365 13.5161 24.6505 13.5684 24.6505 13.5962C24.6505 13.6241 24.6679 13.6484 24.6853 13.6484C24.7062 13.6484 24.7201 13.6798 24.7201 13.7146C24.7201 13.7529 24.7375 13.7947 24.7549 13.8051C24.7758 13.8156 24.7897 13.8643 24.7897 13.913C24.7897 13.9583 24.8072 13.9966 24.8246 13.9966C24.8455 13.9966 24.8594 14.0419 24.8594 14.1011C24.8594 14.1568 24.8768 14.2055 24.8942 14.2055C24.9151 14.2055 24.929 14.2438 24.929 14.2891C24.929 14.3378 24.9464 14.3866 24.9638 14.397C24.9847 14.4075 24.9986 14.4562 24.9986 14.5015C24.9986 14.5467 25.0161 14.5955 25.0335 14.6059C25.0544 14.6164 25.0683 14.6721 25.0683 14.7278C25.0683 14.7835 25.0857 14.8392 25.1031 14.8496C25.124 14.8601 25.1379 14.9262 25.1379 14.9924C25.1379 15.0585 25.1553 15.1108 25.1727 15.1108C25.1936 15.1108 25.2075 15.1699 25.2075 15.2431C25.2075 15.3162 25.2215 15.3893 25.2389 15.4067C25.2702 15.4415 25.2911 15.5703 25.3329 15.9116C25.3433 15.9986 25.3642 16.0996 25.3816 16.1379C25.4339 16.2597 25.4617 16.7019 25.4617 17.6002C25.4652 18.4149 25.4443 18.6969 25.3433 19.2714Z" fill="black"/>
<path d="M25.7649 8.31777C25.7649 8.39785 25.7405 8.42919 25.6604 8.46749C25.6047 8.49186 25.556 8.5232 25.556 8.53712C25.556 8.55453 25.5246 8.56498 25.4863 8.56498C25.448 8.56498 25.4167 8.5789 25.4167 8.59631C25.4167 8.61372 25.3888 8.63461 25.3575 8.64506C25.2739 8.67291 25.0894 8.78433 25.0755 8.81566C25.0685 8.83307 25.0337 8.84351 24.9954 8.84351C24.9606 8.84351 24.9292 8.85744 24.9292 8.87485C24.9292 8.89226 24.9014 8.91315 24.87 8.92359C24.7865 8.95145 24.602 9.06286 24.588 9.0942C24.5811 9.11161 24.5463 9.12205 24.508 9.12205C24.4731 9.12205 24.4418 9.13598 24.4418 9.15339C24.4418 9.1708 24.4139 9.19169 24.3826 9.20213C24.3199 9.22302 24.1284 9.33096 24.0936 9.36577C24.0762 9.38318 23.8325 9.51549 23.6863 9.5886C23.641 9.60949 23.6062 9.63735 23.6062 9.65127C23.6062 9.66868 23.5749 9.67913 23.5366 9.67913C23.4983 9.67913 23.4669 9.69305 23.4669 9.71046C23.4669 9.72787 23.4217 9.75921 23.3625 9.78358C23.3068 9.80795 23.258 9.83929 23.258 9.8567C23.258 9.90196 23.1536 9.89499 23.1048 9.84277C23.0839 9.82188 23.0247 9.74528 22.9795 9.67913C22.8681 9.51897 21.8131 8.46749 21.6564 8.35607C21.5903 8.31081 21.4963 8.23073 21.4475 8.18199C21.3988 8.13324 21.3048 8.05316 21.2386 8.0079C21.1725 7.95916 21.0854 7.89649 21.0506 7.86167C21.0123 7.82685 20.967 7.799 20.9496 7.799C20.9322 7.799 20.8904 7.77114 20.8591 7.73633C20.8278 7.70499 20.7616 7.65625 20.7094 7.62839C20.6537 7.60054 20.6119 7.56572 20.6119 7.54831C20.6119 7.53439 20.591 7.52046 20.5666 7.52046C20.5423 7.52046 20.49 7.49261 20.4517 7.45779C20.4169 7.42645 20.3438 7.37771 20.2916 7.34986C20.2359 7.322 20.1941 7.28719 20.1941 7.26978C20.1941 7.25585 20.1628 7.24192 20.1279 7.24192C20.0896 7.24192 20.0548 7.23148 20.0479 7.21407C20.0305 7.17577 19.8703 7.08873 19.4978 6.91116C19.3167 6.82412 19.1391 6.73707 19.1078 6.71966C19.073 6.69877 19.0208 6.68485 18.9929 6.68485C18.9651 6.68485 18.9407 6.67092 18.9407 6.65699C18.9407 6.63959 18.8641 6.60477 18.7666 6.5804C18.6726 6.55602 18.5925 6.52121 18.5925 6.5038C18.5925 6.48987 18.5542 6.47594 18.5089 6.47594C18.4602 6.47594 18.4115 6.45854 18.401 6.44113C18.3906 6.42024 18.3418 6.40631 18.2966 6.40631C18.2513 6.40631 18.2026 6.3889 18.1921 6.37149C18.1817 6.3506 18.126 6.33668 18.0668 6.33668C18.0111 6.33668 17.9658 6.32275 17.9658 6.30534C17.9658 6.28793 17.9136 6.26704 17.8544 6.2566C17.7917 6.24615 17.6699 6.2183 17.5828 6.19741C17.4958 6.17652 17.3635 6.14866 17.2869 6.1417C17.2103 6.13125 17.1163 6.11036 17.078 6.09296C16.9422 6.03377 16.5766 6.01288 15.6505 6.00939C15.0586 6.00939 14.6268 6.02332 14.4841 6.04769C14.0802 6.12429 13.9131 6.15911 13.7703 6.19392C13.6937 6.21482 13.5858 6.23919 13.5266 6.24963C13.4709 6.26356 13.3908 6.28445 13.3525 6.30186C13.3142 6.31579 13.2132 6.34712 13.1262 6.37149C13.0392 6.39238 12.9417 6.4272 12.9103 6.44461C12.8755 6.46202 12.8233 6.47594 12.7954 6.47594C12.7676 6.47594 12.7432 6.48987 12.7432 6.51076C12.7432 6.52817 12.7119 6.54558 12.6771 6.54558C12.6388 6.54558 12.597 6.55951 12.5865 6.5804C12.5761 6.5978 12.5274 6.61521 12.4786 6.61521C12.4333 6.61521 12.395 6.62914 12.395 6.65003C12.395 6.66744 12.3742 6.68485 12.3498 6.68485C12.301 6.68485 12.0921 6.77537 11.8554 6.90071C11.7788 6.94249 11.6534 7.00517 11.5768 7.04346C11.5002 7.08176 11.4341 7.12354 11.4271 7.14095C11.4202 7.15836 11.3853 7.17229 11.347 7.17229C11.3122 7.17229 11.2809 7.18622 11.2809 7.20362C11.2809 7.22103 11.253 7.24192 11.2217 7.25237C11.159 7.27326 10.9675 7.38119 10.9327 7.41601C10.9223 7.42645 10.8735 7.45431 10.8213 7.48216C10.7656 7.51002 10.7238 7.54483 10.7238 7.56224C10.7238 7.57617 10.7029 7.59009 10.6751 7.59009C10.6507 7.59009 10.5811 7.63536 10.5219 7.69455C10.4592 7.75025 10.3965 7.799 10.3826 7.799C10.3652 7.799 10.306 7.84078 10.2468 7.893C10.1911 7.94871 10.0762 8.0462 9.99266 8.11235C9.76983 8.28644 9.53655 8.50231 9.21275 8.84003C9.05608 9.00019 8.88199 9.18124 8.82628 9.24043C8.76709 9.29962 8.68353 9.40407 8.63479 9.47022C8.58952 9.53638 8.52337 9.61646 8.48855 9.64779C8.45374 9.67913 8.42588 9.71743 8.42588 9.73484C8.42588 9.75224 8.3841 9.81143 8.3284 9.87062C8.27617 9.92633 8.2135 10.0169 8.18564 10.0691C8.15779 10.1248 8.12297 10.1666 8.10557 10.1666C8.09164 10.1666 8.07771 10.1875 8.07771 10.2118C8.07771 10.2362 8.04986 10.2884 8.01852 10.3267C7.9837 10.3615 7.93496 10.4347 7.90711 10.4869C7.87925 10.5426 7.84444 10.5844 7.82703 10.5844C7.8131 10.5844 7.79917 10.6157 7.79917 10.654C7.79917 10.6923 7.78873 10.7236 7.7748 10.7236C7.75739 10.7236 7.72954 10.7585 7.70865 10.8037C7.6042 11.0126 7.49975 11.1937 7.47886 11.2041C7.46145 11.2111 7.451 11.2459 7.451 11.2842C7.451 11.319 7.43707 11.3504 7.41618 11.3504C7.39878 11.3504 7.38137 11.3817 7.38137 11.42C7.38137 11.4583 7.36744 11.4896 7.34655 11.4896C7.32914 11.4896 7.31173 11.514 7.31173 11.5418C7.31173 11.5697 7.29781 11.6219 7.2804 11.6567C7.26299 11.6881 7.23513 11.7473 7.22121 11.7856C7.20032 11.8378 7.18987 11.8134 7.17943 11.6846C7.17246 11.5906 7.18291 11.5035 7.20032 11.4931C7.21773 11.4827 7.2421 11.4095 7.25254 11.3329C7.26299 11.2563 7.29084 11.124 7.31173 11.037C7.33262 10.95 7.36048 10.8281 7.37092 10.7654C7.38137 10.7062 7.40226 10.654 7.41967 10.654C7.43707 10.654 7.451 10.6053 7.451 10.5496C7.451 10.4904 7.46841 10.4451 7.48582 10.4451C7.50671 10.4451 7.52064 10.3964 7.52064 10.3407C7.52064 10.2815 7.53804 10.2362 7.55545 10.2362C7.57634 10.2362 7.59027 10.2049 7.59027 10.1666C7.59027 10.1283 7.6042 10.0656 7.62509 10.0273C7.64598 9.989 7.67731 9.92633 7.69472 9.88803C7.71561 9.84973 7.72954 9.78706 7.72954 9.74876C7.72954 9.71046 7.74695 9.67913 7.76436 9.67913C7.78525 9.67913 7.79917 9.64779 7.79917 9.60949C7.79917 9.57119 7.81658 9.53986 7.83399 9.53986C7.85488 9.53986 7.86881 9.51897 7.86881 9.4946C7.86881 9.46674 7.89318 9.39363 7.92452 9.32747C8.10905 8.941 8.23439 8.70425 8.25876 8.70425C8.27269 8.70425 8.28661 8.67291 8.28661 8.63461C8.28661 8.59631 8.30402 8.56498 8.32143 8.56498C8.34232 8.56498 8.35625 8.5406 8.35625 8.51275C8.35625 8.48142 8.38758 8.42571 8.42588 8.38393C8.46418 8.34215 8.49552 8.28644 8.49552 8.26207C8.49552 8.2377 8.51293 8.2168 8.53033 8.2168C8.55123 8.2168 8.56515 8.19591 8.56515 8.17154C8.56515 8.14717 8.59649 8.09146 8.63479 8.04968C8.67309 8.0079 8.70442 7.96264 8.70442 7.94871C8.70442 7.93479 8.75317 7.86515 8.80887 7.799C8.86458 7.73285 8.91332 7.65973 8.91332 7.64232C8.91332 7.62143 8.94466 7.58313 8.98296 7.55528C9.02126 7.52742 9.05259 7.48913 9.05259 7.46823C9.05259 7.45083 9.12571 7.35334 9.21275 7.25933C9.30328 7.16184 9.41469 7.02954 9.46692 6.96339C9.58878 6.79974 10.1981 6.19392 10.3652 6.07206C10.4383 6.01636 10.5358 5.9328 10.5846 5.88405C10.6333 5.83531 10.7273 5.75523 10.7935 5.70997C10.8596 5.66122 10.9466 5.59855 10.9815 5.56373C11.0198 5.52892 11.0685 5.50106 11.0894 5.50106C11.1103 5.50106 11.1486 5.46973 11.1764 5.43143C11.2043 5.39313 11.2426 5.36179 11.2635 5.36179C11.2844 5.36179 11.3331 5.33394 11.3714 5.29912C11.4062 5.26779 11.4794 5.21904 11.5351 5.19119C11.5873 5.16334 11.6291 5.12852 11.6291 5.11111C11.6291 5.09718 11.6534 5.08326 11.6813 5.08326C11.7126 5.08326 11.7683 5.05192 11.8101 5.01362C11.8519 4.97532 11.9076 4.94399 11.932 4.94399C11.9563 4.94399 11.9772 4.93354 11.9772 4.91613C11.9772 4.90221 12.0573 4.85346 12.1513 4.8082C12.2488 4.75946 12.3254 4.70723 12.3254 4.6933C12.3254 4.67938 12.3567 4.66545 12.395 4.66545C12.4333 4.66545 12.4647 4.64804 12.4647 4.63063C12.4647 4.60974 12.4856 4.59581 12.5099 4.59581C12.5343 4.59581 12.6457 4.55055 12.7606 4.49136C12.8755 4.43566 12.9974 4.38691 13.0322 4.38691C13.0635 4.38691 13.0914 4.3695 13.0914 4.35209C13.0914 4.3312 13.1227 4.31728 13.1575 4.31728C13.1958 4.31728 13.2376 4.29987 13.2481 4.28246C13.2585 4.26157 13.3073 4.24764 13.356 4.24764C13.4013 4.24764 13.4396 4.23372 13.4396 4.21979C13.4396 4.20586 13.5127 4.17453 13.6067 4.15015C13.6972 4.1223 13.7982 4.08748 13.8295 4.07008C13.8643 4.05267 13.9235 4.03874 13.9583 4.03874C13.9966 4.03874 14.0384 4.02133 14.0489 4.00392C14.0593 3.98303 14.115 3.96911 14.1742 3.96911C14.2299 3.96911 14.2752 3.95518 14.2752 3.93777C14.2752 3.92036 14.3274 3.89947 14.3901 3.88903C14.4493 3.87858 14.5711 3.85073 14.6582 3.82984C14.7452 3.80895 14.8705 3.78109 14.9367 3.77413C15.0029 3.76368 15.0899 3.74279 15.1282 3.72538C15.2013 3.69405 15.3998 3.6662 15.8245 3.63486C15.9603 3.62441 16.0822 3.60004 16.1031 3.58263C16.1483 3.54085 18.0911 3.56523 18.4532 3.61397C18.596 3.63486 18.7944 3.65923 18.8885 3.67316C18.9859 3.6836 19.0939 3.70798 19.1322 3.72538C19.1705 3.74279 19.2645 3.76368 19.3411 3.77761C19.4177 3.78806 19.5395 3.80546 19.6127 3.81591C19.6823 3.82984 19.7519 3.85073 19.7624 3.86814C19.7728 3.88554 19.825 3.89947 19.8807 3.89947C19.9365 3.89947 19.9922 3.9134 20.0026 3.93429C20.013 3.9517 20.0792 3.96911 20.1454 3.96911C20.2115 3.96911 20.2637 3.98303 20.2637 4.00392C20.2637 4.02133 20.309 4.03874 20.3647 4.03874C20.4239 4.03874 20.4796 4.05267 20.49 4.07356C20.5005 4.09097 20.5492 4.10837 20.598 4.10837C20.6432 4.10837 20.6815 4.1223 20.6815 4.14319C20.6815 4.1606 20.7129 4.17801 20.7512 4.17801C20.7895 4.17801 20.8556 4.19542 20.9009 4.21979C21.068 4.30335 21.0993 4.31728 21.169 4.31728C21.2073 4.31728 21.2386 4.3312 21.2386 4.35209C21.2386 4.3695 21.27 4.38691 21.3082 4.38691C21.3465 4.38691 21.3779 4.40084 21.3779 4.42173C21.3779 4.43914 21.3988 4.45655 21.4231 4.45655C21.4754 4.45655 22.0533 4.74205 22.0673 4.77686C22.0742 4.79427 22.109 4.80472 22.1473 4.80472C22.1822 4.80472 22.2135 4.81865 22.2135 4.83954C22.2135 4.85694 22.2448 4.87435 22.2831 4.87435C22.3214 4.87435 22.3528 4.88828 22.3528 4.90917C22.3528 4.92658 22.3737 4.94399 22.398 4.94399C22.4224 4.94399 22.4781 4.97532 22.5199 5.01362C22.5617 5.05192 22.6174 5.08326 22.6487 5.08326C22.6766 5.08326 22.7009 5.09718 22.7009 5.11111C22.7009 5.12852 22.7427 5.16334 22.7984 5.19119C22.8507 5.21904 22.9168 5.26779 22.9481 5.29912C22.9795 5.33394 23.0178 5.36179 23.0352 5.36179C23.0526 5.36179 23.1118 5.40009 23.1675 5.44884C23.2232 5.49758 23.2789 5.53588 23.2928 5.53588C23.3068 5.53588 23.3799 5.59159 23.453 5.65774C23.5261 5.72389 23.5992 5.7796 23.6131 5.7796C23.6306 5.7796 23.7246 5.86316 23.829 5.96065C23.93 6.06162 24.0727 6.20089 24.1493 6.27052C24.3791 6.48291 24.9153 7.05739 25.0024 7.17925C25.0476 7.24192 25.0929 7.30111 25.1033 7.31156C25.1138 7.322 25.1625 7.38467 25.2078 7.45083C25.2565 7.51698 25.3192 7.60402 25.354 7.63884C25.3888 7.67714 25.4167 7.72936 25.4167 7.75374C25.4167 7.77811 25.4306 7.799 25.4445 7.799C25.4619 7.799 25.4968 7.84078 25.5246 7.893C25.5525 7.94871 25.6012 8.02183 25.636 8.05665C25.6674 8.09494 25.6952 8.14717 25.6952 8.17154C25.6952 8.19591 25.7126 8.2168 25.73 8.2168C25.7509 8.2168 25.7649 8.26207 25.7649 8.31777Z" fill="black"/>
</g>
<defs>
<clipPath id="clip0_805_282">
<rect width="25.7647" height="28" fill="white"/>
</clipPath>
</defs>
</svg>
