<svg width="1002" height="755" viewBox="0 0 1002 755" fill="none" xmlns="http://www.w3.org/2000/svg">
<g clip-path="url(#clip0_492_218)">
<path d="M-1.55452e-05 343.124L109.626 343.124L109.626 346.118C109.626 347.864 110.124 349.61 110.872 349.984C111.495 350.359 112.118 353.227 112.118 356.221C112.118 359.214 112.616 362.083 113.363 362.457C113.986 362.832 114.609 365.451 114.609 368.07C114.609 370.69 115.107 373.184 115.73 373.558C116.353 373.933 117.101 376.427 117.474 378.922C118.346 385.283 119.592 390.646 120.838 393.64C121.336 395.012 122.457 398.629 123.329 401.747C124.077 404.866 125.322 408.358 125.945 409.481C126.568 410.728 127.067 412.848 127.067 414.096C127.067 415.468 127.565 416.84 128.063 417.214C128.561 417.588 129.807 420.706 130.804 424.074C131.676 427.566 132.922 430.435 133.544 430.435C134.043 430.435 134.541 431.558 134.541 432.805C134.541 434.177 135.039 435.674 135.787 436.048C136.41 436.422 137.033 438.168 137.033 439.915C137.033 441.536 137.531 442.908 138.278 442.908C138.901 442.908 139.524 443.656 139.524 444.53C139.524 446.899 143.137 454.508 155.968 479.329C158.21 483.695 160.328 487.437 160.702 487.811C161.076 488.185 162.072 489.931 163.069 491.802C164.065 493.798 165.311 495.295 165.934 495.295C166.432 495.295 166.931 496.168 166.931 497.29C166.931 498.413 167.927 500.284 169.173 501.406C170.294 502.529 172.038 504.899 173.035 506.77C174.031 508.765 175.277 510.262 175.9 510.262C176.398 510.262 176.897 511.011 176.897 511.884C176.897 512.757 177.893 514.628 179.139 516C180.385 517.247 182.752 520.365 184.371 522.735C186.115 525.105 188.607 528.223 189.977 529.72C191.347 531.092 193.839 534.21 195.583 536.455C200.94 543.69 227.972 570.132 229.966 570.132C230.339 570.132 232.208 571.754 233.952 573.625C235.821 575.496 239.309 578.489 241.676 580.111C244.043 581.732 246.285 583.479 246.659 583.853C247.655 585.1 258.867 592.584 259.739 592.584C260.113 592.584 261.608 593.706 263.103 595.078C264.597 596.45 266.591 597.573 267.463 597.573C268.335 597.573 269.082 598.072 269.082 598.82C269.082 599.444 270.203 600.068 271.449 600.068C272.819 600.068 274.065 600.566 274.314 601.065C274.813 602.437 294.994 612.541 297.236 612.541C298.233 612.541 298.98 613.039 298.98 613.788C298.98 614.411 300.101 615.035 301.472 615.035C302.842 615.035 303.963 615.534 303.963 616.282C303.963 616.906 305.084 617.53 306.455 617.53C308.946 617.53 310.067 618.029 316.047 621.022C317.666 621.895 320.033 622.519 321.404 622.519C322.774 622.519 323.895 623.018 323.895 623.766C323.895 624.39 325.515 625.014 327.632 625.014C329.626 625.013 331.37 625.512 331.37 626.261C331.37 626.884 333.238 627.508 335.605 627.508C337.972 627.508 340.339 628.007 340.713 628.755C341.086 629.379 343.08 630.003 345.073 630.003C347.066 630.003 349.059 630.502 349.433 631.25C349.807 631.874 352.298 632.497 354.914 632.497C357.53 632.497 360.022 632.996 360.645 633.62C361.392 634.243 364.631 635.117 368.119 635.491C371.483 635.865 379.705 636.863 386.183 637.611C406.987 640.355 473.51 639.108 475.378 636.114C475.752 635.491 478.991 634.992 482.728 634.992C486.466 634.992 489.829 634.368 490.203 633.745C490.577 632.996 493.691 632.497 497.054 632.497C500.418 632.497 503.532 631.874 503.906 631.25C504.28 630.502 506.522 630.003 508.889 630.003C511.256 630.003 513.498 629.379 513.872 628.755C514.246 628.007 516.239 627.508 518.232 627.508C520.225 627.508 522.219 626.884 522.592 626.261C522.966 625.512 524.959 625.013 526.952 625.013C528.946 625.013 530.939 624.39 531.313 623.766C531.686 623.018 533.43 622.519 535.05 622.519C536.669 622.519 538.413 621.895 538.787 621.272C539.161 620.523 540.905 620.024 542.524 620.024C544.144 620.024 545.888 619.401 546.262 618.777C546.635 618.029 548.379 617.53 550.123 617.53C551.743 617.53 553.113 617.031 553.113 616.532C553.113 615.908 555.978 614.661 559.342 613.788C562.83 612.915 565.571 611.667 565.571 611.044C565.571 610.545 566.692 610.046 568.062 610.046C569.433 610.046 570.554 609.422 570.554 608.799C570.554 608.05 571.301 607.551 572.049 607.551C574.042 607.551 594.721 597.323 595.22 596.076C595.469 595.453 596.715 595.078 598.085 595.078C599.331 595.078 600.452 594.579 600.452 593.956C600.452 593.332 601.448 592.584 602.694 592.21C605.186 591.336 611.539 587.595 613.781 585.474C614.653 584.726 616.522 583.603 617.892 583.229C619.263 582.855 620.384 581.857 620.384 581.233C620.384 580.61 621.131 580.111 622.003 580.111C622.875 580.111 624.868 578.988 626.363 577.616C627.858 576.244 629.478 575.122 630.101 575.122C630.723 575.122 632.966 573.5 635.084 571.38C639.568 567.139 640.316 566.889 640.316 569.509C640.316 571.629 602.57 609.921 595.095 615.534C592.604 617.405 589.115 620.274 587.371 622.02C585.752 623.641 583.883 625.013 583.26 625.013C582.638 625.013 580.395 626.76 578.277 628.755C576.035 630.876 573.917 632.497 573.419 632.497C572.796 632.497 570.429 634.243 568.062 636.239C565.695 638.235 563.204 639.981 562.706 639.981C562.207 639.981 560.588 641.104 559.093 642.476C557.598 643.848 555.605 644.97 554.733 644.97C553.861 644.97 553.113 645.469 553.113 646.218C553.113 646.841 551.992 647.465 550.622 647.465C549.251 647.465 548.13 647.964 548.13 648.587C548.13 649.211 546.386 650.334 544.393 651.207C542.275 652.08 540.656 653.202 540.656 653.826C540.656 654.45 539.535 654.949 538.164 654.949C536.794 654.949 535.673 655.448 535.673 656.196C535.673 656.82 534.552 657.443 533.181 657.443C531.811 657.443 530.69 657.942 530.69 658.691C530.69 659.314 529.569 659.938 528.198 659.938C526.828 659.938 525.707 660.437 525.707 661.185C525.707 661.809 524.586 662.432 523.215 662.432C521.845 662.432 520.724 662.931 520.724 663.68C520.724 664.303 519.603 664.927 518.232 664.927C516.862 664.927 515.741 665.426 515.741 666.174C515.741 666.798 514.62 667.422 513.249 667.422C511.879 667.422 510.758 667.921 510.758 668.669C510.758 669.293 509.637 669.916 508.391 669.916C507.02 669.916 505.526 670.415 505.152 671.163C504.778 671.787 503.034 672.411 501.29 672.411C499.671 672.411 498.3 672.91 498.3 673.658C498.3 674.282 496.93 674.905 495.31 674.905C493.566 674.905 491.822 675.404 491.449 676.153C491.075 676.776 489.58 677.4 488.21 677.4C486.964 677.4 485.843 677.899 485.843 678.647C485.843 679.271 484.223 679.895 482.23 679.895C480.112 679.895 478.119 680.393 477.745 681.142C477.372 681.766 475.628 682.389 474.008 682.389C472.389 682.389 470.645 682.888 470.271 683.636C469.897 684.26 467.904 684.884 465.911 684.884C463.918 684.884 461.924 685.383 461.551 686.131C461.177 686.755 458.935 687.378 456.568 687.378C454.201 687.378 451.958 687.877 451.585 688.626C451.211 689.249 448.595 689.873 445.979 689.873C443.363 689.873 440.747 690.372 440.373 691.12C439.999 691.744 437.258 692.368 434.269 692.368C431.279 692.368 428.538 692.866 427.915 693.49C426.545 694.737 422.434 695.112 390.543 697.481C359.025 699.727 339.965 699.103 312.061 694.862C307.202 694.114 300.849 693.241 297.734 692.866C294.62 692.492 291.63 691.619 290.883 690.996C290.26 690.372 287.893 689.873 285.775 689.873C283.533 689.873 281.29 689.249 280.917 688.626C280.543 688.002 278.301 687.378 275.934 687.378C273.567 687.378 271.324 686.755 270.951 686.131C270.577 685.383 268.21 684.884 265.843 684.884C263.476 684.884 261.608 684.26 261.608 683.636C261.608 682.888 259.864 682.389 257.87 682.389C255.753 682.389 254.133 681.766 254.133 681.142C254.133 680.394 252.389 679.895 250.396 679.895C248.278 679.895 246.659 679.271 246.659 678.647C246.659 677.899 245.537 677.4 244.167 677.4C242.797 677.4 240.554 676.776 239.184 676.153C237.814 675.404 235.571 674.282 234.201 673.658C232.831 672.91 230.588 672.411 229.218 672.411C227.848 672.411 226.727 671.787 226.727 671.164C226.727 670.415 225.605 669.916 224.235 669.916C222.865 669.916 221.744 669.293 221.744 668.669C221.744 667.921 220.872 667.422 219.875 667.422C218.878 667.422 217.01 666.923 215.764 666.299C214.643 665.675 209.162 662.931 203.68 660.312C191.721 654.325 182.752 649.585 181.88 648.712C180.634 647.465 173.782 643.598 171.54 642.85C170.419 642.476 169.422 641.727 169.422 641.104C169.422 640.48 168.675 639.981 167.803 639.981C166.931 639.981 164.937 638.859 163.442 637.486C161.948 636.114 160.328 634.992 159.83 634.992C159.331 634.992 156.84 633.246 154.473 631.25C152.106 629.254 149.739 627.508 149.116 627.508C148.618 627.508 146.5 625.887 144.258 623.766C142.14 621.646 139.898 620.024 139.275 620.024C138.527 620.024 136.534 618.403 134.79 616.532C132.922 614.661 129.433 611.667 127.067 610.046C121.461 606.055 88.822 573.375 84.711 567.638C82.967 565.268 79.4789 561.152 76.9874 558.408C74.3713 555.789 72.2535 552.92 72.2535 552.171C72.2535 551.423 71.1323 549.926 69.762 548.928C68.3917 547.931 67.2705 546.434 67.2705 545.685C67.2705 544.937 65.5265 542.567 63.5333 540.447C61.4155 538.202 59.796 535.957 59.796 535.458C59.796 534.834 58.7994 533.337 57.5537 531.965C54.813 528.847 51.0758 522.735 50.2037 519.866C49.83 518.744 49.0826 517.746 48.4597 517.746C47.8368 517.746 47.3385 516.623 47.3385 515.251C47.3385 513.879 46.9648 512.757 46.3419 512.757C45.8436 512.757 44.847 511.509 44.0996 509.888C43.3521 508.391 39.2411 500.284 35.0056 491.927C30.8946 483.695 27.4065 475.961 27.4065 474.839C27.4065 473.716 26.9082 472.843 26.4099 472.843C25.787 472.843 24.5413 469.974 23.6693 466.607C22.7972 463.114 21.5515 460.37 20.9286 460.37C20.4303 460.37 19.932 458.624 19.932 456.628C19.932 454.508 19.3091 452.886 18.6862 452.886C17.9388 452.886 17.4405 451.14 17.4405 449.145C17.4405 447.024 16.8176 445.403 16.1947 445.403C15.4473 445.403 14.949 443.781 14.949 441.786C14.949 439.665 14.3261 437.669 13.7032 437.295C12.9558 436.921 12.4575 434.925 12.4575 432.93C12.4575 430.934 11.9592 429.063 11.3363 428.689C10.7134 428.315 9.96599 426.194 9.59227 423.949C9.09397 421.704 8.22194 416.715 7.47449 412.973C4.98299 400.375 3.61266 391.27 2.74064 380.294C2.24234 374.307 1.37031 369.068 0.872011 368.569C0.373711 368.07 -1.47165e-05 362.083 -1.50109e-05 355.348L-1.55452e-05 343.124Z" fill="white" fill-opacity="0.06"/>
<path d="M717.926 365.451C719.047 367.821 720.044 370.69 720.044 371.937C720.044 373.184 720.542 374.556 721.29 374.93C721.913 375.305 722.536 377.051 722.536 378.672C722.536 380.294 723.034 382.04 723.781 382.414C724.404 382.788 725.027 384.784 725.027 386.78C725.027 388.775 725.65 390.771 726.273 391.145C727.02 391.519 727.519 393.765 727.519 396.134C727.519 398.504 728.017 400.625 728.64 400.999C729.263 401.373 730.01 403.868 730.384 406.362C730.757 408.982 731.754 414.22 732.502 417.962C740.35 457.626 741.346 506.021 734.993 545.186C734.246 549.677 733.374 555.913 733 559.156C732.626 562.524 731.754 565.143 731.131 565.143C730.508 565.143 730.01 567.388 730.01 570.132C730.01 572.876 729.387 575.122 728.764 575.122C728.017 575.122 727.519 576.993 727.519 579.362C727.519 581.732 727.02 584.102 726.273 584.476C725.65 584.851 725.027 586.846 725.027 588.967C725.027 590.962 724.404 592.584 723.781 592.584C723.034 592.584 722.536 594.205 722.536 596.326C722.536 598.321 721.913 600.068 721.29 600.068C720.542 600.068 720.044 601.689 720.044 603.685C720.044 605.805 719.421 607.801 718.798 608.175C718.051 608.549 717.553 610.295 717.553 612.042C717.553 613.663 717.054 615.035 716.556 615.035C715.933 615.035 714.687 617.779 713.815 621.272C712.943 624.639 711.697 627.508 711.075 627.508C710.576 627.508 710.078 628.631 710.078 630.003C710.078 631.375 709.455 632.497 708.832 632.497C708.085 632.497 707.587 633.246 707.587 633.994C707.587 635.616 695.254 661.185 693.883 662.432C692.762 663.555 688.776 670.54 688.028 672.66C687.654 673.908 686.907 674.905 686.284 674.905C685.661 674.905 685.163 676.028 685.163 677.4C685.163 678.772 684.665 679.895 684.166 679.895C683.544 679.895 682.298 681.391 681.301 683.262C680.305 685.258 678.561 687.628 677.439 688.75C676.194 689.873 675.197 691.37 675.197 691.993C675.197 692.617 674.2 694.238 672.955 695.611C671.709 696.858 669.467 699.976 667.722 702.346C666.103 704.716 664.359 706.961 663.985 707.335C663.612 707.709 662.241 709.331 661.12 710.952C653.77 721.804 608.425 767.205 605.061 767.205C604.438 767.205 602.943 768.203 601.822 769.451C600.701 770.698 597.836 773.068 595.469 774.689C593.102 776.311 590.361 778.431 589.489 779.304C588.617 780.177 586.25 781.799 584.257 783.046C582.139 784.169 580.52 785.665 580.52 786.164C580.52 786.663 579.773 787.162 578.9 787.162C578.028 787.162 576.16 788.16 574.789 789.283C573.419 790.53 571.177 792.151 569.806 792.9C568.561 793.648 566.069 795.02 564.325 796.018C562.581 797.016 560.962 798.014 560.588 798.388C559.342 799.635 552.491 803.502 550.248 804.25C549.127 804.624 548.13 805.373 548.13 805.996C548.13 806.62 547.009 807.119 545.639 807.119C544.269 807.119 543.147 807.618 543.147 808.366C543.147 808.99 542.026 809.613 540.656 809.613C539.286 809.613 538.164 810.112 538.164 810.861C538.164 811.484 537.043 812.108 535.673 812.108C534.303 812.108 533.181 812.607 533.181 813.355C533.181 813.979 532.06 814.603 530.69 814.603C529.32 814.603 528.198 815.102 528.198 815.85C528.198 816.474 527.077 817.097 525.707 817.097C524.337 817.097 523.215 817.596 523.215 818.345C523.215 818.968 521.845 819.592 520.226 819.592C518.482 819.592 516.738 820.091 516.364 820.839C515.99 821.463 514.495 822.086 513.125 822.086C511.879 822.086 510.758 822.585 510.758 823.334C510.758 823.957 509.637 824.581 508.391 824.581C507.021 824.581 505.526 825.08 505.152 825.828C504.778 826.452 503.034 827.076 501.29 827.076C499.671 827.076 498.3 827.575 498.3 828.323C498.3 828.947 496.556 829.57 494.563 829.57C492.445 829.57 490.826 830.069 490.826 830.818C490.826 831.441 489.456 832.065 487.836 832.065C486.092 832.065 484.348 832.564 483.974 833.312C483.601 833.936 481.607 834.559 479.49 834.559C477.496 834.559 475.877 835.058 475.877 835.682C475.877 836.306 474.008 837.054 471.766 837.428C465.039 838.551 460.43 839.673 457.814 840.796C456.443 841.42 453.329 842.168 450.962 842.667C448.595 843.041 443.737 843.914 440.373 844.663C411.098 850.65 368.244 852.77 339.467 849.776C331.868 848.903 322.4 847.906 318.289 847.531C314.178 847.157 310.317 846.284 309.569 845.66C308.946 845.037 305.707 844.538 302.468 844.538C299.229 844.538 296.489 843.914 296.489 843.291C296.489 842.542 294.246 842.043 291.506 842.043C288.765 842.043 286.523 841.42 286.523 840.796C286.523 840.048 284.654 839.549 282.287 839.549C279.92 839.549 277.553 838.925 277.18 838.301C276.806 837.553 274.813 837.054 272.82 837.054C270.826 837.054 268.833 836.43 268.459 835.807C268.086 835.058 266.342 834.559 264.722 834.559C263.103 834.559 261.359 833.936 260.985 833.312C260.611 832.564 258.867 832.065 257.123 832.065C255.504 832.065 254.133 831.441 254.133 830.818C254.133 830.069 252.763 829.57 251.143 829.57C249.399 829.57 247.655 828.947 247.282 828.323C246.908 827.575 245.413 827.076 244.043 827.076C242.797 827.076 241.676 826.452 241.676 825.828C241.676 825.08 240.804 824.581 239.807 824.581C238.686 824.581 235.447 823.459 232.706 822.086C229.841 820.714 226.727 819.592 225.855 819.592C224.983 819.592 224.235 818.968 224.235 818.345C224.235 817.596 223.114 817.097 221.744 817.097C220.373 817.097 219.252 816.474 219.252 815.85C219.252 815.102 218.131 814.603 216.761 814.603C215.39 814.603 214.269 813.979 214.269 813.355C214.269 812.607 213.148 812.108 211.778 812.108C210.407 812.108 209.286 811.734 209.286 811.11C209.286 810.611 207.542 809.489 205.549 808.616C201.189 806.62 201.313 806.994 203.307 802.753C204.054 801.007 205.175 799.635 205.798 799.635C206.296 799.635 206.795 798.513 206.795 797.141C206.795 795.769 207.293 794.646 207.916 794.646C208.539 794.646 209.286 793.648 209.66 792.401C210.407 790.28 214.269 783.42 215.515 782.173C216.138 781.549 220.872 772.818 223.488 767.58C224.235 765.958 225.232 764.711 225.73 764.711C226.353 764.711 226.727 763.838 226.727 762.84C226.727 761.717 227.848 759.722 229.218 758.225C230.589 756.728 231.71 754.732 231.71 753.859C231.71 752.986 232.208 752.238 232.956 752.238C233.578 752.238 234.201 751.115 234.201 749.743C234.201 748.371 234.7 747.249 235.322 747.249C235.945 747.249 236.693 746.251 237.066 745.004C237.814 742.883 241.676 736.023 242.922 734.776C244.167 733.528 248.029 726.668 248.777 724.423C249.15 723.301 249.898 722.303 250.521 722.303C251.143 722.303 251.642 721.18 251.642 719.808C251.642 718.436 252.14 717.314 252.888 717.314C253.51 717.314 254.133 716.191 254.133 714.819C254.133 712.823 255.005 712.324 258.244 712.324C260.487 712.324 262.854 712.823 263.476 713.322C264.224 713.946 268.958 715.692 274.065 717.189C279.173 718.81 284.405 720.556 285.526 721.18C286.772 721.804 288.89 722.303 290.26 722.303C291.63 722.303 293.748 722.802 294.994 723.425C298.731 725.296 305.957 727.292 309.071 727.292C310.815 727.292 312.684 727.791 313.306 728.414C314.054 729.038 316.795 729.786 319.535 730.161C322.276 730.66 327.633 731.533 331.37 732.281C369.241 739.89 420.067 741.012 456.568 734.9C460.679 734.152 466.285 733.279 469.025 732.905C471.766 732.406 475.129 731.657 476.5 731.034C477.87 730.41 480.984 729.662 483.351 729.163C485.718 728.789 489.58 728.165 491.698 727.666C493.94 727.292 495.809 726.543 495.809 725.92C495.809 725.296 497.055 724.797 498.55 724.797C501.664 724.797 510.135 722.053 511.505 720.681C512.004 720.182 513.748 719.808 515.367 719.808C516.862 719.808 518.232 719.184 518.232 718.561C518.232 717.812 519.354 717.313 520.599 717.313C521.97 717.313 523.465 716.69 523.838 716.066C524.212 715.318 525.956 714.819 527.7 714.819C529.32 714.819 530.69 714.195 530.69 713.572C530.69 712.823 531.811 712.324 533.181 712.324C534.552 712.324 535.673 711.701 535.673 711.077C535.673 710.329 536.794 709.83 538.164 709.83C539.535 709.83 540.656 709.206 540.656 708.582C540.656 707.834 541.777 707.335 543.147 707.335C544.518 707.335 545.639 706.711 545.639 706.088C545.639 705.339 546.76 704.841 548.13 704.841C549.501 704.841 550.622 704.217 550.622 703.593C550.622 702.845 551.743 702.346 553.113 702.346C554.484 702.346 555.605 701.722 555.605 701.099C555.605 700.35 556.477 699.851 557.474 699.851C558.595 699.851 560.588 698.729 562.083 697.357C563.578 695.985 565.571 694.862 566.443 694.862C567.315 694.862 568.062 694.238 568.062 693.615C568.062 692.866 568.81 692.368 569.682 692.368C570.554 692.368 572.547 691.245 574.042 689.873C575.537 688.501 577.156 687.378 577.655 687.378C578.153 687.378 580.645 685.632 583.011 683.636C585.378 681.641 587.87 679.895 588.368 679.895C588.991 679.895 590.984 678.398 592.728 676.402C594.597 674.531 598.21 671.413 600.826 669.417C607.304 664.553 633.963 637.985 637.824 632.497C639.444 630.127 641.811 627.259 643.057 626.136C644.302 625.013 645.299 623.641 645.299 622.893C645.299 622.269 647.541 619.276 650.282 616.282C653.023 613.289 655.265 610.295 655.265 609.672C655.265 609.173 656.386 607.551 657.756 606.055C659.127 604.558 660.248 602.562 660.248 601.689C660.248 600.816 660.746 600.068 661.245 600.068C661.743 600.068 663.611 597.323 665.356 593.831C666.975 590.463 668.719 587.595 669.217 587.595C669.84 587.595 670.214 586.472 670.214 585.1C670.214 583.728 670.712 582.605 671.211 582.605C671.833 582.605 675.82 575.496 680.055 566.64C684.291 557.909 688.402 549.801 689.025 548.679C689.648 547.432 690.146 545.561 690.146 544.563C690.146 543.565 690.644 542.692 691.392 542.692C692.015 542.692 692.637 541.569 692.637 540.197C692.637 538.825 693.26 536.455 694.132 534.834C697.122 528.847 697.62 527.724 697.62 525.354C697.62 523.982 698.243 522.486 698.866 522.111C699.489 521.737 700.112 520.24 700.112 518.868C700.112 517.621 700.61 515.501 701.233 514.253C701.856 513.131 702.977 509.638 703.849 506.52C704.721 503.402 705.842 499.91 706.465 498.787C707.088 497.54 707.587 494.546 707.587 492.176C707.587 489.806 708.085 487.811 708.708 487.811C709.331 487.811 710.078 485.441 710.576 482.447C710.95 479.579 711.822 473.841 712.57 469.725C715.559 453.261 716.556 440.912 717.054 409.231C717.552 386.031 717.303 374.806 716.307 371.687C715.435 369.318 715.061 365.95 715.31 364.204C715.684 361.335 715.808 361.335 717.926 365.451Z" fill="white" fill-opacity="0.06"/>
<path d="M580.146 193.948C582.762 194.447 586.998 195.07 589.614 195.444C592.105 195.943 594.597 196.692 594.971 197.315C595.344 197.939 597.836 198.438 600.452 198.438C603.068 198.438 605.684 198.937 606.058 199.685C606.431 200.309 608.425 200.932 610.418 200.932C612.411 200.932 614.404 201.431 614.778 202.18C615.152 202.803 617.145 203.427 619.138 203.427C621.131 203.427 623.125 203.926 623.498 204.674C623.872 205.298 625.616 205.922 627.235 205.922C628.855 205.922 630.599 206.421 630.973 207.169C631.346 207.793 633.091 208.416 634.71 208.416C636.329 208.416 638.074 208.915 638.447 209.664C638.821 210.287 640.565 210.911 642.309 210.911C643.929 210.911 645.299 211.41 645.299 212.158C645.299 212.782 646.42 213.405 647.666 213.405C649.036 213.405 650.531 213.904 650.905 214.653C651.278 215.276 653.022 215.9 654.767 215.9C656.386 215.9 657.756 216.399 657.756 217.147C657.756 217.771 658.504 218.395 659.251 218.395C661.369 218.395 691.89 233.612 692.388 234.859C692.637 235.358 693.883 235.857 695.253 235.857C696.499 235.857 697.62 236.356 697.62 237.104C697.62 237.728 698.368 238.351 699.24 238.351C700.112 238.351 702.105 239.474 703.6 240.846C705.095 242.218 706.839 243.341 707.586 243.341C708.334 243.341 710.078 244.463 711.573 245.835C713.068 247.207 715.061 248.33 715.933 248.33C716.805 248.33 717.552 248.829 717.552 249.328C717.552 249.826 719.047 251.199 720.916 252.321C722.909 253.444 726.024 255.814 728.141 257.56C730.134 259.306 732.377 260.803 733 260.803C733.623 260.803 734.993 261.801 736.114 263.048C737.235 264.295 739.976 266.665 742.343 268.162C746.329 271.031 771.369 294.48 776.601 300.467C778.096 302.088 782.705 307.077 786.941 311.692C791.301 316.183 794.789 320.424 794.789 320.922C794.789 321.546 796.408 323.666 798.526 325.912C800.519 328.032 802.263 330.277 802.263 331.026C802.263 331.649 803.26 333.146 804.506 334.269C805.627 335.391 807.371 337.761 808.368 339.632C809.364 341.628 810.61 343.124 811.233 343.124C811.731 343.124 812.229 343.873 812.229 344.746C812.229 345.619 813.226 347.49 814.347 348.862C815.593 350.109 817.337 352.729 818.334 354.599C819.33 356.595 820.576 358.092 821.199 358.092C821.697 358.092 822.195 359.214 822.195 360.586C822.195 361.959 822.694 363.081 823.317 363.081C823.94 363.081 824.687 364.079 825.061 365.201C826.057 368.195 830.044 374.806 831.165 375.305C831.788 375.554 832.161 376.801 832.161 378.173C832.161 379.421 832.66 380.543 833.407 380.543C834.03 380.543 834.653 381.666 834.653 383.038C834.653 384.41 835.151 385.532 835.899 385.532C836.522 385.532 837.144 386.655 837.144 388.027C837.144 389.399 837.643 390.522 838.39 390.522C839.013 390.522 839.636 391.27 839.636 392.143C839.636 393.016 840.757 396.134 842.127 399.003C843.498 401.747 844.619 404.99 844.619 406.113C844.619 407.111 845.117 407.984 845.865 407.984C846.488 407.984 847.11 408.857 847.11 409.855C847.11 410.853 847.609 412.723 848.232 413.971C848.855 415.093 849.976 417.713 850.848 419.833C851.72 421.829 852.841 424.573 853.464 425.695C854.087 426.943 854.585 428.814 854.585 429.811C854.585 430.809 855.083 432.68 855.706 433.928C856.329 435.05 857.45 438.543 858.322 441.661C859.194 444.779 860.315 448.271 860.938 449.394C861.561 450.641 862.059 453.261 862.059 455.256C862.059 457.377 862.558 459.248 863.181 459.622C863.804 459.996 864.551 462.491 865.049 464.985C865.423 467.605 866.046 471.97 866.42 474.714C866.918 477.458 867.665 480.826 868.288 482.198C871.403 489.308 873.645 519.118 873.645 552.67C873.52 584.102 872.648 597.698 869.534 614.411C868.787 618.528 867.79 624.639 867.541 628.132C867.167 631.499 866.295 634.867 865.672 635.616C865.049 636.239 864.551 638.609 864.551 640.854C864.551 643.099 863.928 644.97 863.305 644.97C862.558 644.97 862.059 647.215 862.059 649.959C862.059 652.704 861.437 654.949 860.814 654.949C860.066 654.949 859.568 656.57 859.568 658.566C859.568 660.686 858.945 662.682 858.322 663.056C857.575 663.43 857.076 665.176 857.076 666.798C857.076 668.419 856.454 670.166 855.831 670.54C855.083 670.914 854.585 672.66 854.585 674.282C854.585 675.903 853.962 677.649 853.339 678.024C852.592 678.398 852.093 680.144 852.093 681.89C852.093 683.512 851.471 684.884 850.848 684.884C850.1 684.884 849.602 686.256 849.602 687.877C849.602 689.623 848.979 691.37 848.356 691.744C847.609 692.118 847.11 693.49 847.11 694.613C847.11 695.735 845.366 700.101 843.373 704.217C841.255 708.333 839.636 712.324 839.636 713.197C839.636 714.071 839.013 714.819 838.39 714.819C837.643 714.819 837.144 715.941 837.144 717.189C837.144 718.561 836.771 719.808 836.148 720.058C835.4 720.432 828.922 732.032 825.434 739.391C824.687 741.012 823.69 742.259 823.068 742.259C822.569 742.259 822.195 743.008 822.195 743.881C822.195 744.754 821.199 746.625 819.953 747.997C817.96 750.367 817.088 751.864 813.102 758.724C812.354 760.345 811.357 761.842 810.984 762.216C810.61 762.59 808.866 764.836 807.246 767.205C805.627 769.575 803.883 771.82 803.509 772.195C803.135 772.569 801.391 774.814 799.772 777.184C798.152 779.554 795.91 782.422 794.789 783.42C793.792 784.418 791.301 787.412 789.308 790.031C784.574 796.392 757.915 823.209 752.433 827.076C750.067 828.822 745.956 832.314 743.215 834.809C740.599 837.428 737.734 839.549 736.986 839.549C736.239 839.549 734.744 840.671 733.747 842.043C732.751 843.415 731.38 844.538 730.633 844.538C730.01 844.538 727.394 846.284 725.027 848.28C722.66 850.275 719.919 852.022 719.047 852.022C718.3 852.022 717.552 852.521 717.552 853.269C717.552 853.893 716.805 854.516 715.933 854.516C715.061 854.516 713.068 855.639 711.573 857.011C710.078 858.383 708.085 859.505 706.964 859.505C705.967 859.505 705.095 860.004 705.095 860.753C705.095 861.376 703.974 862 702.603 862C700.984 862 700.112 861.127 700.112 859.505C700.112 858.133 699.614 857.011 698.991 857.011C698.368 857.011 697.62 856.013 697.247 854.766C696.25 851.897 692.264 845.286 691.018 844.787C690.52 844.538 690.146 843.291 690.146 841.919C690.146 840.671 689.648 839.549 689.025 839.549C688.402 839.549 687.654 838.551 687.281 837.304C686.284 834.435 682.298 827.824 681.052 827.325C680.554 827.076 680.18 825.828 680.18 824.456C680.18 823.209 679.682 822.086 679.183 822.086C678.685 822.086 676.816 819.342 675.072 815.85C673.453 812.482 671.709 809.614 671.086 809.614C670.588 809.614 670.214 808.491 670.214 807.119C670.214 805.747 669.716 804.624 669.093 804.624C668.47 804.624 667.722 803.626 667.349 802.379C666.352 799.51 662.366 792.9 661.12 792.401C660.622 792.151 660.248 791.154 660.248 790.156C660.248 789.158 659.127 787.162 657.756 785.665C656.386 784.169 655.265 782.173 655.265 781.3C655.265 780.427 654.642 779.678 654.019 779.678C653.272 779.678 652.773 778.556 652.773 777.184C652.773 775.812 652.4 774.689 651.777 774.689C651.279 774.689 650.282 773.192 649.41 771.446C648.04 768.453 648.289 767.829 654.019 762.341C657.258 759.223 662.989 754.109 666.601 750.991C676.193 742.758 691.516 727.292 695.627 721.929C697.496 719.309 700.859 715.318 703.102 713.197C705.22 710.952 708.334 707.21 710.078 704.841C711.697 702.471 714.313 699.228 715.933 697.731C717.428 696.234 719.67 693.241 720.791 691.12C722.037 689.125 723.532 687.378 724.03 687.378C724.529 687.378 725.027 686.63 725.027 685.757C725.027 685.009 726.771 682.264 728.764 679.895C730.757 677.525 732.501 674.781 732.501 673.908C732.501 673.159 733 672.411 733.623 672.411C734.246 672.411 735.242 671.288 735.616 669.916C735.99 668.544 737.111 666.673 737.858 665.8C739.976 663.555 743.713 657.194 744.585 654.574C744.959 653.452 745.706 652.454 746.329 652.454C746.952 652.454 747.45 651.331 747.45 650.084C747.45 648.712 747.824 647.465 748.322 647.215C749.693 646.716 754.925 636.364 754.925 634.243C754.925 633.246 755.423 632.497 756.171 632.497C756.794 632.497 757.416 631.375 757.416 630.003C757.416 628.631 757.915 627.508 758.662 627.508C759.285 627.508 759.908 626.76 759.908 625.887C759.908 624.889 760.655 622.519 761.652 620.523C764.891 613.788 767.133 608.175 768.753 603.186C769.625 600.442 770.871 597.698 771.369 597.074C771.867 596.326 772.365 594.579 772.365 593.083C772.365 591.461 772.864 589.84 773.611 589.466C774.234 589.091 774.857 587.595 774.857 586.223C774.857 584.975 775.355 582.855 775.978 581.608C777.971 577.616 779.84 570.631 779.84 566.889C779.84 564.769 780.338 562.649 780.961 561.9C781.584 561.277 782.456 558.283 782.83 555.165C783.203 552.047 784.2 545.561 784.947 540.821C786.941 529.969 786.941 470.848 785.072 458.499C783.453 448.147 781.709 439.416 779.84 431.682C779.092 428.564 778.096 424.199 777.722 421.954C777.348 419.708 776.601 417.588 775.978 417.214C775.355 416.84 774.857 415.218 774.857 413.597C774.857 411.975 774.234 410.229 773.611 409.855C772.864 409.481 772.365 407.485 772.365 405.489C772.365 403.494 771.743 401.498 771.12 401.124C770.372 400.749 769.874 399.253 769.874 397.881C769.874 396.633 769.251 395.511 768.628 395.511C767.881 395.511 767.382 393.765 767.382 391.769C767.382 389.649 766.76 388.027 766.137 388.027C765.389 388.027 764.891 386.904 764.891 385.532C764.891 384.16 763.77 381.167 762.399 378.672C761.029 376.178 759.908 373.434 759.908 372.436C759.908 371.438 759.285 370.565 758.662 370.565C757.915 370.565 757.416 369.442 757.416 368.07C757.416 366.698 756.794 365.576 756.171 365.576C755.423 365.576 754.925 364.453 754.925 363.081C754.925 361.709 754.302 360.586 753.679 360.586C752.932 360.586 752.433 359.464 752.433 358.092C752.433 356.72 751.811 355.597 751.188 355.597C750.44 355.597 749.942 354.475 749.942 353.103C749.942 351.731 749.444 350.608 748.945 350.608C748.322 350.608 746.578 347.739 744.959 344.372C743.339 340.879 741.595 338.135 740.972 338.135C740.474 338.135 739.976 337.013 739.976 335.641C739.976 334.269 739.478 333.146 738.979 333.146C738.356 333.146 737.111 331.649 736.114 329.654C735.118 327.783 733.373 325.163 732.128 323.916C731.007 322.544 730.01 320.798 730.01 320.049C730.01 319.301 728.889 317.929 727.518 316.931C726.148 315.933 725.027 314.561 725.027 313.813C725.027 313.064 724.03 311.318 722.785 309.946C721.539 308.699 719.172 305.581 717.552 303.211C715.933 300.841 712.445 296.725 709.829 294.23C707.213 291.736 705.095 289.116 705.095 288.493C705.095 286.871 681.052 262.674 672.705 255.814C668.968 252.695 664.359 248.704 662.49 246.833C660.746 244.837 658.753 243.341 658.006 243.341C657.383 243.341 655.14 241.594 653.023 239.599C650.78 237.478 648.662 235.857 648.164 235.857C647.541 235.857 645.174 234.111 642.807 232.115C640.44 230.119 637.949 228.373 637.451 228.373C636.952 228.373 635.333 227.25 633.838 225.878C632.343 224.506 630.35 223.384 629.478 223.384C628.606 223.384 627.858 222.76 627.858 222.136C627.858 221.388 627.111 220.889 626.239 220.889C625.367 220.889 623.374 219.767 621.879 218.395C620.384 217.023 618.391 215.9 617.394 215.9C616.397 215.9 615.401 215.526 615.152 214.902C614.778 214.029 608.798 210.661 596.092 204.425C591.981 202.429 587.621 200.309 586.499 199.56C585.254 198.937 583.385 198.438 582.388 198.438C581.392 198.438 580.52 197.814 580.52 197.191C580.52 196.442 579.399 195.943 578.028 195.943C576.658 195.943 575.537 195.32 575.537 194.571C575.537 193.698 577.156 193.449 580.146 193.948Z" fill="white" fill-opacity="0.06"/>
<path d="M674.574 103.394C692.513 105.639 707.586 108.258 718.798 111.127C721.912 111.875 726.273 112.873 728.39 113.247C730.633 113.622 732.501 114.37 732.501 114.994C732.501 115.617 733.747 116.116 735.242 116.116C738.107 116.116 745.333 118.112 748.945 119.983C750.191 120.606 752.309 121.105 753.554 121.105C754.925 121.105 756.295 121.604 756.669 122.103C757.043 122.602 760.157 123.849 763.52 124.847C767.009 125.72 769.874 126.968 769.874 127.591C769.874 128.09 770.746 128.589 771.742 128.589C772.739 128.589 774.732 129.088 776.103 129.837C777.473 130.46 779.715 131.583 781.086 132.331C782.456 132.955 784.449 133.578 785.446 133.578C786.442 133.578 787.314 134.077 787.314 134.826C787.314 135.449 788.435 136.073 789.806 136.073C791.176 136.073 792.297 136.572 792.297 137.32C792.297 137.944 793.418 138.568 794.789 138.568C796.159 138.568 797.28 139.067 797.28 139.815C797.28 140.439 798.028 141.062 798.9 141.062C801.142 141.062 807.246 144.056 807.246 145.054C807.246 145.677 808.367 146.051 809.738 146.051C811.108 146.051 812.229 146.426 812.229 147.049C812.229 147.548 814.347 148.92 817.088 150.043C819.704 151.165 822.694 152.912 823.69 153.785C824.562 154.658 826.68 156.155 828.175 156.903C829.67 157.776 832.161 159.273 833.656 160.021C835.151 160.894 837.518 162.64 838.888 163.763C840.259 165.01 842.003 166.008 842.75 166.008C843.498 166.008 844.868 167.131 845.865 168.503C846.861 169.875 848.232 170.997 848.979 170.997C849.726 170.997 851.47 171.995 852.841 173.242C854.086 174.49 857.201 176.735 859.568 178.481C861.935 180.103 864.8 182.348 865.797 183.47C866.793 184.593 869.658 186.838 872.025 188.459C877.133 192.077 919.364 233.986 919.364 235.483C919.364 235.982 921.606 238.85 924.347 241.844C927.088 244.713 929.33 247.581 929.33 248.205C929.33 248.704 930.825 250.824 932.818 252.82C934.687 254.816 936.929 258.059 937.926 259.93C938.922 261.801 940.168 263.297 940.791 263.297C941.289 263.297 941.787 264.046 941.787 264.919C941.787 265.792 942.784 267.663 943.905 269.035C946.023 271.405 946.895 272.902 950.881 279.762C951.629 281.383 952.625 282.88 952.999 283.254C954.245 284.501 958.107 291.362 958.854 293.482C959.228 294.729 959.975 295.727 960.598 295.727C961.221 295.727 961.719 296.85 961.719 298.222C961.719 299.594 962.218 300.716 962.965 300.716C963.588 300.716 964.211 301.839 964.211 303.211C964.211 304.583 964.709 305.705 965.457 305.705C966.08 305.705 966.702 306.828 966.702 308.2C966.702 309.572 967.201 310.695 967.948 310.695C968.571 310.695 969.194 311.443 969.194 312.441C969.194 313.938 970.938 317.929 975.547 327.159C976.17 328.406 976.668 330.277 976.668 331.275C976.668 332.273 977.167 333.146 977.914 333.146C978.537 333.146 979.16 334.767 979.16 336.888C979.16 338.884 979.658 340.63 980.156 340.63C980.655 340.63 981.776 343.249 982.648 346.492C983.645 349.86 984.89 353.477 985.513 354.599C986.136 355.847 986.634 358.217 986.634 359.838C986.634 361.584 987.133 363.331 987.88 363.705C988.503 364.079 989.126 366.324 989.126 368.694C989.126 371.064 989.624 373.184 990.247 373.558C990.87 373.933 991.742 376.053 992.116 378.298C992.614 380.543 993.486 385.158 994.233 388.651C998.095 407.859 999.216 417.089 1001.09 443.781L1001.83 455.381L892.207 455.381L891.334 452.512C890.338 449.893 889.715 447.149 887.099 433.553C886.476 430.061 885.23 424.822 884.483 421.704C883.735 418.586 882.739 414.22 882.365 411.975C881.991 409.855 881.244 407.984 880.621 407.984C879.998 407.984 879.5 406.736 879.5 405.364C879.5 402.995 876.012 390.771 873.271 383.661C872.648 382.289 871.652 379.171 870.78 376.801C869.908 374.431 868.786 371.189 868.164 369.567C867.541 368.07 866.544 365.576 865.921 363.954C864.177 359.339 861.81 353.851 860.689 351.606C860.066 350.359 859.568 348.488 859.568 347.49C859.568 346.492 858.945 345.619 858.322 345.619C857.575 345.619 857.076 344.496 857.076 343.124C857.076 341.752 856.453 340.63 855.831 340.63C855.083 340.63 854.585 339.507 854.585 338.135C854.585 336.763 853.962 335.641 853.339 335.641C852.592 335.641 852.093 334.518 852.093 333.271C852.093 331.899 851.72 330.651 851.097 330.402C850.349 330.028 846.612 323.542 842.875 316.058C842.127 314.436 841.131 313.189 840.508 313.189C840.01 313.189 839.636 312.067 839.636 310.695C839.636 309.323 839.138 308.2 838.639 308.2C838.016 308.2 836.771 306.703 835.774 304.708C834.777 302.837 833.033 300.217 831.788 298.97C830.666 297.598 829.67 295.727 829.67 294.854C829.67 293.981 829.047 293.232 828.424 293.232C827.677 293.232 827.178 292.484 827.178 291.611C827.178 290.738 826.182 288.867 824.936 287.495C823.69 286.248 821.323 283.129 819.704 280.759C818.084 278.39 815.967 275.646 815.095 274.772C814.222 273.775 811.856 271.031 809.987 268.536C805.502 262.424 768.753 225.878 767.133 225.878C766.51 225.878 764.268 224.132 762.399 222.137C760.531 220.016 758.413 218.395 757.79 218.395C757.292 218.395 754.8 216.648 752.433 214.653C750.066 212.657 747.326 210.911 746.454 210.911C745.706 210.911 744.959 210.412 744.959 209.913C744.959 209.289 743.464 208.042 741.471 207.044C739.602 206.046 737.858 205.049 737.484 204.674C736.239 203.427 729.387 199.56 727.145 198.812C726.023 198.438 725.027 197.69 725.027 197.066C725.027 196.442 723.906 195.943 722.535 195.943C721.165 195.943 720.044 195.32 720.044 194.696C720.044 193.948 718.923 193.449 717.552 193.449C716.182 193.449 715.061 192.825 715.061 192.201C715.061 191.453 713.94 190.954 712.569 190.954C711.199 190.954 710.078 190.33 710.078 189.707C710.078 188.958 708.957 188.459 707.586 188.459C706.216 188.459 705.095 187.836 705.095 187.212C705.095 186.464 704.223 185.965 703.226 185.965C702.23 185.965 700.361 185.466 699.115 184.842C697.994 184.219 695.253 183.096 693.26 182.223C691.142 181.35 688.526 180.227 687.405 179.604C686.159 178.98 684.042 178.481 682.671 178.481C681.301 178.481 680.18 177.857 680.18 177.234C680.18 176.485 678.436 175.987 676.442 175.987C674.325 175.987 672.705 175.363 672.705 174.739C672.705 173.991 671.086 173.492 669.093 173.492C666.975 173.492 664.982 172.868 664.608 172.245C664.234 171.496 661.867 170.997 659.5 170.997C657.133 170.997 655.265 170.498 655.265 169.875C655.265 169.251 652.898 168.503 649.908 168.129C647.043 167.754 641.561 166.757 637.824 166.008C634.087 165.26 626.737 164.012 621.629 163.264C609.297 161.393 541.777 161.518 528.821 163.264C523.34 164.137 515.99 165.01 512.626 165.509C509.138 165.883 505.899 166.757 505.152 167.38C504.529 168.004 501.913 168.503 499.421 168.503C496.805 168.503 494.314 169.002 493.94 169.75C493.566 170.374 491.324 170.997 488.957 170.997C486.59 170.997 484.348 171.496 483.974 172.245C483.6 172.868 481.607 173.492 479.614 173.492C477.621 173.492 475.627 173.991 475.254 174.739C474.88 175.363 472.887 175.987 471.018 175.987C469.15 175.987 467.156 176.485 466.533 176.984C465.786 177.608 461.052 179.354 455.945 180.976C450.837 182.722 446.352 184.343 445.979 184.842C445.605 185.217 442.74 186.339 439.376 187.337C436.137 188.21 433.521 189.457 433.521 189.956C433.521 190.455 432.4 190.954 431.03 190.954C429.659 190.954 428.538 191.453 428.538 192.201C428.538 192.825 427.791 193.449 426.794 193.449C424.676 193.449 414.337 198.687 413.838 199.935C413.589 200.558 412.343 200.932 410.973 200.932C409.727 200.932 408.606 201.431 408.606 202.18C408.606 202.803 407.485 203.427 406.115 203.427C404.744 203.427 403.623 203.926 403.623 204.55C403.623 205.173 402.627 205.922 401.381 206.296C398.516 207.294 391.913 211.285 391.415 212.408C391.166 213.031 389.92 213.405 388.549 213.405C387.304 213.405 386.183 213.904 386.183 214.403C386.183 215.027 384.688 216.274 382.694 217.272C380.826 218.27 378.459 220.016 377.338 221.139C376.217 222.386 374.846 223.384 374.223 223.384C373.6 223.384 371.109 225.13 368.742 227.126C364.756 230.493 361.268 231.99 361.268 230.244C361.268 229.87 363.136 227.625 365.254 225.38C367.496 223.01 371.483 218.894 373.974 216.274C376.59 213.53 378.708 210.911 378.708 210.412C378.708 209.414 385.56 202.803 393.657 195.943C396.522 193.573 401.256 189.333 404.121 186.589C406.862 183.845 411.222 180.227 413.589 178.481C415.956 176.86 418.198 175.113 418.572 174.739C418.946 174.365 421.188 172.619 423.555 170.997C425.922 169.376 428.663 167.255 429.535 166.382C430.407 165.509 431.652 164.761 432.151 164.761C432.649 164.761 434.767 163.389 436.76 161.643C438.753 159.896 441.12 158.524 441.868 158.524C442.74 158.524 443.487 157.901 443.487 157.277C443.487 156.529 444.235 156.03 445.107 156.03C445.979 156.03 447.972 154.907 449.467 153.535C450.962 152.163 452.955 151.041 454.076 151.041C455.073 151.041 455.945 150.542 455.945 150.043C455.945 149.544 458.685 147.673 462.173 145.927C465.537 144.305 468.402 142.559 468.402 141.935C468.402 141.436 469.523 141.062 470.894 141.062C472.264 141.062 473.385 140.439 473.385 139.815C473.385 139.067 474.506 138.568 475.877 138.568C477.247 138.568 478.368 137.944 478.368 137.32C478.368 136.572 479.489 136.073 480.86 136.073C482.23 136.073 483.351 135.449 483.351 134.826C483.351 134.077 484.099 133.578 484.971 133.578C485.843 133.578 488.957 132.456 491.822 131.084C494.563 129.712 497.802 128.589 498.923 128.589C499.92 128.589 500.792 128.09 500.792 127.591C500.792 126.968 503.532 125.72 507.02 124.847C510.384 123.974 513.249 122.727 513.249 122.103C513.249 121.604 514.869 121.105 516.986 121.105C518.98 121.105 520.724 120.482 520.724 119.858C520.724 119.11 522.094 118.611 523.838 118.611C525.582 118.611 527.949 118.112 529.195 117.488C532.807 115.742 540.033 113.622 542.898 113.622C544.268 113.622 545.888 112.998 546.262 112.374C546.635 111.626 548.878 111.127 551.245 111.127C553.611 111.127 555.854 110.503 556.228 109.88C556.601 109.131 559.466 108.632 562.456 108.632C565.446 108.632 568.311 108.009 568.685 107.385C569.059 106.637 572.671 106.138 576.658 106.138C580.644 106.138 584.257 105.639 585.004 105.015C588.119 102.022 654.393 100.774 674.574 103.394Z" fill="white" fill-opacity="0.06"/>
<path d="M689.523 -45.9077C693.634 -45.284 699.365 -44.4109 702.23 -44.0367C705.22 -43.5378 707.587 -42.7895 707.587 -42.1658C707.587 -41.5422 709.331 -41.0432 711.573 -41.0432C715.435 -41.0432 722.411 -39.297 726.522 -37.1766C727.768 -36.553 730.135 -36.054 731.879 -36.054C733.623 -36.054 734.993 -35.5551 734.993 -34.8067C734.993 -34.1831 736.613 -33.5594 738.73 -33.5594C740.724 -33.5594 742.468 -33.0605 742.468 -32.3121C742.468 -31.6885 744.087 -31.0648 746.205 -31.0648C748.198 -31.0648 749.942 -30.5659 749.942 -29.8175C749.942 -29.1939 750.814 -28.5702 751.811 -28.5702C752.807 -28.5702 754.8 -28.0713 756.171 -27.3229C757.541 -26.6993 759.784 -25.5767 761.154 -24.8283C762.524 -24.2047 764.517 -23.581 765.514 -23.581C766.511 -23.581 767.383 -23.0821 767.383 -22.3337C767.383 -21.7101 768.13 -21.0865 769.127 -21.0865C771.369 -21.0865 796.035 -8.6135 798.402 -6.36836C799.398 -5.37052 799.648 -4.24796 799.025 -3.87377C798.402 -3.37485 797.156 -1.75333 796.284 -0.256575C795.537 1.36491 794.042 3.85951 793.17 5.35626C792.422 6.97775 791.426 8.47449 791.052 8.84868C789.806 10.096 785.944 16.9561 785.197 19.0765C784.823 20.3238 784.076 21.3217 783.453 21.3217C782.83 21.3217 782.332 22.4442 782.332 23.8162C782.332 25.1883 781.833 26.3108 781.21 26.3108C780.588 26.3108 779.84 27.3087 779.466 28.4313C778.47 31.4248 774.483 38.0354 773.238 38.5343C772.739 38.7838 772.366 40.0311 772.366 41.4031C772.366 42.6504 771.867 43.773 771.244 43.773C770.622 43.773 769.874 44.7709 769.5 45.8934C768.504 48.8869 764.517 55.4976 763.272 55.9965C762.773 56.246 762.4 57.4932 762.4 58.8653C762.4 60.1126 761.901 61.2352 761.278 61.2352C760.655 61.2352 759.908 62.233 759.534 63.3556C758.787 65.6007 754.925 72.4608 753.679 73.7081C753.306 74.0823 752.309 75.5791 751.437 77.0759C744.959 88.9252 745.084 88.8004 739.602 86.9295C737.111 86.0563 734.619 85.0586 734.246 84.5596C733.747 84.0607 732.252 83.6865 731.007 83.6865C729.761 83.6865 727.768 83.1876 726.522 82.5639C722.909 80.693 715.684 78.6973 712.819 78.6973C711.324 78.6973 710.078 78.1984 710.078 77.5747C710.078 76.9511 708.209 76.2027 705.967 75.8286C703.849 75.4544 699.489 74.4565 696.375 73.7081C693.26 72.9598 688.651 71.9619 686.035 71.5877C683.544 71.2135 681.052 70.4652 680.678 69.8415C680.305 69.2179 677.689 68.7189 674.699 68.7189C671.709 68.7189 668.968 68.22 668.345 67.5964C667.598 66.9727 663.736 66.0996 659.625 65.7254C655.514 65.3512 647.043 64.3534 640.939 63.6051C626.986 61.7341 570.928 61.7341 557.474 63.6051C551.992 64.3534 544.393 65.2265 540.656 65.7254C536.919 66.0996 533.306 66.9727 532.559 67.5964C531.936 68.22 529.32 68.719 526.828 68.719C524.212 68.719 521.721 69.2179 521.347 69.9663C520.973 70.5899 518.731 71.2135 516.364 71.2135C513.997 71.2135 511.755 71.7125 511.381 72.4608C511.007 73.0845 509.388 73.7081 507.893 73.7081C504.903 73.7081 496.307 76.4522 495.062 77.8242C494.563 78.3231 492.819 78.6973 491.2 78.6973C489.705 78.6973 488.334 79.1963 488.334 79.9446C488.334 80.5683 486.59 81.1919 484.597 81.1919C482.479 81.1919 480.86 81.6908 480.86 82.4392C480.86 83.0629 479.988 83.6865 478.991 83.6865C477.995 83.6865 476.002 84.1854 474.631 84.9338C473.261 85.5575 471.019 86.68 469.648 87.4284C468.278 88.0521 466.285 88.6757 465.288 88.6757C464.291 88.6757 463.419 89.1746 463.419 89.923C463.419 90.5467 462.298 91.1703 460.928 91.1703C459.558 91.1703 458.436 91.6692 458.436 92.4176C458.436 93.0413 457.315 93.6649 456.07 93.6649C454.699 93.6649 453.453 94.0391 453.204 94.538C452.955 95.1617 450.215 96.9079 446.851 98.5294C443.612 100.151 440.996 102.022 440.996 102.645C440.996 103.144 439.875 103.643 438.504 103.643C437.134 103.643 436.013 104.142 436.013 104.891C436.013 105.514 435.266 106.138 434.393 106.138C433.521 106.138 431.528 107.26 430.033 108.632C428.538 110.004 426.919 111.127 426.421 111.127C425.922 111.127 423.431 112.873 421.064 114.869C418.697 116.865 416.206 118.611 415.583 118.611C414.96 118.611 413.589 119.609 412.468 120.856C411.347 122.103 408.606 124.348 406.364 125.97C402.129 128.963 381.698 148.047 376.964 153.41C375.594 155.032 372.106 158.774 369.365 161.518C366.625 164.387 363.012 168.627 361.268 170.997C359.648 173.367 357.904 175.612 357.531 175.987C357.157 176.361 355.413 178.606 353.793 180.976C352.174 183.346 350.056 186.09 349.184 186.963C348.312 187.836 346.693 190.206 345.447 192.201C344.326 194.322 342.831 195.943 342.332 195.943C341.834 195.943 341.336 197.066 341.336 198.438C341.336 199.81 340.838 200.932 340.339 200.932C339.716 200.932 338.471 202.429 337.474 204.3C336.477 206.296 335.481 208.042 335.107 208.416C333.861 209.664 330 216.524 329.252 218.644C328.878 219.891 328.131 220.889 327.508 220.889C326.885 220.889 326.387 222.012 326.387 223.384C326.387 224.756 325.764 225.878 325.141 225.878C324.394 225.878 323.895 227.001 323.895 228.373C323.895 229.745 323.273 230.868 322.65 230.868C321.902 230.868 321.404 231.99 321.404 233.362C321.404 234.734 320.781 235.857 320.158 235.857C319.411 235.857 318.912 236.979 318.912 238.351C318.912 239.723 318.29 240.846 317.667 240.846C316.919 240.846 316.421 241.969 316.421 243.341C316.421 244.713 315.923 245.835 315.424 245.835C314.801 245.835 313.556 248.579 312.684 252.072C311.812 255.439 310.566 258.308 309.943 258.308C309.445 258.308 308.946 259.431 308.946 260.678C308.946 262.05 308.324 263.547 307.701 263.921C306.953 264.295 306.455 266.041 306.455 267.788C306.455 269.409 305.832 270.781 305.209 270.781C304.462 270.781 303.963 272.153 303.963 273.775C303.963 275.521 303.341 277.267 302.718 277.641C301.97 278.015 301.472 279.762 301.472 281.383C301.472 283.005 300.849 284.751 300.226 285.125C299.479 285.499 298.98 287.495 298.98 289.615C298.98 291.611 298.358 293.232 297.735 293.232C296.987 293.232 296.489 294.854 296.489 296.974C296.489 298.97 295.866 300.716 295.243 300.716C294.496 300.716 293.997 302.961 293.997 305.581C293.997 308.2 293.499 310.819 292.876 311.194C292.253 311.568 291.506 314.062 291.008 316.557C290.634 319.176 289.762 324.914 289.014 329.404C285.9 348.363 285.028 359.339 284.53 391.644C284.031 414.844 284.281 426.194 285.153 427.067C286.897 428.814 286.897 436.672 285.277 436.672C284.53 436.672 284.031 435.799 284.031 434.801C284.031 433.803 283.409 432.93 282.786 432.93C282.038 432.93 281.54 431.184 281.54 429.188C281.54 427.067 280.917 425.446 280.294 425.446C279.547 425.446 279.048 423.824 279.048 421.829C279.048 419.708 278.426 417.713 277.803 417.339C277.055 416.964 276.557 415.218 276.557 413.597C276.557 411.975 275.934 410.229 275.311 409.855C274.564 409.481 274.065 407.111 274.065 404.741C274.065 402.371 273.443 400.5 272.82 400.5C272.072 400.5 271.574 398.255 271.574 395.636C271.574 393.016 271.076 390.397 270.453 390.023C269.954 389.649 269.082 386.655 268.584 383.412C268.21 380.044 267.214 374.307 266.591 370.565C265.843 366.823 264.722 357.967 264.099 350.858C263.601 343.748 262.729 337.636 262.231 337.137C261.11 336.015 262.48 285.374 263.975 271.405C264.722 265.168 265.843 256.562 266.591 252.072C267.338 247.581 268.21 241.719 268.584 238.975C268.958 236.231 269.83 233.487 270.453 232.739C271.076 232.115 271.574 229.745 271.574 227.625C271.574 225.379 272.072 223.134 272.82 222.76C273.442 222.386 274.065 220.39 274.065 218.395C274.065 216.399 274.564 214.403 275.311 214.029C275.934 213.655 276.557 211.659 276.557 209.539C276.557 207.543 277.055 205.922 277.803 205.922C278.425 205.922 279.048 204.175 279.048 202.18C279.048 200.059 279.547 198.438 280.294 198.438C280.917 198.438 281.54 197.315 281.54 195.943C281.54 194.571 282.038 192.326 282.786 190.954C283.408 189.582 284.53 187.337 285.277 185.965C285.9 184.593 286.523 182.348 286.523 180.976C286.523 179.604 287.021 178.481 287.769 178.481C288.392 178.481 289.014 177.608 289.014 176.61C289.014 175.488 290.136 172.245 291.506 169.501C292.876 166.632 293.997 163.514 293.997 162.64C293.997 161.767 294.496 161.019 295.243 161.019C295.866 161.019 296.489 159.896 296.489 158.524C296.489 157.152 296.987 156.03 297.735 156.03C298.358 156.03 298.98 154.907 298.98 153.535C298.98 152.163 299.479 151.041 300.226 151.041C300.849 151.041 301.472 149.918 301.472 148.546C301.472 147.174 301.97 146.051 302.593 146.051C303.216 146.051 303.963 145.054 304.337 143.806C305.334 140.937 309.32 134.327 310.441 133.828C311.064 133.578 311.438 132.581 311.438 131.583C311.438 130.585 312.559 128.589 313.929 127.092C315.3 125.596 316.421 123.6 316.421 122.727C316.421 121.854 316.919 121.105 317.667 121.105C318.29 121.105 318.912 120.357 318.912 119.484C318.912 118.736 320.656 115.992 322.65 113.622C324.643 111.252 326.387 108.508 326.387 107.635C326.387 106.886 326.885 106.138 327.383 106.138C327.882 106.138 329.377 104.516 330.498 102.396C331.744 100.4 333.363 98.0304 334.235 97.1573C335.107 96.2842 337.225 93.5402 338.844 91.1703C340.464 88.8004 343.329 85.4327 345.073 83.6865C346.817 81.9403 349.807 78.3231 351.8 75.7038C356.534 69.3426 379.331 46.5171 385.685 41.7774C388.301 39.7817 391.789 36.9129 393.284 35.4161C394.779 33.9194 398.267 31.1753 400.758 29.1796C403.374 27.3087 406.613 24.6894 407.859 23.4421C409.229 22.3195 410.973 21.3217 411.721 21.3217C412.468 21.3217 413.839 20.1991 414.835 18.8271C415.832 17.455 417.202 16.3325 417.95 16.3325C418.697 16.3325 420.441 15.3347 421.811 14.0874C423.057 12.9648 425.673 11.2185 427.542 10.2207C429.535 9.22285 431.03 7.97557 431.03 7.35192C431.03 6.853 432.151 6.3541 433.521 6.3541C434.892 6.3541 436.013 5.8552 436.013 5.35628C436.013 4.73263 437.508 3.48535 439.376 2.48751C441.37 1.48967 443.114 0.491803 443.487 0.117614C444.11 -0.506034 452.831 -5.24579 458.063 -7.86512C459.682 -8.6135 460.928 -9.61129 460.928 -10.2349C460.928 -10.7339 461.675 -11.1081 462.672 -11.1081C464.042 -11.1081 472.14 -14.7252 482.355 -19.9638C483.601 -20.5875 485.469 -21.0864 486.466 -21.0864C487.462 -21.0864 488.334 -21.7101 488.334 -22.3337C488.334 -23.0821 489.456 -23.581 490.701 -23.581C492.072 -23.581 493.567 -24.2047 493.94 -24.8283C494.314 -25.5767 496.058 -26.0756 497.802 -26.0756C499.422 -26.0756 500.792 -26.6993 500.792 -27.3229C500.792 -28.0713 502.411 -28.5702 504.529 -28.5702C506.522 -28.5702 508.266 -29.1939 508.266 -29.8175C508.266 -30.5659 509.637 -31.0648 511.256 -31.0648C513 -31.0648 514.744 -31.6885 515.118 -32.3121C515.492 -33.0605 517.236 -33.5594 518.855 -33.5594C520.475 -33.5594 522.219 -34.1831 522.593 -34.8067C522.966 -35.5551 524.96 -36.054 526.953 -36.054C528.946 -36.054 530.939 -36.6777 531.313 -37.3013C531.687 -38.0497 534.054 -38.5486 536.42 -38.5486C538.787 -38.5486 540.656 -39.1723 540.656 -39.7959C540.656 -40.5443 542.774 -41.0432 545.39 -41.0432C548.006 -41.0432 550.622 -41.5421 551.245 -42.1658C552.491 -43.2884 557.1 -44.0367 569.308 -45.5334C572.423 -45.9076 576.035 -46.656 577.406 -47.2797C581.766 -49.1506 597.587 -50.1485 629.727 -50.1485C658.878 -50.2732 668.968 -49.5249 689.523 -45.9077Z" fill="white" fill-opacity="0.06"/>
<path d="M297.61 -61C300.475 -61 301.596 -60.1269 302.967 -57.2581C303.839 -55.2624 304.96 -53.5162 305.458 -53.5162C306.081 -53.5162 306.455 -52.3936 306.455 -51.0216C306.455 -49.6496 306.953 -48.527 307.576 -48.527C308.199 -48.527 308.946 -47.5291 309.32 -46.4066C310.317 -43.4131 314.303 -36.8024 315.424 -36.3035C316.047 -36.054 316.421 -34.8067 316.421 -33.4347C316.421 -32.1874 316.919 -31.0648 317.542 -31.0648C318.165 -31.0648 318.912 -30.0669 319.286 -28.9444C320.283 -25.9509 324.269 -19.3402 325.39 -18.8413C326.013 -18.5918 326.387 -17.3446 326.387 -15.9725C326.387 -14.7252 326.885 -13.6026 327.508 -13.6026C328.131 -13.6026 328.878 -12.6048 329.252 -11.4822C329.999 -9.23708 333.861 -2.37696 335.107 -1.12966C335.73 -0.506016 340.464 8.22508 343.08 13.4637C343.827 15.0852 344.824 16.3325 345.322 16.3325C345.945 16.3325 346.319 17.4551 346.319 18.8271C346.319 20.1991 346.817 21.3217 347.44 21.3217C348.063 21.3217 349.184 22.9432 350.056 25.0636C350.928 27.0593 352.049 28.8055 352.672 28.8055C354.292 28.8055 354.042 32.5474 352.174 34.2936C351.426 35.042 348.686 37.1624 346.319 38.7838C340.588 42.7752 302.967 80.5683 298.98 86.1811C297.361 88.551 294.496 91.9187 292.752 93.6649C291.007 95.4111 288.142 98.7789 286.523 101.149C284.779 103.519 282.536 106.637 281.291 107.884C280.045 109.256 279.048 110.878 279.048 111.501C279.048 112.125 278.052 113.622 276.806 114.744C275.685 115.867 273.941 118.237 272.944 120.108C271.948 122.103 270.702 123.6 270.079 123.6C269.581 123.6 269.082 124.348 269.082 125.222C269.082 126.095 268.086 127.966 266.84 129.338C265.719 130.585 263.975 133.204 262.978 135.075C261.982 137.071 260.736 138.568 260.113 138.568C259.615 138.568 259.116 139.69 259.116 140.938C259.116 142.31 258.743 143.557 258.12 143.806C256.749 144.43 253.635 150.168 247.282 163.514C244.167 170 241.053 176.361 240.43 177.483C239.683 178.731 239.184 180.602 239.184 181.599C239.184 182.597 238.686 183.47 238.188 183.47C237.565 183.47 236.319 186.214 235.447 189.707C234.575 193.075 233.329 195.943 232.706 195.943C232.208 195.943 231.71 197.315 231.71 198.937C231.71 200.683 231.087 202.429 230.464 202.803C229.717 203.178 229.218 204.924 229.218 206.545C229.218 208.167 228.595 209.913 227.973 210.287C227.225 210.661 226.727 212.657 226.727 214.777C226.727 216.773 226.228 218.395 225.606 218.395C224.983 218.395 224.235 220.266 223.862 222.386C223.488 224.631 222.491 228.997 221.744 232.115C220.996 235.233 220 239.973 219.751 242.717C219.377 245.461 218.629 248.829 218.007 250.201C215.889 255.065 215.141 268.162 215.017 301.34C215.017 322.544 215.515 338.01 216.387 343.124C219.128 357.593 220.373 363.58 221.619 368.694C222.367 371.438 223.239 375.305 223.612 377.425C224.111 379.421 224.858 382.29 225.481 383.662C225.979 385.034 227.1 388.651 227.973 391.769C228.72 394.887 229.966 398.38 230.589 399.502C231.211 400.75 231.71 402.62 231.71 403.618C231.71 404.616 232.208 405.489 232.956 405.489C233.578 405.489 234.201 406.612 234.201 407.859C234.201 409.231 234.7 410.728 235.447 411.102C236.07 411.476 236.693 413.222 236.693 414.969C236.693 416.59 237.191 417.962 237.939 417.962C238.561 417.962 239.184 418.711 239.184 419.584C239.184 421.33 242.423 428.814 246.908 437.295C248.403 440.039 250.645 444.53 252.016 447.274C253.386 450.018 254.881 452.388 255.504 452.637C256.126 452.887 256.625 454.134 256.625 455.506C256.625 456.753 257.123 457.876 257.746 457.876C258.369 457.876 259.116 458.874 259.49 459.996C260.237 462.241 264.099 469.101 265.345 470.349C265.719 470.723 266.715 472.469 267.712 474.34C268.709 476.336 269.954 477.832 270.577 477.832C271.075 477.832 271.574 478.581 271.574 479.579C271.574 480.452 273.193 482.946 275.311 485.067C277.304 487.312 279.048 489.557 279.048 490.056C279.048 490.68 280.543 492.8 282.412 494.92C284.405 496.916 287.893 501.032 290.26 504.026C296.489 512.008 304.212 520.365 316.296 531.965C322.027 537.578 328.505 543.815 330.622 545.81C332.74 547.931 336.477 550.924 338.844 552.67C341.211 554.292 344.076 556.662 345.198 557.909C346.319 559.156 347.689 560.154 348.312 560.154C348.935 560.154 351.053 561.651 353.17 563.647C355.164 565.517 358.403 567.763 360.271 568.76C362.264 569.758 363.759 571.006 363.759 571.629C363.759 572.128 364.507 572.627 365.379 572.627C366.251 572.627 368.119 573.625 369.49 574.747C370.736 575.995 373.352 577.741 375.22 578.739C377.213 579.737 378.708 580.984 378.708 581.608C378.708 582.107 379.83 582.605 381.2 582.605C382.57 582.605 383.691 582.98 383.691 583.479C383.691 584.102 384.937 585.1 386.557 585.848C394.031 589.59 400.509 593.332 400.883 594.081C401.132 594.704 402.378 595.078 403.748 595.078C404.994 595.078 406.115 595.577 406.115 596.326C406.115 596.949 407.236 597.573 408.606 597.573C409.977 597.573 411.098 598.072 411.098 598.82C411.098 599.444 411.97 600.068 412.966 600.068C413.963 600.068 415.832 600.567 417.077 601.19C418.199 601.814 420.316 602.812 421.687 603.311C423.555 604.059 422.683 604.433 418.074 604.807C414.711 605.057 411.596 604.683 411.222 604.059C410.849 603.435 408.233 602.562 405.492 602.188C402.751 601.814 398.017 600.816 394.903 600.068C391.789 599.319 387.429 598.321 385.186 597.947C383.068 597.573 381.2 596.825 381.2 596.201C381.2 595.577 379.456 595.078 377.463 595.078C375.345 595.078 373.725 594.455 373.725 593.831C373.725 593.083 371.981 592.584 369.988 592.584C367.87 592.584 366.251 591.96 366.251 591.337C366.251 590.588 365.13 590.089 363.759 590.089C362.389 590.089 360.147 589.59 358.776 588.842C357.406 588.094 355.164 586.971 353.793 586.347C352.423 585.599 350.181 585.1 348.81 585.1C347.44 585.1 346.319 584.476 346.319 583.853C346.319 583.104 345.198 582.605 343.827 582.605C342.457 582.605 341.336 581.982 341.336 581.358C341.336 580.61 340.588 580.111 339.716 580.111C338.72 580.111 336.104 579.238 333.737 578.115C319.909 571.505 311.438 567.014 311.438 566.141C311.438 565.642 310.317 565.143 308.946 565.143C307.576 565.143 306.455 564.52 306.455 563.896C306.455 563.148 305.583 562.649 304.586 562.649C303.465 562.649 301.472 561.526 299.977 560.154C298.482 558.782 296.489 557.66 295.617 557.66C294.745 557.66 293.997 557.036 293.997 556.412C293.997 555.664 293.25 555.165 292.378 555.165C291.506 555.165 289.513 554.042 288.018 552.67C286.523 551.298 284.903 550.176 284.405 550.176C283.907 550.176 281.415 548.43 279.048 546.434C276.681 544.438 274.065 542.692 273.442 542.692C272.695 542.692 271.325 541.569 270.328 540.197C269.331 538.825 267.961 537.703 267.214 537.703C266.591 537.703 263.103 535.083 259.739 531.965C256.251 528.722 251.517 524.731 249.15 522.86C243.295 518.494 221.619 496.667 217.259 490.68C215.266 488.06 212.276 484.568 210.532 482.822C208.788 481.075 205.923 477.708 204.303 475.338C202.559 472.968 200.317 469.85 199.071 468.602C197.825 467.23 196.829 465.484 196.829 464.736C196.829 463.987 195.708 462.615 194.337 461.618C192.967 460.62 191.846 459.248 191.846 458.499C191.846 457.751 190.849 456.005 189.603 454.633C188.482 453.385 186.738 450.766 185.742 448.77C184.745 446.9 183.499 445.403 182.876 445.403C182.378 445.403 181.88 444.53 181.88 443.532C181.88 442.409 180.759 440.414 179.388 438.917C178.018 437.42 176.897 435.424 176.897 434.551C176.897 433.678 176.523 432.93 175.9 432.93C175.402 432.93 173.658 430.061 172.038 426.693C170.294 423.201 168.426 420.457 167.927 420.457C167.429 420.457 166.931 419.334 166.931 417.962C166.931 416.59 166.308 415.468 165.685 415.468C164.938 415.468 164.439 414.719 164.439 413.846C164.439 412.973 162.82 408.982 160.702 404.866C158.709 400.75 156.965 396.384 156.965 395.137C156.965 394.014 156.342 393.016 155.719 393.016C154.972 393.016 154.473 391.894 154.473 390.646C154.473 389.274 153.85 387.778 153.227 387.403C152.48 387.029 151.982 385.283 151.982 383.537C151.982 381.915 151.483 380.543 150.985 380.543C150.487 380.543 149.366 377.924 148.494 374.556C147.497 371.313 146.251 367.696 145.628 366.574C145.006 365.326 144.507 363.206 144.507 361.959C144.507 360.587 143.884 359.09 143.261 358.716C142.514 358.341 142.016 356.346 142.016 354.225C142.016 352.23 141.517 350.608 140.895 350.608C140.272 350.608 139.524 348.737 139.15 346.492C138.777 344.372 137.78 340.006 137.033 336.888C136.285 333.77 135.289 329.279 135.04 326.91C134.666 324.54 133.918 321.421 133.295 320.049C132.174 317.43 131.178 310.32 130.057 295.103C129.683 290.239 128.811 285.873 128.188 285.125C126.693 283.504 127.565 213.904 129.309 200.933C130.057 195.819 130.929 188.709 131.427 185.341C131.801 181.849 132.673 177.982 133.295 176.61C133.918 175.238 134.666 171.87 135.164 169.126C135.538 166.382 136.161 162.017 136.534 159.398C137.033 156.903 137.78 154.408 138.403 154.034C139.026 153.66 139.524 151.789 139.524 149.793C139.524 147.798 140.023 145.802 140.77 145.428C141.393 145.054 142.016 142.684 142.016 140.314C142.016 137.944 142.514 136.073 143.261 136.073C143.884 136.073 144.507 134.452 144.507 132.456C144.507 130.335 145.006 128.34 145.753 127.966C146.376 127.591 146.999 125.845 146.999 124.099C146.999 122.478 147.497 121.105 148.244 121.105C148.867 121.105 149.49 119.983 149.49 118.611C149.49 117.239 150.113 114.869 150.985 113.248C153.975 107.26 154.473 106.138 154.473 103.643C154.473 102.271 154.972 101.149 155.719 101.149C156.342 101.149 156.965 100.026 156.965 98.6541C156.965 97.2821 157.463 96.1595 158.21 96.1595C158.833 96.1595 159.456 95.4112 159.456 94.5381C159.456 92.6671 169.671 71.962 170.917 71.4631C171.54 71.2136 171.914 69.9663 171.914 68.5943C171.914 67.347 172.412 66.2244 173.159 66.2244C173.782 66.2244 174.405 65.1018 174.405 63.7298C174.405 62.3578 174.904 61.2352 175.651 61.2352C176.274 61.2352 176.897 60.4868 176.897 59.6137C176.897 58.7406 178.018 56.745 179.388 55.2482C180.759 53.7514 181.88 51.7557 181.88 50.6332C181.88 49.6353 182.378 48.7622 182.876 48.7622C183.499 48.7622 184.745 47.2655 185.742 45.2698C186.738 43.3989 188.482 41.029 189.603 39.9065C190.849 38.7839 191.846 37.4119 191.846 36.7882C191.846 36.1646 193.216 34.0441 194.96 32.0484C196.704 30.0527 198.074 28.0571 198.074 27.5582C198.074 27.0593 200.068 24.44 202.435 21.8206C204.802 19.2013 206.795 16.5819 206.795 16.083C206.795 15.4594 209.785 12.0917 213.273 8.34977C216.885 4.73261 221.868 -0.38125 224.36 -3.1253C231.959 -11.3575 252.514 -30.5658 256.874 -33.6841C259.116 -35.3056 261.234 -36.9271 261.608 -37.3013C261.981 -37.6755 264.224 -39.4217 266.591 -41.0432C268.958 -42.7894 272.072 -45.0346 273.318 -46.2819C274.688 -47.5292 276.557 -48.527 277.429 -48.527C278.301 -48.527 279.048 -49.0259 279.048 -49.5248C279.048 -50.1485 280.543 -51.3958 282.412 -52.3936C284.405 -53.3914 287.021 -55.1377 288.267 -56.385C289.637 -57.5075 291.506 -58.5054 292.378 -58.5054C293.25 -58.5054 293.997 -59.129 293.997 -59.7527C293.997 -60.5011 295.617 -61 297.61 -61Z" fill="white" fill-opacity="0.06"/>
</g>
<defs>
<clipPath id="clip0_492_218">
<rect width="923" height="1001.83" fill="white" transform="translate(0 862) rotate(-90)"/>
</clipPath>
</defs>
</svg>
