<svg width="1830" height="1686" viewBox="0 0 1830 1686" fill="none" xmlns="http://www.w3.org/2000/svg">
<g clip-path="url(#clip0_459_1081)">
<path d="M-2.83957e-05 738.195L200.249 738.195L200.249 743.663C200.249 746.853 201.159 750.042 202.524 750.726C203.662 751.409 204.8 756.65 204.8 762.118C204.8 767.586 205.71 772.826 207.075 773.51C208.213 774.193 209.351 778.978 209.351 783.762C209.351 788.547 210.261 793.104 211.399 793.787C212.537 794.471 213.902 799.027 214.585 803.584C216.178 815.204 218.453 825.001 220.729 830.469C221.639 832.975 223.687 839.583 225.28 845.278C226.645 850.974 228.921 857.354 230.058 859.404C231.196 861.683 232.106 865.556 232.106 867.834C232.106 870.341 233.017 872.847 233.927 873.53C234.837 874.214 237.113 879.91 238.933 886.061C240.526 892.441 242.802 897.681 243.939 897.681C244.849 897.681 245.76 899.732 245.76 902.01C245.76 904.516 246.67 907.25 248.035 907.934C249.173 908.617 250.311 911.807 250.311 914.997C250.311 917.959 251.221 920.465 252.586 920.465C253.724 920.465 254.862 921.832 254.862 923.427C254.862 927.756 261.461 941.654 284.899 986.994C288.995 994.968 292.864 1001.8 293.546 1002.49C294.229 1003.17 296.049 1006.36 297.87 1009.78C299.69 1013.42 301.966 1016.16 303.104 1016.16C304.014 1016.16 304.924 1017.75 304.924 1019.8C304.924 1021.85 306.745 1025.27 309.02 1027.32C311.068 1029.37 314.254 1033.7 316.074 1037.12C317.895 1040.76 320.17 1043.5 321.308 1043.5C322.218 1043.5 323.129 1044.86 323.129 1046.46C323.129 1048.05 324.949 1051.47 327.225 1053.98C329.5 1056.26 333.824 1061.95 336.782 1066.28C339.968 1070.61 344.519 1076.31 347.022 1079.04C349.525 1081.55 354.076 1087.24 357.262 1091.34C367.047 1104.56 416.426 1152.86 420.067 1152.86C420.75 1152.86 424.163 1155.82 427.349 1159.24C430.762 1162.66 437.134 1168.12 441.457 1171.09C445.781 1174.05 449.877 1177.24 450.56 1177.92C452.38 1180.2 472.86 1193.87 474.453 1193.87C475.136 1193.87 477.866 1195.92 480.597 1198.43C483.327 1200.93 486.968 1202.98 488.561 1202.98C490.154 1202.98 491.519 1203.9 491.519 1205.26C491.519 1206.4 493.567 1207.54 495.843 1207.54C498.346 1207.54 500.622 1208.45 501.077 1209.36C501.987 1211.87 538.851 1230.32 542.947 1230.32C544.767 1230.32 546.133 1231.24 546.133 1232.6C546.133 1233.74 548.181 1234.88 550.684 1234.88C553.187 1234.88 555.235 1235.79 555.235 1237.16C555.235 1238.3 557.283 1239.44 559.786 1239.44C564.337 1239.44 566.385 1240.35 577.308 1245.82C580.266 1247.41 584.59 1248.55 587.093 1248.55C589.596 1248.55 591.644 1249.46 591.644 1250.83C591.644 1251.97 594.602 1253.11 598.471 1253.11C602.111 1253.11 605.297 1254.02 605.297 1255.39C605.297 1256.53 608.71 1257.66 613.034 1257.66C617.358 1257.66 621.681 1258.58 622.364 1259.94C623.046 1261.08 626.687 1262.22 630.328 1262.22C633.969 1262.22 637.61 1263.13 638.293 1264.5C638.975 1265.64 643.526 1266.78 648.305 1266.78C653.084 1266.78 657.635 1267.69 658.773 1268.83C660.138 1269.97 666.054 1271.56 672.426 1272.25C678.57 1272.93 693.589 1274.75 705.422 1276.12C743.423 1281.13 864.938 1278.85 868.351 1273.39C869.034 1272.25 874.95 1271.34 881.777 1271.34C888.604 1271.34 894.748 1270.2 895.43 1269.06C896.113 1267.69 901.802 1266.78 907.946 1266.78C914.09 1266.78 919.779 1265.64 920.461 1264.5C921.144 1263.13 925.24 1262.22 929.563 1262.22C933.887 1262.22 937.983 1261.08 938.666 1259.94C939.348 1258.58 942.989 1257.66 946.63 1257.66C950.271 1257.66 953.912 1256.53 954.595 1255.39C955.277 1254.02 958.918 1253.11 962.559 1253.11C966.2 1253.11 969.841 1251.97 970.523 1250.83C971.206 1249.46 974.392 1248.55 977.35 1248.55C980.308 1248.55 983.494 1247.41 984.177 1246.27C984.859 1244.91 988.045 1243.99 991.003 1243.99C993.962 1243.99 997.147 1242.86 997.83 1241.72C998.513 1240.35 1001.7 1239.44 1004.88 1239.44C1007.84 1239.44 1010.35 1238.53 1010.35 1237.62C1010.35 1236.48 1015.58 1234.2 1021.72 1232.6C1028.09 1231.01 1033.1 1228.73 1033.1 1227.59C1033.1 1226.68 1035.15 1225.77 1037.65 1225.77C1040.16 1225.77 1042.2 1224.63 1042.2 1223.49C1042.2 1222.12 1043.57 1221.21 1044.93 1221.21C1048.57 1221.21 1086.35 1202.53 1087.26 1200.25C1087.71 1199.11 1089.99 1198.43 1092.49 1198.43C1094.77 1198.43 1096.82 1197.52 1096.82 1196.38C1096.82 1195.24 1098.64 1193.87 1100.91 1193.19C1105.46 1191.59 1117.07 1184.76 1121.17 1180.88C1122.76 1179.52 1126.17 1177.47 1128.67 1176.78C1131.18 1176.1 1133.23 1174.28 1133.23 1173.14C1133.23 1172 1134.59 1171.09 1136.18 1171.09C1137.78 1171.09 1141.42 1169.04 1144.15 1166.53C1146.88 1164.02 1149.84 1161.97 1150.97 1161.97C1152.11 1161.97 1156.21 1159.01 1160.08 1155.14C1168.27 1147.39 1169.63 1146.94 1169.63 1151.72C1169.63 1155.59 1100.69 1225.54 1087.03 1235.79C1082.48 1239.21 1076.11 1244.45 1072.92 1247.64C1069.97 1250.6 1066.55 1253.11 1065.41 1253.11C1064.28 1253.11 1060.18 1256.3 1056.31 1259.94C1052.22 1263.82 1048.35 1266.78 1047.44 1266.78C1046.3 1266.78 1041.98 1269.97 1037.65 1273.61C1033.33 1277.26 1028.78 1280.45 1027.87 1280.45C1026.96 1280.45 1024 1282.5 1021.27 1285.01C1018.54 1287.51 1014.9 1289.56 1013.3 1289.56C1011.71 1289.56 1010.35 1290.47 1010.35 1291.84C1010.35 1292.98 1008.3 1294.12 1005.79 1294.12C1003.29 1294.12 1001.24 1295.03 1001.24 1296.17C1001.24 1297.31 998.058 1299.36 994.417 1300.95C990.548 1302.55 987.59 1304.6 987.59 1305.74C987.59 1306.88 985.542 1307.79 983.039 1307.79C980.536 1307.79 978.488 1308.7 978.488 1310.07C978.488 1311.21 976.44 1312.35 973.937 1312.35C971.434 1312.35 969.386 1313.26 969.386 1314.62C969.386 1315.76 967.338 1316.9 964.835 1316.9C962.331 1316.9 960.283 1317.81 960.283 1319.18C960.283 1320.32 958.235 1321.46 955.732 1321.46C953.229 1321.46 951.181 1322.37 951.181 1323.74C951.181 1324.88 949.133 1326.02 946.63 1326.02C944.127 1326.02 942.079 1326.93 942.079 1328.29C942.079 1329.43 940.031 1330.57 937.528 1330.57C935.025 1330.57 932.977 1331.48 932.977 1332.85C932.977 1333.99 930.929 1335.13 928.653 1335.13C926.15 1335.13 923.419 1336.04 922.737 1337.41C922.054 1338.55 918.868 1339.69 915.683 1339.69C912.724 1339.69 910.221 1340.6 910.221 1341.96C910.221 1343.1 907.718 1344.24 904.76 1344.24C901.574 1344.24 898.388 1345.15 897.706 1346.52C897.023 1347.66 894.292 1348.8 891.789 1348.8C889.514 1348.8 887.466 1349.71 887.466 1351.08C887.466 1352.22 884.508 1353.36 880.867 1353.36C876.998 1353.36 873.357 1354.27 872.675 1355.64C871.992 1356.77 868.806 1357.91 865.848 1357.91C862.89 1357.91 859.704 1358.82 859.021 1360.19C858.339 1361.33 854.698 1362.47 851.057 1362.47C847.416 1362.47 843.775 1363.38 843.092 1364.75C842.41 1365.89 838.314 1367.03 833.99 1367.03C829.667 1367.03 825.571 1367.94 824.888 1369.31C824.205 1370.44 819.427 1371.58 814.648 1371.58C809.869 1371.58 805.091 1372.5 804.408 1373.86C803.725 1375 798.719 1376.14 793.258 1376.14C787.797 1376.14 782.79 1377.05 781.653 1378.19C779.149 1380.47 771.64 1381.15 713.386 1385.48C655.814 1389.58 620.998 1388.44 570.026 1380.7C561.151 1379.33 549.546 1377.74 543.857 1377.05C538.168 1376.37 532.707 1374.77 531.342 1373.63C530.204 1372.5 525.88 1371.58 522.012 1371.58C517.916 1371.58 513.82 1370.44 513.137 1369.31C512.455 1368.17 508.359 1367.03 504.035 1367.03C499.711 1367.03 495.615 1365.89 494.933 1364.75C494.25 1363.38 489.927 1362.47 485.603 1362.47C481.279 1362.47 477.866 1361.33 477.866 1360.19C477.866 1358.82 474.68 1357.91 471.04 1357.91C467.171 1357.91 464.213 1356.77 464.213 1355.64C464.213 1354.27 461.027 1353.36 457.386 1353.36C453.518 1353.36 450.56 1352.22 450.56 1351.08C450.56 1349.71 448.512 1348.8 446.008 1348.8C443.505 1348.8 439.409 1347.66 436.906 1346.52C434.403 1345.15 430.307 1343.1 427.804 1341.96C425.301 1340.6 421.205 1339.69 418.702 1339.69C416.199 1339.69 414.151 1338.55 414.151 1337.41C414.151 1336.04 412.103 1335.13 409.6 1335.13C407.096 1335.13 405.048 1333.99 405.048 1332.85C405.048 1331.48 403.456 1330.57 401.635 1330.57C399.815 1330.57 396.401 1329.66 394.126 1328.52C392.078 1327.38 382.065 1322.37 372.053 1317.59C350.208 1306.65 333.824 1297.99 332.231 1296.4C329.955 1294.12 317.44 1287.06 313.344 1285.69C311.296 1285.01 309.475 1283.64 309.475 1282.5C309.475 1281.36 308.11 1280.45 306.517 1280.45C304.924 1280.45 301.283 1278.4 298.553 1275.89C295.822 1273.39 292.864 1271.34 291.953 1271.34C291.043 1271.34 286.492 1268.15 282.169 1264.5C277.845 1260.85 273.521 1257.66 272.384 1257.66C271.473 1257.66 267.605 1254.7 263.509 1250.83C259.641 1246.96 255.545 1243.99 254.407 1243.99C253.042 1243.99 249.401 1241.03 246.215 1237.62C242.802 1234.2 236.43 1228.73 232.106 1225.77C221.866 1218.48 162.247 1158.78 154.738 1148.3C151.552 1143.97 145.18 1136.46 140.629 1131.44C135.851 1126.66 131.982 1121.42 131.982 1120.05C131.982 1118.68 129.934 1115.95 127.431 1114.13C124.928 1112.3 122.88 1109.57 122.88 1108.2C122.88 1106.84 119.694 1102.51 116.053 1098.63C112.185 1094.53 109.227 1090.43 109.227 1089.52C109.227 1088.38 107.406 1085.65 105.131 1083.14C100.124 1077.45 93.2977 1066.28 91.7048 1061.04C91.0221 1058.99 89.6568 1057.17 88.519 1057.17C87.3812 1057.17 86.471 1055.12 86.471 1052.61C86.471 1050.1 85.7883 1048.05 84.6506 1048.05C83.7403 1048.05 81.9199 1045.78 80.5546 1042.81C79.1892 1040.08 71.6799 1025.27 63.943 1010.01C56.4337 994.968 50.0622 980.842 50.0622 978.791C50.0622 976.741 49.1519 975.146 48.2417 975.146C47.1039 975.146 44.8284 969.906 43.2355 963.754C41.6426 957.375 39.3671 952.362 38.2293 952.362C37.3191 952.362 36.4088 949.173 36.4088 945.527C36.4088 941.654 35.2711 938.692 34.1333 938.692C32.7679 938.692 31.8577 935.502 31.8577 931.857C31.8577 927.984 30.7199 925.022 29.5822 925.022C28.2168 925.022 27.3066 922.06 27.3066 918.414C27.3066 914.541 26.1688 910.896 25.0311 910.212C23.6657 909.529 22.7555 905.883 22.7555 902.238C22.7555 898.593 21.8453 895.175 20.7075 894.491C19.5697 893.808 18.2044 889.935 17.5217 885.834C16.6115 881.733 15.0186 872.619 13.6533 865.784C9.10219 842.772 6.59908 826.14 5.00619 806.09C4.09597 795.154 2.50308 785.585 1.59286 784.674C0.68264 783.762 -2.68819e-05 772.826 -2.74197e-05 760.523L-2.83957e-05 738.195Z" fill="white" fill-opacity="0.06"/>
<path d="M1311.4 778.977C1313.45 783.306 1315.27 788.547 1315.27 790.825C1315.27 793.103 1316.18 795.61 1317.55 796.293C1318.68 796.977 1319.82 800.166 1319.82 803.128C1319.82 806.09 1320.73 809.28 1322.1 809.963C1323.24 810.647 1324.37 814.292 1324.37 817.938C1324.37 821.583 1325.51 825.228 1326.65 825.912C1328.01 826.595 1328.92 830.697 1328.92 835.025C1328.92 839.354 1329.83 843.228 1330.97 843.911C1332.11 844.595 1333.48 849.151 1334.16 853.708C1334.84 858.493 1336.66 868.062 1338.03 874.897C1352.36 947.35 1354.18 1035.75 1342.58 1107.29C1341.21 1115.49 1339.62 1126.89 1338.94 1132.81C1338.25 1138.96 1336.66 1143.75 1335.52 1143.75C1334.39 1143.75 1333.48 1147.85 1333.48 1152.86C1333.48 1157.87 1332.34 1161.97 1331.2 1161.97C1329.83 1161.97 1328.92 1165.39 1328.92 1169.72C1328.92 1174.05 1328.01 1178.38 1326.65 1179.06C1325.51 1179.74 1324.37 1183.39 1324.37 1187.26C1324.37 1190.91 1323.24 1193.87 1322.1 1193.87C1320.73 1193.87 1319.82 1196.83 1319.82 1200.71C1319.82 1204.35 1318.68 1207.54 1317.55 1207.54C1316.18 1207.54 1315.27 1210.5 1315.27 1214.15C1315.27 1218.02 1314.13 1221.67 1313 1222.35C1311.63 1223.03 1310.72 1226.22 1310.72 1229.41C1310.72 1232.37 1309.81 1234.88 1308.9 1234.88C1307.76 1234.88 1305.49 1239.89 1303.89 1246.27C1302.3 1252.42 1300.02 1257.66 1298.89 1257.66C1297.98 1257.66 1297.07 1259.72 1297.07 1262.22C1297.07 1264.73 1295.93 1266.78 1294.79 1266.78C1293.43 1266.78 1292.52 1268.15 1292.52 1269.51C1292.52 1272.47 1269.99 1319.18 1267.48 1321.46C1265.44 1323.51 1258.15 1336.27 1256.79 1340.14C1256.11 1342.42 1254.74 1344.24 1253.6 1344.24C1252.47 1344.24 1251.56 1346.29 1251.56 1348.8C1251.56 1351.31 1250.65 1353.36 1249.73 1353.36C1248.6 1353.36 1246.32 1356.09 1244.5 1359.51C1242.68 1363.15 1239.49 1367.48 1237.45 1369.53C1235.17 1371.58 1233.35 1374.32 1233.35 1375.46C1233.35 1376.6 1231.53 1379.56 1229.25 1382.06C1226.98 1384.34 1222.88 1390.04 1219.7 1394.37C1216.74 1398.7 1213.55 1402.8 1212.87 1403.48C1212.19 1404.16 1209.69 1407.13 1207.64 1410.09C1194.21 1429.91 1111.38 1512.84 1105.24 1512.84C1104.1 1512.84 1101.37 1514.67 1099.32 1516.94C1097.27 1519.22 1092.04 1523.55 1087.72 1526.51C1083.39 1529.48 1078.39 1533.35 1076.79 1534.94C1075.2 1536.54 1070.88 1539.5 1067.24 1541.78C1063.37 1543.83 1060.41 1546.56 1060.41 1547.47C1060.41 1548.39 1059.04 1549.3 1057.45 1549.3C1055.86 1549.3 1052.44 1551.12 1049.94 1553.17C1047.44 1555.45 1043.34 1558.41 1040.84 1559.78C1038.56 1561.14 1034.01 1563.65 1030.83 1565.47C1027.64 1567.3 1024.68 1569.12 1024 1569.8C1021.72 1572.08 1009.21 1579.14 1005.11 1580.51C1003.06 1581.19 1001.24 1582.56 1001.24 1583.7C1001.24 1584.84 999.196 1585.75 996.693 1585.75C994.19 1585.75 992.142 1586.66 992.142 1588.03C992.142 1589.17 990.094 1590.31 987.591 1590.31C985.088 1590.31 983.04 1591.22 983.04 1592.59C983.04 1593.73 980.992 1594.86 978.489 1594.86C975.986 1594.86 973.938 1595.78 973.938 1597.14C973.938 1598.28 971.89 1599.42 969.387 1599.42C966.884 1599.42 964.836 1600.33 964.836 1601.7C964.836 1602.84 962.788 1603.98 960.284 1603.98C957.781 1603.98 955.733 1604.89 955.733 1606.26C955.733 1607.4 953.23 1608.53 950.272 1608.53C947.086 1608.53 943.9 1609.45 943.218 1610.81C942.535 1611.95 939.804 1613.09 937.301 1613.09C935.026 1613.09 932.978 1614 932.978 1615.37C932.978 1616.51 930.93 1617.65 928.654 1617.65C926.151 1617.65 923.42 1618.56 922.738 1619.93C922.055 1621.07 918.869 1622.21 915.684 1622.21C912.725 1622.21 910.222 1623.12 910.222 1624.48C910.222 1625.62 907.036 1626.76 903.396 1626.76C899.527 1626.76 896.569 1627.67 896.569 1629.04C896.569 1630.18 894.066 1631.32 891.108 1631.32C887.922 1631.32 884.736 1632.23 884.053 1633.6C883.371 1634.74 879.73 1635.88 875.861 1635.88C872.22 1635.88 869.262 1636.79 869.262 1637.93C869.262 1639.07 865.849 1640.43 861.753 1641.12C849.465 1643.17 841.045 1645.22 836.267 1647.27C833.764 1648.41 828.075 1649.77 823.751 1650.68C819.428 1651.37 810.553 1652.96 804.409 1654.33C750.934 1665.27 672.654 1669.14 620.089 1663.67C606.208 1662.08 588.914 1660.25 581.405 1659.57C573.895 1658.89 566.841 1657.29 565.476 1656.15C564.338 1655.01 558.422 1654.1 552.505 1654.1C546.589 1654.1 541.583 1652.96 541.583 1651.82C541.583 1650.46 537.487 1649.55 532.48 1649.55C527.474 1649.55 523.378 1648.41 523.378 1647.27C523.378 1645.9 519.965 1644.99 515.641 1644.99C511.318 1644.99 506.994 1643.85 506.311 1642.71C505.629 1641.34 501.988 1640.43 498.347 1640.43C494.706 1640.43 491.065 1639.29 490.383 1638.15C489.7 1636.79 486.514 1635.88 483.556 1635.88C480.598 1635.88 477.412 1634.74 476.729 1633.6C476.047 1632.23 472.861 1631.32 469.675 1631.32C466.717 1631.32 464.214 1630.18 464.214 1629.04C464.214 1627.67 461.711 1626.76 458.752 1626.76C455.567 1626.76 452.381 1625.62 451.698 1624.48C451.016 1623.12 448.285 1622.21 445.782 1622.21C443.506 1622.21 441.458 1621.07 441.458 1619.93C441.458 1618.56 439.865 1617.65 438.045 1617.65C435.997 1617.65 430.08 1615.6 425.074 1613.09C419.84 1610.59 414.152 1608.53 412.559 1608.53C410.966 1608.53 409.6 1607.4 409.6 1606.26C409.6 1604.89 407.552 1603.98 405.049 1603.98C402.546 1603.98 400.498 1602.84 400.498 1601.7C400.498 1600.33 398.45 1599.42 395.947 1599.42C393.444 1599.42 391.396 1598.28 391.396 1597.14C391.396 1595.78 389.348 1594.86 386.845 1594.86C384.342 1594.86 382.294 1594.18 382.294 1593.04C382.294 1592.13 379.108 1590.08 375.467 1588.49C367.503 1584.84 367.73 1585.52 371.371 1577.78C372.736 1574.59 374.784 1572.08 375.922 1572.08C376.832 1572.08 377.743 1570.03 377.743 1567.52C377.743 1565.02 378.653 1562.97 379.791 1562.97C380.928 1562.97 382.294 1561.14 382.976 1558.87C384.342 1554.99 391.396 1542.46 393.672 1540.18C394.809 1539.04 403.456 1523.1 408.235 1513.53C409.6 1510.56 411.421 1508.29 412.331 1508.29C413.469 1508.29 414.152 1506.69 414.152 1504.87C414.152 1502.82 416.2 1499.17 418.703 1496.44C421.206 1493.7 423.254 1490.06 423.254 1488.46C423.254 1486.87 424.164 1485.5 425.529 1485.5C426.667 1485.5 427.805 1483.45 427.805 1480.95C427.805 1478.44 428.715 1476.39 429.853 1476.39C430.991 1476.39 432.356 1474.57 433.039 1472.29C434.404 1468.41 441.458 1455.88 443.734 1453.61C446.009 1451.33 453.064 1438.8 454.429 1434.69C455.112 1432.64 456.477 1430.82 457.615 1430.82C458.752 1430.82 459.663 1428.77 459.663 1426.26C459.663 1423.76 460.573 1421.71 461.938 1421.71C463.076 1421.71 464.214 1419.66 464.214 1417.15C464.214 1413.51 465.807 1412.59 471.723 1412.59C475.819 1412.59 480.143 1413.51 481.28 1414.42C482.646 1415.56 491.293 1418.75 500.623 1421.48C509.952 1424.44 519.51 1427.63 521.558 1428.77C523.833 1429.91 527.702 1430.82 530.205 1430.82C532.708 1430.82 536.576 1431.73 538.852 1432.87C545.679 1436.29 558.877 1439.93 564.566 1439.93C567.751 1439.93 571.165 1440.85 572.303 1441.99C573.668 1443.12 578.674 1444.49 583.68 1445.18C588.687 1446.09 598.471 1447.68 605.298 1449.05C674.475 1462.95 767.317 1465 833.991 1453.83C841.501 1452.47 851.74 1450.87 856.747 1450.19C861.753 1449.28 867.897 1447.91 870.4 1446.77C872.903 1445.63 878.592 1444.26 882.916 1443.35C887.239 1442.67 894.293 1441.53 898.162 1440.62C902.258 1439.93 905.671 1438.57 905.671 1437.43C905.671 1436.29 907.947 1435.38 910.677 1435.38C916.366 1435.38 931.84 1430.37 934.343 1427.86C935.253 1426.95 938.439 1426.26 941.397 1426.26C944.128 1426.26 946.631 1425.13 946.631 1423.99C946.631 1422.62 948.679 1421.71 950.955 1421.71C953.458 1421.71 956.188 1420.57 956.871 1419.43C957.554 1418.06 960.74 1417.15 963.925 1417.15C966.884 1417.15 969.387 1416.01 969.387 1414.87C969.387 1413.51 971.435 1412.59 973.938 1412.59C976.441 1412.59 978.489 1411.46 978.489 1410.32C978.489 1408.95 980.537 1408.04 983.04 1408.04C985.543 1408.04 987.591 1406.9 987.591 1405.76C987.591 1404.39 989.639 1403.48 992.142 1403.48C994.645 1403.48 996.693 1402.34 996.693 1401.2C996.693 1399.84 998.741 1398.92 1001.24 1398.92C1003.75 1398.92 1005.8 1397.78 1005.8 1396.65C1005.8 1395.28 1007.84 1394.37 1010.35 1394.37C1012.85 1394.37 1014.9 1393.23 1014.9 1392.09C1014.9 1390.72 1016.49 1389.81 1018.31 1389.81C1020.36 1389.81 1024 1387.76 1026.73 1385.25C1029.46 1382.75 1033.1 1380.7 1034.7 1380.7C1036.29 1380.7 1037.65 1379.56 1037.65 1378.42C1037.65 1377.05 1039.02 1376.14 1040.61 1376.14C1042.2 1376.14 1045.85 1374.09 1048.58 1371.58C1051.31 1369.08 1054.26 1367.03 1055.18 1367.03C1056.09 1367.03 1060.64 1363.84 1064.96 1360.19C1069.28 1356.55 1073.83 1353.36 1074.74 1353.36C1075.88 1353.36 1079.52 1350.62 1082.71 1346.98C1086.12 1343.56 1092.72 1337.86 1097.5 1334.22C1109.33 1325.33 1158.03 1276.8 1165.08 1266.78C1168.04 1262.45 1172.37 1257.21 1174.64 1255.16C1176.92 1253.11 1178.74 1250.6 1178.74 1249.23C1178.74 1248.1 1182.83 1242.63 1187.84 1237.16C1192.85 1231.69 1196.94 1226.22 1196.94 1225.08C1196.94 1224.17 1198.99 1221.21 1201.49 1218.48C1204 1215.74 1206.04 1212.1 1206.04 1210.5C1206.04 1208.91 1206.95 1207.54 1207.86 1207.54C1208.77 1207.54 1212.19 1202.53 1215.37 1196.15C1218.33 1190 1221.52 1184.76 1222.43 1184.76C1223.57 1184.76 1224.25 1182.71 1224.25 1180.2C1224.25 1177.69 1225.16 1175.64 1226.07 1175.64C1227.21 1175.64 1234.49 1162.66 1242.23 1146.48C1249.96 1130.53 1257.47 1115.72 1258.61 1113.67C1259.75 1111.39 1260.66 1107.98 1260.66 1106.15C1260.66 1104.33 1261.57 1102.73 1262.93 1102.73C1264.07 1102.73 1265.21 1100.68 1265.21 1098.18C1265.21 1095.67 1266.35 1091.34 1267.94 1088.38C1273.4 1077.44 1274.31 1075.39 1274.31 1071.07C1274.31 1068.56 1275.45 1065.83 1276.59 1065.14C1277.72 1064.46 1278.86 1061.72 1278.86 1059.22C1278.86 1056.94 1279.77 1053.07 1280.91 1050.79C1282.05 1048.74 1284.1 1042.36 1285.69 1036.66C1287.28 1030.97 1289.33 1024.59 1290.47 1022.54C1291.6 1020.26 1292.52 1014.79 1292.52 1010.46C1292.52 1006.13 1293.43 1002.49 1294.56 1002.49C1295.7 1002.49 1297.07 998.157 1297.98 992.689C1298.66 987.449 1300.25 976.968 1301.62 969.45C1307.08 939.375 1308.9 916.819 1309.81 858.948C1310.72 816.571 1310.26 796.065 1308.44 790.369C1306.85 786.04 1306.17 779.889 1306.62 776.699C1307.31 771.459 1307.53 771.459 1311.4 778.977Z" fill="white" fill-opacity="0.06"/>
<path d="M1059.72 465.701C1064.5 466.612 1072.24 467.751 1077.02 468.434C1081.57 469.346 1086.12 470.713 1086.8 471.852C1087.49 472.991 1092.04 473.903 1096.82 473.903C1101.59 473.903 1106.37 474.814 1107.06 476.181C1107.74 477.32 1111.38 478.459 1115.02 478.459C1118.66 478.459 1122.3 479.371 1122.98 480.738C1123.67 481.877 1127.31 483.016 1130.95 483.016C1134.59 483.016 1138.23 483.927 1138.91 485.295C1139.6 486.434 1142.78 487.573 1145.74 487.573C1148.7 487.573 1151.88 488.484 1152.57 489.851C1153.25 490.99 1156.44 492.13 1159.39 492.13C1162.35 492.13 1165.54 493.041 1166.22 494.408C1166.9 495.547 1170.09 496.686 1173.27 496.686C1176.23 496.686 1178.74 497.598 1178.74 498.965C1178.74 500.104 1180.78 501.243 1183.06 501.243C1185.56 501.243 1188.29 502.155 1188.98 503.522C1189.66 504.661 1192.84 505.8 1196.03 505.8C1198.99 505.8 1201.49 506.711 1201.49 508.078C1201.49 509.218 1202.86 510.357 1204.22 510.357C1208.09 510.357 1263.84 538.153 1264.75 540.431C1265.21 541.343 1267.48 542.254 1269.99 542.254C1272.26 542.254 1274.31 543.165 1274.31 544.532C1274.31 545.671 1275.67 546.811 1277.27 546.811C1278.86 546.811 1282.5 548.861 1285.23 551.368C1287.96 553.874 1291.15 555.924 1292.51 555.924C1293.88 555.924 1297.06 557.975 1299.8 560.481C1302.53 562.987 1306.17 565.038 1307.76 565.038C1309.35 565.038 1310.72 565.949 1310.72 566.86C1310.72 567.772 1313.45 570.278 1316.86 572.329C1320.5 574.379 1326.19 578.708 1330.06 581.898C1333.7 585.088 1337.8 587.822 1338.93 587.822C1340.07 587.822 1342.58 589.644 1344.62 591.923C1346.67 594.201 1351.68 598.53 1356 601.264C1363.28 606.504 1409.02 649.338 1418.58 660.274C1421.31 663.236 1429.73 672.349 1437.47 680.779C1445.43 688.982 1451.8 696.728 1451.8 697.639C1451.8 698.779 1454.76 702.652 1458.63 706.753C1462.27 710.626 1465.46 714.727 1465.46 716.094C1465.46 717.233 1467.28 719.968 1469.55 722.018C1471.6 724.069 1474.79 728.398 1476.61 731.815C1478.43 735.46 1480.7 738.195 1481.84 738.195C1482.75 738.195 1483.66 739.562 1483.66 741.156C1483.66 742.751 1485.48 746.169 1487.53 748.675C1489.8 750.953 1492.99 755.738 1494.81 759.156C1496.63 762.801 1498.91 765.535 1500.04 765.535C1500.95 765.535 1501.86 767.586 1501.86 770.092C1501.86 772.598 1502.77 774.649 1503.91 774.649C1505.05 774.649 1506.42 776.471 1507.1 778.522C1508.92 783.99 1516.2 796.065 1518.25 796.977C1519.39 797.432 1520.07 799.711 1520.07 802.217C1520.07 804.495 1520.98 806.546 1522.34 806.546C1523.48 806.546 1524.62 808.596 1524.62 811.103C1524.62 813.609 1525.53 815.659 1526.9 815.659C1528.03 815.659 1529.17 817.71 1529.17 820.216C1529.17 822.722 1530.08 824.773 1531.45 824.773C1532.58 824.773 1533.72 826.14 1533.72 827.735C1533.72 829.33 1535.77 835.026 1538.27 840.266C1540.78 845.278 1542.82 851.202 1542.82 853.253C1542.82 855.075 1543.73 856.67 1545.1 856.67C1546.24 856.67 1547.38 858.265 1547.38 860.088C1547.38 861.911 1548.29 865.328 1549.42 867.606C1550.56 869.657 1552.61 874.442 1554.2 878.315C1555.79 881.96 1557.84 886.973 1558.98 889.023C1560.12 891.302 1561.03 894.719 1561.03 896.542C1561.03 898.365 1561.94 901.782 1563.08 904.06C1564.21 906.111 1566.26 912.49 1567.86 918.186C1569.45 923.882 1571.5 930.262 1572.63 932.312C1573.77 934.591 1574.68 939.375 1574.68 943.021C1574.68 946.894 1575.59 950.312 1576.73 950.995C1577.87 951.679 1579.23 956.235 1580.14 960.792C1580.83 965.577 1581.96 973.551 1582.65 978.563C1583.56 983.576 1584.92 989.728 1586.06 992.234C1591.75 1005.22 1595.84 1059.67 1595.84 1120.96C1595.62 1178.38 1594.02 1203.21 1588.34 1233.74C1586.97 1241.26 1585.15 1252.42 1584.69 1258.8C1584.01 1264.96 1582.42 1271.11 1581.28 1272.47C1580.14 1273.61 1579.23 1277.94 1579.23 1282.04C1579.23 1286.14 1578.1 1289.56 1576.96 1289.56C1575.59 1289.56 1574.68 1293.66 1574.68 1298.68C1574.68 1303.69 1573.54 1307.79 1572.41 1307.79C1571.04 1307.79 1570.13 1310.75 1570.13 1314.4C1570.13 1318.27 1568.99 1321.92 1567.86 1322.6C1566.49 1323.28 1565.58 1326.47 1565.58 1329.43C1565.58 1332.4 1564.44 1335.59 1563.3 1336.27C1561.94 1336.95 1561.03 1340.14 1561.03 1343.1C1561.03 1346.07 1559.89 1349.26 1558.75 1349.94C1557.39 1350.62 1556.48 1353.81 1556.48 1357C1556.48 1359.96 1555.34 1362.47 1554.2 1362.47C1552.84 1362.47 1551.93 1364.98 1551.93 1367.94C1551.93 1371.13 1550.79 1374.32 1549.65 1375C1548.29 1375.68 1547.38 1378.19 1547.38 1380.24C1547.38 1382.29 1544.19 1390.27 1540.55 1397.79C1536.68 1405.3 1533.72 1412.59 1533.72 1414.19C1533.72 1415.78 1532.58 1417.15 1531.45 1417.15C1530.08 1417.15 1529.17 1419.2 1529.17 1421.48C1529.17 1423.99 1528.49 1426.26 1527.35 1426.72C1525.99 1427.4 1514.15 1448.59 1507.78 1462.04C1506.42 1465 1504.59 1467.28 1503.46 1467.28C1502.55 1467.28 1501.86 1468.64 1501.86 1470.24C1501.86 1471.83 1500.04 1475.25 1497.77 1477.76C1494.13 1482.09 1492.53 1484.82 1485.25 1497.35C1483.89 1500.31 1482.07 1503.05 1481.38 1503.73C1480.7 1504.41 1477.52 1508.51 1474.56 1512.84C1471.6 1517.17 1468.41 1521.27 1467.73 1521.96C1467.05 1522.64 1463.86 1526.74 1460.9 1531.07C1457.95 1535.4 1453.85 1540.64 1451.8 1542.46C1449.98 1544.28 1445.43 1549.75 1441.79 1554.54C1433.14 1566.16 1384.45 1615.14 1374.43 1622.21C1370.11 1625.4 1362.6 1631.77 1357.59 1636.33C1352.82 1641.12 1347.58 1644.99 1346.22 1644.99C1344.85 1644.99 1342.12 1647.04 1340.3 1649.55C1338.48 1652.05 1335.98 1654.1 1334.61 1654.1C1333.47 1654.1 1328.69 1657.29 1324.37 1660.94C1320.05 1664.58 1315.04 1667.77 1313.45 1667.77C1312.08 1667.77 1310.72 1668.68 1310.72 1670.05C1310.72 1671.19 1309.35 1672.33 1307.76 1672.33C1306.17 1672.33 1302.53 1674.38 1299.8 1676.89C1297.06 1679.39 1293.42 1681.44 1291.38 1681.44C1289.56 1681.44 1287.96 1682.35 1287.96 1683.72C1287.96 1684.86 1285.91 1686 1283.41 1686C1280.45 1686 1278.86 1684.41 1278.86 1681.44C1278.86 1678.94 1277.95 1676.89 1276.81 1676.89C1275.67 1676.89 1274.31 1675.06 1273.63 1672.79C1271.81 1667.55 1264.52 1655.47 1262.25 1654.56C1261.34 1654.1 1260.66 1651.82 1260.66 1649.32C1260.66 1647.04 1259.75 1644.99 1258.61 1644.99C1257.47 1644.99 1256.1 1643.17 1255.42 1640.89C1253.6 1635.65 1246.32 1623.57 1244.04 1622.66C1243.13 1622.21 1242.45 1619.93 1242.45 1617.42C1242.45 1615.14 1241.54 1613.09 1240.63 1613.09C1239.72 1613.09 1236.31 1608.08 1233.12 1601.7C1230.16 1595.55 1226.98 1590.31 1225.84 1590.31C1224.93 1590.31 1224.25 1588.26 1224.25 1585.75C1224.25 1583.25 1223.34 1581.19 1222.2 1581.19C1221.06 1581.19 1219.7 1579.37 1219.01 1577.09C1217.19 1571.85 1209.91 1559.78 1207.64 1558.87C1206.73 1558.41 1206.04 1556.59 1206.04 1554.77C1206.04 1552.94 1203.99 1549.3 1201.49 1546.56C1198.99 1543.83 1196.94 1540.18 1196.94 1538.59C1196.94 1536.99 1195.8 1535.63 1194.66 1535.63C1193.3 1535.63 1192.39 1533.58 1192.39 1531.07C1192.39 1528.56 1191.71 1526.51 1190.57 1526.51C1189.66 1526.51 1187.84 1523.78 1186.24 1520.59C1183.74 1515.12 1184.2 1513.98 1194.66 1503.96C1200.58 1498.26 1211.05 1488.92 1217.65 1483.22C1235.17 1468.19 1263.16 1439.94 1270.67 1430.14C1274.08 1425.35 1280.23 1418.06 1284.32 1414.19C1288.19 1410.09 1293.88 1403.25 1297.06 1398.92C1300.02 1394.6 1304.8 1388.67 1307.76 1385.94C1310.49 1383.2 1314.59 1377.74 1316.63 1373.86C1318.91 1370.22 1321.64 1367.03 1322.55 1367.03C1323.46 1367.03 1324.37 1365.66 1324.37 1364.07C1324.37 1362.7 1327.56 1357.69 1331.2 1353.36C1334.84 1349.03 1338.02 1344.02 1338.02 1342.42C1338.02 1341.05 1338.93 1339.69 1340.07 1339.69C1341.21 1339.69 1343.03 1337.64 1343.71 1335.13C1344.4 1332.62 1346.44 1329.21 1347.81 1327.61C1351.68 1323.51 1358.5 1311.89 1360.1 1307.11C1360.78 1305.06 1362.15 1303.23 1363.28 1303.23C1364.42 1303.23 1365.33 1301.18 1365.33 1298.9C1365.33 1296.4 1366.01 1294.12 1366.92 1293.66C1369.43 1292.75 1378.98 1273.84 1378.98 1269.97C1378.98 1268.15 1379.89 1266.78 1381.26 1266.78C1382.4 1266.78 1383.54 1264.73 1383.54 1262.22C1383.54 1259.72 1384.45 1257.66 1385.81 1257.66C1386.95 1257.66 1388.09 1256.3 1388.09 1254.7C1388.09 1252.88 1389.45 1248.55 1391.27 1244.91C1397.19 1232.6 1401.28 1222.35 1404.24 1213.24C1405.84 1208.22 1408.11 1203.21 1409.02 1202.07C1409.93 1200.71 1410.84 1197.52 1410.84 1194.78C1410.84 1191.82 1411.75 1188.86 1413.12 1188.17C1414.26 1187.49 1415.39 1184.76 1415.39 1182.25C1415.39 1179.97 1416.3 1176.1 1417.44 1173.82C1421.08 1166.53 1424.5 1153.77 1424.5 1146.94C1424.5 1143.06 1425.41 1139.19 1426.54 1137.82C1427.68 1136.68 1429.27 1131.21 1429.96 1125.52C1430.64 1119.82 1432.46 1107.98 1433.83 1099.32C1437.47 1079.5 1437.47 971.5 1434.05 948.945C1431.09 930.034 1427.91 914.085 1424.5 899.959C1423.13 894.263 1421.31 886.289 1420.63 882.188C1419.94 878.087 1418.58 874.214 1417.44 873.53C1416.3 872.847 1415.39 869.885 1415.39 866.923C1415.39 863.961 1414.26 860.771 1413.12 860.088C1411.75 859.404 1410.84 855.759 1410.84 852.113C1410.84 848.468 1409.7 844.823 1408.57 844.139C1407.2 843.456 1406.29 840.722 1406.29 838.215C1406.29 835.937 1405.15 833.886 1404.02 833.886C1402.65 833.886 1401.74 830.697 1401.74 827.051C1401.74 823.178 1400.6 820.216 1399.46 820.216C1398.1 820.216 1397.19 818.166 1397.19 815.659C1397.19 813.153 1395.14 807.685 1392.64 803.128C1390.13 798.572 1388.09 793.559 1388.09 791.736C1388.09 789.914 1386.95 788.319 1385.81 788.319C1384.45 788.319 1383.54 786.268 1383.54 783.762C1383.54 781.256 1382.4 779.205 1381.26 779.205C1379.89 779.205 1378.98 777.155 1378.98 774.649C1378.98 772.142 1377.85 770.092 1376.71 770.092C1375.34 770.092 1374.43 768.041 1374.43 765.535C1374.43 763.029 1373.3 760.978 1372.16 760.978C1370.79 760.978 1369.88 758.928 1369.88 756.422C1369.88 753.915 1368.97 751.865 1368.06 751.865C1366.92 751.865 1363.74 746.625 1360.78 740.473C1357.82 734.093 1354.64 729.081 1353.5 729.081C1352.59 729.081 1351.68 727.031 1351.68 724.524C1351.68 722.018 1350.77 719.968 1349.86 719.968C1348.72 719.968 1346.44 717.234 1344.62 713.588C1342.8 710.171 1339.62 705.386 1337.34 703.108C1335.29 700.601 1333.47 697.412 1333.47 696.045C1333.47 694.677 1331.43 692.171 1328.92 690.349C1326.42 688.526 1324.37 686.02 1324.37 684.653C1324.37 683.286 1322.55 680.096 1320.28 677.59C1318 675.311 1313.68 669.615 1310.72 665.286C1307.76 660.958 1301.39 653.439 1296.61 648.882C1291.83 644.325 1287.96 639.541 1287.96 638.402C1287.96 635.44 1244.04 591.239 1228.8 578.708C1221.97 573.012 1213.55 565.721 1210.14 562.304C1206.95 558.658 1203.31 555.924 1201.95 555.924C1200.81 555.924 1196.71 552.734 1192.84 549.089C1188.75 545.216 1184.88 542.254 1183.97 542.254C1182.83 542.254 1178.51 539.064 1174.18 535.419C1169.86 531.773 1165.31 528.584 1164.4 528.584C1163.49 528.584 1160.53 526.533 1157.8 524.027C1155.07 521.521 1151.43 519.47 1149.84 519.47C1148.24 519.47 1146.88 518.331 1146.88 517.192C1146.88 515.825 1145.51 514.913 1143.92 514.913C1142.33 514.913 1138.69 512.863 1135.96 510.357C1133.22 507.85 1129.58 505.8 1127.76 505.8C1125.94 505.8 1124.12 505.116 1123.67 503.977C1122.98 502.382 1112.06 496.231 1088.85 484.839C1081.34 481.193 1073.38 477.32 1071.33 475.953C1069.05 474.814 1065.64 473.903 1063.82 473.903C1062 473.903 1060.41 472.763 1060.41 471.624C1060.41 470.257 1058.36 469.346 1055.86 469.346C1053.35 469.346 1051.3 468.207 1051.3 466.84C1051.3 465.245 1054.26 464.789 1059.72 465.701Z" fill="white" fill-opacity="0.06"/>
<path d="M1232.21 300.29C1264.98 304.391 1292.51 309.176 1312.99 314.416C1318.68 315.783 1326.65 317.606 1330.52 318.289C1334.61 318.973 1338.03 320.34 1338.03 321.479C1338.03 322.618 1340.3 323.53 1343.03 323.53C1348.27 323.53 1361.46 327.175 1368.06 330.593C1370.34 331.732 1374.21 332.643 1376.48 332.643C1378.99 332.643 1381.49 333.554 1382.17 334.466C1382.85 335.377 1388.54 337.656 1394.69 339.478C1401.06 341.073 1406.29 343.352 1406.29 344.491C1406.29 345.402 1407.88 346.313 1409.7 346.313C1411.53 346.313 1415.17 347.225 1417.67 348.592C1420.17 349.731 1424.27 351.782 1426.77 353.149C1429.27 354.288 1432.92 355.427 1434.74 355.427C1436.56 355.427 1438.15 356.338 1438.15 357.705C1438.15 358.845 1440.2 359.984 1442.7 359.984C1445.2 359.984 1447.25 360.895 1447.25 362.262C1447.25 363.401 1449.3 364.54 1451.8 364.54C1454.31 364.54 1456.35 365.452 1456.35 366.819C1456.35 367.958 1457.72 369.097 1459.31 369.097C1463.41 369.097 1474.56 374.565 1474.56 376.388C1474.56 377.527 1476.61 378.211 1479.11 378.211C1481.61 378.211 1483.66 378.894 1483.66 380.033C1483.66 380.945 1487.53 383.451 1492.54 385.502C1497.31 387.552 1502.78 390.742 1504.6 392.337C1506.19 393.932 1510.06 396.666 1512.79 398.033C1515.52 399.627 1520.07 402.362 1522.8 403.729C1525.53 405.323 1529.85 408.513 1532.36 410.564C1534.86 412.842 1538.05 414.665 1539.41 414.665C1540.78 414.665 1543.28 416.715 1545.1 419.222C1546.92 421.728 1549.42 423.778 1550.79 423.778C1552.15 423.778 1555.34 425.601 1557.84 427.879C1560.12 430.158 1565.81 434.259 1570.13 437.449C1574.46 440.41 1579.69 444.511 1581.51 446.562C1583.33 448.613 1588.56 452.714 1592.89 455.676C1602.22 462.283 1679.36 538.836 1679.36 541.57C1679.36 542.482 1683.45 547.722 1688.46 553.19C1693.47 558.43 1697.56 563.671 1697.56 564.81C1697.56 565.721 1700.29 569.594 1703.93 573.24C1707.35 576.885 1711.44 582.809 1713.26 586.227C1715.08 589.644 1717.36 592.378 1718.5 592.378C1719.41 592.378 1720.32 593.745 1720.32 595.34C1720.32 596.935 1722.14 600.353 1724.19 602.859C1728.05 607.188 1729.65 609.922 1736.93 622.453C1738.29 625.415 1740.12 628.149 1740.8 628.832C1743.07 631.111 1750.13 643.642 1751.49 647.515C1752.18 649.793 1753.54 651.616 1754.68 651.616C1755.82 651.616 1756.73 653.667 1756.73 656.173C1756.73 658.679 1757.64 660.73 1759 660.73C1760.14 660.73 1761.28 662.78 1761.28 665.286C1761.28 667.793 1762.19 669.843 1763.55 669.843C1764.69 669.843 1765.83 671.894 1765.83 674.4C1765.83 676.906 1766.74 678.957 1768.1 678.957C1769.24 678.957 1770.38 680.324 1770.38 682.146C1770.38 684.88 1773.57 692.171 1781.99 709.031C1783.12 711.31 1784.03 714.727 1784.03 716.55C1784.03 718.373 1784.94 719.967 1786.31 719.967C1787.45 719.967 1788.58 722.929 1788.58 726.803C1788.58 730.448 1789.49 733.638 1790.41 733.638C1791.32 733.638 1793.36 738.422 1794.96 744.346C1796.78 750.498 1799.05 757.105 1800.19 759.156C1801.33 761.434 1802.24 765.763 1802.24 768.725C1802.24 771.914 1803.15 775.104 1804.51 775.788C1805.65 776.471 1806.79 780.572 1806.79 784.901C1806.79 789.23 1807.7 793.103 1808.84 793.787C1809.97 794.47 1811.57 798.344 1812.25 802.445C1813.16 806.546 1814.75 814.976 1816.12 821.355C1823.17 856.442 1825.22 873.302 1828.63 922.06L1830 943.248L1629.75 943.248L1628.16 938.008C1626.34 933.224 1625.2 928.211 1620.42 903.377C1619.28 896.997 1617.01 887.428 1615.64 881.732C1614.28 876.036 1612.46 868.062 1611.77 863.961C1611.09 860.088 1609.73 856.67 1608.59 856.67C1607.45 856.67 1606.54 854.392 1606.54 851.886C1606.54 847.557 1600.17 825.228 1595.16 812.242C1594.02 809.736 1592.2 804.04 1590.61 799.711C1589.02 795.382 1586.97 789.458 1585.83 786.496C1584.7 783.762 1582.87 779.205 1581.74 776.243C1578.55 767.813 1574.23 757.788 1572.18 753.687C1571.04 751.409 1570.13 747.991 1570.13 746.169C1570.13 744.346 1568.99 742.751 1567.86 742.751C1566.49 742.751 1565.58 740.701 1565.58 738.194C1565.58 735.688 1564.44 733.638 1563.3 733.638C1561.94 733.638 1561.03 731.587 1561.03 729.081C1561.03 726.575 1559.89 724.524 1558.75 724.524C1557.39 724.524 1556.48 722.474 1556.48 720.195C1556.48 717.689 1555.8 715.411 1554.66 714.955C1553.29 714.271 1546.47 702.424 1539.64 688.754C1538.27 685.792 1536.45 683.513 1535.32 683.513C1534.41 683.513 1533.72 681.463 1533.72 678.957C1533.72 676.45 1532.81 674.4 1531.9 674.4C1530.76 674.4 1528.49 671.666 1526.67 668.02C1524.85 664.603 1521.66 659.818 1519.39 657.54C1517.34 655.034 1515.52 651.616 1515.52 650.021C1515.52 648.426 1514.38 647.059 1513.24 647.059C1511.88 647.059 1510.97 645.692 1510.97 644.097C1510.97 642.503 1509.15 639.085 1506.87 636.579C1504.6 634.3 1500.27 628.604 1497.31 624.276C1494.36 619.947 1490.49 614.934 1488.89 613.339C1487.3 611.517 1482.98 606.504 1479.56 601.947C1471.37 590.783 1404.24 524.027 1401.29 524.027C1400.15 524.027 1396.05 520.837 1392.64 517.192C1389.23 513.319 1385.36 510.357 1384.22 510.357C1383.31 510.357 1378.76 507.167 1374.43 503.522C1370.11 499.876 1365.1 496.686 1363.51 496.686C1362.15 496.686 1360.78 495.775 1360.78 494.864C1360.78 493.725 1358.05 491.446 1354.41 489.623C1351 487.801 1347.81 485.978 1347.13 485.294C1344.85 483.016 1332.34 475.953 1328.24 474.586C1326.19 473.903 1324.37 472.536 1324.37 471.396C1324.37 470.257 1322.32 469.346 1319.82 469.346C1317.32 469.346 1315.27 468.207 1315.27 467.067C1315.27 465.7 1313.22 464.789 1310.72 464.789C1308.22 464.789 1306.17 463.65 1306.17 462.511C1306.17 461.144 1304.12 460.232 1301.62 460.232C1299.11 460.232 1297.07 459.093 1297.07 457.954C1297.07 456.587 1295.02 455.676 1292.51 455.676C1290.01 455.676 1287.96 454.536 1287.96 453.397C1287.96 452.03 1286.37 451.119 1284.55 451.119C1282.73 451.119 1279.32 450.207 1277.04 449.068C1274.99 447.929 1269.99 445.879 1266.35 444.284C1262.48 442.689 1257.7 440.638 1255.65 439.499C1253.37 438.36 1249.51 437.449 1247 437.449C1244.5 437.449 1242.45 436.309 1242.45 435.17C1242.45 433.803 1239.27 432.892 1235.63 432.892C1231.76 432.892 1228.8 431.753 1228.8 430.613C1228.8 429.246 1225.84 428.335 1222.2 428.335C1218.33 428.335 1214.69 427.196 1214.01 426.057C1213.32 424.69 1209 423.778 1204.68 423.778C1200.35 423.778 1196.94 422.867 1196.94 421.728C1196.94 420.588 1192.62 419.222 1187.16 418.538C1181.92 417.855 1171.91 416.032 1165.08 414.665C1158.26 413.298 1144.83 411.019 1135.5 409.652C1112.97 406.235 989.638 406.463 965.972 409.652C955.96 411.247 942.534 412.842 936.39 413.753C930.018 414.437 924.102 416.032 922.737 417.171C921.599 418.31 916.82 419.222 912.269 419.222C907.49 419.222 902.939 420.133 902.257 421.5C901.574 422.639 897.478 423.778 893.154 423.778C888.831 423.778 884.735 424.69 884.052 426.057C883.369 427.196 879.729 428.335 876.088 428.335C872.447 428.335 868.806 429.246 868.123 430.613C867.441 431.753 863.8 432.892 860.386 432.892C856.973 432.892 853.332 433.803 852.194 434.714C850.829 435.854 842.182 439.043 832.852 442.005C823.522 445.195 815.33 448.157 814.648 449.068C813.965 449.752 808.731 451.802 802.587 453.625C796.671 455.22 791.892 457.498 791.892 458.41C791.892 459.321 789.844 460.232 787.341 460.232C784.838 460.232 782.79 461.144 782.79 462.511C782.79 463.65 781.425 464.789 779.604 464.789C775.736 464.789 756.849 474.358 755.939 476.637C755.483 477.776 753.208 478.459 750.705 478.459C748.429 478.459 746.381 479.371 746.381 480.738C746.381 481.877 744.333 483.016 741.83 483.016C739.327 483.016 737.279 483.928 737.279 485.067C737.279 486.206 735.459 487.573 733.183 488.256C727.949 490.079 715.889 497.37 714.979 499.42C714.523 500.56 712.248 501.243 709.745 501.243C707.469 501.243 705.421 502.154 705.421 503.066C705.421 504.205 702.691 506.483 699.05 508.306C695.636 510.129 691.313 513.319 689.265 515.369C687.217 517.647 684.714 519.47 683.576 519.47C682.438 519.47 677.887 522.66 673.563 526.305C666.282 532.457 659.91 535.191 659.91 532.001C659.91 531.318 663.323 527.217 667.192 523.116C671.288 518.787 678.57 511.268 683.121 506.483C687.899 501.471 691.768 496.686 691.768 495.775C691.768 493.952 704.283 481.877 719.075 469.346C724.308 465.017 732.955 457.27 738.189 452.258C743.195 447.246 751.16 440.638 755.483 437.449C759.807 434.487 763.903 431.297 764.586 430.613C765.268 429.93 769.364 426.74 773.688 423.778C778.011 420.816 783.018 416.943 784.61 415.348C786.203 413.753 788.479 412.386 789.389 412.386C790.299 412.386 794.168 409.88 797.809 406.69C801.45 403.501 805.773 400.995 807.138 400.995C808.731 400.995 810.097 399.855 810.097 398.716C810.097 397.349 811.462 396.438 813.055 396.438C814.648 396.438 818.289 394.387 821.019 391.881C823.75 389.375 827.391 387.324 829.439 387.324C831.259 387.324 832.852 386.413 832.852 385.502C832.852 384.59 837.858 381.173 844.23 377.983C850.374 375.021 855.608 371.831 855.608 370.692C855.608 369.781 857.656 369.097 860.159 369.097C862.662 369.097 864.71 367.958 864.71 366.819C864.71 365.452 866.758 364.54 869.261 364.54C871.764 364.54 873.812 363.401 873.812 362.262C873.812 360.895 875.86 359.984 878.363 359.984C880.866 359.984 882.914 358.845 882.914 357.705C882.914 356.338 884.28 355.427 885.873 355.427C887.465 355.427 893.154 353.376 898.388 350.87C903.394 348.364 909.311 346.313 911.359 346.313C913.179 346.313 914.772 345.402 914.772 344.491C914.772 343.352 919.778 341.073 926.15 339.478C932.294 337.883 937.528 335.605 937.528 334.466C937.528 333.554 940.486 332.643 944.354 332.643C947.995 332.643 951.181 331.504 951.181 330.365C951.181 328.998 953.684 328.086 956.87 328.086C960.056 328.086 964.379 327.175 966.655 326.036C973.254 322.846 986.452 318.973 991.686 318.973C994.189 318.973 997.147 317.834 997.83 316.695C998.512 315.327 1002.61 314.416 1006.93 314.416C1011.26 314.416 1015.35 313.277 1016.03 312.138C1016.72 310.771 1021.95 309.859 1027.41 309.859C1032.87 309.859 1038.11 308.72 1038.79 307.581C1039.47 306.214 1046.07 305.303 1053.35 305.303C1060.64 305.303 1067.23 304.391 1068.6 303.252C1074.29 297.784 1195.35 295.506 1232.21 300.29Z" fill="white" fill-opacity="0.06"/>
<path d="M1259.52 27.5681C1267.03 28.7073 1277.5 30.3022 1282.73 30.9857C1288.19 31.8971 1292.51 33.2641 1292.51 34.4032C1292.51 35.5424 1295.7 36.4538 1299.8 36.4538C1306.85 36.4538 1319.59 39.6435 1327.1 43.5167C1329.38 44.656 1333.7 45.5673 1336.89 45.5673C1340.07 45.5673 1342.58 46.4787 1342.58 47.8457C1342.58 48.9849 1345.54 50.1241 1349.4 50.1241C1353.04 50.1241 1356.23 51.0355 1356.23 52.4025C1356.23 53.5417 1359.19 54.6809 1363.06 54.6809C1366.7 54.6809 1369.88 55.5922 1369.88 56.9593C1369.88 58.0984 1371.48 59.2376 1373.3 59.2376C1375.12 59.2376 1378.76 60.149 1381.26 61.516C1383.76 62.6552 1387.86 64.7057 1390.36 66.0728C1392.87 67.2119 1396.51 68.3512 1398.33 68.3512C1400.15 68.3512 1401.74 69.2625 1401.74 70.6295C1401.74 71.7687 1403.11 72.9079 1404.93 72.9079C1409.02 72.9079 1454.08 95.6917 1458.4 99.7927C1460.22 101.615 1460.68 103.666 1459.54 104.35C1458.4 105.261 1456.13 108.223 1454.53 110.957C1453.17 113.919 1450.44 118.475 1448.85 121.21C1447.48 124.171 1445.66 126.905 1444.98 127.589C1442.7 129.867 1435.65 142.398 1434.28 146.272C1433.6 148.55 1432.23 150.373 1431.1 150.373C1429.96 150.373 1429.05 152.423 1429.05 154.93C1429.05 157.436 1428.14 159.486 1427 159.486C1425.86 159.486 1424.5 161.309 1423.81 163.36C1421.99 168.828 1414.71 180.903 1412.44 181.814C1411.53 182.27 1410.84 184.548 1410.84 187.055C1410.84 189.333 1409.93 191.384 1408.8 191.384C1407.66 191.384 1406.29 193.206 1405.61 195.257C1403.79 200.725 1396.51 212.8 1394.23 213.712C1393.32 214.167 1392.64 216.446 1392.64 218.952C1392.64 221.23 1391.73 223.281 1390.59 223.281C1389.45 223.281 1388.09 225.104 1387.41 227.154C1386.04 231.255 1378.99 243.786 1376.71 246.065C1376.03 246.748 1374.21 249.482 1372.61 252.216C1360.78 273.861 1361.01 273.633 1351 270.215C1346.45 268.621 1341.89 266.798 1341.21 265.887C1340.3 264.975 1337.57 264.292 1335.3 264.292C1333.02 264.292 1329.38 263.38 1327.1 262.241C1320.5 258.824 1307.31 255.178 1302.07 255.178C1299.34 255.178 1297.07 254.267 1297.07 253.128C1297.07 251.988 1293.65 250.621 1289.56 249.938C1285.69 249.254 1277.72 247.432 1272.03 246.065C1266.35 244.698 1257.93 242.875 1253.15 242.191C1248.6 241.508 1244.05 240.141 1243.36 239.002C1242.68 237.863 1237.9 236.951 1232.44 236.951C1226.98 236.951 1221.97 236.04 1220.83 234.901C1219.47 233.761 1212.42 232.166 1204.91 231.483C1197.4 230.799 1181.92 228.977 1170.77 227.61C1145.29 224.192 1042.89 224.192 1018.31 227.61C1008.3 228.977 994.417 230.572 987.591 231.483C980.764 232.166 974.165 233.761 972.8 234.901C971.662 236.04 966.883 236.951 962.332 236.951C957.553 236.951 953.002 237.863 952.32 239.23C951.637 240.369 947.541 241.508 943.217 241.508C938.894 241.508 934.798 242.419 934.115 243.786C933.432 244.925 930.474 246.065 927.744 246.065C922.282 246.065 906.581 251.077 904.305 253.583C903.395 254.495 900.209 255.178 897.251 255.178C894.52 255.178 892.017 256.09 892.017 257.457C892.017 258.596 888.832 259.735 885.191 259.735C881.322 259.735 878.364 260.646 878.364 262.013C878.364 263.153 876.771 264.292 874.951 264.292C873.13 264.292 869.489 265.203 866.986 266.57C864.483 267.709 860.387 269.76 857.884 271.127C855.381 272.266 851.74 273.405 849.92 273.405C848.099 273.405 846.506 274.317 846.506 275.684C846.506 276.823 844.458 277.962 841.955 277.962C839.452 277.962 837.404 278.873 837.404 280.24C837.404 281.38 835.356 282.519 833.081 282.519C830.577 282.519 828.302 283.202 827.847 284.114C827.392 285.253 822.386 288.443 816.242 291.404C810.325 294.366 805.546 297.784 805.546 298.923C805.546 299.834 803.498 300.746 800.995 300.746C798.492 300.746 796.444 301.657 796.444 303.024C796.444 304.163 795.079 305.302 793.486 305.302C791.893 305.302 788.252 307.353 785.522 309.859C782.791 312.365 779.833 314.416 778.922 314.416C778.012 314.416 773.461 317.606 769.138 321.251C764.814 324.897 760.263 328.086 759.125 328.086C757.987 328.086 755.484 329.909 753.436 332.187C751.388 334.466 746.382 338.567 742.286 341.529C734.549 346.997 697.23 381.856 688.583 391.653C686.08 394.615 679.708 401.45 674.702 406.463C669.696 411.703 663.097 419.449 659.911 423.778C656.953 428.107 653.767 432.208 653.084 432.892C652.402 433.575 649.216 437.676 646.258 442.005C643.299 446.334 639.431 451.347 637.838 452.941C636.245 454.536 633.287 458.865 631.011 462.511C628.963 466.384 626.233 469.346 625.323 469.346C624.412 469.346 623.502 471.396 623.502 473.902C623.502 476.409 622.592 478.459 621.682 478.459C620.544 478.459 618.268 481.193 616.448 484.611C614.627 488.256 612.807 491.446 612.124 492.13C609.849 494.408 602.795 506.939 601.429 510.812C600.747 513.091 599.381 514.913 598.243 514.913C597.106 514.913 596.195 516.964 596.195 519.47C596.195 521.976 595.058 524.027 593.92 524.027C592.555 524.027 591.644 526.077 591.644 528.584C591.644 531.09 590.507 533.14 589.369 533.14C588.004 533.14 587.093 535.191 587.093 537.697C587.093 540.203 585.956 542.254 584.818 542.254C583.452 542.254 582.542 544.304 582.542 546.811C582.542 549.317 581.404 551.367 580.267 551.367C578.901 551.367 577.991 553.418 577.991 555.924C577.991 558.43 577.081 560.481 576.171 560.481C575.033 560.481 572.757 565.493 571.164 571.873C569.572 578.024 567.296 583.265 566.158 583.265C565.248 583.265 564.338 585.315 564.338 587.594C564.338 590.1 563.2 592.834 562.062 593.517C560.697 594.201 559.787 597.391 559.787 600.58C559.787 603.542 558.649 606.048 557.511 606.048C556.146 606.048 555.236 608.555 555.236 611.517C555.236 614.706 554.098 617.896 552.96 618.58C551.595 619.263 550.684 622.453 550.684 625.415C550.684 628.377 549.547 631.566 548.409 632.25C547.044 632.933 546.133 636.579 546.133 640.452C546.133 644.097 544.996 647.059 543.858 647.059C542.492 647.059 541.582 650.021 541.582 653.894C541.582 657.54 540.444 660.73 539.307 660.73C537.941 660.73 537.031 664.831 537.031 669.615C537.031 674.4 536.121 679.184 534.983 679.868C533.845 680.551 532.48 685.108 531.57 689.665C530.887 694.45 529.294 704.93 527.929 713.132C522.24 747.764 520.647 767.813 519.737 826.823C518.827 869.201 519.282 889.934 520.875 891.529C524.06 894.719 524.06 909.073 521.102 909.073C519.737 909.073 518.827 907.478 518.827 905.655C518.827 903.832 517.689 902.238 516.551 902.238C515.186 902.238 514.276 899.048 514.276 895.402C514.276 891.529 513.138 888.567 512 888.567C510.635 888.567 509.724 885.605 509.724 881.96C509.724 878.087 508.587 874.441 507.449 873.758C506.084 873.074 505.173 869.885 505.173 866.923C505.173 863.961 504.036 860.771 502.898 860.088C501.532 859.404 500.622 855.075 500.622 850.746C500.622 846.417 499.484 843 498.347 843C496.981 843 496.071 838.899 496.071 834.114C496.071 829.33 495.161 824.545 494.023 823.861C493.113 823.178 491.52 817.71 490.61 811.786C489.927 805.634 488.107 795.154 486.969 788.319C485.604 781.484 483.556 765.307 482.418 752.32C481.508 739.334 479.915 728.17 479.005 727.258C476.957 725.208 479.46 632.705 482.19 607.188C483.556 595.796 485.604 580.075 486.969 571.873C488.334 563.671 489.927 552.962 490.61 547.95C491.293 542.937 492.885 537.925 494.023 536.558C495.161 535.419 496.071 531.09 496.071 527.217C496.071 523.115 496.981 519.014 498.347 518.331C499.484 517.647 500.622 514.002 500.622 510.357C500.622 506.711 501.532 503.066 502.898 502.382C504.036 501.699 505.173 498.053 505.173 494.18C505.173 490.535 506.084 487.573 507.449 487.573C508.587 487.573 509.724 484.383 509.724 480.738C509.724 476.864 510.635 473.902 512 473.902C513.138 473.902 514.276 471.852 514.276 469.346C514.276 466.84 515.186 462.738 516.551 460.232C517.689 457.726 519.737 453.625 521.102 451.119C522.24 448.613 523.378 444.511 523.378 442.005C523.378 439.499 524.288 437.448 525.653 437.448C526.791 437.448 527.929 435.854 527.929 434.031C527.929 431.98 529.977 426.057 532.48 421.044C534.983 415.804 537.031 410.108 537.031 408.513C537.031 406.918 537.941 405.551 539.307 405.551C540.444 405.551 541.582 403.501 541.582 400.994C541.582 398.488 542.492 396.438 543.858 396.438C544.996 396.438 546.133 394.387 546.133 391.881C546.133 389.375 547.044 387.324 548.409 387.324C549.547 387.324 550.684 385.274 550.684 382.767C550.684 380.261 551.595 378.211 552.732 378.211C553.87 378.211 555.236 376.388 555.918 374.11C557.739 368.869 565.02 356.794 567.068 355.883C568.206 355.427 568.889 353.604 568.889 351.781C568.889 349.959 570.937 346.313 573.44 343.579C575.943 340.845 577.991 337.2 577.991 335.605C577.991 334.01 578.901 332.643 580.267 332.643C581.404 332.643 582.542 331.276 582.542 329.681C582.542 328.314 585.728 323.302 589.369 318.973C593.01 314.644 596.195 309.631 596.195 308.037C596.195 306.67 597.106 305.302 598.016 305.302C598.926 305.302 601.657 302.341 603.705 298.467C605.98 294.822 608.939 290.493 610.531 288.898C612.124 287.303 615.993 282.291 618.951 277.962C621.909 273.633 627.143 267.481 630.329 264.292C633.515 261.102 638.976 254.495 642.617 249.71C651.264 238.09 692.907 196.396 704.512 187.738C709.29 184.093 715.662 178.852 718.393 176.118C721.123 173.384 727.495 168.372 732.046 164.727C736.825 161.309 742.741 156.524 745.017 154.246C747.52 152.196 750.706 150.373 752.071 150.373C753.436 150.373 755.939 148.322 757.76 145.816C759.58 143.31 762.083 141.259 763.449 141.259C764.814 141.259 768 139.437 770.503 137.158C772.778 135.108 777.557 131.918 780.97 130.095C784.611 128.272 787.342 125.994 787.342 124.855C787.342 123.944 789.39 123.032 791.893 123.032C794.396 123.032 796.444 122.121 796.444 121.21C796.444 120.07 799.175 117.792 802.588 115.969C806.229 114.147 809.415 112.324 810.097 111.64C811.235 110.501 827.164 101.843 836.721 97.0587C839.68 95.6916 841.955 93.869 841.955 92.7298C841.955 91.8185 843.321 91.1349 845.141 91.1349C847.644 91.1349 862.435 84.5277 881.095 74.9585C883.37 73.8193 886.784 72.9079 888.604 72.9079C890.425 72.9079 892.017 71.7687 892.017 70.6296C892.017 69.2625 894.065 68.3512 896.341 68.3512C898.844 68.3512 901.575 67.212 902.257 66.0728C902.94 64.7057 906.126 63.7944 909.312 63.7944C912.27 63.7944 914.773 62.6552 914.773 61.516C914.773 60.149 917.731 59.2377 921.6 59.2377C925.24 59.2377 928.426 58.0984 928.426 56.9593C928.426 55.5923 930.929 54.6809 933.888 54.6809C937.073 54.6809 940.259 53.5417 940.942 52.4025C941.624 51.0355 944.81 50.1241 947.768 50.1241C950.727 50.1241 953.912 48.985 954.595 47.8457C955.278 46.4787 958.919 45.5674 962.56 45.5674C966.2 45.5674 969.841 44.4282 970.524 43.289C971.207 41.922 975.53 41.0106 979.854 41.0106C984.177 41.0106 987.591 39.8714 987.591 38.7322C987.591 37.3652 991.459 36.4538 996.238 36.4538C1001.02 36.4538 1005.8 35.5425 1006.93 34.4032C1009.21 32.3527 1017.63 30.9858 1039.93 28.2517C1045.62 27.5682 1052.22 26.2011 1054.72 25.062C1062.68 21.6444 1091.58 19.8218 1150.29 19.8217C1203.54 19.5939 1221.97 20.9608 1259.52 27.5681Z" fill="white" fill-opacity="0.06"/>
<path d="M543.629 0.000108482C548.862 0.000108253 550.91 1.59496 553.414 6.83519C555.006 10.4806 557.054 13.6704 557.965 13.6704C559.102 13.6704 559.785 15.7209 559.785 18.2272C559.785 20.7333 560.695 22.7838 561.833 22.7838C562.971 22.7838 564.336 24.6066 565.019 26.6571C566.839 32.1252 574.121 44.2005 576.169 45.1119C577.307 45.5676 577.99 47.8461 577.99 50.3523C577.99 52.6306 578.9 54.6813 580.038 54.6813C581.175 54.6813 582.541 56.504 583.223 58.5546C585.044 64.0226 592.326 76.098 594.374 77.0093C595.511 77.4649 596.194 79.7433 596.194 82.2495C596.194 84.5279 597.104 86.5785 598.242 86.5785C599.38 86.5785 600.745 88.4012 601.428 90.4518C602.793 94.5528 609.847 107.084 612.123 109.362C613.261 110.501 621.908 126.45 626.686 136.019C628.052 138.981 629.872 141.26 630.782 141.26C631.92 141.26 632.603 143.31 632.603 145.816C632.603 148.323 633.513 150.373 634.651 150.373C635.789 150.373 637.837 153.335 639.429 157.208C641.022 160.854 643.07 164.043 644.208 164.043C647.166 164.043 646.711 170.879 643.298 174.068C641.933 175.435 636.926 179.309 632.603 182.27C622.135 189.561 553.414 258.596 546.132 268.849C543.174 273.178 537.94 279.329 534.754 282.519C531.568 285.709 526.335 291.86 523.376 296.189C520.191 300.518 516.095 306.214 513.819 308.493C511.543 310.999 509.723 313.961 509.723 315.1C509.723 316.239 507.903 318.973 505.627 321.024C503.579 323.074 500.393 327.403 498.573 330.821C496.752 334.466 494.477 337.2 493.339 337.2C492.429 337.2 491.519 338.567 491.519 340.162C491.519 341.757 489.698 345.174 487.423 347.681C485.375 349.959 482.189 354.744 480.368 358.161C478.548 361.807 476.272 364.541 475.135 364.541C474.224 364.541 473.314 366.591 473.314 368.87C473.314 371.376 472.631 373.654 471.494 374.11C468.991 375.249 463.302 385.73 451.696 410.108C446.007 421.956 440.319 433.576 439.181 435.626C437.816 437.905 436.905 441.322 436.905 443.145C436.905 444.967 435.995 446.562 435.085 446.562C433.947 446.562 431.672 451.575 430.079 457.954C428.486 464.106 426.21 469.346 425.072 469.346C424.162 469.346 423.252 471.852 423.252 474.814C423.252 478.004 422.114 481.194 420.976 481.877C419.611 482.561 418.701 485.75 418.701 488.712C418.701 491.674 417.563 494.864 416.425 495.547C415.06 496.231 414.15 499.876 414.15 503.75C414.15 507.395 413.24 510.357 412.102 510.357C410.964 510.357 409.599 513.775 408.916 517.648C408.233 521.749 406.413 529.723 405.048 535.419C403.682 541.115 401.862 549.773 401.407 554.785C400.724 559.798 399.359 565.949 398.221 568.456C394.352 577.341 392.987 601.264 392.76 661.869C392.76 700.601 393.67 728.853 395.263 738.195C400.269 764.624 402.544 775.56 404.82 784.902C406.185 789.914 407.778 796.977 408.461 800.85C409.371 804.496 410.736 809.736 411.874 812.242C412.784 814.748 414.832 821.356 416.425 827.052C417.791 832.747 420.066 839.127 421.204 841.177C422.342 843.456 423.252 846.873 423.252 848.696C423.252 850.519 424.162 852.114 425.528 852.114C426.665 852.114 427.803 854.164 427.803 856.443C427.803 858.949 428.713 861.683 430.079 862.366C431.216 863.05 432.354 866.24 432.354 869.429C432.354 872.391 433.264 874.897 434.63 874.897C435.768 874.897 436.905 876.264 436.905 877.859C436.905 881.049 442.822 894.719 451.014 910.212C453.744 915.225 457.84 923.427 460.344 928.439C462.847 933.452 465.577 937.781 466.715 938.236C467.853 938.692 468.763 940.97 468.763 943.477C468.763 945.755 469.673 947.806 470.811 947.806C471.949 947.806 473.314 949.628 473.997 951.679C475.362 955.78 482.416 968.311 484.692 970.589C485.375 971.273 487.195 974.463 489.015 977.88C490.836 981.526 493.111 984.26 494.249 984.26C495.159 984.26 496.07 985.627 496.07 987.449C496.07 989.044 499.028 993.601 502.896 997.474C506.537 1001.58 509.723 1005.68 509.723 1006.59C509.723 1007.73 512.454 1011.6 515.867 1015.47C519.508 1019.12 525.879 1026.64 530.203 1032.11C541.581 1046.69 555.689 1061.95 577.762 1083.14C588.23 1093.39 600.062 1104.79 603.931 1108.43C607.799 1112.3 614.626 1117.77 618.95 1120.96C623.273 1123.92 628.507 1128.25 630.555 1130.53C632.603 1132.81 635.106 1134.63 636.244 1134.63C637.382 1134.63 641.25 1137.37 645.118 1141.01C648.759 1144.43 654.676 1148.53 658.089 1150.35C661.73 1152.18 664.461 1154.45 664.461 1155.59C664.461 1156.51 665.826 1157.42 667.419 1157.42C669.012 1157.42 672.425 1159.24 674.928 1161.29C677.204 1163.57 681.982 1166.76 685.396 1168.58C689.037 1170.4 691.767 1172.68 691.767 1173.82C691.767 1174.73 693.815 1175.64 696.318 1175.64C698.822 1175.64 700.869 1176.33 700.869 1177.24C700.869 1178.38 703.145 1180.2 706.103 1181.57C719.757 1188.4 731.589 1195.24 732.272 1196.6C732.727 1197.74 735.003 1198.43 737.506 1198.43C739.781 1198.43 741.829 1199.34 741.829 1200.71C741.829 1201.84 743.877 1202.98 746.381 1202.98C748.884 1202.98 750.932 1203.9 750.932 1205.26C750.932 1206.4 752.525 1207.54 754.345 1207.54C756.165 1207.54 759.579 1208.45 761.854 1209.59C763.902 1210.73 767.771 1212.55 770.274 1213.46C773.687 1214.83 772.094 1215.52 763.675 1216.2C757.531 1216.65 751.842 1215.97 751.159 1214.83C750.477 1213.69 745.698 1212.1 740.692 1211.41C735.685 1210.73 727.038 1208.91 721.349 1207.54C715.661 1206.17 707.696 1204.35 703.6 1203.67C699.732 1202.98 696.318 1201.62 696.318 1200.48C696.318 1199.34 693.133 1198.43 689.492 1198.43C685.623 1198.43 682.665 1197.29 682.665 1196.15C682.665 1194.78 679.479 1193.87 675.838 1193.87C671.97 1193.87 669.012 1192.73 669.012 1191.59C669.012 1190.23 666.964 1189.31 664.461 1189.31C661.958 1189.31 657.862 1188.4 655.358 1187.04C652.855 1185.67 648.759 1183.62 646.256 1182.48C643.753 1181.11 639.657 1180.2 637.154 1180.2C634.651 1180.2 632.603 1179.06 632.603 1177.92C632.603 1176.55 630.555 1175.64 628.052 1175.64C625.549 1175.64 623.501 1174.5 623.501 1173.37C623.501 1172 622.135 1171.09 620.542 1171.09C618.722 1171.09 613.943 1169.49 609.62 1167.44C584.361 1155.37 568.887 1147.16 568.887 1145.57C568.887 1144.66 566.839 1143.75 564.336 1143.75C561.833 1143.75 559.785 1142.61 559.785 1141.47C559.785 1140.1 558.192 1139.19 556.372 1139.19C554.324 1139.19 550.683 1137.14 547.952 1134.63C545.222 1132.13 541.581 1130.08 539.988 1130.08C538.395 1130.08 537.03 1128.94 537.03 1127.8C537.03 1126.43 535.664 1125.52 534.071 1125.52C532.479 1125.52 528.838 1123.47 526.107 1120.96C523.376 1118.46 520.418 1116.41 519.508 1116.41C518.598 1116.41 514.047 1113.22 509.723 1109.57C505.399 1105.93 500.621 1102.74 499.483 1102.74C498.118 1102.74 495.615 1100.68 493.794 1098.18C491.974 1095.67 489.471 1093.62 488.105 1093.62C486.967 1093.62 480.596 1088.84 474.452 1083.14C468.08 1077.22 459.433 1069.93 455.11 1066.51C444.415 1058.53 404.82 1018.66 396.856 1007.73C393.215 1002.94 387.753 996.563 384.568 993.373C381.382 990.183 376.148 984.032 373.19 979.703C370.004 975.374 365.908 969.678 363.632 967.4C361.357 964.893 359.536 961.704 359.536 960.337C359.536 958.97 357.488 956.463 354.985 954.641C352.482 952.818 350.434 950.312 350.434 948.945C350.434 947.578 348.614 944.388 346.338 941.882C344.29 939.603 341.105 934.819 339.284 931.173C337.464 927.756 335.188 925.022 334.05 925.022C333.14 925.022 332.23 923.427 332.23 921.604C332.23 919.554 330.182 915.908 327.679 913.174C325.176 910.44 323.128 906.795 323.128 905.2C323.128 903.605 322.445 902.238 321.307 902.238C320.397 902.238 317.211 896.998 314.253 890.846C311.067 884.467 307.654 879.454 306.744 879.454C305.833 879.454 304.923 877.404 304.923 874.897C304.923 872.391 303.785 870.341 302.648 870.341C301.282 870.341 300.372 868.974 300.372 867.379C300.372 865.784 297.414 858.493 293.545 850.974C289.905 843.456 286.719 835.482 286.719 833.203C286.719 831.153 285.581 829.33 284.443 829.33C283.078 829.33 282.168 827.279 282.168 825.001C282.168 822.495 281.03 819.761 279.892 819.077C278.527 818.394 277.617 815.204 277.617 812.014C277.617 809.052 276.706 806.546 275.796 806.546C274.886 806.546 272.838 801.762 271.245 795.61C269.425 789.686 267.149 783.079 266.011 781.028C264.873 778.75 263.963 774.877 263.963 772.598C263.963 770.092 262.825 767.358 261.688 766.674C260.322 765.991 259.412 762.346 259.412 758.472C259.412 754.827 258.502 751.865 257.364 751.865C256.226 751.865 254.861 748.447 254.178 744.346C253.496 740.473 251.675 732.499 250.31 726.803C248.945 721.107 247.124 712.905 246.669 708.576C245.986 704.247 244.621 698.551 243.483 696.045C241.435 691.26 239.615 678.273 237.567 650.477C236.884 641.591 235.291 633.617 234.153 632.25C231.423 629.288 233.016 502.155 236.201 478.46C237.567 469.118 239.16 456.132 240.07 449.98C240.753 443.6 242.345 436.537 243.483 434.031C244.621 431.525 245.986 425.373 246.897 420.361C247.579 415.349 248.717 407.374 249.4 402.59C250.31 398.033 251.675 393.476 252.813 392.793C253.951 392.109 254.861 388.692 254.861 385.046C254.861 381.401 255.771 377.755 257.137 377.072C258.274 376.388 259.412 372.059 259.412 367.73C259.412 363.402 260.322 359.984 261.688 359.984C262.825 359.984 263.963 357.022 263.963 353.377C263.963 349.503 264.873 345.858 266.239 345.174C267.377 344.491 268.514 341.301 268.514 338.112C268.514 335.15 269.425 332.643 270.79 332.643C271.928 332.643 273.065 330.593 273.065 328.087C273.065 325.58 274.203 321.252 275.796 318.29C281.257 307.353 282.168 305.303 282.168 300.746C282.168 298.24 283.078 296.189 284.443 296.189C285.581 296.189 286.719 294.139 286.719 291.633C286.719 289.126 287.629 287.076 288.994 287.076C290.132 287.076 291.27 285.709 291.27 284.114C291.27 280.696 309.929 242.875 312.205 241.964C313.343 241.508 314.025 239.23 314.025 236.724C314.025 234.445 314.936 232.395 316.301 232.395C317.439 232.395 318.576 230.344 318.576 227.838C318.576 225.332 319.487 223.281 320.852 223.281C321.99 223.281 323.128 221.914 323.128 220.319C323.128 218.724 325.176 215.079 327.679 212.345C330.182 209.611 332.23 205.966 332.23 203.915C332.23 202.092 333.14 200.497 334.05 200.497C335.188 200.497 337.464 197.763 339.284 194.118C341.104 190.7 344.29 186.372 346.338 184.321C348.614 182.271 350.434 179.764 350.434 178.625C350.434 177.486 352.937 173.613 356.123 169.967C359.309 166.322 361.812 162.676 361.812 161.765C361.812 160.854 365.453 156.069 369.776 151.285C374.1 146.5 377.741 141.715 377.741 140.804C377.741 139.665 383.202 133.513 389.574 126.678C396.173 120.071 405.275 110.729 409.826 105.717C423.707 90.6797 461.254 55.5926 469.218 49.8967C473.314 46.9348 477.183 43.9728 477.865 43.2893C478.548 42.6057 482.644 39.416 486.967 36.4541C491.291 33.2644 496.98 29.1633 499.255 26.8849C501.759 24.6066 505.172 22.7838 506.765 22.7838C508.358 22.7838 509.723 21.8725 509.723 20.9612C509.723 19.822 512.454 17.5437 515.867 15.7209C519.508 13.8982 524.286 10.7085 526.562 8.43004C529.065 6.3795 532.478 4.55687 534.071 4.55687C535.664 4.55687 537.03 3.41759 537.03 2.27843C537.03 0.911364 539.988 0.000108641 543.629 0.000108482Z" fill="white" fill-opacity="0.06"/>
</g>
<defs>
<clipPath id="clip0_459_1081">
<rect width="1686" height="1830" fill="white" transform="translate(0 1686) rotate(-90)"/>
</clipPath>
</defs>
</svg>
