<svg width="1440" height="789" viewBox="0 0 1440 789" fill="none" xmlns="http://www.w3.org/2000/svg">
<g clip-path="url(#clip0_401_1695)">
<path d="M-195 290.195L5.24866 290.195L5.24866 295.663C5.24866 298.853 6.15888 302.042 7.5242 302.726C8.66199 303.409 9.79976 308.65 9.79976 314.118C9.79976 319.586 10.71 324.826 12.0753 325.51C13.2131 326.193 14.3509 330.978 14.3509 335.762C14.3509 340.547 15.2611 345.104 16.3989 345.787C17.5367 346.471 18.902 351.027 19.5846 355.584C21.1775 367.204 23.4531 377.001 25.7286 382.469C26.6389 384.975 28.6869 391.583 30.2797 397.278C31.6451 402.974 33.9206 409.354 35.0584 411.404C36.1962 413.683 37.1064 417.556 37.1064 419.834C37.1064 422.341 38.0166 424.847 38.9269 425.53C39.8371 426.214 42.1126 431.91 43.9331 438.061C45.5259 444.441 47.8015 449.681 48.9393 449.681C49.8495 449.681 50.7597 451.732 50.7597 454.01C50.7597 456.516 51.6699 459.25 53.0353 459.934C54.1731 460.617 55.3108 463.807 55.3108 466.997C55.3108 469.959 56.221 472.465 57.5864 472.465C58.7242 472.465 59.8619 473.832 59.8619 475.427C59.8619 479.756 66.461 493.654 89.8992 538.994C93.9952 546.968 97.8637 553.803 98.5463 554.487C99.229 555.17 101.049 558.36 102.87 561.777C104.69 565.423 106.966 568.157 108.104 568.157C109.014 568.157 109.924 569.752 109.924 571.802C109.924 573.853 111.745 577.27 114.02 579.321C116.068 581.371 119.254 585.7 121.074 589.118C122.895 592.763 125.17 595.497 126.308 595.497C127.218 595.497 128.129 596.864 128.129 598.459C128.129 600.054 129.949 603.472 132.225 605.978C134.5 608.256 138.824 613.952 141.782 618.281C144.968 622.61 149.519 628.306 152.022 631.04C154.525 633.546 159.076 639.242 162.262 643.343C172.047 656.558 221.426 704.86 225.067 704.86C225.75 704.86 229.163 707.821 232.349 711.239C235.762 714.657 242.134 720.125 246.457 723.087C250.781 726.048 254.877 729.238 255.56 729.922C257.38 732.2 277.86 745.87 279.453 745.87C280.136 745.87 282.866 747.921 285.597 750.427C288.327 752.933 291.968 754.984 293.561 754.984C295.154 754.984 296.519 755.895 296.519 757.262C296.519 758.401 298.567 759.541 300.843 759.541C303.346 759.541 305.622 760.452 306.077 761.363C306.987 763.87 343.851 782.324 347.947 782.324C349.767 782.324 351.133 783.236 351.133 784.603C351.133 785.742 353.181 786.881 355.684 786.881C358.187 786.881 360.235 787.793 360.235 789.16C360.235 790.299 362.283 791.438 364.786 791.438C369.337 791.438 371.385 792.349 382.308 797.817C385.266 799.412 389.59 800.551 392.093 800.551C394.596 800.551 396.644 801.463 396.644 802.83C396.644 803.969 399.602 805.108 403.471 805.108C407.111 805.108 410.297 806.02 410.297 807.387C410.297 808.526 413.71 809.665 418.034 809.665C422.358 809.665 426.681 810.576 427.364 811.943C428.046 813.083 431.687 814.222 435.328 814.222C438.969 814.222 442.61 815.133 443.293 816.5C443.975 817.639 448.526 818.778 453.305 818.778C458.084 818.778 462.635 819.69 463.773 820.829C465.138 821.968 471.054 823.563 477.426 824.247C483.57 824.93 498.589 826.753 510.422 828.12C548.423 833.132 669.938 830.854 673.351 825.386C674.034 824.247 679.95 823.335 686.777 823.335C693.604 823.335 699.748 822.196 700.43 821.057C701.113 819.69 706.802 818.778 712.946 818.778C719.09 818.778 724.779 817.639 725.461 816.5C726.144 815.133 730.24 814.222 734.563 814.222C738.887 814.222 742.983 813.083 743.666 811.943C744.348 810.576 747.989 809.665 751.63 809.665C755.271 809.665 758.912 808.526 759.595 807.387C760.277 806.02 763.918 805.108 767.559 805.108C771.2 805.108 774.841 803.969 775.523 802.83C776.206 801.463 779.392 800.551 782.35 800.551C785.308 800.551 788.494 799.412 789.177 798.273C789.859 796.906 793.045 795.995 796.003 795.995C798.962 795.995 802.147 794.856 802.83 793.716C803.513 792.349 806.699 791.438 809.884 791.438C812.843 791.438 815.346 790.527 815.346 789.615C815.346 788.476 820.579 786.198 826.723 784.603C833.095 783.008 838.101 780.73 838.101 779.59C838.101 778.679 840.149 777.768 842.652 777.768C845.155 777.768 847.203 776.628 847.203 775.489C847.203 774.122 848.569 773.211 849.934 773.211C853.575 773.211 891.349 754.528 892.259 752.25C892.714 751.111 894.99 750.427 897.493 750.427C899.769 750.427 901.817 749.516 901.817 748.377C901.817 747.237 903.637 745.87 905.913 745.187C910.464 743.592 922.069 736.757 926.165 732.884C927.758 731.517 931.171 729.466 933.674 728.783C936.177 728.099 938.225 726.276 938.225 725.137C938.225 723.998 939.591 723.087 941.184 723.087C942.777 723.087 946.417 721.036 949.148 718.53C951.879 716.024 954.837 713.973 955.975 713.973C957.113 713.973 961.209 711.011 965.077 707.138C973.269 699.391 974.634 698.936 974.634 703.72C974.634 707.594 905.685 777.54 892.032 787.793C887.481 791.21 881.109 796.45 877.923 799.64C874.965 802.602 871.552 805.108 870.414 805.108C869.276 805.108 865.18 808.298 861.312 811.943C857.216 815.817 853.347 818.778 852.437 818.778C851.299 818.778 846.976 821.968 842.652 825.614C838.329 829.259 833.778 832.449 832.867 832.449C831.957 832.449 828.999 834.499 826.268 837.005C823.538 839.512 819.897 841.562 818.304 841.562C816.711 841.562 815.346 842.474 815.346 843.841C815.346 844.98 813.298 846.119 810.795 846.119C808.291 846.119 806.243 847.03 806.243 848.17C806.243 849.309 803.058 851.359 799.417 852.954C795.548 854.549 792.59 856.6 792.59 857.739C792.59 858.878 790.542 859.789 788.039 859.789C785.536 859.789 783.488 860.701 783.488 862.068C783.488 863.207 781.44 864.346 778.937 864.346C776.434 864.346 774.386 865.257 774.386 866.624C774.386 867.764 772.338 868.903 769.835 868.903C767.331 868.903 765.283 869.814 765.283 871.181C765.283 872.32 763.235 873.46 760.732 873.46C758.229 873.46 756.181 874.371 756.181 875.738C756.181 876.877 754.133 878.016 751.63 878.016C749.127 878.016 747.079 878.928 747.079 880.295C747.079 881.434 745.031 882.573 742.528 882.573C740.025 882.573 737.977 883.484 737.977 884.851C737.977 885.991 735.929 887.13 733.653 887.13C731.15 887.13 728.419 888.041 727.737 889.408C727.054 890.547 723.868 891.687 720.683 891.687C717.724 891.687 715.221 892.598 715.221 893.965C715.221 895.104 712.718 896.243 709.76 896.243C706.574 896.243 703.388 897.155 702.706 898.522C702.023 899.661 699.292 900.8 696.789 900.8C694.514 900.8 692.466 901.711 692.466 903.078C692.466 904.218 689.508 905.357 685.867 905.357C681.998 905.357 678.357 906.268 677.675 907.635C676.992 908.774 673.806 909.914 670.848 909.914C667.89 909.914 664.704 910.825 664.021 912.192C663.339 913.331 659.698 914.47 656.057 914.47C652.416 914.47 648.775 915.382 648.092 916.749C647.41 917.888 643.314 919.027 638.99 919.027C634.667 919.027 630.571 919.938 629.888 921.306C629.205 922.445 624.427 923.584 619.648 923.584C614.869 923.584 610.091 924.495 609.408 925.862C608.725 927.001 603.719 928.141 598.258 928.141C592.797 928.141 587.79 929.052 586.653 930.191C584.149 932.47 576.64 933.153 518.386 937.482C460.814 941.583 425.998 940.444 375.026 932.697C366.151 931.33 354.546 929.736 348.857 929.052C343.168 928.368 337.707 926.774 336.342 925.634C335.204 924.495 330.88 923.584 327.012 923.584C322.916 923.584 318.82 922.445 318.137 921.306C317.455 920.166 313.359 919.027 309.035 919.027C304.711 919.027 300.615 917.888 299.933 916.749C299.25 915.382 294.927 914.47 290.603 914.47C286.279 914.47 282.866 913.331 282.866 912.192C282.866 910.825 279.68 909.914 276.04 909.914C272.171 909.914 269.213 908.774 269.213 907.635C269.213 906.268 266.027 905.357 262.386 905.357C258.518 905.357 255.56 904.218 255.56 903.078C255.56 901.711 253.512 900.8 251.008 900.8C248.505 900.8 244.409 899.661 241.906 898.522C239.403 897.155 235.307 895.104 232.804 893.965C230.301 892.598 226.205 891.687 223.702 891.687C221.199 891.687 219.151 890.547 219.151 889.408C219.151 888.041 217.103 887.13 214.6 887.13C212.096 887.13 210.048 885.991 210.048 884.851C210.048 883.484 208.456 882.573 206.635 882.573C204.815 882.573 201.401 881.662 199.126 880.523C197.078 879.383 187.065 874.371 177.053 869.586C155.208 858.65 138.824 849.992 137.231 848.397C134.955 846.119 122.44 839.056 118.344 837.689C116.296 837.006 114.475 835.638 114.475 834.499C114.475 833.36 113.11 832.449 111.517 832.449C109.924 832.449 106.283 830.398 103.553 827.892C100.822 825.386 97.8637 823.335 96.9535 823.335C96.0433 823.335 91.4922 820.146 87.1686 816.5C82.8451 812.855 78.5215 809.665 77.3837 809.665C76.4735 809.665 72.6051 806.703 68.5091 802.83C64.6406 798.957 60.5446 795.995 59.4069 795.995C58.0415 795.995 54.4006 793.033 51.2149 789.615C47.8015 786.198 41.43 780.73 37.1064 777.768C26.8664 770.477 -32.7531 710.783 -40.2624 700.303C-43.4482 695.974 -49.8197 688.455 -54.3708 683.443C-59.1495 678.658 -63.0179 673.418 -63.0179 672.051C-63.0179 670.684 -65.0659 667.95 -67.569 666.127C-70.0721 664.304 -72.1201 661.57 -72.1201 660.203C-72.1201 658.836 -75.3059 654.507 -78.9468 650.634C-82.8152 646.533 -85.7735 642.432 -85.7735 641.521C-85.7735 640.381 -87.5939 637.647 -89.8695 635.141C-94.8757 629.445 -101.702 618.281 -103.295 613.041C-103.978 610.99 -105.343 609.168 -106.481 609.168C-107.619 609.168 -108.529 607.117 -108.529 604.611C-108.529 602.105 -109.212 600.054 -110.349 600.054C-111.26 600.054 -113.08 597.776 -114.445 594.814C-115.811 592.08 -123.32 577.27 -131.057 562.005C-138.566 546.968 -144.938 532.842 -144.938 530.791C-144.938 528.741 -145.848 527.146 -146.758 527.146C-147.896 527.146 -150.172 521.906 -151.765 515.754C-153.357 509.375 -155.633 504.362 -156.771 504.362C-157.681 504.362 -158.591 501.173 -158.591 497.527C-158.591 493.654 -159.729 490.692 -160.867 490.692C-162.232 490.692 -163.142 487.502 -163.142 483.857C-163.142 479.984 -164.28 477.022 -165.418 477.022C-166.783 477.022 -167.693 474.06 -167.693 470.414C-167.693 466.541 -168.831 462.896 -169.969 462.212C-171.334 461.529 -172.244 457.883 -172.244 454.238C-172.244 450.593 -173.155 447.175 -174.292 446.491C-175.43 445.808 -176.796 441.935 -177.478 437.834C-178.388 433.733 -179.981 424.619 -181.347 417.784C-185.898 394.772 -188.401 378.14 -189.994 358.09C-190.904 347.154 -192.497 337.585 -193.407 336.674C-194.317 335.762 -195 324.826 -195 312.523L-195 290.195Z" fill="white" fill-opacity="0.06"/>
<path d="M1116.4 330.977C1118.45 335.306 1120.27 340.547 1120.27 342.825C1120.27 345.103 1121.18 347.61 1122.55 348.293C1123.68 348.977 1124.82 352.166 1124.82 355.128C1124.82 358.09 1125.73 361.28 1127.1 361.963C1128.23 362.647 1129.37 366.292 1129.37 369.938C1129.37 373.583 1130.51 377.228 1131.65 377.912C1133.01 378.595 1133.92 382.697 1133.92 387.025C1133.92 391.354 1134.83 395.228 1135.97 395.911C1137.11 396.595 1138.47 401.151 1139.16 405.708C1139.84 410.493 1141.66 420.062 1143.03 426.897C1157.36 499.35 1159.18 587.751 1147.58 659.292C1146.21 667.494 1144.62 678.886 1143.94 684.81C1143.25 690.961 1141.66 695.746 1140.52 695.746C1139.38 695.746 1138.47 699.847 1138.47 704.859C1138.47 709.872 1137.34 713.973 1136.2 713.973C1134.83 713.973 1133.92 717.39 1133.92 721.719C1133.92 726.048 1133.01 730.377 1131.65 731.061C1130.51 731.744 1129.37 735.39 1129.37 739.263C1129.37 742.908 1128.23 745.87 1127.1 745.87C1125.73 745.87 1124.82 748.832 1124.82 752.705C1124.82 756.351 1123.68 759.54 1122.55 759.54C1121.18 759.54 1120.27 762.502 1120.27 766.148C1120.27 770.021 1119.13 773.666 1117.99 774.35C1116.63 775.033 1115.72 778.223 1115.72 781.413C1115.72 784.375 1114.81 786.881 1113.9 786.881C1112.76 786.881 1110.48 791.893 1108.89 798.273C1107.3 804.424 1105.02 809.665 1103.89 809.665C1102.98 809.665 1102.07 811.715 1102.07 814.221C1102.07 816.728 1100.93 818.778 1099.79 818.778C1098.42 818.778 1097.51 820.145 1097.51 821.512C1097.51 824.474 1074.99 871.181 1072.48 873.459C1070.44 875.51 1063.15 888.269 1061.79 892.142C1061.11 894.42 1059.74 896.243 1058.6 896.243C1057.46 896.243 1056.55 898.294 1056.55 900.8C1056.55 903.306 1055.64 905.357 1054.73 905.357C1053.6 905.357 1051.32 908.091 1049.5 911.508C1047.68 915.154 1044.49 919.483 1042.45 921.533C1040.17 923.584 1038.35 926.318 1038.35 927.457C1038.35 928.596 1036.53 931.558 1034.25 934.064C1031.98 936.343 1027.88 942.038 1024.7 946.367C1021.74 950.696 1018.55 954.797 1017.87 955.481C1017.19 956.164 1014.68 959.126 1012.64 962.088C999.21 981.91 916.38 1064.84 910.236 1064.84C909.098 1064.84 906.368 1066.67 904.32 1068.94C902.272 1071.22 897.038 1075.55 892.714 1078.51C888.391 1081.48 883.385 1085.35 881.792 1086.94C880.199 1088.54 875.875 1091.5 872.234 1093.78C868.366 1095.83 865.408 1098.56 865.408 1099.47C865.408 1100.39 864.042 1101.3 862.45 1101.3C860.857 1101.3 857.443 1103.12 854.94 1105.17C852.437 1107.45 848.341 1110.41 845.838 1111.78C843.562 1113.14 839.011 1115.65 835.826 1117.47C832.64 1119.3 829.682 1121.12 828.999 1121.8C826.723 1124.08 814.208 1131.14 810.112 1132.51C808.064 1133.19 806.243 1134.56 806.243 1135.7C806.243 1136.84 804.195 1137.75 801.692 1137.75C799.189 1137.75 797.141 1138.66 797.141 1140.03C797.141 1141.17 795.093 1142.31 792.59 1142.31C790.087 1142.31 788.039 1143.22 788.039 1144.59C788.039 1145.73 785.991 1146.86 783.488 1146.86C780.985 1146.86 778.937 1147.78 778.937 1149.14C778.937 1150.28 776.889 1151.42 774.386 1151.42C771.883 1151.42 769.835 1152.33 769.835 1153.7C769.835 1154.84 767.787 1155.98 765.283 1155.98C762.78 1155.98 760.732 1156.89 760.732 1158.26C760.732 1159.4 758.229 1160.53 755.271 1160.53C752.085 1160.53 748.899 1161.45 748.217 1162.81C747.534 1163.95 744.803 1165.09 742.3 1165.09C740.025 1165.09 737.977 1166 737.977 1167.37C737.977 1168.51 735.929 1169.65 733.653 1169.65C731.15 1169.65 728.419 1170.56 727.737 1171.93C727.054 1173.07 723.868 1174.21 720.683 1174.21C717.724 1174.21 715.221 1175.12 715.221 1176.48C715.221 1177.62 712.035 1178.76 708.395 1178.76C704.526 1178.76 701.568 1179.67 701.568 1181.04C701.568 1182.18 699.065 1183.32 696.107 1183.32C692.921 1183.32 689.735 1184.23 689.052 1185.6C688.37 1186.74 684.729 1187.88 680.86 1187.88C677.22 1187.88 674.261 1188.79 674.261 1189.93C674.261 1191.07 670.848 1192.43 666.752 1193.12C654.464 1195.17 646.044 1197.22 641.266 1199.27C638.763 1200.41 633.074 1201.77 628.75 1202.68C624.427 1203.37 615.552 1204.96 609.408 1206.33C555.933 1217.27 477.653 1221.14 425.088 1215.67C411.207 1214.08 393.913 1212.25 386.404 1211.57C378.894 1210.89 371.84 1209.29 370.475 1208.15C369.337 1207.01 363.421 1206.1 357.504 1206.1C351.588 1206.1 346.582 1204.96 346.582 1203.82C346.582 1202.46 342.486 1201.55 337.479 1201.55C332.473 1201.55 328.377 1200.41 328.377 1199.27C328.377 1197.9 324.964 1196.99 320.64 1196.99C316.317 1196.99 311.993 1195.85 311.311 1194.71C310.628 1193.34 306.987 1192.43 303.346 1192.43C299.705 1192.43 296.064 1191.29 295.382 1190.15C294.699 1188.79 291.513 1187.88 288.555 1187.88C285.597 1187.88 282.411 1186.74 281.728 1185.6C281.046 1184.23 277.86 1183.32 274.674 1183.32C271.716 1183.32 269.213 1182.18 269.213 1181.04C269.213 1179.67 266.71 1178.76 263.751 1178.76C260.566 1178.76 257.38 1177.62 256.697 1176.48C256.015 1175.12 253.284 1174.21 250.781 1174.21C248.505 1174.21 246.457 1173.07 246.457 1171.93C246.457 1170.56 244.864 1169.65 243.044 1169.65C240.996 1169.65 235.079 1167.6 230.073 1165.09C224.839 1162.59 219.151 1160.53 217.558 1160.53C215.965 1160.53 214.599 1159.4 214.599 1158.26C214.599 1156.89 212.551 1155.98 210.048 1155.98C207.545 1155.98 205.497 1154.84 205.497 1153.7C205.497 1152.33 203.449 1151.42 200.946 1151.42C198.443 1151.42 196.395 1150.28 196.395 1149.14C196.395 1147.78 194.347 1146.86 191.844 1146.86C189.341 1146.86 187.293 1146.18 187.293 1145.04C187.293 1144.13 184.107 1142.08 180.466 1140.49C172.502 1136.84 172.729 1137.52 176.37 1129.78C177.736 1126.59 179.784 1124.08 180.921 1124.08C181.832 1124.08 182.742 1122.03 182.742 1119.52C182.742 1117.02 183.652 1114.97 184.79 1114.97C185.927 1114.97 187.293 1113.14 187.976 1110.87C189.341 1106.99 196.395 1094.46 198.671 1092.18C199.808 1091.04 208.455 1075.1 213.234 1065.53C214.599 1062.56 216.42 1060.29 217.33 1060.29C218.468 1060.29 219.151 1058.69 219.151 1056.87C219.151 1054.82 221.199 1051.17 223.702 1048.44C226.205 1045.7 228.253 1042.06 228.253 1040.46C228.253 1038.87 229.163 1037.5 230.528 1037.5C231.666 1037.5 232.804 1035.45 232.804 1032.95C232.804 1030.44 233.714 1028.39 234.852 1028.39C235.99 1028.39 237.355 1026.57 238.038 1024.29C239.403 1020.41 246.457 1007.88 248.733 1005.61C251.008 1003.33 258.063 990.796 259.428 986.695C260.111 984.644 261.476 982.821 262.614 982.821C263.751 982.821 264.662 980.771 264.662 978.265C264.662 975.759 265.572 973.708 266.937 973.708C268.075 973.708 269.213 971.657 269.213 969.151C269.213 965.506 270.806 964.594 276.722 964.594C280.818 964.594 285.142 965.506 286.279 966.417C287.645 967.556 296.292 970.746 305.622 973.48C314.951 976.442 324.509 979.632 326.557 980.771C328.832 981.91 332.701 982.821 335.204 982.821C337.707 982.821 341.575 983.733 343.851 984.872C350.678 988.29 363.876 991.935 369.565 991.935C372.75 991.935 376.164 992.846 377.302 993.986C378.667 995.125 383.673 996.492 388.679 997.175C393.686 998.087 403.47 999.681 410.297 1001.05C479.474 1014.95 572.316 1017 638.99 1005.83C646.5 1004.47 656.74 1002.87 661.746 1002.19C666.752 1001.28 672.896 999.909 675.399 998.77C677.902 997.631 683.591 996.264 687.915 995.353C692.238 994.669 699.292 993.53 703.161 992.618C707.257 991.935 710.67 990.568 710.67 989.429C710.67 988.29 712.946 987.378 715.676 987.378C721.365 987.378 736.839 982.366 739.342 979.86C740.252 978.948 743.438 978.265 746.396 978.265C749.127 978.265 751.63 977.126 751.63 975.986C751.63 974.619 753.678 973.708 755.954 973.708C758.457 973.708 761.187 972.569 761.87 971.43C762.553 970.063 765.739 969.151 768.924 969.151C771.883 969.151 774.386 968.012 774.386 966.873C774.386 965.506 776.434 964.594 778.937 964.594C781.44 964.594 783.488 963.455 783.488 962.316C783.488 960.949 785.536 960.038 788.039 960.038C790.542 960.038 792.59 958.898 792.59 957.759C792.59 956.392 794.638 955.481 797.141 955.481C799.644 955.481 801.692 954.342 801.692 953.203C801.692 951.836 803.74 950.924 806.243 950.924C808.747 950.924 810.794 949.785 810.794 948.646C810.794 947.279 812.843 946.367 815.346 946.367C817.849 946.367 819.897 945.228 819.897 944.089C819.897 942.722 821.49 941.811 823.31 941.811C825.358 941.811 828.999 939.76 831.73 937.254C834.46 934.748 838.101 932.697 839.694 932.697C841.287 932.697 842.652 931.558 842.652 930.419C842.652 929.052 844.018 928.14 845.61 928.14C847.203 928.14 850.844 926.09 853.575 923.584C856.306 921.077 859.264 919.027 860.174 919.027C861.084 919.027 865.635 915.837 869.959 912.192C874.282 908.546 878.834 905.357 879.744 905.357C880.882 905.357 884.522 902.622 887.708 898.977C891.122 895.56 897.721 889.864 902.499 886.218C914.332 877.333 963.029 828.803 970.083 818.778C973.041 814.449 977.365 809.209 979.641 807.158C981.916 805.108 983.737 802.602 983.737 801.235C983.737 800.095 987.833 794.627 992.839 789.159C997.845 783.691 1001.94 778.223 1001.94 777.084C1001.94 776.173 1003.99 773.211 1006.49 770.477C1009 767.743 1011.04 764.097 1011.04 762.502C1011.04 760.907 1011.95 759.54 1012.86 759.54C1013.77 759.54 1017.19 754.528 1020.37 748.148C1023.33 741.997 1026.52 736.757 1027.43 736.757C1028.56 736.757 1029.25 734.706 1029.25 732.2C1029.25 729.694 1030.16 727.643 1031.07 727.643C1032.21 727.643 1039.49 714.656 1047.22 698.48C1054.96 682.531 1062.47 667.722 1063.61 665.671C1064.75 663.393 1065.66 659.975 1065.66 658.152C1065.66 656.33 1066.57 654.735 1067.93 654.735C1069.07 654.735 1070.21 652.684 1070.21 650.178C1070.21 647.672 1071.35 643.343 1072.94 640.381C1078.4 629.445 1079.31 627.394 1079.31 623.065C1079.31 620.559 1080.45 617.825 1081.59 617.142C1082.72 616.458 1083.86 613.724 1083.86 611.218C1083.86 608.939 1084.77 605.066 1085.91 602.788C1087.05 600.737 1089.09 594.358 1090.69 588.662C1092.28 582.966 1094.33 576.587 1095.47 574.536C1096.6 572.258 1097.51 566.79 1097.51 562.461C1097.51 558.132 1098.42 554.486 1099.56 554.486C1100.7 554.486 1102.07 550.157 1102.98 544.689C1103.66 539.449 1105.25 528.968 1106.62 521.45C1112.08 491.375 1113.9 468.819 1114.81 410.948C1115.72 368.571 1115.26 348.065 1113.44 342.369C1111.85 338.04 1111.17 331.889 1111.62 328.699C1112.31 323.459 1112.53 323.459 1116.4 330.977Z" fill="white" fill-opacity="0.06"/>
<path d="M864.725 17.7006C869.504 18.6119 877.241 19.751 882.019 20.4344C886.57 21.3458 891.122 22.7129 891.804 23.852C892.487 24.9912 897.038 25.9026 901.817 25.9026C906.595 25.9026 911.374 26.814 912.057 28.181C912.739 29.3202 916.38 30.4593 920.021 30.4593C923.662 30.4593 927.303 31.3707 927.986 32.7378C928.668 33.8769 932.309 35.0161 935.95 35.0161C939.591 35.0161 943.232 35.9275 943.914 37.2946C944.597 38.4337 947.783 39.5729 950.741 39.5729C953.699 39.5729 956.885 40.4842 957.568 41.8513C958.25 42.9905 961.436 44.1296 964.394 44.1296C967.353 44.1296 970.538 45.041 971.221 46.4081C971.904 47.5472 975.089 48.6864 978.275 48.6864C981.233 48.6864 983.737 49.5978 983.737 50.9648C983.737 52.104 985.785 53.2432 988.06 53.2432C990.563 53.2432 993.294 54.1545 993.977 55.5216C994.659 56.6608 997.845 57.7999 1001.03 57.7999C1003.99 57.7999 1006.49 58.7113 1006.49 60.0784C1006.49 61.2175 1007.86 62.3567 1009.22 62.3567C1013.09 62.3567 1068.84 90.1529 1069.75 92.4313C1070.21 93.3426 1072.48 94.254 1074.99 94.254C1077.26 94.254 1079.31 95.1654 1079.31 96.5323C1079.31 97.6715 1080.68 98.8108 1082.27 98.8108C1083.86 98.8108 1087.5 100.861 1090.23 103.368C1092.96 105.874 1096.15 107.924 1097.51 107.924C1098.88 107.924 1102.07 109.975 1104.8 112.481C1107.53 114.987 1111.17 117.038 1112.76 117.038C1114.35 117.038 1115.72 117.949 1115.72 118.86C1115.72 119.772 1118.45 122.278 1121.86 124.329C1125.5 126.379 1131.19 130.708 1135.06 133.898C1138.7 137.088 1142.8 139.822 1143.94 139.822C1145.07 139.822 1147.58 141.644 1149.62 143.923C1151.67 146.201 1156.68 150.53 1161 153.264C1168.28 158.504 1214.02 201.338 1223.58 212.274C1226.31 215.236 1234.73 224.349 1242.47 232.779C1250.43 240.982 1256.8 248.728 1256.8 249.639C1256.8 250.779 1259.76 254.652 1263.63 258.753C1267.27 262.626 1270.46 266.727 1270.46 268.094C1270.46 269.233 1272.28 271.968 1274.55 274.018C1276.6 276.069 1279.79 280.398 1281.61 283.815C1283.43 287.46 1285.7 290.195 1286.84 290.195C1287.75 290.195 1288.66 291.562 1288.66 293.156C1288.66 294.751 1290.48 298.169 1292.53 300.675C1294.8 302.953 1297.99 307.738 1299.81 311.156C1301.63 314.801 1303.91 317.535 1305.04 317.535C1305.95 317.535 1306.87 319.586 1306.87 322.092C1306.87 324.598 1307.78 326.649 1308.91 326.649C1310.05 326.649 1311.42 328.471 1312.1 330.522C1313.92 335.99 1321.2 348.065 1323.25 348.977C1324.39 349.432 1325.07 351.711 1325.07 354.217C1325.07 356.495 1325.98 358.546 1327.35 358.546C1328.48 358.546 1329.62 360.596 1329.62 363.103C1329.62 365.609 1330.53 367.659 1331.9 367.659C1333.03 367.659 1334.17 369.71 1334.17 372.216C1334.17 374.722 1335.08 376.773 1336.45 376.773C1337.59 376.773 1338.72 378.14 1338.72 379.735C1338.72 381.33 1340.77 387.026 1343.27 392.266C1345.78 397.278 1347.83 403.202 1347.83 405.253C1347.83 407.075 1348.74 408.67 1350.1 408.67C1351.24 408.67 1352.38 410.265 1352.38 412.088C1352.38 413.911 1353.29 417.328 1354.42 419.606C1355.56 421.657 1357.61 426.442 1359.2 430.315C1360.8 433.96 1362.84 438.973 1363.98 441.023C1365.12 443.302 1366.03 446.719 1366.03 448.542C1366.03 450.365 1366.94 453.782 1368.08 456.06C1369.22 458.111 1371.26 464.49 1372.86 470.186C1374.45 475.882 1376.5 482.262 1377.63 484.312C1378.77 486.591 1379.68 491.375 1379.68 495.021C1379.68 498.894 1380.59 502.312 1381.73 502.995C1382.87 503.679 1384.23 508.235 1385.14 512.792C1385.83 517.577 1386.96 525.551 1387.65 530.563C1388.56 535.576 1389.92 541.728 1391.06 544.234C1396.75 557.22 1400.85 611.674 1400.85 672.962C1400.62 730.377 1399.03 755.212 1393.34 785.742C1391.97 793.261 1390.15 804.425 1389.7 810.804C1389.01 816.956 1387.42 823.107 1386.28 824.474C1385.14 825.613 1384.23 829.942 1384.23 834.043C1384.23 838.145 1383.1 841.562 1381.96 841.562C1380.59 841.562 1379.68 845.663 1379.68 850.676C1379.68 855.688 1378.55 859.789 1377.41 859.789C1376.04 859.789 1375.13 862.751 1375.13 866.396C1375.13 870.27 1373.99 873.915 1372.86 874.599C1371.49 875.282 1370.58 878.472 1370.58 881.434C1370.58 884.396 1369.44 887.585 1368.31 888.269C1366.94 888.952 1366.03 892.142 1366.03 895.104C1366.03 898.066 1364.89 901.256 1363.75 901.939C1362.39 902.623 1361.48 905.812 1361.48 909.002C1361.48 911.964 1360.34 914.47 1359.2 914.47C1357.84 914.47 1356.93 916.976 1356.93 919.938C1356.93 923.128 1355.79 926.318 1354.65 927.001C1353.29 927.685 1352.38 930.191 1352.38 932.242C1352.38 934.292 1349.19 942.266 1345.55 949.785C1341.68 957.304 1338.72 964.595 1338.72 966.189C1338.72 967.784 1337.59 969.151 1336.45 969.151C1335.08 969.151 1334.17 971.202 1334.17 973.48C1334.17 975.986 1333.49 978.265 1332.35 978.72C1330.99 979.404 1319.15 1000.59 1312.78 1014.04C1311.42 1017 1309.6 1019.28 1308.46 1019.28C1307.55 1019.28 1306.87 1020.64 1306.87 1022.24C1306.87 1023.83 1305.04 1027.25 1302.77 1029.76C1299.13 1034.09 1297.54 1036.82 1290.25 1049.35C1288.89 1052.31 1287.07 1055.05 1286.39 1055.73C1285.7 1056.41 1282.52 1060.51 1279.56 1064.84C1276.6 1069.17 1273.41 1073.27 1272.73 1073.96C1272.05 1074.64 1268.86 1078.74 1265.91 1083.07C1262.95 1087.4 1258.85 1092.64 1256.8 1094.46C1254.98 1096.28 1250.43 1101.75 1246.79 1106.54C1238.14 1118.16 1189.45 1167.14 1179.43 1174.21C1175.11 1177.4 1167.6 1183.77 1162.6 1188.33C1157.82 1193.12 1152.58 1196.99 1151.22 1196.99C1149.85 1196.99 1147.12 1199.04 1145.3 1201.55C1143.48 1204.05 1140.98 1206.1 1139.61 1206.1C1138.47 1206.1 1133.7 1209.29 1129.37 1212.94C1125.05 1216.58 1120.04 1219.77 1118.45 1219.77C1117.08 1219.77 1115.72 1220.68 1115.72 1222.05C1115.72 1223.19 1114.35 1224.33 1112.76 1224.33C1111.17 1224.33 1107.53 1226.38 1104.8 1228.89C1102.07 1231.39 1098.42 1233.44 1096.38 1233.44C1094.56 1233.44 1092.96 1234.35 1092.96 1235.72C1092.96 1236.86 1090.92 1238 1088.41 1238C1085.45 1238 1083.86 1236.41 1083.86 1233.44C1083.86 1230.94 1082.95 1228.89 1081.81 1228.89C1080.68 1228.89 1079.31 1227.06 1078.63 1224.79C1076.81 1219.55 1069.53 1207.47 1067.25 1206.56C1066.34 1206.1 1065.66 1203.82 1065.66 1201.32C1065.66 1199.04 1064.75 1196.99 1063.61 1196.99C1062.47 1196.99 1061.11 1195.17 1060.42 1192.89C1058.6 1187.65 1051.32 1175.57 1049.05 1174.66C1048.13 1174.21 1047.45 1171.93 1047.45 1169.42C1047.45 1167.14 1046.54 1165.09 1045.63 1165.09C1044.72 1165.09 1041.31 1160.08 1038.12 1153.7C1035.16 1147.55 1031.98 1142.31 1030.84 1142.31C1029.93 1142.31 1029.25 1140.26 1029.25 1137.75C1029.25 1135.25 1028.34 1133.19 1027.2 1133.19C1026.06 1133.19 1024.7 1131.37 1024.01 1129.09C1022.19 1123.85 1014.91 1111.78 1012.64 1110.87C1011.73 1110.41 1011.04 1108.59 1011.04 1106.77C1011.04 1104.94 1009 1101.3 1006.49 1098.56C1003.99 1095.83 1001.94 1092.18 1001.94 1090.59C1001.94 1088.99 1000.8 1087.63 999.666 1087.63C998.3 1087.63 997.39 1085.58 997.39 1083.07C997.39 1080.56 996.707 1078.51 995.57 1078.51C994.659 1078.51 992.839 1075.78 991.246 1072.59C988.743 1067.12 989.198 1065.98 999.666 1055.96C1005.58 1050.26 1016.05 1040.92 1022.65 1035.22C1040.17 1020.19 1068.16 991.935 1075.67 982.138C1079.08 977.353 1085.23 970.063 1089.32 966.189C1093.19 962.088 1098.88 955.253 1102.07 950.924C1105.02 946.595 1109.8 940.672 1112.76 937.938C1115.49 935.203 1119.59 929.735 1121.64 925.862C1123.91 922.217 1126.64 919.027 1127.55 919.027C1128.46 919.027 1129.37 917.66 1129.37 916.065C1129.37 914.698 1132.56 909.686 1136.2 905.357C1139.84 901.028 1143.03 896.015 1143.03 894.421C1143.03 893.053 1143.94 891.686 1145.07 891.686C1146.21 891.686 1148.03 889.636 1148.71 887.13C1149.4 884.623 1151.44 881.206 1152.81 879.611C1156.68 875.51 1163.51 863.89 1165.1 859.106C1165.78 857.055 1167.15 855.232 1168.28 855.232C1169.42 855.232 1170.33 853.182 1170.33 850.903C1170.33 848.397 1171.01 846.119 1171.92 845.663C1174.43 844.752 1183.99 825.841 1183.99 821.968C1183.99 820.145 1184.9 818.778 1186.26 818.778C1187.4 818.778 1188.54 816.728 1188.54 814.222C1188.54 811.715 1189.45 809.665 1190.81 809.665C1191.95 809.665 1193.09 808.298 1193.09 806.703C1193.09 804.88 1194.45 800.551 1196.27 796.906C1202.19 784.603 1206.29 774.35 1209.24 765.236C1210.84 760.224 1213.11 755.212 1214.02 754.072C1214.93 752.705 1215.84 749.516 1215.84 746.782C1215.84 743.82 1216.75 740.858 1218.12 740.174C1219.26 739.491 1220.39 736.757 1220.39 734.25C1220.39 731.972 1221.3 728.099 1222.44 725.82C1226.08 718.53 1229.5 705.771 1229.5 698.936C1229.5 695.062 1230.41 691.189 1231.54 689.822C1232.68 688.683 1234.28 683.215 1234.96 677.519C1235.64 671.823 1237.46 659.975 1238.83 651.318C1242.47 631.496 1242.47 523.5 1239.05 500.945C1236.1 482.034 1232.91 466.085 1229.5 451.959C1228.13 446.263 1226.31 438.289 1225.63 434.188C1224.95 430.087 1223.58 426.214 1222.44 425.53C1221.3 424.847 1220.39 421.885 1220.39 418.923C1220.39 415.961 1219.26 412.771 1218.12 412.088C1216.75 411.404 1215.84 407.759 1215.84 404.113C1215.84 400.468 1214.71 396.823 1213.57 396.139C1212.2 395.456 1211.29 392.722 1211.29 390.215C1211.29 387.937 1210.15 385.886 1209.02 385.886C1207.65 385.886 1206.74 382.697 1206.74 379.051C1206.74 375.178 1205.6 372.216 1204.47 372.216C1203.1 372.216 1202.19 370.166 1202.19 367.659C1202.19 365.153 1200.14 359.685 1197.64 355.128C1195.14 350.572 1193.09 345.559 1193.09 343.736C1193.09 341.914 1191.95 340.319 1190.81 340.319C1189.45 340.319 1188.54 338.268 1188.54 335.762C1188.54 333.256 1187.4 331.205 1186.26 331.205C1184.9 331.205 1183.99 329.155 1183.99 326.649C1183.99 324.142 1182.85 322.092 1181.71 322.092C1180.34 322.092 1179.43 320.041 1179.43 317.535C1179.43 315.029 1178.3 312.978 1177.16 312.978C1175.79 312.978 1174.88 310.928 1174.88 308.422C1174.88 305.915 1173.97 303.865 1173.06 303.865C1171.92 303.865 1168.74 298.625 1165.78 292.473C1162.82 286.093 1159.64 281.081 1158.5 281.081C1157.59 281.081 1156.68 279.031 1156.68 276.524C1156.68 274.018 1155.77 271.968 1154.86 271.968C1153.72 271.968 1151.44 269.234 1149.62 265.588C1147.8 262.171 1144.62 257.386 1142.34 255.108C1140.29 252.601 1138.47 249.412 1138.47 248.045C1138.47 246.677 1136.43 244.171 1133.92 242.349C1131.42 240.526 1129.37 238.02 1129.37 236.653C1129.37 235.286 1127.55 232.096 1125.28 229.59C1123 227.311 1118.68 221.615 1115.72 217.286C1112.76 212.958 1106.39 205.439 1101.61 200.882C1096.83 196.325 1092.96 191.541 1092.96 190.402C1092.96 187.44 1049.04 143.239 1033.8 130.708C1026.97 125.012 1018.55 117.721 1015.14 114.304C1011.95 110.658 1008.31 107.924 1006.95 107.924C1005.81 107.924 1001.71 104.734 997.845 101.089C993.749 97.2159 989.881 94.254 988.97 94.254C987.833 94.254 983.509 91.0642 979.185 87.4188C974.862 83.7734 970.311 80.5837 969.401 80.5837C968.49 80.5837 965.532 78.5332 962.801 76.027C960.071 73.5207 956.43 71.4702 954.837 71.4702C953.244 71.4702 951.879 70.3311 951.879 69.1919C951.879 67.8248 950.514 66.9134 948.921 66.9134C947.328 66.9134 943.687 64.8629 940.956 62.3567C938.226 59.8505 934.585 57.7999 932.764 57.7999C930.944 57.7999 929.123 57.1165 928.668 55.9773C927.986 54.3824 917.063 48.2307 893.852 36.8389C886.343 33.1935 878.378 29.3203 876.33 27.9532C874.055 26.8141 870.642 25.9026 868.821 25.9026C867.001 25.9026 865.408 24.7634 865.408 23.6243C865.408 22.2572 863.36 21.3459 860.857 21.3459C858.354 21.3459 856.306 20.2068 856.306 18.8397C856.306 17.2449 859.264 16.7892 864.725 17.7006Z" fill="white" fill-opacity="0.06"/>
<path d="M1037.21 -147.71C1069.98 -143.609 1097.51 -138.824 1117.99 -133.584C1123.68 -132.217 1131.65 -130.394 1135.52 -129.711C1139.61 -129.027 1143.03 -127.66 1143.03 -126.521C1143.03 -125.382 1145.3 -124.47 1148.03 -124.47C1153.27 -124.47 1166.46 -120.825 1173.06 -117.407C1175.34 -116.268 1179.21 -115.357 1181.48 -115.357C1183.99 -115.357 1186.49 -114.446 1187.17 -113.534C1187.85 -112.623 1193.54 -110.344 1199.69 -108.522C1206.06 -106.927 1211.29 -104.648 1211.29 -103.509C1211.29 -102.598 1212.89 -101.687 1214.71 -101.687C1216.53 -101.687 1220.17 -100.775 1222.67 -99.4082C1225.17 -98.269 1229.27 -96.2185 1231.77 -94.8515C1234.28 -93.7123 1237.92 -92.5731 1239.74 -92.5731C1241.56 -92.5731 1243.15 -91.6617 1243.15 -90.2947C1243.15 -89.1555 1245.2 -88.0163 1247.7 -88.0163C1250.2 -88.0163 1252.25 -87.105 1252.25 -85.7379C1252.25 -84.5988 1254.3 -83.4596 1256.8 -83.4596C1259.31 -83.4596 1261.35 -82.5483 1261.35 -81.1812C1261.35 -80.042 1262.72 -78.9028 1264.31 -78.9028C1268.41 -78.9028 1279.56 -73.4347 1279.56 -71.612C1279.56 -70.4728 1281.61 -69.7893 1284.11 -69.7893C1286.61 -69.7893 1288.66 -69.1058 1288.66 -67.9666C1288.66 -67.0553 1292.53 -64.549 1297.54 -62.4984C1302.31 -60.4479 1307.78 -57.2582 1309.6 -55.6633C1311.19 -54.0685 1315.06 -51.3344 1317.79 -49.9674C1320.52 -48.3725 1325.07 -45.6385 1327.8 -44.2715C1330.53 -42.6766 1334.85 -39.4869 1337.36 -37.4363C1339.86 -35.1579 1343.05 -33.3352 1344.41 -33.3352C1345.78 -33.3352 1348.28 -31.2847 1350.1 -28.7785C1351.92 -26.2723 1354.42 -24.2217 1355.79 -24.2217C1357.16 -24.2217 1360.34 -22.3991 1362.84 -20.1207C1365.12 -17.8423 1370.81 -13.7412 1375.13 -10.5515C1379.46 -7.58958 1384.69 -3.4885 1386.51 -1.43797C1388.33 0.612569 1393.56 4.71364 1397.89 7.67556C1407.22 14.2829 1484.36 90.8364 1484.36 93.5704C1484.36 94.4818 1488.45 99.722 1493.46 105.19C1498.47 110.43 1502.56 115.671 1502.56 116.81C1502.56 117.721 1505.29 121.594 1508.93 125.24C1512.35 128.885 1516.44 134.809 1518.26 138.227C1520.08 141.644 1522.36 144.378 1523.5 144.378C1524.41 144.378 1525.32 145.745 1525.32 147.34C1525.32 148.935 1527.14 152.353 1529.19 154.859C1533.06 159.188 1534.65 161.922 1541.93 174.453C1543.3 177.415 1545.12 180.149 1545.8 180.832C1548.07 183.111 1555.13 195.642 1556.49 199.515C1557.18 201.793 1558.54 203.616 1559.68 203.616C1560.82 203.616 1561.73 205.667 1561.73 208.173C1561.73 210.679 1562.64 212.73 1564 212.73C1565.14 212.73 1566.28 214.78 1566.28 217.286C1566.28 219.793 1567.19 221.843 1568.55 221.843C1569.69 221.843 1570.83 223.894 1570.83 226.4C1570.83 228.906 1571.74 230.957 1573.11 230.957C1574.24 230.957 1575.38 232.324 1575.38 234.146C1575.38 236.88 1578.57 244.171 1586.99 261.031C1588.12 263.31 1589.03 266.727 1589.03 268.55C1589.03 270.373 1589.94 271.967 1591.31 271.967C1592.45 271.967 1593.59 274.929 1593.59 278.803C1593.59 282.448 1594.5 285.638 1595.41 285.638C1596.32 285.638 1598.36 290.422 1599.96 296.346C1601.78 302.498 1604.05 309.105 1605.19 311.156C1606.33 313.434 1607.24 317.763 1607.24 320.725C1607.24 323.914 1608.15 327.104 1609.51 327.788C1610.65 328.471 1611.79 332.572 1611.79 336.901C1611.79 341.23 1612.7 345.103 1613.84 345.787C1614.98 346.47 1616.57 350.344 1617.25 354.445C1618.16 358.546 1619.75 366.976 1621.12 373.355C1628.17 408.442 1630.22 425.302 1633.63 474.06L1635 495.248L1434.75 495.248L1433.16 490.008C1431.34 485.224 1430.2 480.211 1425.42 455.377C1424.28 448.997 1422.01 439.428 1420.64 433.732C1419.28 428.036 1417.46 420.062 1416.77 415.961C1416.09 412.088 1414.73 408.67 1413.59 408.67C1412.45 408.67 1411.54 406.392 1411.54 403.886C1411.54 399.557 1405.17 377.228 1400.16 364.242C1399.03 361.736 1397.2 356.04 1395.61 351.711C1394.02 347.382 1391.97 341.458 1390.83 338.496C1389.7 335.762 1387.88 331.205 1386.74 328.243C1383.55 319.813 1379.23 309.788 1377.18 305.687C1376.04 303.409 1375.13 299.991 1375.13 298.169C1375.13 296.346 1373.99 294.751 1372.86 294.751C1371.49 294.751 1370.58 292.701 1370.58 290.194C1370.58 287.688 1369.44 285.638 1368.31 285.638C1366.94 285.638 1366.03 283.587 1366.03 281.081C1366.03 278.575 1364.89 276.524 1363.75 276.524C1362.39 276.524 1361.48 274.474 1361.48 272.195C1361.48 269.689 1360.8 267.411 1359.66 266.955C1358.29 266.271 1351.47 254.424 1344.64 240.754C1343.27 237.792 1341.45 235.513 1340.32 235.513C1339.41 235.513 1338.72 233.463 1338.72 230.957C1338.72 228.45 1337.81 226.4 1336.9 226.4C1335.76 226.4 1333.49 223.666 1331.67 220.02C1329.85 216.603 1326.66 211.818 1324.39 209.54C1322.34 207.034 1320.52 203.616 1320.52 202.021C1320.52 200.426 1319.38 199.059 1318.24 199.059C1316.88 199.059 1315.97 197.692 1315.97 196.097C1315.97 194.503 1314.15 191.085 1311.87 188.579C1309.6 186.3 1305.27 180.604 1302.31 176.276C1299.36 171.947 1295.49 166.934 1293.89 165.339C1292.3 163.517 1287.98 158.504 1284.56 153.947C1276.37 142.783 1209.24 76.0269 1206.29 76.0269C1205.15 76.0269 1201.05 72.8372 1197.64 69.1918C1194.23 65.3185 1190.36 62.3566 1189.22 62.3566C1188.31 62.3566 1183.76 59.1669 1179.43 55.5215C1175.11 51.8761 1170.1 48.6864 1168.51 48.6864C1167.15 48.6864 1165.78 47.7751 1165.78 46.8637C1165.78 45.7245 1163.05 43.4462 1159.41 41.6234C1156 39.8008 1152.81 37.978 1152.13 37.2945C1149.85 35.0161 1137.34 27.9531 1133.24 26.5861C1131.19 25.9026 1129.37 24.5356 1129.37 23.3964C1129.37 22.2572 1127.32 21.3458 1124.82 21.3458C1122.32 21.3458 1120.27 20.2066 1120.27 19.0674C1120.27 17.7004 1118.22 16.7891 1115.72 16.7891C1113.22 16.7891 1111.17 15.6499 1111.17 14.5107C1111.17 13.1437 1109.12 12.2323 1106.62 12.2323C1104.11 12.2323 1102.07 11.0931 1102.07 9.95395C1102.07 8.58692 1100.02 7.67557 1097.51 7.67557C1095.01 7.67557 1092.96 6.53638 1092.96 5.39719C1092.96 4.03015 1091.37 3.11881 1089.55 3.11881C1087.73 3.11881 1084.32 2.2074 1082.04 1.06821C1079.99 -0.0709803 1074.99 -2.12146 1071.35 -3.71634C1067.48 -5.31118 1062.7 -7.36169 1060.65 -8.50088C1058.37 -9.64004 1054.51 -10.5514 1052 -10.5514C1049.5 -10.5514 1047.45 -11.6906 1047.45 -12.8298C1047.45 -14.1969 1044.27 -15.1082 1040.63 -15.1082C1036.76 -15.1082 1033.8 -16.2474 1033.8 -17.3866C1033.8 -18.7536 1030.84 -19.665 1027.2 -19.665C1023.33 -19.665 1019.69 -20.8042 1019.01 -21.9433C1018.33 -23.3104 1014 -24.2217 1009.68 -24.2217C1005.35 -24.2217 1001.94 -25.1331 1001.94 -26.2723C1001.94 -27.4115 997.618 -28.7785 992.156 -29.462C986.923 -30.1455 976.91 -31.9682 970.084 -33.3352C963.257 -34.7023 949.831 -36.9807 940.501 -38.3477C917.973 -41.7653 794.638 -41.5374 770.973 -38.3477C760.96 -36.7528 747.534 -35.158 741.39 -34.2467C735.019 -33.5631 729.102 -31.9683 727.737 -30.8291C726.599 -29.6899 721.821 -28.7785 717.269 -28.7785C712.491 -28.7785 707.94 -27.8671 707.257 -26.5001C706.574 -25.3609 702.478 -24.2217 698.155 -24.2217C693.831 -24.2217 689.735 -23.3104 689.053 -21.9433C688.37 -20.8041 684.729 -19.665 681.088 -19.665C677.447 -19.665 673.806 -18.7536 673.124 -17.3866C672.441 -16.2474 668.8 -15.1082 665.387 -15.1082C661.974 -15.1082 658.333 -14.1969 657.195 -13.2855C655.83 -12.1463 647.182 -8.95658 637.853 -5.9947C628.523 -2.80497 620.331 0.156884 619.648 1.06823C618.966 1.75173 613.732 3.80227 607.588 5.62499C601.671 7.21984 596.893 9.49832 596.893 10.4097C596.893 11.321 594.845 12.2324 592.342 12.2324C589.839 12.2324 587.791 13.1437 587.791 14.5107C587.791 15.6499 586.425 16.7891 584.605 16.7891C580.736 16.7891 561.849 26.3583 560.939 28.6367C560.484 29.7759 558.208 30.4594 555.705 30.4594C553.43 30.4594 551.382 31.3707 551.382 32.7378C551.382 33.8769 549.334 35.0161 546.831 35.0161C544.327 35.0161 542.279 35.9275 542.279 37.0667C542.279 38.2059 540.459 39.5728 538.183 40.2564C532.95 42.0791 520.889 49.3699 519.979 51.4205C519.524 52.5597 517.248 53.2432 514.745 53.2432C512.47 53.2432 510.422 54.1545 510.422 55.0658C510.422 56.205 507.691 58.4834 504.05 60.3061C500.637 62.1288 496.313 65.3186 494.265 67.3691C492.217 69.6475 489.714 71.4702 488.576 71.4702C487.439 71.4702 482.887 74.6599 478.564 78.3053C471.282 84.4569 464.911 87.191 464.911 84.0013C464.911 83.3177 468.324 79.2167 472.192 75.1156C476.288 70.7867 483.57 63.268 488.121 58.4834C492.9 53.471 496.768 48.6863 496.768 47.775C496.768 45.9523 509.284 33.877 524.075 21.3459C529.309 17.0169 537.956 9.27044 543.19 4.25802C548.196 -0.754398 556.16 -7.3617 560.484 -10.5514C564.807 -13.5133 568.903 -16.7031 569.586 -17.3866C570.269 -18.0701 574.365 -21.2598 578.688 -24.2217C583.012 -27.1836 588.018 -31.0569 589.611 -32.6517C591.204 -34.2466 593.479 -35.6136 594.39 -35.6136C595.3 -35.6136 599.168 -38.1198 602.809 -41.3096C606.45 -44.4993 610.774 -47.0055 612.139 -47.0055C613.732 -47.0055 615.097 -48.1447 615.097 -49.2839C615.097 -50.6509 616.462 -51.5623 618.055 -51.5623C619.648 -51.5623 623.289 -53.6128 626.02 -56.119C628.75 -58.6253 632.391 -60.6758 634.439 -60.6758C636.26 -60.6758 637.853 -61.5871 637.853 -62.4984C637.853 -63.4098 642.859 -66.8273 649.23 -70.017C655.374 -72.979 660.608 -76.1687 660.608 -77.3079C660.608 -78.2192 662.656 -78.9028 665.159 -78.9028C667.662 -78.9028 669.71 -80.042 669.71 -81.1812C669.71 -82.5482 671.758 -83.4595 674.262 -83.4595C676.765 -83.4595 678.813 -84.5988 678.813 -85.7379C678.813 -87.1049 680.861 -88.0163 683.364 -88.0163C685.867 -88.0163 687.915 -89.1555 687.915 -90.2947C687.915 -91.6617 689.28 -92.5731 690.873 -92.5731C692.466 -92.5731 698.155 -94.6236 703.389 -97.1298C708.395 -99.6361 714.311 -101.687 716.359 -101.687C718.18 -101.687 719.773 -102.598 719.773 -103.509C719.773 -104.648 724.779 -106.927 731.15 -108.522C737.294 -110.117 742.528 -112.395 742.528 -113.534C742.528 -114.446 745.486 -115.357 749.355 -115.357C752.996 -115.357 756.181 -116.496 756.181 -117.635C756.181 -119.002 758.685 -119.914 761.87 -119.914C765.056 -119.914 769.38 -120.825 771.655 -121.964C778.254 -125.154 791.453 -129.027 796.686 -129.027C799.189 -129.027 802.148 -130.166 802.83 -131.305C803.513 -132.673 807.609 -133.584 811.933 -133.584C816.256 -133.584 820.352 -134.723 821.035 -135.862C821.717 -137.229 826.951 -138.141 832.413 -138.141C837.874 -138.141 843.108 -139.28 843.79 -140.419C844.473 -141.786 851.072 -142.697 858.354 -142.697C865.636 -142.697 872.235 -143.609 873.6 -144.748C879.289 -150.216 1000.35 -152.494 1037.21 -147.71Z" fill="white" fill-opacity="0.06"/>
<path d="M1064.52 -420.432C1072.03 -419.292 1082.5 -417.698 1087.73 -417.014C1093.19 -416.103 1097.51 -414.736 1097.51 -413.597C1097.51 -412.457 1100.7 -411.546 1104.8 -411.546C1111.85 -411.546 1124.59 -408.356 1132.1 -404.483C1134.38 -403.344 1138.7 -402.432 1141.89 -402.432C1145.07 -402.432 1147.58 -401.521 1147.58 -400.154C1147.58 -399.015 1150.53 -397.876 1154.4 -397.876C1158.04 -397.876 1161.23 -396.964 1161.23 -395.597C1161.23 -394.458 1164.19 -393.319 1168.06 -393.319C1171.7 -393.319 1174.88 -392.408 1174.88 -391.041C1174.88 -389.901 1176.48 -388.762 1178.3 -388.762C1180.12 -388.762 1183.76 -387.851 1186.26 -386.484C1188.76 -385.345 1192.86 -383.294 1195.36 -381.927C1197.87 -380.788 1201.51 -379.649 1203.33 -379.649C1205.15 -379.649 1206.74 -378.737 1206.74 -377.37C1206.74 -376.231 1208.11 -375.092 1209.93 -375.092C1214.02 -375.092 1259.08 -352.308 1263.4 -348.207C1265.22 -346.384 1265.68 -344.334 1264.54 -343.65C1263.4 -342.739 1261.13 -339.777 1259.53 -337.043C1258.17 -334.081 1255.44 -329.524 1253.84 -326.79C1252.48 -323.828 1250.66 -321.094 1249.98 -320.411C1247.7 -318.132 1240.65 -305.601 1239.28 -301.728C1238.6 -299.45 1237.23 -297.627 1236.1 -297.627C1234.96 -297.627 1234.05 -295.576 1234.05 -293.07C1234.05 -290.564 1233.14 -288.513 1232 -288.513C1230.86 -288.513 1229.5 -286.691 1228.81 -284.64C1226.99 -279.172 1219.71 -267.097 1217.44 -266.185C1216.53 -265.73 1215.84 -263.451 1215.84 -260.945C1215.84 -258.667 1214.93 -256.616 1213.8 -256.616C1212.66 -256.616 1211.29 -254.793 1210.61 -252.743C1208.79 -247.275 1201.51 -235.199 1199.23 -234.288C1198.32 -233.832 1197.64 -231.554 1197.64 -229.048C1197.64 -226.77 1196.73 -224.719 1195.59 -224.719C1194.45 -224.719 1193.09 -222.896 1192.4 -220.846C1191.04 -216.745 1183.99 -204.213 1181.71 -201.935C1181.03 -201.252 1179.21 -198.517 1177.61 -195.783C1165.78 -174.139 1166.01 -174.367 1156 -177.784C1151.44 -179.379 1146.89 -181.202 1146.21 -182.113C1145.3 -183.025 1142.57 -183.708 1140.29 -183.708C1138.02 -183.708 1134.38 -184.619 1132.1 -185.759C1125.5 -189.176 1112.31 -192.822 1107.07 -192.822C1104.34 -192.822 1102.07 -193.733 1102.07 -194.872C1102.07 -196.011 1098.65 -197.378 1094.56 -198.062C1090.69 -198.745 1082.72 -200.568 1077.03 -201.935C1071.35 -203.302 1062.93 -205.125 1058.15 -205.808C1053.6 -206.492 1049.05 -207.859 1048.36 -208.998C1047.68 -210.137 1042.9 -211.049 1037.44 -211.049C1031.98 -211.049 1026.97 -211.96 1025.83 -213.099C1024.47 -214.238 1017.41 -215.833 1009.91 -216.517C1002.4 -217.2 986.922 -219.023 975.772 -220.39C950.286 -223.807 847.886 -223.807 823.31 -220.39C813.298 -219.023 799.417 -217.428 792.59 -216.517C785.763 -215.833 779.164 -214.238 777.799 -213.099C776.661 -211.96 771.883 -211.049 767.332 -211.049C762.553 -211.049 758.002 -210.137 757.319 -208.77C756.636 -207.631 752.54 -206.492 748.217 -206.492C743.893 -206.492 739.797 -205.581 739.115 -204.213C738.432 -203.074 735.474 -201.935 732.743 -201.935C727.282 -201.935 711.58 -196.923 709.305 -194.416C708.395 -193.505 705.209 -192.822 702.251 -192.822C699.52 -192.822 697.017 -191.91 697.017 -190.543C697.017 -189.404 693.831 -188.265 690.19 -188.265C686.322 -188.265 683.364 -187.353 683.364 -185.986C683.364 -184.847 681.771 -183.708 679.95 -183.708C678.13 -183.708 674.489 -182.797 671.986 -181.43C669.483 -180.29 665.387 -178.24 662.884 -176.873C660.381 -175.734 656.74 -174.595 654.919 -174.595C653.099 -174.595 651.506 -173.683 651.506 -172.316C651.506 -171.177 649.458 -170.038 646.955 -170.038C644.452 -170.038 642.404 -169.126 642.404 -167.759C642.404 -166.62 640.356 -165.481 638.08 -165.481C635.577 -165.481 633.301 -164.798 632.846 -163.886C632.391 -162.747 627.385 -159.557 621.241 -156.595C615.325 -153.633 610.546 -150.216 610.546 -149.077C610.546 -148.165 608.498 -147.254 605.995 -147.254C603.492 -147.254 601.444 -146.343 601.444 -144.976C601.444 -143.836 600.078 -142.697 598.486 -142.697C596.893 -142.697 593.252 -140.647 590.521 -138.141C587.79 -135.634 584.832 -133.584 583.922 -133.584C583.012 -133.584 578.461 -130.394 574.137 -126.749C569.814 -123.103 565.262 -119.913 564.125 -119.913C562.987 -119.913 560.484 -118.091 558.436 -115.812C556.388 -113.534 551.382 -109.433 547.286 -106.471C539.549 -101.003 502.23 -66.1437 493.582 -56.3466C491.079 -53.3848 484.708 -46.5496 479.702 -41.5372C474.695 -36.2969 468.096 -28.5505 464.911 -24.2216C461.952 -19.8926 458.767 -15.7916 458.084 -15.1081C457.401 -14.4245 454.215 -10.3235 451.257 -5.99454C448.299 -1.66563 444.43 3.34676 442.838 4.94164C441.245 6.53649 438.287 10.8654 436.011 14.5109C433.963 18.3841 431.232 21.346 430.322 21.346C429.412 21.346 428.502 23.3965 428.502 25.9027C428.502 28.409 427.591 30.4595 426.681 30.4595C425.543 30.4595 423.268 33.1936 421.447 36.6111C419.627 40.2566 417.807 43.4463 417.124 44.1298C414.848 46.4081 407.794 58.9393 406.429 62.8125C405.746 65.0909 404.381 66.9136 403.243 66.9136C402.105 66.9136 401.195 68.9641 401.195 71.4703C401.195 73.9765 400.057 76.0271 398.919 76.0271C397.554 76.0271 396.644 78.0776 396.644 80.5838C396.644 83.0901 395.506 85.1406 394.368 85.1406C393.003 85.1406 392.093 87.1911 392.093 89.6974C392.093 92.2035 390.955 94.2541 389.817 94.2541C388.452 94.2541 387.542 96.3046 387.542 98.8108C387.542 101.317 386.404 103.368 385.266 103.368C383.901 103.368 382.991 105.418 382.991 107.924C382.991 110.431 382.08 112.481 381.17 112.481C380.032 112.481 377.757 117.494 376.164 123.873C374.571 130.025 372.295 135.265 371.158 135.265C370.247 135.265 369.337 137.315 369.337 139.594C369.337 142.1 368.199 144.834 367.062 145.518C365.696 146.201 364.786 149.391 364.786 152.581C364.786 155.542 363.648 158.049 362.511 158.049C361.145 158.049 360.235 160.555 360.235 163.517C360.235 166.707 359.097 169.896 357.959 170.58C356.594 171.263 355.684 174.453 355.684 177.415C355.684 180.377 354.546 183.567 353.408 184.25C352.043 184.934 351.133 188.579 351.133 192.452C351.133 196.098 349.995 199.06 348.857 199.06C347.492 199.06 346.582 202.021 346.582 205.895C346.582 209.54 345.444 212.73 344.306 212.73C342.941 212.73 342.031 216.831 342.031 221.615C342.031 226.4 341.12 231.185 339.983 231.868C338.845 232.552 337.48 237.108 336.569 241.665C335.887 246.45 334.294 256.93 332.928 265.132C327.24 299.764 325.647 319.814 324.736 378.824C323.826 421.201 324.281 441.935 325.874 443.529C329.06 446.719 329.06 461.073 326.102 461.073C324.736 461.073 323.826 459.478 323.826 457.655C323.826 455.833 322.688 454.238 321.551 454.238C320.185 454.238 319.275 451.048 319.275 447.403C319.275 443.529 318.137 440.568 317 440.568C315.634 440.568 314.724 437.606 314.724 433.96C314.724 430.087 313.586 426.442 312.448 425.758C311.083 425.075 310.173 421.885 310.173 418.923C310.173 415.961 309.035 412.771 307.897 412.088C306.532 411.404 305.622 407.075 305.622 402.747C305.622 398.418 304.484 395 303.346 395C301.981 395 301.071 390.899 301.071 386.114C301.071 381.33 300.16 376.545 299.023 375.862C298.112 375.178 296.52 369.71 295.609 363.786C294.927 357.635 293.106 347.154 291.968 340.319C290.603 333.484 288.555 317.307 287.417 304.321C286.507 291.334 284.914 280.17 284.004 279.258C281.956 277.208 284.459 184.706 287.19 159.188C288.555 147.796 290.603 132.075 291.968 123.873C293.334 115.671 294.927 104.962 295.609 99.95C296.292 94.9376 297.885 89.9252 299.023 88.5582C300.16 87.419 301.071 83.09 301.071 79.2168C301.071 75.1157 301.981 71.0146 303.346 70.3311C304.484 69.6476 305.622 66.0022 305.622 62.3568C305.622 58.7114 306.532 55.066 307.897 54.3825C309.035 53.699 310.173 50.0536 310.173 46.1804C310.173 42.535 311.083 39.573 312.448 39.573C313.586 39.573 314.724 36.3833 314.724 32.7379C314.724 28.8647 315.634 25.9027 317 25.9027C318.137 25.9027 319.275 23.8522 319.275 21.346C319.275 18.8398 320.185 14.7387 321.551 12.2325C322.688 9.72626 324.736 5.62518 326.102 3.11896C327.24 0.612761 328.377 -3.48831 328.377 -5.99454C328.377 -8.50076 329.288 -10.5513 330.653 -10.5513C331.791 -10.5513 332.928 -12.1462 332.928 -13.9689C332.928 -16.0194 334.976 -21.9432 337.48 -26.9557C339.983 -32.1959 342.031 -37.8919 342.031 -39.4867C342.031 -41.0816 342.941 -42.4486 344.306 -42.4486C345.444 -42.4486 346.582 -44.4991 346.582 -47.0053C346.582 -49.5116 347.492 -51.5621 348.857 -51.5621C349.995 -51.5621 351.133 -53.6127 351.133 -56.1188C351.133 -58.6251 352.043 -60.6756 353.408 -60.6756C354.546 -60.6756 355.684 -62.7261 355.684 -65.2324C355.684 -67.7386 356.594 -69.7891 357.732 -69.7891C358.87 -69.7891 360.235 -71.6118 360.918 -73.8902C362.738 -79.1304 370.02 -91.2059 372.068 -92.1172C373.206 -92.5729 373.888 -94.3956 373.888 -96.2183C373.888 -98.041 375.936 -101.686 378.439 -104.421C380.943 -107.155 382.991 -110.8 382.991 -112.395C382.991 -113.99 383.901 -115.357 385.266 -115.357C386.404 -115.357 387.542 -116.724 387.542 -118.319C387.542 -119.686 390.727 -124.698 394.368 -129.027C398.009 -133.356 401.195 -138.368 401.195 -139.963C401.195 -141.33 402.105 -142.697 403.015 -142.697C403.926 -142.697 406.656 -145.659 408.704 -149.532C410.98 -153.178 413.938 -157.507 415.531 -159.102C417.124 -160.696 420.992 -165.709 423.951 -170.038C426.909 -174.367 432.143 -180.518 435.328 -183.708C438.514 -186.898 443.975 -193.505 447.616 -198.29C456.263 -209.909 497.906 -251.604 509.511 -260.261C514.29 -263.907 520.662 -269.147 523.392 -271.881C526.123 -274.615 532.494 -279.628 537.046 -283.273C541.824 -286.691 547.741 -291.475 550.016 -293.754C552.519 -295.804 555.705 -297.627 557.07 -297.627C558.436 -297.627 560.939 -299.678 562.759 -302.184C564.58 -304.69 567.083 -306.74 568.448 -306.74C569.814 -306.74 572.999 -308.563 575.502 -310.842C577.778 -312.892 582.557 -316.082 585.97 -317.905C589.611 -319.727 592.341 -322.006 592.341 -323.145C592.341 -324.056 594.389 -324.967 596.893 -324.967C599.396 -324.967 601.444 -325.879 601.444 -326.79C601.444 -327.929 604.174 -330.208 607.588 -332.03C611.229 -333.853 614.414 -335.676 615.097 -336.359C616.235 -337.499 632.164 -346.157 641.721 -350.941C644.679 -352.308 646.955 -354.131 646.955 -355.27C646.955 -356.181 648.32 -356.865 650.14 -356.865C652.644 -356.865 667.435 -363.472 686.094 -373.041C688.37 -374.18 691.783 -375.092 693.604 -375.092C695.424 -375.092 697.017 -376.231 697.017 -377.37C697.017 -378.737 699.065 -379.649 701.34 -379.649C703.844 -379.649 706.574 -380.788 707.257 -381.927C707.94 -383.294 711.125 -384.205 714.311 -384.205C717.269 -384.205 719.772 -385.345 719.772 -386.484C719.772 -387.851 722.731 -388.762 726.599 -388.762C730.24 -388.762 733.426 -389.901 733.426 -391.04C733.426 -392.407 735.929 -393.319 738.887 -393.319C742.073 -393.319 745.259 -394.458 745.941 -395.597C746.624 -396.964 749.81 -397.876 752.768 -397.876C755.726 -397.876 758.912 -399.015 759.595 -400.154C760.277 -401.521 763.918 -402.432 767.559 -402.432C771.2 -402.432 774.841 -403.572 775.523 -404.711C776.206 -406.078 780.53 -406.989 784.853 -406.989C789.177 -406.989 792.59 -408.128 792.59 -409.268C792.59 -410.635 796.459 -411.546 801.237 -411.546C806.016 -411.546 810.795 -412.457 811.932 -413.597C814.208 -415.647 822.627 -417.014 844.928 -419.748C850.617 -420.432 857.216 -421.799 859.719 -422.938C867.683 -426.355 896.583 -428.178 955.292 -428.178C1008.54 -428.406 1026.97 -427.039 1064.52 -420.432Z" fill="white" fill-opacity="0.06"/>
<path d="M348.63 -448C353.863 -448 355.911 -446.405 358.415 -441.165C360.007 -437.52 362.055 -434.33 362.966 -434.33C364.103 -434.33 364.786 -432.279 364.786 -429.773C364.786 -427.267 365.696 -425.216 366.834 -425.216C367.972 -425.216 369.337 -423.394 370.02 -421.343C371.84 -415.875 379.122 -403.8 381.17 -402.888C382.308 -402.433 382.991 -400.154 382.991 -397.648C382.991 -395.37 383.901 -393.319 385.039 -393.319C386.176 -393.319 387.542 -391.496 388.224 -389.446C390.045 -383.978 397.327 -371.902 399.375 -370.991C400.512 -370.535 401.195 -368.257 401.195 -365.751C401.195 -363.472 402.105 -361.422 403.243 -361.422C404.381 -361.422 405.746 -359.599 406.429 -357.548C407.794 -353.447 414.848 -340.916 417.124 -338.638C418.262 -337.499 426.909 -321.55 431.687 -311.981C433.053 -309.019 434.873 -306.741 435.783 -306.741C436.921 -306.741 437.604 -304.69 437.604 -302.184C437.604 -299.678 438.514 -297.627 439.652 -297.627C440.79 -297.627 442.838 -294.665 444.43 -290.792C446.023 -287.147 448.071 -283.957 449.209 -283.957C452.167 -283.957 451.712 -277.122 448.299 -273.932C446.934 -272.565 441.927 -268.692 437.604 -265.73C427.136 -258.439 358.415 -189.404 351.133 -179.151C348.175 -174.823 342.941 -168.671 339.755 -165.481C336.569 -162.291 331.336 -156.14 328.377 -151.811C325.191 -147.482 321.096 -141.786 318.82 -139.508C316.544 -137.001 314.724 -134.04 314.724 -132.9C314.724 -131.761 312.903 -129.027 310.628 -126.977C308.58 -124.926 305.394 -120.597 303.574 -117.18C301.753 -113.534 299.478 -110.8 298.34 -110.8C297.43 -110.8 296.52 -109.433 296.52 -107.838C296.52 -106.243 294.699 -102.826 292.424 -100.32C290.376 -98.0412 287.19 -93.2565 285.369 -89.839C283.549 -86.1936 281.273 -83.4595 280.136 -83.4595C279.225 -83.4595 278.315 -81.4089 278.315 -79.1306C278.315 -76.6243 277.632 -74.346 276.495 -73.8903C273.992 -72.7511 268.303 -62.2706 256.697 -37.892C251.008 -26.0444 245.32 -14.4246 244.182 -12.3741C242.816 -10.0957 241.906 -6.67817 241.906 -4.85548C241.906 -3.03278 240.996 -1.43794 240.086 -1.43794C238.948 -1.43794 236.672 3.57452 235.08 9.95397C233.487 16.1056 231.211 21.3459 230.073 21.3459C229.163 21.3459 228.253 23.8522 228.253 26.814C228.253 30.0038 227.115 33.1934 225.977 33.8769C224.612 34.5605 223.702 37.7502 223.702 40.7121C223.702 43.674 222.564 46.8637 221.426 47.5472C220.061 48.2308 219.151 51.8761 219.151 55.7493C219.151 59.3947 218.241 62.3567 217.103 62.3567C215.965 62.3567 214.6 65.7743 213.917 69.6475C213.234 73.7486 211.414 81.7229 210.049 87.4189C208.683 93.1148 206.863 101.773 206.408 106.785C205.725 111.797 204.36 117.949 203.222 120.455C199.353 129.341 197.988 153.264 197.761 213.869C197.761 252.601 198.671 280.853 200.264 290.195C205.27 316.624 207.545 327.56 209.821 336.901C211.186 341.914 212.779 348.977 213.462 352.85C214.372 356.495 215.737 361.736 216.875 364.242C217.785 366.748 219.833 373.355 221.426 379.051C222.792 384.747 225.067 391.127 226.205 393.177C227.343 395.456 228.253 398.873 228.253 400.696C228.253 402.519 229.163 404.113 230.529 404.113C231.666 404.113 232.804 406.164 232.804 408.442C232.804 410.949 233.714 413.683 235.08 414.366C236.217 415.05 237.355 418.239 237.355 421.429C237.355 424.391 238.265 426.897 239.631 426.897C240.768 426.897 241.906 428.264 241.906 429.859C241.906 433.049 247.823 446.719 256.015 462.212C258.745 467.225 262.841 475.427 265.344 480.439C267.848 485.452 270.578 489.78 271.716 490.236C272.854 490.692 273.764 492.97 273.764 495.476C273.764 497.755 274.674 499.805 275.812 499.805C276.95 499.805 278.315 501.628 278.998 503.679C280.363 507.78 287.417 520.311 289.693 522.589C290.376 523.273 292.196 526.462 294.016 529.88C295.837 533.525 298.112 536.259 299.25 536.259C300.16 536.259 301.071 537.626 301.071 539.449C301.071 541.044 304.029 545.601 307.897 549.474C311.538 553.575 314.724 557.676 314.724 558.587C314.724 559.727 317.455 563.6 320.868 567.473C324.509 571.119 330.88 578.637 335.204 584.105C346.582 598.687 360.69 613.952 382.763 635.141C393.231 645.394 405.063 656.786 408.932 660.431C412.8 664.304 419.627 669.772 423.951 672.962C428.274 675.924 433.508 680.253 435.556 682.531C437.604 684.81 440.107 686.632 441.245 686.632C442.383 686.632 446.251 689.366 450.119 693.012C453.76 696.429 459.677 700.53 463.09 702.353C466.731 704.176 469.462 706.454 469.462 707.593C469.462 708.505 470.827 709.416 472.42 709.416C474.013 709.416 477.426 711.239 479.929 713.289C482.205 715.568 486.983 718.757 490.397 720.58C494.038 722.403 496.768 724.681 496.768 725.82C496.768 726.732 498.816 727.643 501.319 727.643C503.822 727.643 505.87 728.327 505.87 729.238C505.87 730.377 508.146 732.2 511.104 733.567C524.758 740.402 536.59 747.237 537.273 748.604C537.728 749.743 540.004 750.427 542.507 750.427C544.782 750.427 546.83 751.338 546.83 752.705C546.83 753.845 548.878 754.984 551.382 754.984C553.885 754.984 555.933 755.895 555.933 757.262C555.933 758.401 557.526 759.54 559.346 759.54C561.166 759.54 564.58 760.452 566.855 761.591C568.903 762.73 572.772 764.553 575.275 765.464C578.688 766.831 577.095 767.515 568.676 768.198C562.532 768.654 556.843 767.97 556.16 766.831C555.478 765.692 550.699 764.097 545.693 763.414C540.686 762.73 532.039 760.907 526.35 759.54C520.662 758.173 512.697 756.351 508.601 755.667C504.733 754.984 501.319 753.617 501.319 752.477C501.319 751.338 498.134 750.427 494.493 750.427C490.624 750.427 487.666 749.288 487.666 748.149C487.666 746.782 484.48 745.87 480.839 745.87C476.971 745.87 474.013 744.731 474.013 743.592C474.013 742.225 471.965 741.313 469.462 741.313C466.958 741.313 462.863 740.402 460.359 739.035C457.856 737.668 453.76 735.617 451.257 734.478C448.754 733.111 444.658 732.2 442.155 732.2C439.652 732.2 437.604 731.061 437.604 729.922C437.604 728.555 435.556 727.643 433.053 727.643C430.55 727.643 428.502 726.504 428.502 725.365C428.502 723.998 427.136 723.086 425.543 723.086C423.723 723.086 418.944 721.492 414.621 719.441C389.362 707.366 373.888 699.163 373.888 697.569C373.888 696.657 371.84 695.746 369.337 695.746C366.834 695.746 364.786 694.607 364.786 693.467C364.786 692.1 363.193 691.189 361.373 691.189C359.325 691.189 355.684 689.139 352.953 686.632C350.223 684.126 346.582 682.076 344.989 682.076C343.396 682.076 342.031 680.936 342.031 679.797C342.031 678.43 340.665 677.519 339.072 677.519C337.48 677.519 333.839 675.468 331.108 672.962C328.377 670.456 325.419 668.405 324.509 668.405C323.599 668.405 319.048 665.216 314.724 661.57C310.4 657.925 305.622 654.735 304.484 654.735C303.119 654.735 300.616 652.685 298.795 650.178C296.975 647.672 294.472 645.622 293.106 645.622C291.968 645.622 285.597 640.837 279.453 635.141C273.081 629.217 264.434 621.926 260.111 618.509C249.416 610.535 209.821 570.663 201.857 559.727C198.216 554.942 192.754 548.563 189.569 545.373C186.383 542.183 181.149 536.032 178.191 531.703C175.005 527.374 170.909 521.678 168.633 519.399C166.358 516.893 164.537 513.703 164.537 512.336C164.537 510.969 162.489 508.463 159.986 506.64C157.483 504.818 155.435 502.312 155.435 500.945C155.435 499.578 153.615 496.388 151.339 493.882C149.291 491.603 146.105 486.819 144.285 483.173C142.465 479.756 140.189 477.022 139.051 477.022C138.141 477.022 137.231 475.427 137.231 473.604C137.231 471.553 135.183 467.908 132.68 465.174C130.177 462.44 128.129 458.794 128.129 457.2C128.129 455.605 127.446 454.238 126.308 454.238C125.398 454.238 122.212 448.997 119.254 442.846C116.068 436.466 112.655 431.454 111.745 431.454C110.834 431.454 109.924 429.403 109.924 426.897C109.924 424.391 108.786 422.34 107.649 422.34C106.283 422.34 105.373 420.973 105.373 419.379C105.373 417.784 102.415 410.493 98.5464 402.974C94.9055 395.456 91.7198 387.481 91.7198 385.203C91.7198 383.152 90.582 381.33 89.4442 381.33C88.0789 381.33 87.1686 379.279 87.1686 377.001C87.1686 374.495 86.0309 371.76 84.8931 371.077C83.5278 370.393 82.6175 367.204 82.6175 364.014C82.6175 361.052 81.7073 358.546 80.7971 358.546C79.8869 358.546 77.8389 353.761 76.246 347.61C74.4255 341.686 72.15 335.079 71.0122 333.028C69.8744 330.75 68.9642 326.876 68.9642 324.598C68.9642 322.092 67.8264 319.358 66.6887 318.674C65.3233 317.991 64.4131 314.345 64.4131 310.472C64.4131 306.827 63.5029 303.865 62.3651 303.865C61.2273 303.865 59.862 300.447 59.1793 296.346C58.4967 292.473 56.6762 284.499 55.3109 278.803C53.9456 273.107 52.1251 264.905 51.67 260.576C50.9873 256.247 49.622 250.551 48.4842 248.044C46.4362 243.26 44.6158 230.273 42.5678 202.477C41.8851 193.591 40.2922 185.617 39.1545 184.25C36.4238 181.288 38.0167 54.1545 41.2025 30.4594C42.5678 21.118 44.1607 8.13129 45.0709 1.97967C45.7536 -4.39978 47.3464 -11.4628 48.4842 -13.969C49.622 -16.4752 50.9873 -22.6268 51.8976 -27.6393C52.5802 -32.6517 53.718 -40.626 54.4007 -45.4106C55.3109 -49.9673 56.6762 -54.524 57.814 -55.2076C58.9518 -55.8911 59.862 -59.3087 59.862 -62.9541C59.862 -66.5995 60.7722 -70.2449 62.1375 -70.9285C63.2753 -71.6119 64.4131 -75.9409 64.4131 -80.2698C64.4131 -84.5987 65.3233 -88.0163 66.6886 -88.0163C67.8264 -88.0163 68.9642 -90.9782 68.9642 -94.6237C68.9642 -98.4969 69.8744 -102.142 71.2397 -102.826C72.3775 -103.509 73.5153 -106.699 73.5153 -109.889C73.5153 -112.851 74.4255 -115.357 75.7909 -115.357C76.9286 -115.357 78.0664 -117.407 78.0664 -119.914C78.0664 -122.42 79.2042 -126.749 80.7971 -129.711C86.2584 -140.647 87.1686 -142.697 87.1686 -147.254C87.1686 -149.76 88.0788 -151.811 89.4442 -151.811C90.5819 -151.811 91.7197 -153.861 91.7197 -156.368C91.7197 -158.874 92.6299 -160.924 93.9953 -160.924C95.1331 -160.924 96.2708 -162.291 96.2708 -163.886C96.2708 -167.304 114.93 -205.125 117.206 -206.036C118.344 -206.492 119.026 -208.77 119.026 -211.276C119.026 -213.555 119.937 -215.605 121.302 -215.605C122.44 -215.605 123.577 -217.656 123.577 -220.162C123.577 -222.668 124.488 -224.719 125.853 -224.719C126.991 -224.719 128.129 -226.086 128.129 -227.681C128.129 -229.276 130.177 -232.921 132.68 -235.655C135.183 -238.389 137.231 -242.035 137.231 -244.085C137.231 -245.908 138.141 -247.503 139.051 -247.503C140.189 -247.503 142.465 -250.237 144.285 -253.882C146.105 -257.3 149.291 -261.629 151.339 -263.679C153.615 -265.73 155.435 -268.236 155.435 -269.375C155.435 -270.514 157.938 -274.388 161.124 -278.033C164.31 -281.678 166.813 -285.324 166.813 -286.235C166.813 -287.147 170.454 -291.931 174.777 -296.716C179.101 -301.5 182.742 -306.285 182.742 -307.196C182.742 -308.336 188.203 -314.487 194.575 -321.322C201.174 -327.93 210.276 -337.271 214.827 -342.283C228.708 -357.321 266.255 -392.408 274.219 -398.104C278.315 -401.065 282.184 -404.027 282.866 -404.711C283.549 -405.395 287.645 -408.584 291.968 -411.546C296.292 -414.736 301.981 -418.837 304.256 -421.115C306.759 -423.394 310.173 -425.216 311.766 -425.216C313.359 -425.216 314.724 -426.128 314.724 -427.039C314.724 -428.178 317.455 -430.457 320.868 -432.279C324.509 -434.102 329.287 -437.292 331.563 -439.57C334.066 -441.621 337.479 -443.443 339.072 -443.443C340.665 -443.443 342.031 -444.583 342.031 -445.722C342.031 -447.089 344.989 -448 348.63 -448Z" fill="white" fill-opacity="0.06"/>
</g>
<defs>
<clipPath id="clip0_401_1695">
<rect width="1686" height="1830" fill="white" transform="translate(-195 1238) rotate(-90)"/>
</clipPath>
</defs>
</svg>
